<svg xmlns="http://www.w3.org/2000/svg" xmlns:xlink="http://www.w3.org/1999/xlink" width="117.999" height="118" viewBox="0 0 117.999 118">
  <defs>
    <filter id="Trazado_874925" x="0" y="0" width="117.999" height="118" filterUnits="userSpaceOnUse">
      <feOffset dy="3" input="SourceAlpha"/>
      <feGaussianBlur stdDeviation="3" result="blur"/>
      <feFlood flood-opacity="0.161"/>
      <feComposite operator="in" in2="blur"/>
      <feComposite in="SourceGraphic"/>
    </filter>
  </defs>
  <g id="Grupo_1188151" data-name="Grupo 1188151" transform="translate(-799.5 -2511.157)">
    <g id="Grupo_1111316" data-name="Grupo 1111316" transform="translate(808.5 2517.157)">
      <g id="Grupo_1109835" data-name="Grupo 1109835" transform="translate(0 0)">
        <g id="Grupo_1107913" data-name="Grupo 1107913" transform="translate(0 0)">
          <g transform="matrix(1, 0, 0, 1, -9, -6)" filter="url(#Trazado_874925)">
            <g id="Trazado_874925-2" data-name="Trazado 874925" transform="translate(9 6)" fill="#9ad354" opacity="0.859">
              <path d="M 49.99972534179688 98.4998779296875 C 43.45164108276367 98.4998779296875 37.10022354125977 97.21776580810547 31.12189674377441 94.68914794921875 C 25.34676742553711 92.24647521972656 20.15985298156738 88.74925994873047 15.70523929595947 84.29464721679688 C 11.25062561035156 79.84004974365234 7.753411293029785 74.65313720703125 5.310725212097168 68.87800598144531 C 2.782111167907715 62.89969253540039 1.499996781349182 56.54829406738281 1.499996781349182 50.00022125244141 C 1.499996781349182 43.45157623291016 2.782111167907715 37.10017776489258 5.310725212097168 31.12186431884766 C 7.753411293029785 25.34673500061035 11.25062561035156 20.15983581542969 15.70523929595947 15.70522117614746 C 20.15985298156738 11.25062084197998 25.34676742553711 7.753406524658203 31.12189674377441 5.31073522567749 C 37.10022354125977 2.782120943069458 43.45164108276367 1.500006556510925 49.99972534179688 1.500006556510925 C 56.54780960083008 1.500006556510925 62.89922714233398 2.782120943069458 68.87755584716797 5.31073522567749 C 74.65267944335938 7.753406524658203 79.839599609375 11.25062084197998 84.29421234130859 15.70522117614746 C 88.74882507324219 20.15983581542969 92.24604034423828 25.34673500061035 94.68872833251953 31.12186431884766 C 97.21733856201172 37.10017776489258 98.49945068359375 43.45157623291016 98.49945068359375 49.99964904785156 C 98.49945068359375 56.54829406738281 97.21733856201172 62.89969253540039 94.68872833251953 68.87800598144531 C 92.24604034423828 74.65313720703125 88.74882507324219 79.84004974365234 84.29421234130859 84.29464721679688 C 79.839599609375 88.74925994873047 74.65267944335938 92.24647521972656 68.87755584716797 94.68914794921875 C 62.89922714233398 97.21776580810547 56.54780960083008 98.4998779296875 49.99972534179688 98.4998779296875 Z" stroke="none"/>
              <path d="M 49.99972534179688 3 C 43.65348052978516 3 37.49866485595703 4.242240905761719 31.70623016357422 6.692230224609375 C 26.10989379882812 9.059272766113281 21.08323669433594 12.44853210449219 16.76589202880859 16.76587677001953 C 12.44855499267578 21.08321380615234 9.059295654296875 26.10985565185547 6.692230224609375 31.70618438720703 C 4.24224853515625 37.49859619140625 3 43.65341186523438 3 50.00022888183594 C 3 56.34645843505859 4.24224853515625 62.50127410888672 6.692230224609375 68.29368591308594 C 9.059295654296875 73.8900146484375 12.44855499267578 78.91665649414062 16.76589202880859 83.23399353027344 C 21.08323669433594 87.55132293701172 26.10989379882812 90.94059753417969 31.70623016357422 93.30764007568359 C 37.49866485595703 95.75762939453125 43.65348052978516 96.99987030029297 49.99972534179688 96.99987030029297 C 56.34597015380859 96.99987030029297 62.50078582763672 95.75762939453125 68.293212890625 93.30764007568359 C 73.88955688476562 90.94059753417969 78.91621398925781 87.55132293701172 83.23355865478516 83.23399353027344 C 87.55089569091797 78.91665649414062 90.94015502929688 73.8900146484375 93.30722045898438 68.29368591308594 C 95.7572021484375 62.50127410888672 96.99945068359375 56.34645843505859 96.99945068359375 49.99964141845703 C 96.99945068359375 43.65341186523438 95.7572021484375 37.49859619140625 93.30722045898438 31.70618438720703 C 90.94015502929688 26.10985565185547 87.55089569091797 21.08321380615234 83.23355865478516 16.76587677001953 C 78.91621398925781 12.44853210449219 73.88955688476562 9.059272766113281 68.293212890625 6.692230224609375 C 62.50078582763672 4.242240905761719 56.34597015380859 3 49.99972534179688 3 M 49.99972534179688 0 C 77.61381530761719 0 99.99945068359375 22.38559722900391 99.99945068359375 49.99964141845703 L 99.99945068359375 50.00022888183594 C 99.99945068359375 77.6142578125 77.61381530761719 99.99987030029297 49.99972534179688 99.99987030029297 C 22.38563537597656 99.99987030029297 0 77.6142578125 0 50.00022888183594 L 0 49.99964141845703 C 0 22.38559722900391 22.38563537597656 0 49.99972534179688 0 Z" stroke="none" fill="#fff"/>
            </g>
          </g>
          <g id="Trazado_874923" data-name="Trazado 874923" transform="translate(0 0)" fill="none">
            <path d="M50,0a50,50,0,0,1,50,50h0A50,50,0,0,1,0,50H0A50,50,0,0,1,50,0Z" stroke="none"/>
            <path d="M 49.99972534179688 3 C 43.65348052978516 3 37.49866485595703 4.242240905761719 31.70623016357422 6.692230224609375 C 26.10989379882812 9.059272766113281 21.08323669433594 12.44853210449219 16.76589202880859 16.76587677001953 C 12.44855499267578 21.08321380615234 9.059295654296875 26.10985565185547 6.692230224609375 31.70618438720703 C 4.24224853515625 37.49859619140625 3 43.65341186523438 3 50.00022888183594 C 3 56.34645843505859 4.24224853515625 62.50127410888672 6.692230224609375 68.29368591308594 C 9.059295654296875 73.8900146484375 12.44855499267578 78.91665649414062 16.76589202880859 83.23399353027344 C 21.08323669433594 87.55132293701172 26.10989379882812 90.94059753417969 31.70623016357422 93.30764007568359 C 37.49866485595703 95.75762939453125 43.65348052978516 96.99987030029297 49.99972534179688 96.99987030029297 C 56.34597015380859 96.99987030029297 62.50078582763672 95.75762939453125 68.293212890625 93.30764007568359 C 73.88955688476562 90.94059753417969 78.91621398925781 87.55132293701172 83.23355865478516 83.23399353027344 C 87.55089569091797 78.91665649414062 90.94015502929688 73.8900146484375 93.30722045898438 68.29368591308594 C 95.7572021484375 62.50127410888672 96.99945068359375 56.34645843505859 96.99945068359375 49.99964141845703 C 96.99945068359375 43.65341186523438 95.7572021484375 37.49859619140625 93.30722045898438 31.70618438720703 C 90.94015502929688 26.10985565185547 87.55089569091797 21.08321380615234 83.23355865478516 16.76587677001953 C 78.91621398925781 12.44853210449219 73.88955688476562 9.059272766113281 68.293212890625 6.692230224609375 C 62.50078582763672 4.242240905761719 56.34597015380859 3 49.99972534179688 3 M 49.99972534179688 0 C 77.61381530761719 0 99.99945068359375 22.38559722900391 99.99945068359375 49.99964141845703 L 99.99945068359375 50.00022888183594 C 99.99945068359375 77.6142578125 77.61381530761719 99.99987030029297 49.99972534179688 99.99987030029297 C 22.38563537597656 99.99987030029297 0 77.6142578125 0 50.00022888183594 L 0 49.99964141845703 C 0 22.38559722900391 22.38563537597656 0 49.99972534179688 0 Z" stroke="none" fill="#fff"/>
          </g>
        </g>
      </g>
    </g>
    <g id="_03-Shopping_box" data-name="03-Shopping box" transform="translate(826.501 2535.157)">
      <path id="Trazado_1049208" data-name="Trazado 1049208" d="M13,5H51V38H13Z" fill="#fad27a"/>
      <path id="Trazado_1049209" data-name="Trazado 1049209" d="M51,5l3,2V20H51Z" fill="#d28e43"/>
      <path id="Trazado_1049210" data-name="Trazado 1049210" d="M13,5,10,7V20h3Z" fill="#d28e43"/>
      <path id="Trazado_1049211" data-name="Trazado 1049211" d="M13,5,12,1H52L51,5Z" fill="#e5aa5c"/>
      <path id="Trazado_1049212" data-name="Trazado 1049212" d="M19.123,4a4,4,0,0,1-3.87-3H12l1,4H51l.25-1Z" fill="#d28e43"/>
      <path id="Trazado_1049213" data-name="Trazado 1049213" d="M45.06,26.1a5.446,5.446,0,0,1,4.13-.91L49,25a4.055,4.055,0,0,1-.886-1.915A6.22,6.22,0,0,0,45.06,24.1L45,24v2Z" fill="#e6bd65"/>
      <path id="Trazado_1049214" data-name="Trazado 1049214" d="M50,20a3.418,3.418,0,0,1,1-2.324v-2A3.418,3.418,0,0,0,50,18a1.959,1.959,0,0,0-2,2,5.337,5.337,0,0,0,.14,1.223A2.071,2.071,0,0,1,50,20Z" fill="#e6bd65"/>
      <path id="Trazado_1049215" data-name="Trazado 1049215" d="M23,12H45a2,2,0,0,1,1.721,1A1.963,1.963,0,0,0,47,12a2.006,2.006,0,0,0-2-2H23a2.006,2.006,0,0,0-2,2,1.975,1.975,0,0,0,.279,1A2,2,0,0,1,23,12Z" fill="#e6bd65"/>
      <path id="Trazado_1049216" data-name="Trazado 1049216" d="M20.01,18.02c.9.91,1.9,1.94,2.93,3.03L23,21V19l-.06.05c-1.03-1.09-2.03-2.12-2.93-3.03a13.194,13.194,0,0,0-1.39-1.22A17.383,17.383,0,0,0,13,12v2a17.383,17.383,0,0,1,5.62,2.8,13.194,13.194,0,0,1,1.39,1.22Z" fill="#e6bd65"/>
      <path id="Trazado_1049217" data-name="Trazado 1049217" d="M51,15.676v2A2.894,2.894,0,0,1,53,17a2.7,2.7,0,0,1,1,.184v-2A2.7,2.7,0,0,0,53,15a2.894,2.894,0,0,0-2,.676Z" fill="#a15c27"/>
      <path id="Trazado_1049218" data-name="Trazado 1049218" d="M13,14V12a23.094,23.094,0,0,0-3-.679v2A23.1,23.1,0,0,1,13,14Z" fill="#a15c27"/>
      <path id="Trazado_1049219" data-name="Trazado 1049219" d="M33,47a3.89,3.89,0,0,0,.54,2H29.29A7.991,7.991,0,0,0,32,43Z" fill="#8a4f21"/>
      <path id="Trazado_1049220" data-name="Trazado 1049220" d="M16.47,45.69,8,44l2.46-3.44a3.443,3.443,0,0,0,.44.41L16,45.02l.36.35a3.005,3.005,0,0,0,.11.32Z" fill="#8a4f21"/>
      <path id="Trazado_1049221" data-name="Trazado 1049221" d="M51.07,38.42c.19-.19.37-.38.55-.56L56,44l-8.68,1.74L48,43a3.707,3.707,0,0,0-.3-1.49c1.18-1,2.31-2.04,3.37-3.09Z" fill="#8a4f21"/>
      <path id="Trazado_1049222" data-name="Trazado 1049222" d="M8,49H56V61a2,2,0,0,1-2,2H10a2,2,0,0,1-2-2Z" fill="#fad27a"/>
      <path id="Trazado_1049223" data-name="Trazado 1049223" d="M46,49V46l10-2v5Z" fill="#e5aa5c"/>
      <path id="Trazado_1049224" data-name="Trazado 1049224" d="M18,49V46L8,44v5Z" fill="#e5aa5c"/>
      <path id="Trazado_1049225" data-name="Trazado 1049225" d="M54,60H22a8,8,0,0,1-8-8V49H8V61a2,2,0,0,0,2,2H54a2,2,0,0,0,2-2V58A2,2,0,0,1,54,60Z" fill="#f5b662"/>
      <path id="Trazado_1049226" data-name="Trazado 1049226" d="M56,44,46,46v1l10-1.818Z" fill="#fad27a"/>
      <path id="Trazado_1049227" data-name="Trazado 1049227" d="M8,44v1.182L18,47V46Z" fill="#fad27a"/>
      <ellipse id="Elipse_12066" data-name="Elipse 12066" cx="7" cy="3" rx="7" ry="3" transform="translate(25 53)" fill="#88ab00"/>
      <path id="Trazado_1049228" data-name="Trazado 1049228" d="M51.15,22.18c-1.13-.16-1.85,1.08-1.61,2.78.02.12.04.23.07.35a3.311,3.311,0,0,0-.42-.12L49,25a4.38,4.38,0,0,1-1-3,1.959,1.959,0,0,1,2-2,2.938,2.938,0,0,1,3-3c2.67,0,2.96,3.18,2.99,3.87a1.454,1.454,0,0,0-.18.16l-.58.58c-.15-1.15-.54-1.97-1-1.97-.6,0-1.08,1.33-1.08,2.97a8.009,8.009,0,0,0,.07,1.01l-.17.17a2.916,2.916,0,0,0-1.9-1.61Z" fill="#628c1b"/>
      <path id="Trazado_1049229" data-name="Trazado 1049229" d="M60.36,25.77c0-.46-.82-.85-1.97-1l.58-.58a1.454,1.454,0,0,0,.16-.18c.69.03,3.87.31,3.87,2.99a2.938,2.938,0,0,1-3,3,1.959,1.959,0,0,1-2,2,4.38,4.38,0,0,1-3-1l-.19-.19a3.312,3.312,0,0,0-.12-.42c.12.03.23.05.35.07,1.7.24,2.94-.48,2.78-1.61a2.916,2.916,0,0,0-1.61-1.9l.17-.17a8.009,8.009,0,0,0,1.01.07c1.64,0,2.97-.48,2.97-1.08Z" fill="#628c1b"/>
      <path id="Trazado_1049230" data-name="Trazado 1049230" d="M49.54,24.96c-.24-1.7.48-2.94,1.61-2.78a2.916,2.916,0,0,1,1.9,1.61l.17-.17a8.009,8.009,0,0,1-.07-1.01c0-1.64.48-2.97,1.08-2.97.46,0,.85.82,1,1.97l.58-.58a1.454,1.454,0,0,1,.18-.16c.99-.84,3.23-1.74,4.05-.91s-.07,3.06-.91,4.05a1.454,1.454,0,0,1-.16.18l-.58.58c1.15.15,1.97.54,1.97,1,0,.6-1.33,1.08-2.97,1.08a8.009,8.009,0,0,1-1.01-.07l-.17.17a2.916,2.916,0,0,1,1.61,1.9c.16,1.13-1.08,1.85-2.78,1.61-.12-.02-.23-.04-.35-.07a7.647,7.647,0,0,0-2.04-3.04,7.755,7.755,0,0,0-3.04-2.04c-.03-.12-.05-.23-.07-.35Z" fill="#a1c203"/>
      <path id="Trazado_1049231" data-name="Trazado 1049231" d="M39.6,35a13.687,13.687,0,0,0,.4-3.33,3.223,3.223,0,0,0-.14-.93c.57-.62,1.14-1.23,1.72-1.81a18.166,18.166,0,0,1,3.48-2.83,5.446,5.446,0,0,1,4.13-.91,3.311,3.311,0,0,1,.42.12,7.755,7.755,0,0,1,3.04,2.04,7.647,7.647,0,0,1,2.04,3.04,3.311,3.311,0,0,1,.12.42c.45,1.98-.46,4.17-3.19,7.05-.18.18-.36.37-.55.56-1.06,1.05-2.19,2.09-3.37,3.09A3.976,3.976,0,0,0,44,39a2.427,2.427,0,0,0-1.85.63L42,39.54V37a2.015,2.015,0,0,0-2-2,1.752,1.752,0,0,0-.4.04Z" fill="#e4ffa3"/>
      <path id="Trazado_1049232" data-name="Trazado 1049232" d="M38.08,23.13a10.073,10.073,0,0,1,1.92.54S38.9,26.98,32.73,27H32V25.67c.3-1.58,2-2.67,4.67-2.67h.1a1.77,1.77,0,0,1,.23.01,6.611,6.611,0,0,1,1.08.12Z" fill="#88ab00"/>
      <path id="Trazado_1049233" data-name="Trazado 1049233" d="M26,35l-1.97-1.97.03-.03c-.04-.44-.06-.88-.06-1.33,0-2.03,1.94-3.76,4.66-4.4A9.834,9.834,0,0,1,31.01,27h2.02c3.37,0,6.19,1.61,6.83,3.74a3.223,3.223,0,0,1,.14.93A13.687,13.687,0,0,1,39.6,35v.04A2.014,2.014,0,0,0,38,37v2.54l-.15.09A2.427,2.427,0,0,0,36,39a4,4,0,0,0-4,4c0-3.36-2.07-5.08-5-5.7V37l2-3Z" fill="#db3744"/>
      <path id="Trazado_1049234" data-name="Trazado 1049234" d="M46,46v3H43.46A3.89,3.89,0,0,0,44,47V43a4.025,4.025,0,0,0-1.17-2.83,3.937,3.937,0,0,0-.68-.54A2.427,2.427,0,0,1,44,39a3.976,3.976,0,0,1,3.7,2.51A3.707,3.707,0,0,1,48,43l-.68,2.74Z" fill="#faab1b"/>
      <path id="Trazado_1049235" data-name="Trazado 1049235" d="M36,47a3.89,3.89,0,0,0,.54,2h-3A3.89,3.89,0,0,1,33,47l-1-4a4,4,0,0,1,4-4,2.427,2.427,0,0,1,1.85.63A3.993,3.993,0,0,0,36,43Z" fill="#faab1b"/>
      <path id="Trazado_1049236" data-name="Trazado 1049236" d="M9.28,37.81l-6.31-.48a1.852,1.852,0,0,1-1.15-.54l-.28-.28a1.833,1.833,0,0,1,1.79-3.06l5.94,1.69.48.42a4.258,4.258,0,0,0-.47,2.25Z" fill="#88ab00"/>
      <path id="Trazado_1049237" data-name="Trazado 1049237" d="M9.27,35.14l-5.6-4.73a1.956,1.956,0,0,1,0-2.74,1.931,1.931,0,0,1,2.74,0l4.73,5.6.42.48c-.07.05-.16.1-.24.15A4.512,4.512,0,0,0,9.9,35.32c-.05.08-.1.17-.15.24Z" fill="#88ab00"/>
      <path id="Trazado_1049238" data-name="Trazado 1049238" d="M12.51,25.54l.28.28a1.852,1.852,0,0,1,.54,1.15l.35,4.56.13,1.75a4.258,4.258,0,0,0-2.25.47l-.42-.48L9.48,27.43l-.03-.1a1.836,1.836,0,0,1,2.83-1.99A2.2,2.2,0,0,1,12.51,25.54Z" fill="#88ab00"/>
      <path id="Trazado_1049239" data-name="Trazado 1049239" d="M16.97,34.9l2.33,2.93A5.22,5.22,0,0,0,16,43a8.1,8.1,0,0,0,.36,2.37L16,45.02l-5.1-4.05a3.443,3.443,0,0,1-.44-.41,4.183,4.183,0,0,1-1.18-2.75,4.258,4.258,0,0,1,.47-2.25c.05-.07.1-.16.15-.24a4.512,4.512,0,0,1,1.42-1.42c.08-.05.17-.1.24-.15a4.428,4.428,0,0,1,5.09.78,3.867,3.867,0,0,1,.32.37Z" fill="#ff9b00"/>
      <path id="Trazado_1049240" data-name="Trazado 1049240" d="M5.03,13.03s7.89-.61,13.59,3.77c.05.48-.02,1.83-1.69,4.05a20.736,20.736,0,0,1-1.91,2.17,20.736,20.736,0,0,1-2.17,1.91c-.2.15-.39.29-.57.41a1.836,1.836,0,0,0-2.83,1.99l.03.1c-5.11-5.74-4.45-14.4-4.45-14.4Z" fill="#cedada"/>
      <path id="Trazado_1049241" data-name="Trazado 1049241" d="M16.93,20.85l5.23,5.02-3.57.72-.72,3.57-5.02-5.23a20.736,20.736,0,0,0,2.17-1.91,20.736,20.736,0,0,0,1.91-2.17Z" fill="#516667"/>
      <path id="Trazado_1049242" data-name="Trazado 1049242" d="M27,37.3a13.687,13.687,0,0,0-3-.3,13.687,13.687,0,0,0-3,.3V37l-2-3,2.95,1L24,33l.03.03L26,35l3-1-2,3Z" fill="#88ab00"/>
      <path id="Trazado_1049243" data-name="Trazado 1049243" d="M12.85,24.93l5.02,5.23.72-3.57,3.57-.72-5.23-5.02c1.67-2.22,1.74-3.57,1.69-4.05a13.194,13.194,0,0,1,1.39,1.22c.9.91,1.9,1.94,2.93,3.03,1.88,1.99,3.89,4.19,5.72,6.22-2.72.64-4.66,2.37-4.66,4.4,0,.45.02.89.06,1.33l-.03.03L24,33l-2.05,2L19,34l2,3v.3a6.519,6.519,0,0,0-.79.2c-2.07-1.85-4.39-3.96-6.53-5.97l-.35-4.56a1.852,1.852,0,0,0-.54-1.15l-.28-.28a2.2,2.2,0,0,0-.23-.2c.18-.12.37-.26.57-.41Z" fill="#cedada"/>
      <path id="Trazado_1049244" data-name="Trazado 1049244" d="M24,37a13.687,13.687,0,0,1,3,.3c2.93.62,5,2.34,5,5.7a7.991,7.991,0,0,1-2.71,6H18V46l-1.53-.31a3.006,3.006,0,0,1-.11-.32A8.1,8.1,0,0,1,16,43a5.22,5.22,0,0,1,3.3-5.17,6.538,6.538,0,0,1,.91-.33,6.518,6.518,0,0,1,.79-.2A13.687,13.687,0,0,1,24,37Z" fill="#cc464f"/>
      <path id="Trazado_1049245" data-name="Trazado 1049245" d="M38,39.54V37a2.014,2.014,0,0,1,1.6-1.96A1.752,1.752,0,0,1,40,35a2.015,2.015,0,0,1,2,2v2.54a3.974,3.974,0,0,0-4,0Z" fill="#88ab00"/>
      <path id="Trazado_1049246" data-name="Trazado 1049246" d="M36,47a3.89,3.89,0,0,0,.54,2h-3A3.89,3.89,0,0,1,33,47l-1-4a4,4,0,0,1,4-4,2.427,2.427,0,0,1,1.85.63A3.993,3.993,0,0,0,36,43Z" fill="#f37924"/>
      <path id="Trazado_1049247" data-name="Trazado 1049247" d="M42.15,39.63a3.937,3.937,0,0,1,.68.54A4.025,4.025,0,0,1,44,43v4a3.89,3.89,0,0,1-.54,2H36.54A3.89,3.89,0,0,1,36,47V43a3.993,3.993,0,0,1,1.851-3.37L38,39.54a3.974,3.974,0,0,1,4,0Z" fill="#faab1b"/>
      <path id="Trazado_1049248" data-name="Trazado 1049248" d="M47.7,41.51A3.707,3.707,0,0,1,48,43l-.68,2.74L46,46v3H43.46A3.89,3.89,0,0,0,44,47V43a4.025,4.025,0,0,0-1.17-2.83,3.937,3.937,0,0,0-.68-.54A2.427,2.427,0,0,1,44,39a3.976,3.976,0,0,1,3.7,2.51Z" fill="#ff8b26"/>
      <path id="Trazado_1049249" data-name="Trazado 1049249" d="M37.85,39.63A2.427,2.427,0,0,0,36,39a3.96,3.96,0,0,0-1.773.431A1.989,1.989,0,0,1,35,41v4a2,2,0,0,1-2,2,3.89,3.89,0,0,0,.54,2h3A3.89,3.89,0,0,1,36,47V43a3.993,3.993,0,0,1,1.851-3.37Z" fill="#f1671c"/>
      <path id="Trazado_1049250" data-name="Trazado 1049250" d="M39,45V41a2,2,0,0,1,1.581-1.954A3.838,3.838,0,0,0,40,39a3.989,3.989,0,0,0-2,.54l-.15.09A3.993,3.993,0,0,0,36,43v4a3.89,3.89,0,0,0,.54,2h6.92A3.89,3.89,0,0,0,44,47H41A2,2,0,0,1,39,45Z" fill="#ff9b00"/>
      <path id="Trazado_1049251" data-name="Trazado 1049251" d="M45,45V41a1.985,1.985,0,0,1,.784-1.577A3.961,3.961,0,0,0,44,39a2.427,2.427,0,0,0-1.85.63,3.937,3.937,0,0,1,.68.54A4.025,4.025,0,0,1,44,43v4a3.89,3.89,0,0,1-.54,2H46V46A1,1,0,0,1,45,45Z" fill="#f37924"/>
      <path id="Trazado_1049252" data-name="Trazado 1049252" d="M40.39,41.97c.4.367.729.788,1.134,1.148a2.612,2.612,0,0,0,1.465.711.445.445,0,0,0,.218-.022.4.4,0,0,0,.184-.219,2.159,2.159,0,0,0-.1-1.85,3.611,3.611,0,0,0-2.8-1.9.882.882,0,0,0-.914.7c-.143.632.378,1.034.813,1.437Z" fill="#fbcb00"/>
      <path id="Trazado_1049253" data-name="Trazado 1049253" d="M40,37V36a.994.994,0,0,1,.584-.9A1.953,1.953,0,0,0,40,35a1.752,1.752,0,0,0-.4.04A2.014,2.014,0,0,0,38,37v2.54a3.974,3.974,0,0,1,4,0V38H41A1,1,0,0,1,40,37Z" fill="#628c1b"/>
      <path id="Trazado_1049254" data-name="Trazado 1049254" d="M27,47H25a4.989,4.989,0,0,1-.313-9.968c-.23-.01-.452-.032-.687-.032a13.687,13.687,0,0,0-3,.3,6.518,6.518,0,0,0-.79.2,6.538,6.538,0,0,0-.91.33A5.22,5.22,0,0,0,16,43a8.1,8.1,0,0,0,.36,2.37,3.005,3.005,0,0,0,.11.32L18,46v3H29.29A7.991,7.991,0,0,0,32,43c0-.2-.03-.371-.045-.558A4.983,4.983,0,0,1,27,47Z" fill="#99343b"/>
      <path id="Trazado_1049255" data-name="Trazado 1049255" d="M26,35a1,1,0,0,1-1,1H23a1,1,0,0,1-1-1v-.049L21.95,35,19,34l2,3v.3a13.687,13.687,0,0,1,3-.3,13.687,13.687,0,0,1,3,.3V37l2-3Z" fill="#628c1b"/>
      <path id="Trazado_1049256" data-name="Trazado 1049256" d="M36,35H32a4,4,0,0,1,0-8h-.99a9.834,9.834,0,0,0-2.35.27c-2.72.64-4.66,2.37-4.66,4.4,0,.45.02.89.06,1.33l-.03.03L26,35l3-1-2,3v.3c2.93.62,5,2.34,5,5.7a4,4,0,0,1,4-4,2.427,2.427,0,0,1,1.85.63l.15-.09V37a2.014,2.014,0,0,1,1.6-1.96V35a13.687,13.687,0,0,0,.4-3.33,3.174,3.174,0,0,0-.029-.38A3.988,3.988,0,0,1,36,35Z" fill="#ad313b"/>
      <path id="Trazado_1049257" data-name="Trazado 1049257" d="M32,27h.73C38.9,26.98,40,23.67,40,23.67l-.047-.018Z" fill="#628c1b"/>
      <path id="Trazado_1049258" data-name="Trazado 1049258" d="M54.81,30.81a3.312,3.312,0,0,0-.12-.42,7.51,7.51,0,0,0-1.945-2.938,3.844,3.844,0,0,1-.294,5.1l-3.487,3.487a3.853,3.853,0,0,1-6.43-1.666l-.71-2.485a21.364,21.364,0,0,1-.565-2.617c-.469.48-.935.968-1.4,1.472a3.223,3.223,0,0,1,.14.93A13.687,13.687,0,0,1,39.6,35v.04A1.752,1.752,0,0,1,40,35a2.015,2.015,0,0,1,2,2v2.54l.15.09A2.427,2.427,0,0,1,44,39a3.976,3.976,0,0,1,3.7,2.51c1.18-1,2.31-2.04,3.37-3.09.19-.19.37-.38.55-.56,2.73-2.88,3.64-5.07,3.19-7.05Z" fill="#ceeb88"/>
      <path id="Trazado_1049259" data-name="Trazado 1049259" d="M59.13,24.01c.84-.99,1.74-3.23.91-4.05l-7.39,7.39a7.647,7.647,0,0,1,2.04,3.04c.12.03.23.05.35.07,1.7.24,2.94-.48,2.78-1.61a2.916,2.916,0,0,0-1.61-1.9l.17-.17a8.009,8.009,0,0,0,1.01.07c1.64,0,2.97-.48,2.97-1.08,0-.46-.82-.85-1.97-1l.58-.58a1.454,1.454,0,0,0,.16-.18Z" fill="#88ab00"/>
      <path id="Trazado_1049260" data-name="Trazado 1049260" d="M18.62,16.8q-.544-.418-1.113-.777a17,17,0,0,1-3.249,4.371A3.386,3.386,0,0,1,9,19.675L5.029,13.048c-.014.2-.6,8.708,4.451,14.382l-.03-.1a1.836,1.836,0,0,1,2.83-1.99c.18-.12.37-.26.57-.41a20.736,20.736,0,0,0,2.17-1.91,20.736,20.736,0,0,0,1.91-2.17C18.6,18.63,18.67,17.28,18.62,16.8Z" fill="#b8cfcd"/>
      <path id="Trazado_1049261" data-name="Trazado 1049261" d="M12.85,24.93l5.02,5.23.384-1.906L13.99,23.99q-.6.536-1.14.94Z" fill="#3e5857"/>
      <path id="Trazado_1049262" data-name="Trazado 1049262" d="M22.16,25.87l-5.23-5.02q-.405.537-.94,1.14l4.264,4.264Z" fill="#3e5857"/>
      <path id="Trazado_1049263" data-name="Trazado 1049263" d="M24,27H20l-1,3-.914-.914L17.87,30.16l-5.02-5.23c-.2.15-.39.29-.57.41a2.2,2.2,0,0,1,.23.2l.28.28a1.852,1.852,0,0,1,.54,1.15l.35,4.56c2.14,2.01,4.46,4.12,6.53,5.97a6.519,6.519,0,0,1,.79-.2V37l-2-3,2.95,1L24,33l.03.03.03-.03c-.04-.44-.06-.88-.06-1.33,0-2.03,1.94-3.76,4.66-4.4-.694-.77-1.417-1.566-2.147-2.364Z" fill="#a1b5b3"/>
      <path id="Trazado_1049264" data-name="Trazado 1049264" d="M37,23v.01a1.77,1.77,0,0,0-.23-.01h-.1C34,23,32.3,24.09,32,25.67V27h-.99a9.834,9.834,0,0,0-2.35.27c-1.83-2.03-3.84-4.23-5.72-6.22L23,21V16a2,2,0,0,1,0-4H37a2,2,0,0,1,0,4Z" fill="#fff8d4"/>
      <path id="Trazado_1049265" data-name="Trazado 1049265" d="M32.73,27h.3a9.4,9.4,0,0,1,3.97.853V26.274A11.5,11.5,0,0,1,32.73,27Z" fill="#fdebad"/>
      <path id="Trazado_1049266" data-name="Trazado 1049266" d="M46.41,15.41A1.955,1.955,0,0,0,47,14a2.006,2.006,0,0,0-2-2H37a2,2,0,0,1,0,4v7.01a6.611,6.611,0,0,1,1.08.12,10.073,10.073,0,0,1,1.92.54,4.973,4.973,0,0,1-3,2.6v1.579a5.041,5.041,0,0,1,2.86,2.887c.57-.62,1.14-1.23,1.72-1.81a18.166,18.166,0,0,1,3.48-2.83L45,26V16a1.955,1.955,0,0,0,1.41-.59Z" fill="#e5aa5c"/>
      <path id="Trazado_1049267" data-name="Trazado 1049267" d="M46.41,15.41A1.955,1.955,0,0,0,47,14a2.006,2.006,0,0,0-2-2H37a2,2,0,0,1,0,4h8a1.955,1.955,0,0,0,1.41-.59Z" fill="#e5aa5c"/>
      <path id="Trazado_1049268" data-name="Trazado 1049268" d="M41,18h4V16H37v7.01a6.611,6.611,0,0,1,1.08.12c.3.061.62.134.92.212V20A2,2,0,0,1,41,18Z" fill="#d28e43"/>
      <path id="Trazado_1049269" data-name="Trazado 1049269" d="M40.447,26.276A1,1,0,0,1,39,25.382v-.34a6.344,6.344,0,0,1-2,1.232v1.579a5.041,5.041,0,0,1,2.86,2.887c.57-.62,1.14-1.23,1.72-1.81a18.166,18.166,0,0,1,3.48-2.83L45,26V24Z" fill="#d28e43"/>
      <path id="Trazado_1049270" data-name="Trazado 1049270" d="M25,16H23v5l-.06.05c1.88,1.99,3.89,4.19,5.72,6.22A9.834,9.834,0,0,1,31.01,27H32V25.67c.3-1.58,2-2.67,4.67-2.67h.1a1.77,1.77,0,0,1,.23.01V22c-13,0-12-6-12-6Z" fill="#fdebad"/>
      <path id="Trazado_1049271" data-name="Trazado 1049271" d="M19.3,37.83l-1.386-1.744-2.067,2.067a2.917,2.917,0,0,1-3.886.215l-.415-.331a2.919,2.919,0,0,1-.635-3.853,3.864,3.864,0,0,0-.381.346,3.906,3.906,0,0,0-.63.79c-.05.08-.1.17-.15.24a4.258,4.258,0,0,0-.47,2.25,4.183,4.183,0,0,0,1.18,2.75,3.443,3.443,0,0,0,.44.41L16,45.02l.36.35A8.1,8.1,0,0,1,16,43a5.22,5.22,0,0,1,3.3-5.17Z" fill="#f37924"/>
      <path id="Trazado_1049272" data-name="Trazado 1049272" d="M12.745,33.99a.718.718,0,0,0-.455.517.56.56,0,0,0,.248.477,1.577,1.577,0,0,0,.515.217c.594.168,1.195.313,1.8.423a.874.874,0,0,0,.838-.15.622.622,0,0,0,.127-.346,1.018,1.018,0,0,0-.214-.709,2.592,2.592,0,0,0-2.859-.429Z" fill="#fbcb00"/>
      <path id="Trazado_1049273" data-name="Trazado 1049273" d="M8,34.779v.068a1,1,0,0,1-1.141.99l-5-.714a.991.991,0,0,1-.74-.545A1.819,1.819,0,0,0,1.54,36.51l.28.28a1.852,1.852,0,0,0,1.15.54l6.31.48a4.258,4.258,0,0,1,.47-2.25l-.48-.42Z" fill="#628c1b"/>
      <path id="Trazado_1049274" data-name="Trazado 1049274" d="M10.036,31.964l-.39.39a1,1,0,0,1-1.348.061L4.029,28.857a.98.98,0,0,1-.1-1.4,1.934,1.934,0,0,0-.264.218,1.956,1.956,0,0,0,0,2.74L8,34.067,9.27,35.14l.48.42c.05-.07.1-.16.15-.24a4.512,4.512,0,0,1,1.42-1.42c.08-.05.17-.1.24-.15l-.42-.48Z" fill="#628c1b"/>
      <path id="Trazado_1049275" data-name="Trazado 1049275" d="M13.68,31.53,13.639,31h-.792a1,1,0,0,1-.986-.836l-.667-4a1,1,0,0,1,.566-1.07A1.826,1.826,0,0,0,9.45,27.33l.03.1,1.127,3.963.533,1.877.42.48a4.258,4.258,0,0,1,2.25-.47Z" fill="#628c1b"/>
      <g id="Grupo_1188231" data-name="Grupo 1188231">
        <path id="Trazado_1049276" data-name="Trazado 1049276" d="M8,49H56V61a2,2,0,0,1-2,2H10a2,2,0,0,1-2-2Z" fill="none" stroke="#000" stroke-linejoin="round" stroke-width="2"/>
        <path id="Trazado_1049277" data-name="Trazado 1049277" d="M46,49V46l10-2v5" fill="none" stroke="#000" stroke-linejoin="round" stroke-width="2"/>
        <path id="Trazado_1049278" data-name="Trazado 1049278" d="M18,49V46L8,44v5" fill="none" stroke="#000" stroke-linejoin="round" stroke-width="2"/>
        <path id="Trazado_1049279" data-name="Trazado 1049279" d="M22,5H51v9" fill="none" stroke="#000" stroke-linejoin="round" stroke-width="2"/>
        <path id="Trazado_1049280" data-name="Trazado 1049280" d="M18,5h2" fill="none" stroke="#000" stroke-linejoin="round" stroke-width="2"/>
        <path id="Trazado_1049281" data-name="Trazado 1049281" d="M13,11V5h3" fill="none" stroke="#000" stroke-linejoin="round" stroke-width="2"/>
        <path id="Trazado_1049282" data-name="Trazado 1049282" d="M54,14V7L51,5l1-4H12l1,4L10,7v4" fill="none" stroke="#000" stroke-linejoin="round" stroke-width="2"/>
        <path id="Trazado_1049283" data-name="Trazado 1049283" d="M21,37.3V37l-2-3,2.95,1L24,33l2,2,3-1-2,3v.3" fill="none" stroke="#000" stroke-linejoin="round" stroke-width="2"/>
        <path id="Trazado_1049284" data-name="Trazado 1049284" d="M29.29,49A7.991,7.991,0,0,0,32,43c0-3.36-2.07-5.08-5-5.7a13.687,13.687,0,0,0-3-.3,13.687,13.687,0,0,0-3,.3,8.04,8.04,0,0,0-1.7.53A5.22,5.22,0,0,0,16,43a8.1,8.1,0,0,0,.36,2.37,3.005,3.005,0,0,0,.11.32" fill="none" stroke="#000" stroke-linejoin="round" stroke-width="2"/>
        <path id="Trazado_1049285" data-name="Trazado 1049285" d="M29,44c0-2.211-1.342-4-3-4" fill="none" stroke="#000" stroke-linejoin="round" stroke-width="2"/>
        <path id="Trazado_1049286" data-name="Trazado 1049286" d="M36.535,49A3.983,3.983,0,0,1,36,47V43a4,4,0,0,1,8,0v4a3.983,3.983,0,0,1-.535,2" fill="none" stroke="#000" stroke-linejoin="round" stroke-width="2"/>
        <path id="Trazado_1049287" data-name="Trazado 1049287" d="M42,40c0-.553.9-1,2-1a4,4,0,0,1,4,4l-.25,1" fill="none" stroke="#000" stroke-linejoin="round" stroke-width="2"/>
        <path id="Trazado_1049288" data-name="Trazado 1049288" d="M38,40c0-.553-.9-1-2-1a4,4,0,0,0-4,4l1,4a3.983,3.983,0,0,0,.535,2" fill="none" stroke="#000" stroke-linejoin="round" stroke-width="2"/>
        <path id="Trazado_1049289" data-name="Trazado 1049289" d="M38,40V37a2,2,0,0,1,4,0v3" fill="none" stroke="#000" stroke-linejoin="round" stroke-width="2"/>
        <path id="Trazado_1049290" data-name="Trazado 1049290" d="M39.6,35a13.71,13.71,0,0,0,.4-3.333C40,29.088,36.884,27,33.03,27H31.011c-3.536,0-6.455,1.738-6.94,4" fill="none" stroke="#000" stroke-linejoin="round" stroke-width="2"/>
        <path id="Trazado_1049291" data-name="Trazado 1049291" d="M36.667,23C34,23,32.3,24.087,32,25.667V27h.667C38.889,27,40,23.667,40,23.667a10.544,10.544,0,0,0-1.923-.539,6.624,6.624,0,0,0-1.3-.128Z" fill="none" stroke="#000" stroke-linejoin="round" stroke-width="2"/>
        <path id="Trazado_1049292" data-name="Trazado 1049292" d="M41.581,28.934c4.952-4.952,7.9-4.743,11.066-1.581s3.371,6.114-1.581,11.066c-1.224,1.224-2.556,2.43-3.938,3.581" fill="none" stroke="#000" stroke-linejoin="round" stroke-width="2"/>
        <path id="Trazado_1049293" data-name="Trazado 1049293" d="M51.066,38.419a2.234,2.234,0,0,0,0,3.162" fill="none" stroke="#000" stroke-linejoin="round" stroke-width="2"/>
        <path id="Trazado_1049294" data-name="Trazado 1049294" d="M50.066,32.419a2.234,2.234,0,0,0,0,3.162" fill="none" stroke="#000" stroke-linejoin="round" stroke-width="2"/>
        <path id="Trazado_1049295" data-name="Trazado 1049295" d="M47.27,29.569a2.236,2.236,0,0,1-3.162,0" fill="none" stroke="#000" stroke-linejoin="round" stroke-width="2"/>
        <path id="Trazado_1049296" data-name="Trazado 1049296" d="M54.69,30.39c.12.03.23.05.35.07,1.7.24,2.94-.48,2.78-1.61a2.916,2.916,0,0,0-1.61-1.9l.17-.17a8.009,8.009,0,0,0,1.01.07c1.64,0,2.97-.48,2.97-1.08,0-.46-.82-.85-1.97-1l.58-.58a1.454,1.454,0,0,0,.16-.18c.84-.99,1.74-3.23.91-4.05s-3.06.07-4.05.91a1.454,1.454,0,0,0-.18.16l-.58.58c-.15-1.15-.54-1.97-1-1.97-.6,0-1.08,1.33-1.08,2.97a8.009,8.009,0,0,0,.07,1.01l-.17.17a2.916,2.916,0,0,0-1.9-1.61c-1.13-.16-1.85,1.08-1.61,2.78.02.12.04.23.07.35" fill="none" stroke="#000" stroke-linejoin="round" stroke-width="2"/>
        <path id="Trazado_1049297" data-name="Trazado 1049297" d="M54.81,30.81,55,31a4.38,4.38,0,0,0,3,1,1.959,1.959,0,0,0,2-2,2.938,2.938,0,0,0,3-3c0-2.68-3.18-2.96-3.87-2.99A1.162,1.162,0,0,0,59,24" fill="none" stroke="#000" stroke-linejoin="round" stroke-width="2"/>
        <path id="Trazado_1049298" data-name="Trazado 1049298" d="M49.19,25.19,49,25a4.38,4.38,0,0,1-1-3,1.959,1.959,0,0,1,2-2,2.938,2.938,0,0,1,3-3c2.67,0,2.96,3.18,2.99,3.87A1.163,1.163,0,0,1,56,21" fill="none" stroke="#000" stroke-linejoin="round" stroke-width="2"/>
        <path id="Trazado_1049299" data-name="Trazado 1049299" d="M17.845,36l-.875-1.1a3.867,3.867,0,0,0-.32-.37,4.428,4.428,0,0,0-5.09-.78c-.07.05-.16.1-.24.15A4.512,4.512,0,0,0,9.9,35.32c-.05.08-.1.17-.15.24a4.4,4.4,0,0,0,1.15,5.41L14,43.432" fill="none" stroke="#000" stroke-linejoin="round" stroke-width="2"/>
        <path id="Trazado_1049300" data-name="Trazado 1049300" d="M12.51,25.535l.281.281a1.847,1.847,0,0,1,.535,1.153l.48,6.31a4.259,4.259,0,0,0-2.243.473l-.418-.487-1.7-5.933a1.833,1.833,0,0,1,3.06-1.8Z" fill="none" stroke="#000" stroke-linejoin="round" stroke-width="2"/>
        <path id="Trazado_1049301" data-name="Trazado 1049301" d="M6.412,27.668l4.733,5.6.418.487c-.075.048-.165.1-.24.144A4.422,4.422,0,0,0,9.9,35.323c-.048.075-.1.165-.144.24l-.487-.418-5.6-4.733a1.94,1.94,0,1,1,2.743-2.744Z" fill="none" stroke="#000" stroke-linejoin="round" stroke-width="2"/>
        <path id="Trazado_1049302" data-name="Trazado 1049302" d="M9.752,35.563a4.259,4.259,0,0,0-.473,2.243l-6.31-.48a1.847,1.847,0,0,1-1.153-.535l-.281-.281a1.833,1.833,0,0,1,1.8-3.06l5.933,1.7Z" fill="none" stroke="#000" stroke-linejoin="round" stroke-width="2"/>
        <path id="Trazado_1049303" data-name="Trazado 1049303" d="M28.66,27.27c-2.84-3.15-6.1-6.69-8.65-9.25a13.193,13.193,0,0,0-1.39-1.22c-5.7-4.38-13.59-3.77-13.59-3.77A23.157,23.157,0,0,0,7.725,25" fill="none" stroke="#000" stroke-linejoin="round" stroke-width="2"/>
        <path id="Trazado_1049304" data-name="Trazado 1049304" d="M11.451,16.6l1.427,1.427" fill="none" stroke="#000" stroke-linejoin="round" stroke-width="2"/>
        <path id="Trazado_1049305" data-name="Trazado 1049305" d="M12.28,25.34c.18-.12.37-.26.57-.41a20.736,20.736,0,0,0,2.17-1.91,20.736,20.736,0,0,0,1.91-2.17c1.67-2.22,1.74-3.57,1.69-4.05a1.116,1.116,0,0,0-.03-.2" fill="none" stroke="#000" stroke-linejoin="round" stroke-width="2"/>
        <path id="Trazado_1049306" data-name="Trazado 1049306" d="M16.93,20.85l5.23,5.02-3.57.72-.72,3.57-5.02-5.23" fill="none" stroke="#000" stroke-linejoin="round" stroke-width="2"/>
        <path id="Trazado_1049307" data-name="Trazado 1049307" d="M5.029,13.029,8.6,16.6" fill="none" stroke="#000" stroke-linejoin="round" stroke-width="2"/>
        <path id="Trazado_1049308" data-name="Trazado 1049308" d="M45,16v7" fill="none" stroke="#000" stroke-linejoin="round" stroke-width="2"/>
        <path id="Trazado_1049309" data-name="Trazado 1049309" d="M37,21V16a2,2,0,0,0,0-4H23a2,2,0,0,0,0,4v2" fill="none" stroke="#000" stroke-linejoin="round" stroke-width="2"/>
        <path id="Trazado_1049310" data-name="Trazado 1049310" d="M36,12h9a2,2,0,0,1,0,4H41" fill="none" stroke="#000" stroke-linejoin="round" stroke-width="2"/>
        <path id="Trazado_1049311" data-name="Trazado 1049311" d="M27,18v2" fill="none" stroke="#000" stroke-linejoin="round" stroke-width="2"/>
        <path id="Trazado_1049312" data-name="Trazado 1049312" d="M33,18v2" fill="none" stroke="#000" stroke-linejoin="round" stroke-width="2"/>
        <path id="Trazado_1049313" data-name="Trazado 1049313" d="M56,44l-2.853-4" fill="none" stroke="#000" stroke-linejoin="round" stroke-width="2"/>
        <path id="Trazado_1049314" data-name="Trazado 1049314" d="M10.46,40.56,8,44" fill="none" stroke="#000" stroke-linejoin="round" stroke-width="2"/>
        <ellipse id="Elipse_12067" data-name="Elipse 12067" cx="7" cy="3" rx="7" ry="3" transform="translate(25 53)" fill="none" stroke="#000" stroke-linejoin="round" stroke-width="2"/>
        <path id="Trazado_1049315" data-name="Trazado 1049315" d="M37,33a2.938,2.938,0,0,0-3-3" fill="none" stroke="#000" stroke-linejoin="round" stroke-width="2"/>
      </g>
    </g>
  </g>
</svg>
