<svg xmlns="http://www.w3.org/2000/svg" xmlns:xlink="http://www.w3.org/1999/xlink" width="118" height="118" viewBox="0 0 118 118">
  <defs>
    <filter id="Trazado_874925" x="0" y="0" width="118" height="118" filterUnits="userSpaceOnUse">
      <feOffset dy="3" input="SourceAlpha"/>
      <feGaussianBlur stdDeviation="3" result="blur"/>
      <feFlood flood-opacity="0.161"/>
      <feComposite operator="in" in2="blur"/>
      <feComposite in="SourceGraphic"/>
    </filter>
  </defs>
  <g id="Grupo_1188152" data-name="Grupo 1188152" transform="translate(-799.5 -2511.157)">
    <g id="Grupo_1111316" data-name="Grupo 1111316" transform="translate(808.5 2517.157)">
      <g id="Grupo_1109835" data-name="Grupo 1109835" transform="translate(0 0)">
        <g id="Grupo_1107913" data-name="Grupo 1107913" transform="translate(0 0)">
          <g transform="matrix(1, 0, 0, 1, -9, -6)" filter="url(#Trazado_874925)">
            <g id="Trazado_874925-2" data-name="Trazado 874925" transform="translate(9 6)" fill="#9ad354" opacity="0.859">
              <path d="M 49.99972534179688 98.4998779296875 C 43.45164108276367 98.4998779296875 37.10022354125977 97.21776580810547 31.12189674377441 94.68914794921875 C 25.34676742553711 92.24647521972656 20.15985298156738 88.74925994873047 15.70523929595947 84.29464721679688 C 11.25062561035156 79.84004974365234 7.753411293029785 74.65313720703125 5.310725212097168 68.87800598144531 C 2.782111167907715 62.89969253540039 1.499996781349182 56.54829406738281 1.499996781349182 50.00022125244141 C 1.499996781349182 43.45157623291016 2.782111167907715 37.10017776489258 5.310725212097168 31.12186431884766 C 7.753411293029785 25.34673500061035 11.25062561035156 20.15983581542969 15.70523929595947 15.70522117614746 C 20.15985298156738 11.25062084197998 25.34676742553711 7.753406524658203 31.12189674377441 5.31073522567749 C 37.10022354125977 2.782120943069458 43.45164108276367 1.500006556510925 49.99972534179688 1.500006556510925 C 56.54780960083008 1.500006556510925 62.89922714233398 2.782120943069458 68.87755584716797 5.31073522567749 C 74.65267944335938 7.753406524658203 79.839599609375 11.25062084197998 84.29421234130859 15.70522117614746 C 88.74882507324219 20.15983581542969 92.24604034423828 25.34673500061035 94.68872833251953 31.12186431884766 C 97.21733856201172 37.10017776489258 98.49945068359375 43.45157623291016 98.49945068359375 49.99964904785156 C 98.49945068359375 56.54829406738281 97.21733856201172 62.89969253540039 94.68872833251953 68.87800598144531 C 92.24604034423828 74.65313720703125 88.74882507324219 79.84004974365234 84.29421234130859 84.29464721679688 C 79.839599609375 88.74925994873047 74.65267944335938 92.24647521972656 68.87755584716797 94.68914794921875 C 62.89922714233398 97.21776580810547 56.54780960083008 98.4998779296875 49.99972534179688 98.4998779296875 Z" stroke="none"/>
              <path d="M 49.99972534179688 3 C 43.65348052978516 3 37.49866485595703 4.242240905761719 31.70623016357422 6.692230224609375 C 26.10989379882812 9.059272766113281 21.08323669433594 12.44853210449219 16.76589202880859 16.76587677001953 C 12.44855499267578 21.08321380615234 9.059295654296875 26.10985565185547 6.692230224609375 31.70618438720703 C 4.24224853515625 37.49859619140625 3 43.65341186523438 3 50.00022888183594 C 3 56.34645843505859 4.24224853515625 62.50127410888672 6.692230224609375 68.29368591308594 C 9.059295654296875 73.8900146484375 12.44855499267578 78.91665649414062 16.76589202880859 83.23399353027344 C 21.08323669433594 87.55132293701172 26.10989379882812 90.94059753417969 31.70623016357422 93.30764007568359 C 37.49866485595703 95.75762939453125 43.65348052978516 96.99987030029297 49.99972534179688 96.99987030029297 C 56.34597015380859 96.99987030029297 62.50078582763672 95.75762939453125 68.293212890625 93.30764007568359 C 73.88955688476562 90.94059753417969 78.91621398925781 87.55132293701172 83.23355865478516 83.23399353027344 C 87.55089569091797 78.91665649414062 90.94015502929688 73.8900146484375 93.30722045898438 68.29368591308594 C 95.7572021484375 62.50127410888672 96.99945068359375 56.34645843505859 96.99945068359375 49.99964141845703 C 96.99945068359375 43.65341186523438 95.7572021484375 37.49859619140625 93.30722045898438 31.70618438720703 C 90.94015502929688 26.10985565185547 87.55089569091797 21.08321380615234 83.23355865478516 16.76587677001953 C 78.91621398925781 12.44853210449219 73.88955688476562 9.059272766113281 68.293212890625 6.692230224609375 C 62.50078582763672 4.242240905761719 56.34597015380859 3 49.99972534179688 3 M 49.99972534179688 0 C 77.61381530761719 0 99.99945068359375 22.38559722900391 99.99945068359375 49.99964141845703 L 99.99945068359375 50.00022888183594 C 99.99945068359375 77.6142578125 77.61381530761719 99.99987030029297 49.99972534179688 99.99987030029297 C 22.38563537597656 99.99987030029297 0 77.6142578125 0 50.00022888183594 L 0 49.99964141845703 C 0 22.38559722900391 22.38563537597656 0 49.99972534179688 0 Z" stroke="none" fill="#fff"/>
            </g>
          </g>
          <g id="Trazado_874923" data-name="Trazado 874923" transform="translate(0 0)" fill="none">
            <path d="M50,0a50,50,0,0,1,50,50h0A50,50,0,0,1,0,50H0A50,50,0,0,1,50,0Z" stroke="none"/>
            <path d="M 49.99972534179688 3 C 43.65348052978516 3 37.49866485595703 4.242240905761719 31.70623016357422 6.692230224609375 C 26.10989379882812 9.059272766113281 21.08323669433594 12.44853210449219 16.76589202880859 16.76587677001953 C 12.44855499267578 21.08321380615234 9.059295654296875 26.10985565185547 6.692230224609375 31.70618438720703 C 4.24224853515625 37.49859619140625 3 43.65341186523438 3 50.00022888183594 C 3 56.34645843505859 4.24224853515625 62.50127410888672 6.692230224609375 68.29368591308594 C 9.059295654296875 73.8900146484375 12.44855499267578 78.91665649414062 16.76589202880859 83.23399353027344 C 21.08323669433594 87.55132293701172 26.10989379882812 90.94059753417969 31.70623016357422 93.30764007568359 C 37.49866485595703 95.75762939453125 43.65348052978516 96.99987030029297 49.99972534179688 96.99987030029297 C 56.34597015380859 96.99987030029297 62.50078582763672 95.75762939453125 68.293212890625 93.30764007568359 C 73.88955688476562 90.94059753417969 78.91621398925781 87.55132293701172 83.23355865478516 83.23399353027344 C 87.55089569091797 78.91665649414062 90.94015502929688 73.8900146484375 93.30722045898438 68.29368591308594 C 95.7572021484375 62.50127410888672 96.99945068359375 56.34645843505859 96.99945068359375 49.99964141845703 C 96.99945068359375 43.65341186523438 95.7572021484375 37.49859619140625 93.30722045898438 31.70618438720703 C 90.94015502929688 26.10985565185547 87.55089569091797 21.08321380615234 83.23355865478516 16.76587677001953 C 78.91621398925781 12.44853210449219 73.88955688476562 9.059272766113281 68.293212890625 6.692230224609375 C 62.50078582763672 4.242240905761719 56.34597015380859 3 49.99972534179688 3 M 49.99972534179688 0 C 77.61381530761719 0 99.99945068359375 22.38559722900391 99.99945068359375 49.99964141845703 L 99.99945068359375 50.00022888183594 C 99.99945068359375 77.6142578125 77.61381530761719 99.99987030029297 49.99972534179688 99.99987030029297 C 22.38563537597656 99.99987030029297 0 77.6142578125 0 50.00022888183594 L 0 49.99964141845703 C 0 22.38559722900391 22.38563537597656 0 49.99972534179688 0 Z" stroke="none" fill="#fff"/>
          </g>
        </g>
      </g>
    </g>
    <g id="filled_outline" data-name="filled outline" transform="translate(810.899 2519.737)">
      <path id="Trazado_1049316" data-name="Trazado 1049316" d="M221.251,62.055v-8.4h-2.626a2.626,2.626,0,1,1,0-5.251h2.626l-1.575-1.575a2.228,2.228,0,1,1,3.151-3.151l1.575,1.575v-2.1a3.151,3.151,0,0,1,6.3,0v2.1l1.575-1.575a2.228,2.228,0,0,1,3.151,3.151L233.854,48.4h2.626a2.626,2.626,0,0,1,0,5.251h-2.626v8.4Z" transform="translate(-173.744 -20.849)" fill="#5eae35"/>
      <path id="Trazado_1049317" data-name="Trazado 1049317" d="M277.251,144A5.251,5.251,0,0,0,272,149.251v1.05h10.5v-1.05A5.251,5.251,0,0,0,277.251,144Z" transform="translate(-222.393 -111.196)" fill="#fb0200"/>
      <path id="Trazado_1049318" data-name="Trazado 1049318" d="M136,47.1V29.251a5.251,5.251,0,0,1,10.5,0V47.1Z" transform="translate(-104.247 -6.95)" fill="#ff8706"/>
      <path id="Trazado_1049319" data-name="Trazado 1049319" d="M120,184h8.4v33.607H120Z" transform="translate(-90.347 -145.945)" fill="#aa8561"/>
      <path id="Trazado_1049320" data-name="Trazado 1049320" d="M120,412.2l4.2-4.2,4.2,4.2Z" transform="translate(-90.347 -340.539)" fill="#9f785b"/>
      <path id="Trazado_1049321" data-name="Trazado 1049321" d="M156.2,184H152v29.406l4.2,4.2h1.05V184Z" transform="translate(-118.146 -145.945)" fill="#bb9063"/>
      <path id="Trazado_1049322" data-name="Trazado 1049322" d="M184,184h24.155v33.607H184Z" transform="translate(-145.945 -145.945)" fill="#d0b288"/>
      <path id="Trazado_1049323" data-name="Trazado 1049323" d="M200,130.1a5.251,5.251,0,0,0,5.251,5.251h2.1a2.1,2.1,0,0,0,2.1-2.1A5.251,5.251,0,0,0,204.2,128h-2.1A2.1,2.1,0,0,0,200,130.1Z" transform="translate(-159.845 -97.297)" fill="#ffc933"/>
      <path id="Trazado_1049324" data-name="Trazado 1049324" d="M43.831,225.452H40.68a1.575,1.575,0,0,0,0-3.151H29.653l3.766-3.766A1.485,1.485,0,0,0,32.368,216a4.5,4.5,0,0,0-2.93,1.084L23.352,222.3H16v10.5h7.352l7.352,2.1,7.425-.928a1.116,1.116,0,0,0-.139-2.223H41.73a1.575,1.575,0,1,0,0-3.151h2.1a1.575,1.575,0,1,0,0-3.151Z" transform="translate(0 -173.744)" fill="#f9cdaf"/>
      <path id="Trazado_1049325" data-name="Trazado 1049325" d="M184.075,303.182H184v4.637h24.155V287.843A26.565,26.565,0,0,1,184.075,303.182Z" transform="translate(-145.945 -236.156)" fill="#ad8f6c"/>
      <path id="Trazado_1049326" data-name="Trazado 1049326" d="M266.657,373.251H255.1l-4.6-4.6a2.228,2.228,0,0,0-3.8,1.575v.18a2.227,2.227,0,0,0,.446,1.337l2.4,3.2a1.5,1.5,0,0,1,.3.9v.025a1.576,1.576,0,0,1-1.575,1.578H234.2a2.2,2.2,0,0,0-.2,4.382l18.261,1.66a21.006,21.006,0,0,0,5.659-.253l8.741-1.589Z" transform="translate(-187.644 -305.79)" fill="#f9cdaf"/>
      <path id="Trazado_1049327" data-name="Trazado 1049327" d="M249.377,430.61A2.628,2.628,0,0,0,252,427.982a1.576,1.576,0,0,1-1.575,1.578H236.347a2.192,2.192,0,0,0-1.871,1.05Z" transform="translate(-189.795 -357.898)" fill="#eabb9b"/>
      <path id="Trazado_1049328" data-name="Trazado 1049328" d="M160,80h4.2v2.1H160Z" transform="translate(-125.096 -55.598)"/>
      <path id="Trazado_1049329" data-name="Trazado 1049329" d="M160,112h4.2v2.1H160Z" transform="translate(-125.096 -83.397)"/>
      <path id="Trazado_1049330" data-name="Trazado 1049330" d="M160,144h4.2v2.1H160Z" transform="translate(-125.096 -111.196)"/>
      <path id="Trazado_1049331" data-name="Trazado 1049331" d="M276.2,88h-2.1a2.1,2.1,0,0,1-2.1,2.1v2.1A4.206,4.206,0,0,0,276.2,88Z" transform="translate(-222.393 -62.548)"/>
      <path id="Trazado_1049332" data-name="Trazado 1049332" d="M316.2,100.2V98.1a2.1,2.1,0,0,1-2.1-2.1H312A4.206,4.206,0,0,0,316.2,100.2Z" transform="translate(-257.142 -69.498)"/>
      <path id="Trazado_1049333" data-name="Trazado 1049333" d="M70.086,76.418a19.967,19.967,0,0,1-5.376.24L46.449,75a1.146,1.146,0,0,1,.1-2.286H60.635a2.63,2.63,0,0,0,2.626-2.628v-.025a2.566,2.566,0,0,0-.511-1.531l-2.4-3.2a1.183,1.183,0,0,1-.236-.706v-.18a1.178,1.178,0,0,1,2.01-.833l4.6,4.6a1.05,1.05,0,0,0,.743.308H79.013v-2.1H67.9L63.605,62.12a3.333,3.333,0,0,0-.345-.3V38.055A1.05,1.05,0,0,0,62.21,37H61.16V33.854h1.575a3.676,3.676,0,1,0,0-7.352h-.109a3.278,3.278,0,0,0-4.636-4.6,4.2,4.2,0,0,0-8.364,0,3.278,3.278,0,0,0-4.636,4.6h-.109a3.654,3.654,0,0,0-1.575.355V22.3a6.3,6.3,0,1,0-12.6,0V37h-1.05a1.05,1.05,0,0,0-1.05,1.05v4.618l-5.64,4.834H16v2.1h7.352a1.05,1.05,0,0,0,.683-.253l6.087-5.218a3.454,3.454,0,0,1,2.247-.831.435.435,0,0,1,.307.743L28.91,47.814a1.05,1.05,0,0,0,.743,1.793H40.68a.525.525,0,0,1,0,1.05H32.8a1.05,1.05,0,1,0,0,2.1H43.831a.525.525,0,1,1,0,1.05H32.8a1.05,1.05,0,1,0,0,2.1h8.927a.525.525,0,1,1,0,1.05H32.8a1.05,1.05,0,0,0,0,2.1h5.185a.066.066,0,0,1,.008.13l-7.212.9L23.64,58.049a1.05,1.05,0,0,0-.289-.04H16v2.1h7.2l5.4,1.542v10.01h0a1.043,1.043,0,0,0,1.048,1.05H43.516a3.245,3.245,0,0,0,2.743,4.378l18.261,1.661q1,.091,2,.091a22.064,22.064,0,0,0,3.944-.356L79.2,76.9l-.376-2.067ZM41.205,32.8a1.051,1.051,0,0,1,1.05-1.05h2.1a4.206,4.206,0,0,1,4.2,4.2A1.051,1.051,0,0,1,47.507,37h-2.1A4.206,4.206,0,0,1,41.205,32.8Zm3.676-4.2h2.626a1.05,1.05,0,0,0,.743-1.793l-1.575-1.575a1.178,1.178,0,1,1,1.665-1.665l1.575,1.575a1.05,1.05,0,0,0,1.793-.743V22.3a2.1,2.1,0,0,1,4.2,0v2.1a1.05,1.05,0,0,0,1.793.743l1.575-1.575a1.178,1.178,0,0,1,1.665,1.665L59.367,26.81a1.05,1.05,0,0,0,.743,1.793h2.626a1.575,1.575,0,0,1,0,3.151H60.109a1.05,1.05,0,0,0-1.05,1.05v.559a6.287,6.287,0,0,0-8.8.39,6.312,6.312,0,0,0-5.9-4.1H43.4a1.577,1.577,0,0,1,1.483-1.05ZM58.926,37H50.79a4.2,4.2,0,0,1,8.136,0ZM32.8,22.3a4.2,4.2,0,1,1,8.4,0v7.532a3.156,3.156,0,0,0-2.1,2.97,6.275,6.275,0,0,0,1.61,4.2H32.8Zm2.1,16.8H37v8.4H34.9Zm-2.535,2.1a5.551,5.551,0,0,0-1.666.257V39.1h2.1v2.14A2.541,2.541,0,0,0,32.369,41.205Zm.435,5.686v.615h-.615Zm2.1,14.8L37,61.43v7.7l-2.1-2.1Zm-4.071.509,1.97-.246v5.07l-2.1,2.1V62.21a1.056,1.056,0,0,0,.13-.008Zm1.355,8.41,1.666-1.666,1.666,1.666ZM39.1,60.978a2.168,2.168,0,0,0,1.05-1.853c0-.022,0-.044,0-.066h1.576a2.627,2.627,0,0,0,2.564-3.192,2.626,2.626,0,0,0-.464-5.21h-.578a2.627,2.627,0,0,0-2.573-3.151H39.1V39.1H61.16V61.163a3.282,3.282,0,0,0-3.151,3.275v.18a3.3,3.3,0,0,0,.656,1.967l2.4,3.2a.453.453,0,0,1,.09.27v.025a.527.527,0,0,1-.526.528H39.1Z" transform="translate(0 0)"/>
    </g>
  </g>
</svg>
