<svg xmlns="http://www.w3.org/2000/svg" xmlns:xlink="http://www.w3.org/1999/xlink" width="117.999" height="118" viewBox="0 0 117.999 118">
  <defs>
    <filter id="Trazado_874925" x="0" y="0" width="117.999" height="118" filterUnits="userSpaceOnUse">
      <feOffset dy="3" input="SourceAlpha"/>
      <feGaussianBlur stdDeviation="3" result="blur"/>
      <feFlood flood-opacity="0.161"/>
      <feComposite operator="in" in2="blur"/>
      <feComposite in="SourceGraphic"/>
    </filter>
  </defs>
  <g id="Grupo_1188154" data-name="Grupo 1188154" transform="translate(-799.5 -2511.157)">
    <g id="Grupo_1111316" data-name="Grupo 1111316" transform="translate(808.5 2517.157)">
      <g id="Grupo_1109835" data-name="Grupo 1109835" transform="translate(0 0)">
        <g id="Grupo_1107913" data-name="Grupo 1107913" transform="translate(0 0)">
          <g transform="matrix(1, 0, 0, 1, -9, -6)" filter="url(#Trazado_874925)">
            <g id="Trazado_874925-2" data-name="Trazado 874925" transform="translate(9 6)" fill="#9ad354" opacity="0.859">
              <path d="M 49.99972534179688 98.4998779296875 C 43.45164108276367 98.4998779296875 37.10022354125977 97.21776580810547 31.12189674377441 94.68914794921875 C 25.34676742553711 92.24647521972656 20.15985298156738 88.74925994873047 15.70523929595947 84.29464721679688 C 11.25062561035156 79.84004974365234 7.753411293029785 74.65313720703125 5.310725212097168 68.87800598144531 C 2.782111167907715 62.89969253540039 1.499996781349182 56.54829406738281 1.499996781349182 50.00022125244141 C 1.499996781349182 43.45157623291016 2.782111167907715 37.10017776489258 5.310725212097168 31.12186431884766 C 7.753411293029785 25.34673500061035 11.25062561035156 20.15983581542969 15.70523929595947 15.70522117614746 C 20.15985298156738 11.25062084197998 25.34676742553711 7.753406524658203 31.12189674377441 5.31073522567749 C 37.10022354125977 2.782120943069458 43.45164108276367 1.500006556510925 49.99972534179688 1.500006556510925 C 56.54780960083008 1.500006556510925 62.89922714233398 2.782120943069458 68.87755584716797 5.31073522567749 C 74.65267944335938 7.753406524658203 79.839599609375 11.25062084197998 84.29421234130859 15.70522117614746 C 88.74882507324219 20.15983581542969 92.24604034423828 25.34673500061035 94.68872833251953 31.12186431884766 C 97.21733856201172 37.10017776489258 98.49945068359375 43.45157623291016 98.49945068359375 49.99964904785156 C 98.49945068359375 56.54829406738281 97.21733856201172 62.89969253540039 94.68872833251953 68.87800598144531 C 92.24604034423828 74.65313720703125 88.74882507324219 79.84004974365234 84.29421234130859 84.29464721679688 C 79.839599609375 88.74925994873047 74.65267944335938 92.24647521972656 68.87755584716797 94.68914794921875 C 62.89922714233398 97.21776580810547 56.54780960083008 98.4998779296875 49.99972534179688 98.4998779296875 Z" stroke="none"/>
              <path d="M 49.99972534179688 3 C 43.65348052978516 3 37.49866485595703 4.242240905761719 31.70623016357422 6.692230224609375 C 26.10989379882812 9.059272766113281 21.08323669433594 12.44853210449219 16.76589202880859 16.76587677001953 C 12.44855499267578 21.08321380615234 9.059295654296875 26.10985565185547 6.692230224609375 31.70618438720703 C 4.24224853515625 37.49859619140625 3 43.65341186523438 3 50.00022888183594 C 3 56.34645843505859 4.24224853515625 62.50127410888672 6.692230224609375 68.29368591308594 C 9.059295654296875 73.8900146484375 12.44855499267578 78.91665649414062 16.76589202880859 83.23399353027344 C 21.08323669433594 87.55132293701172 26.10989379882812 90.94059753417969 31.70623016357422 93.30764007568359 C 37.49866485595703 95.75762939453125 43.65348052978516 96.99987030029297 49.99972534179688 96.99987030029297 C 56.34597015380859 96.99987030029297 62.50078582763672 95.75762939453125 68.293212890625 93.30764007568359 C 73.88955688476562 90.94059753417969 78.91621398925781 87.55132293701172 83.23355865478516 83.23399353027344 C 87.55089569091797 78.91665649414062 90.94015502929688 73.8900146484375 93.30722045898438 68.29368591308594 C 95.7572021484375 62.50127410888672 96.99945068359375 56.34645843505859 96.99945068359375 49.99964141845703 C 96.99945068359375 43.65341186523438 95.7572021484375 37.49859619140625 93.30722045898438 31.70618438720703 C 90.94015502929688 26.10985565185547 87.55089569091797 21.08321380615234 83.23355865478516 16.76587677001953 C 78.91621398925781 12.44853210449219 73.88955688476562 9.059272766113281 68.293212890625 6.692230224609375 C 62.50078582763672 4.242240905761719 56.34597015380859 3 49.99972534179688 3 M 49.99972534179688 0 C 77.61381530761719 0 99.99945068359375 22.38559722900391 99.99945068359375 49.99964141845703 L 99.99945068359375 50.00022888183594 C 99.99945068359375 77.6142578125 77.61381530761719 99.99987030029297 49.99972534179688 99.99987030029297 C 22.38563537597656 99.99987030029297 0 77.6142578125 0 50.00022888183594 L 0 49.99964141845703 C 0 22.38559722900391 22.38563537597656 0 49.99972534179688 0 Z" stroke="none" fill="#fff"/>
            </g>
          </g>
          <g id="Trazado_874923" data-name="Trazado 874923" transform="translate(0 0)" fill="none">
            <path d="M50,0a50,50,0,0,1,50,50h0A50,50,0,0,1,0,50H0A50,50,0,0,1,50,0Z" stroke="none"/>
            <path d="M 49.99972534179688 3 C 43.65348052978516 3 37.49866485595703 4.242240905761719 31.70623016357422 6.692230224609375 C 26.10989379882812 9.059272766113281 21.08323669433594 12.44853210449219 16.76589202880859 16.76587677001953 C 12.44855499267578 21.08321380615234 9.059295654296875 26.10985565185547 6.692230224609375 31.70618438720703 C 4.24224853515625 37.49859619140625 3 43.65341186523438 3 50.00022888183594 C 3 56.34645843505859 4.24224853515625 62.50127410888672 6.692230224609375 68.29368591308594 C 9.059295654296875 73.8900146484375 12.44855499267578 78.91665649414062 16.76589202880859 83.23399353027344 C 21.08323669433594 87.55132293701172 26.10989379882812 90.94059753417969 31.70623016357422 93.30764007568359 C 37.49866485595703 95.75762939453125 43.65348052978516 96.99987030029297 49.99972534179688 96.99987030029297 C 56.34597015380859 96.99987030029297 62.50078582763672 95.75762939453125 68.293212890625 93.30764007568359 C 73.88955688476562 90.94059753417969 78.91621398925781 87.55132293701172 83.23355865478516 83.23399353027344 C 87.55089569091797 78.91665649414062 90.94015502929688 73.8900146484375 93.30722045898438 68.29368591308594 C 95.7572021484375 62.50127410888672 96.99945068359375 56.34645843505859 96.99945068359375 49.99964141845703 C 96.99945068359375 43.65341186523438 95.7572021484375 37.49859619140625 93.30722045898438 31.70618438720703 C 90.94015502929688 26.10985565185547 87.55089569091797 21.08321380615234 83.23355865478516 16.76587677001953 C 78.91621398925781 12.44853210449219 73.88955688476562 9.059272766113281 68.293212890625 6.692230224609375 C 62.50078582763672 4.242240905761719 56.34597015380859 3 49.99972534179688 3 M 49.99972534179688 0 C 77.61381530761719 0 99.99945068359375 22.38559722900391 99.99945068359375 49.99964141845703 L 99.99945068359375 50.00022888183594 C 99.99945068359375 77.6142578125 77.61381530761719 99.99987030029297 49.99972534179688 99.99987030029297 C 22.38563537597656 99.99987030029297 0 77.6142578125 0 50.00022888183594 L 0 49.99964141845703 C 0 22.38559722900391 22.38563537597656 0 49.99972534179688 0 Z" stroke="none" fill="#fff"/>
          </g>
        </g>
      </g>
    </g>
    <g id="food_16443873" transform="translate(828.871 2537.527)">
      <path id="Trazado_1049334" data-name="Trazado 1049334" d="M68.9,44.364,67.381,59.632c-.056-.06-.1-.116-.157-.176l-.134-.139c-.042-.042-.083-.079-.125-.12-.023-.028-.051-.056-.074-.079a.7.7,0,0,1-.06-.051,2.764,2.764,0,0,0-1.745-.671H65a2.687,2.687,0,0,0-1.032.208,2.446,2.446,0,0,0-.653.384,2.65,2.65,0,0,0-.375.347c-.292.333-.773.9-1.338,1.662-.083.106-.167.222-.25.338-.194.269-.394.56-.6.866-.019.023-.032.046-.051.069-.088.139-.176.278-.269.417-.051.083-.106.167-.157.25s-.106.176-.162.269c-.171.282-.343.574-.509.88-.023.042-.046.079-.069.125a.262.262,0,0,0-.037.06V55.155a1.852,1.852,0,0,0-3.7,0V67.108s-.014,0-.019,0c-.856-.222-1.657-.394-2.356-.514l-.255-.042c-.074-.014-.148-.023-.218-.037l-.282-.042c-.056-.009-.116-.019-.171-.023-.079-.014-.153-.023-.222-.032l-.218-.028-.13-.014c-.5-.06-.875-.093-1.069-.106H50.7a2.928,2.928,0,0,0-.352.023.313.313,0,0,0-.065.009,2.647,2.647,0,0,0-.264.051.613.613,0,0,0-.088.023,2.3,2.3,0,0,0-.236.074c-.028.014-.056.019-.083.032a2.1,2.1,0,0,0-.273.13l-.028.014a.419.419,0,0,0-.074.051c-.069.042-.139.088-.2.134-.028.023-.06.046-.088.069a3.347,3.347,0,0,0-.273.245c-.037.046-.074.093-.111.134s-.051.06-.074.088a2.733,2.733,0,0,0-.56,1.852l0,.227.014.278c.019.639.056,1.259.111,1.856v.019a26.584,26.584,0,0,0,.4,2.833.135.135,0,0,0,.009.042c.056.3.12.588.19.875.009.028.014.06.023.093.069.273.139.537.218.8.009.032.019.069.032.106.074.259.157.514.245.764.009.028.023.06.032.093.093.255.185.5.287.75a.538.538,0,0,0,.023.051,11.849,11.849,0,0,0,2.889,4.255H39.863a3.7,3.7,0,0,0,.19-1.157V51.961c0-.861-.5-2.106-2.468-6.009-.227-.44-.472-.917-.731-1.431-.014-.019-.023-.042-.037-.065-.056-.106-.111-.213-.167-.324a32.982,32.982,0,0,0,6,.662c1.361-.2,3.62-1.5,7.842.2,0,0,3.731-1.792,7.032.231,0,0,3.009-2.287,6.046-.4Z" transform="translate(-19.683 -23.674)" fill="#d68751"/>
      <path id="Trazado_1049335" data-name="Trazado 1049335" d="M43.17,13.828c-.139.227-.273.458-.407.694-.106.194-.218.384-.324.579a57.131,57.131,0,0,0-3.421,7.43l-.255.685a6.574,6.574,0,0,0-1.968.653,1.364,1.364,0,0,1-1.356,0,6.533,6.533,0,0,0-3.116-.745A6.4,6.4,0,0,0,29.8,23.6a3.7,3.7,0,0,0,.491-1.833V19.915a3.713,3.713,0,0,0-2.935-3.625,3.847,3.847,0,0,0-.523-.069,1.134,1.134,0,0,0-.125,0,1.006,1.006,0,0,0-.12,0H25.36a10.584,10.584,0,0,1,6.792-5.852,3.566,3.566,0,0,1,.56,1.037,6.329,6.329,0,0,1,.236.94,9.442,9.442,0,0,1,.116,1.56,2.778,2.778,0,0,0,5.555,0c0-.449-.019-.884-.051-1.306-.028-.329-.069-.653-.116-.968a2.593,2.593,0,0,0-.051-.273c-.014-.093-.032-.181-.046-.269-.032-.181-.069-.356-.116-.528a.6.6,0,0,0-.019-.088,10.57,10.57,0,0,1,4.949,3.361Z" transform="translate(-13.619 -5.564)" fill="#fc785e"/>
      <path id="Trazado_1049336" data-name="Trazado 1049336" d="M34.65,13.54a1.573,1.573,0,0,1-.213.083,9.739,9.739,0,0,0-5.384,3.87,3.847,3.847,0,0,0-.523-.069,9.725,9.725,0,0,1,5.546-4.616,1,1,0,0,1,.338-.208,6.329,6.329,0,0,1,.236.94Z" transform="translate(-15.322 -6.767)" fill="#f9dbd7" opacity="0.3"/>
      <path id="Trazado_1049337" data-name="Trazado 1049337" d="M78.881,19.177c-.245.093-.454.19-.63.269-.042.023-.083.046-.125.065a1.382,1.382,0,0,1-1.366,0,6.885,6.885,0,0,0-6.231,0,1.079,1.079,0,0,1-.681.181,1.065,1.065,0,0,1-.681-.181,6.885,6.885,0,0,0-6.231,0,1.373,1.373,0,0,1-1.361,0c-.051-.028-.111-.051-.171-.079-.088-.046-.19-.093-.3-.139a6.055,6.055,0,0,0-1.2-.384c2.412-5.282,8.259-16.44,14.745-16.662C80.9,2.034,79.867,13.223,78.881,19.177Z" transform="translate(-32.169 -1.205)" fill="#ffdb80"/>
      <path id="Trazado_1049338" data-name="Trazado 1049338" d="M76.047,111.978H86.385s4.843-1.312,6.463-5.555a35.527,35.527,0,0,0,2.006-8.256s-6.134-.039-9.954,3.048-3.626,3.935-3.626,3.935-5.748-7.716-13.233-6.6C68.041,98.552,66.384,109.509,76.047,111.978Z" transform="translate(-36.483 -52.72)" fill="#98e07e"/>
      <path id="Trazado_1049339" data-name="Trazado 1049339" d="M81.7,65.852v9.116a21.232,21.232,0,0,0-1.532,3.509c-.741-.269-1.477-.491-2.171-.671V65.852a1.852,1.852,0,0,1,3.7,0Z" transform="translate(-41.89 -34.371)" fill="#ffdb80"/>
      <g id="Grupo_1188232" data-name="Grupo 1188232" transform="translate(14.812 0.003)">
        <path id="Trazado_1049340" data-name="Trazado 1049340" d="M36.7,3.145c1.181,1.091,1.78,2.837,1.78,5.191a.926.926,0,1,0,1.852,0c0-2.906-.807-5.117-2.4-6.572A7.181,7.181,0,0,0,32.841.016.926.926,0,1,0,33,1.861a5.371,5.371,0,0,1,3.7,1.284Z" transform="translate(-31.995 -0.006)" fill="#2d4356"/>
        <path id="Trazado_1049341" data-name="Trazado 1049341" d="M53.045,10.691a9.749,9.749,0,0,1,4.311,2.9q.489-.852,1-1.654a11.58,11.58,0,0,0-5.815-3.311,11.438,11.438,0,0,1,.508,2.065Z" transform="translate(-43.027 -4.635)" fill="#2d4356"/>
        <path id="Trazado_1049342" data-name="Trazado 1049342" d="M85.77,19.477c-.662-1.292-2.444-2.018-3.444-2.338a8.57,8.57,0,0,0-2.514-.435,3.138,3.138,0,0,0-2.088.639,2.2,2.2,0,0,0-.542,2.75c.662,1.292,2.44,2.018,3.44,2.338a8.57,8.57,0,0,0,2.514.435c2.028,0,2.625-1.153,2.787-1.648A2.27,2.27,0,0,0,85.77,19.477Zm-1.606,1.162c-.083.25-.468.375-1.028.375a6.726,6.726,0,0,1-1.949-.347c-1.486-.472-2.56-1.25-2.4-1.736.083-.25.472-.375,1.028-.375a6.754,6.754,0,0,1,1.954.347C83.247,19.375,84.321,20.153,84.164,20.639Z" transform="translate(-56.121 -8.97)" fill="#2d4356"/>
      </g>
      <path id="Trazado_1049343" data-name="Trazado 1049343" d="M86.312,22.793c-.083.25-.468.375-1.028.375a6.726,6.726,0,0,1-1.949-.347c-1.486-.472-2.56-1.25-2.4-1.736.083-.25.472-.375,1.028-.375a6.754,6.754,0,0,1,1.954.347C85.4,21.529,86.469,22.307,86.312,22.793Z" transform="translate(-43.456 -11.122)" fill="#fff"/>
      <path id="Trazado_1049344" data-name="Trazado 1049344" d="M74.025,35.739h0A2.831,2.831,0,0,0,71.537,36.8a5.524,5.524,0,0,1,.765-.051,4.667,4.667,0,0,1,2.3.557,3.2,3.2,0,0,0,2.985,0,6,6,0,0,1,.8-.335,9.312,9.312,0,0,0-1.848-.8,8.506,8.506,0,0,0-2.514-.433Z" transform="translate(-38.419 -19.194)" fill="#2d4356"/>
      <path id="Trazado_1049345" data-name="Trazado 1049345" d="M24.1,15.661h1.8c.081,0,.161.007.241.012a9.753,9.753,0,0,1,5.913-4.732,3.313,3.313,0,0,0-.847-1.417,2.516,2.516,0,0,0-.233-.19A11.634,11.634,0,0,0,24.1,15.661Z" transform="translate(-12.944 -5.013)" fill="#2d4356"/>
      <path id="Trazado_1049346" data-name="Trazado 1049346" d="M13.634,32.426A1.847,1.847,0,0,0,14.815,30.7V28.852A1.851,1.851,0,0,0,12.963,27H5.555A1.851,1.851,0,0,0,3.7,28.852V30.7A1.848,1.848,0,0,0,4.9,32.43C4.329,33.889,0,41.611,0,42.787v29.12a1.851,1.851,0,0,0,1.852,1.852H16.666a1.851,1.851,0,0,0,1.852-1.852V42.787C18.518,41.606,14.2,33.847,13.634,32.426ZM5.555,28.852h7.407V30.7H5.555ZM16.666,71.907H1.852V42.787c0-1.472,3.893-6.926,4.958-10.231h4.907c1.083,3.259,4.949,8.764,4.949,10.231Z" transform="translate(0 -14.5)" fill="#2d4356"/>
      <path id="Trazado_1049347" data-name="Trazado 1049347" d="M12,31h7.407v1.852H12Z" transform="translate(-6.445 -16.648)" fill="#fc785e"/>
      <path id="Trazado_1049348" data-name="Trazado 1049348" d="M13.866,39H8.958C7.893,42.306,4,47.759,4,49.231v29.12H18.815V49.231C18.815,47.764,14.949,42.259,13.866,39ZM11.407,65.851A5.555,5.555,0,1,1,16.963,60.3,5.555,5.555,0,0,1,11.407,65.851Z" transform="translate(-2.148 -20.945)" fill="#e1ebf4"/>
      <path id="Trazado_1049349" data-name="Trazado 1049349" d="M51.7,60A3.709,3.709,0,0,0,48,63.7v15.74A3.7,3.7,0,0,0,54.384,82l-.069-.472c-.065-.454-.12-.921-.162-1.4q-.09-1.035-.125-2.153l0-.227a2.774,2.774,0,0,1,.759-2.065,2.894,2.894,0,0,1,.625-.491V63.7A3.709,3.709,0,0,0,51.7,60Zm1.852,19.444a1.852,1.852,0,0,1-3.7,0V63.7a1.852,1.852,0,0,1,3.7,0Z" transform="translate(-25.778 -32.223)" fill="#2d4356"/>
      <path id="Trazado_1049350" data-name="Trazado 1049350" d="M55.7,65.852v15.74a1.852,1.852,0,0,1-3.7,0V65.852a1.852,1.852,0,1,1,3.7,0Z" transform="translate(-27.926 -34.371)" fill="#ffdb80"/>
      <path id="Trazado_1049351" data-name="Trazado 1049351" d="M81.407,63.7v6.185c-.074.1-.148.208-.222.315a27.8,27.8,0,0,0-1.63,2.634V63.7a1.852,1.852,0,0,0-3.7,0V75.662q-.493-.132-.958-.236c-.31-.074-.606-.134-.894-.19V63.7a3.7,3.7,0,0,1,7.407,0Z" transform="translate(-39.741 -32.223)" fill="#2d4356"/>
      <path id="Trazado_1049352" data-name="Trazado 1049352" d="M93.9,87.148a.935.935,0,0,0-.727-.278,24.715,24.715,0,0,0-6.967,1.569c-.37-2.773-2.069-5.768-5.088-8.94l-.167-.171a.931.931,0,0,0-.7-.329.884.884,0,0,0-.7.315c-.815.921-4.255,5.042-5.1,9.759a24.7,24.7,0,0,0-8.463-2.2.922.922,0,0,0-.731.269.9.9,0,0,0-.25.731v.065l0,.19c.153,5.713,1.588,9.694,4.268,11.842a8.069,8.069,0,0,0,5.194,1.718,12.67,12.67,0,0,0,2.431-.25.925.925,0,0,0,.75-.926,9.284,9.284,0,0,0-.713-3.116c-.079-.19-.162-.38-.259-.579a7.023,7.023,0,0,0-4.037-3.565.925.925,0,1,0-.6,1.75,5.148,5.148,0,0,1,2.981,2.643c.074.153.144.306.208.463a7.678,7.678,0,0,1,.477,1.648,6.788,6.788,0,0,1-5.273-1.236c-2.125-1.7-3.315-4.958-3.546-9.7,2.838.347,10.134,1.773,11.824,7.268a11.822,11.822,0,0,0-.079,4.805.926.926,0,0,0,1.824-.319A8.474,8.474,0,0,1,81.92,93.61c2.708-3.458,8.051-4.5,10.356-4.787-.231,4.768-1.417,8.037-3.532,9.727a6.631,6.631,0,0,1-5.143,1.2,7.771,7.771,0,0,1,.472-1.657A5.161,5.161,0,0,1,87.216,95a.927.927,0,1,0-.611-1.75,7.029,7.029,0,0,0-4.245,4.143,9.425,9.425,0,0,0-.7,3.116.925.925,0,0,0,.745.926,12.4,12.4,0,0,0,2.407.25A7.925,7.925,0,0,0,89.9,100c2.671-2.134,4.106-6.13,4.259-11.875l0-.245a.933.933,0,0,0-.259-.731Zm-13.44,5.319s0,0,0,.009a4.922,4.922,0,0,1,.426-3.338A.925.925,0,1,0,79.23,88.3a6.813,6.813,0,0,0-.708,3.759,11.753,11.753,0,0,0-2.338-2c.426-3.657,2.87-7.171,4.1-8.731,2.639,2.9,4.032,5.565,4.148,7.926a12.355,12.355,0,0,0-3.972,3.213Z" transform="translate(-34.906 -42.426)" fill="#2d4356"/>
      <path id="Trazado_1049353" data-name="Trazado 1049353" d="M97.41,91.956a12.355,12.355,0,0,0-3.972,3.213s0,0,0,.009a4.922,4.922,0,0,1,.426-3.338.925.925,0,0,0-1.653-.833,6.813,6.813,0,0,0-.708,3.759,11.753,11.753,0,0,0-2.338-2c.426-3.657,2.87-7.171,4.1-8.731C95.9,86.933,97.294,89.595,97.41,91.956Z" transform="translate(-47.883 -45.128)" fill="#98e07e"/>
      <path id="Trazado_1049354" data-name="Trazado 1049354" d="M13.555,73a5.555,5.555,0,1,0,5.555,5.555A5.555,5.555,0,0,0,13.555,73Zm0,9.259a3.7,3.7,0,1,1,3.7-3.7A3.7,3.7,0,0,1,13.555,82.259Z" transform="translate(-4.296 -39.204)" fill="#2d4356"/>
      <circle id="Elipse_12068" data-name="Elipse 12068" cx="3.853" cy="3.853" r="3.853" transform="translate(5.395 35.366)" fill="#fc785e"/>
      <path id="Trazado_1049355" data-name="Trazado 1049355" d="M60.412,18.086c3.606-9.508,9.036-16.234,13.1-16.234a3.364,3.364,0,0,1,1.032.157,3.817,3.817,0,0,1,1.94,1.5,5.733,5.733,0,0,1,.394.639,9.209,9.209,0,0,1,.782,2.032c.037.134.074.269.106.412.069.306.134.625.19.954.032.194.06.394.088.6a24.858,24.858,0,0,1,.19,3.583v.014a40.047,40.047,0,0,1-.671,6.5v0a6.374,6.374,0,0,1,1.977-.614c.949-5.915.66-11.066-.935-14.182a6.075,6.075,0,0,0-3.5-3.2A5.252,5.252,0,0,0,73.509,0c-2.889,0-5.773,2.185-8.356,5.481a47.473,47.473,0,0,0-6.541,12.13,6.263,6.263,0,0,1,1.8.474Z" transform="translate(-31.477 0)" fill="#2d4356"/>
      <path id="Trazado_1049356" data-name="Trazado 1049356" d="M38,43.782a2.836,2.836,0,0,1,1.491.369,5.043,5.043,0,0,0,4.607,0,3.2,3.2,0,0,1,2.983,0,5.045,5.045,0,0,0,4.608,0,3.2,3.2,0,0,1,2.984,0,5.047,5.047,0,0,0,4.609,0,3.2,3.2,0,0,1,2.986,0,5.051,5.051,0,0,0,4.61,0,4.945,4.945,0,0,1,.486-.216L66.307,57.8a2.754,2.754,0,0,1,.413.382l.128.135c.418.439.8.876,1.177,1.312L69.29,42.958c0-.02,0-.04,0-.06s0-.027,0-.041-.005-.045-.007-.068,0-.019,0-.028a.923.923,0,0,0-.916-.829,4.668,4.668,0,0,0-2.3.557,3.205,3.205,0,0,1-2.988,0,5.048,5.048,0,0,0-4.609,0,3.2,3.2,0,0,1-2.985,0,5.047,5.047,0,0,0-4.608,0,3.2,3.2,0,0,1-2.984,0,5.043,5.043,0,0,0-4.607,0,3.2,3.2,0,0,1-2.983,0A4.662,4.662,0,0,0,38,41.93a4.545,4.545,0,0,0-2.07.445c.329.616.649,1.194.891,1.629A2.694,2.694,0,0,1,38,43.782Z" transform="translate(-19.294 -22.518)" fill="#2d4356"/>
      <path id="Trazado_1049357" data-name="Trazado 1049357" d="M67.983,45.6l-.074.958c-.134.051-.269.116-.412.185a5.052,5.052,0,0,1-4.606,0,3.2,3.2,0,0,0-2.986,0A4.708,4.708,0,0,1,57.6,47.3a4.657,4.657,0,0,1-2.306-.556,3.185,3.185,0,0,0-2.981,0,5.062,5.062,0,0,1-4.611,0,3.185,3.185,0,0,0-2.981,0,5.052,5.052,0,0,1-4.606,0,2.856,2.856,0,0,0-1.491-.37,3.117,3.117,0,0,0-.8.088c-.227-.44-.472-.917-.731-1.431.13.236.245.449.352.639a2.7,2.7,0,0,1,1.181-.222,2.856,2.856,0,0,1,1.491.37,5.052,5.052,0,0,0,4.606,0,3.185,3.185,0,0,1,2.981,0,5.062,5.062,0,0,0,4.611,0,3.185,3.185,0,0,1,2.981,0,4.657,4.657,0,0,0,2.306.556,4.707,4.707,0,0,0,2.306-.556,3.2,3.2,0,0,1,2.986,0,5.052,5.052,0,0,0,4.606,0C67.668,45.734,67.821,45.66,67.983,45.6Z" transform="translate(-19.919 -24.183)" fill="#e5d0c3" opacity="0.3"/>
      <path id="Trazado_1049358" data-name="Trazado 1049358" d="M113.856,100.22c-.231,4.768-1.417,8.037-3.532,9.727a6.631,6.631,0,0,1-5.143,1.2,7.609,7.609,0,0,1,.208-.9,6.542,6.542,0,0,0,4.935-1.227c1.972-1.579,3.139-4.528,3.472-8.792.023,0,.042,0,.06-.009Z" transform="translate(-56.486 -53.823)" fill="#528440" opacity="0.3"/>
      <path id="Trazado_1049359" data-name="Trazado 1049359" d="M77.9,111.145a6.788,6.788,0,0,1-5.273-1.236c-2.125-1.7-3.315-4.958-3.546-9.7.019,0,.037,0,.06.009.338,4.236,1.5,7.18,3.486,8.764a6.692,6.692,0,0,0,5.06,1.259A7.7,7.7,0,0,1,77.9,111.145Z" transform="translate(-37.099 -53.817)" fill="#528440" opacity="0.3"/>
      <path id="Trazado_1049360" data-name="Trazado 1049360" d="M57.95,15.988c-.106.194-.218.384-.324.579a9.54,9.54,0,0,0-3.87-2.509c-.028-.329-.069-.653-.116-.968A9.7,9.7,0,0,1,57.95,15.988Z" transform="translate(-28.807 -7.03)" fill="#f9dbd7" opacity="0.3"/>
      <path id="Trazado_1049361" data-name="Trazado 1049361" d="M80.319,13.87c-.083-4.7-1.329-8.032-3.69-8.787A3.364,3.364,0,0,0,75.6,4.926c-3.949,0-9.19,6.361-12.8,15.449-.088-.046-.19-.093-.3-.139C66.106,10.727,71.537,4,75.6,4a3.364,3.364,0,0,1,1.032.157,3.817,3.817,0,0,1,1.94,1.5,6.518,6.518,0,0,1,.394.639,9.21,9.21,0,0,1,.782,2.032c.037.134.074.273.106.412.069.306.134.625.19.954.032.194.06.394.088.6a24.859,24.859,0,0,1,.19,3.583Z" transform="translate(-33.565 -2.148)" fill="#f9edd2" opacity="0.5"/>
      <path id="Trazado_1049362" data-name="Trazado 1049362" d="M18.815,49.231v.926c0-1.468-3.866-6.972-4.949-10.231H8.958C7.893,43.231,4,48.685,4,50.157v-.926C4,47.759,7.893,42.306,8.958,39h4.907C14.949,42.259,18.815,47.764,18.815,49.231Z" transform="translate(-2.148 -20.945)" fill="#fff" opacity="0.5"/>
      <path id="Trazado_1049363" data-name="Trazado 1049363" d="M12,31h7.407v.926H12Z" transform="translate(-6.445 -16.648)" fill="#f9dbd7" opacity="0.3"/>
      <path id="Trazado_1049364" data-name="Trazado 1049364" d="M4,122H18.815v.926H4Z" transform="translate(-2.148 -65.519)" fill="#9fa5aa" opacity="0.5"/>
      <path id="Trazado_1049365" data-name="Trazado 1049365" d="M55.7,100v.926a1.852,1.852,0,0,1-3.7,0V100a1.852,1.852,0,1,0,3.7,0Z" transform="translate(-27.926 -53.704)" fill="#ad9359" opacity="0.45"/>
      <path id="Trazado_1049366" data-name="Trazado 1049366" d="M55.7,65.852v.926a1.852,1.852,0,1,0-3.7,0v-.926a1.852,1.852,0,1,1,3.7,0Z" transform="translate(-27.926 -34.371)" fill="#f9edd2" opacity="0.5"/>
      <path id="Trazado_1049367" data-name="Trazado 1049367" d="M81.7,65.852v.926a1.852,1.852,0,0,0-3.7,0v-.926a1.852,1.852,0,0,1,3.7,0Z" transform="translate(-41.89 -34.371)" fill="#f9edd2" opacity="0.5"/>
      <path id="Trazado_1049368" data-name="Trazado 1049368" d="M109.985,100.22c-.014.319-.037.63-.06.935-2.333.3-7.611,1.347-10.3,4.778a7.734,7.734,0,0,0-1.634,4.537,7.994,7.994,0,0,1,1.634-5.463C102.337,101.549,107.68,100.512,109.985,100.22Z" transform="translate(-52.616 -53.823)" fill="#cbe0c3" opacity="0.6"/>
      <path id="Trazado_1049369" data-name="Trazado 1049369" d="M80.9,107.478c-.046.19-.088.384-.12.579-1.87-5.171-8.829-6.56-11.643-6.912-.023-.306-.046-.616-.06-.935C71.918,100.557,79.214,101.983,80.9,107.478Z" transform="translate(-37.099 -53.817)" fill="#cbe0c3" opacity="0.6"/>
      <path id="Trazado_1049370" data-name="Trazado 1049370" d="M97.41,91.956l-.1.056c-.375-2.139-1.731-4.5-4.051-7.055a20.168,20.168,0,0,0-3.968,7.9c-.042-.032-.088-.06-.134-.093.426-3.657,2.87-7.171,4.1-8.731C95.9,86.933,97.294,89.595,97.41,91.956Z" transform="translate(-47.883 -45.128)" fill="#cbe0c3" opacity="0.6"/>
      <path id="Trazado_1049371" data-name="Trazado 1049371" d="M19.407,80.7a3.827,3.827,0,0,1-.028.463,3.705,3.705,0,0,0-7.352,0A3.827,3.827,0,0,1,12,80.7a3.7,3.7,0,1,1,7.407,0Z" transform="translate(-6.445 -41.352)" fill="#f9dbd7" opacity="0.3"/>
      <path id="Trazado_1049372" data-name="Trazado 1049372" d="M19.407,84.463a3.7,3.7,0,0,1-7.407,0A3.827,3.827,0,0,1,12.028,84a3.705,3.705,0,0,0,7.352,0A3.827,3.827,0,0,1,19.407,84.463Z" transform="translate(-6.445 -45.112)" fill="#a54b3f" opacity="0.5"/>
      <path id="Trazado_1049373" data-name="Trazado 1049373" d="M54.6,122H44v.926H54.935a9.487,9.487,0,0,0,.843.926h.336A10.867,10.867,0,0,1,54.6,122Z" transform="translate(-23.63 -65.519)" fill="#72492d" opacity="0.4"/>
      <path id="Trazado_1049374" data-name="Trazado 1049374" d="M56.262,125.581A10.247,10.247,0,0,1,54.686,124H43.419a3.676,3.676,0,0,1-.5,1.852H56.633c-.124-.09-.25-.175-.371-.271Z" transform="translate(-23.049 -66.594)" fill="#2d4356"/>
    </g>
  </g>
</svg>
