<svg xmlns="http://www.w3.org/2000/svg" xmlns:xlink="http://www.w3.org/1999/xlink" width="117.999" height="118" viewBox="0 0 117.999 118">
  <defs>
    <filter id="Trazado_874925" x="0" y="0" width="117.999" height="118" filterUnits="userSpaceOnUse">
      <feOffset dy="3" input="SourceAlpha"/>
      <feGaussianBlur stdDeviation="3" result="blur"/>
      <feFlood flood-opacity="0.161"/>
      <feComposite operator="in" in2="blur"/>
      <feComposite in="SourceGraphic"/>
    </filter>
  </defs>
  <g id="Grupo_1188155" data-name="Grupo 1188155" transform="translate(-799.5 -2511.157)">
    <g id="Grupo_1111316" data-name="Grupo 1111316" transform="translate(808.5 2517.157)">
      <g id="Grupo_1109835" data-name="Grupo 1109835" transform="translate(0 0)">
        <g id="Grupo_1107913" data-name="Grupo 1107913" transform="translate(0 0)">
          <g transform="matrix(1, 0, 0, 1, -9, -6)" filter="url(#Trazado_874925)">
            <g id="Trazado_874925-2" data-name="Trazado 874925" transform="translate(9 6)" fill="#9ad354" opacity="0.859">
              <path d="M 49.99972534179688 98.4998779296875 C 43.45164108276367 98.4998779296875 37.10022354125977 97.21776580810547 31.12189674377441 94.68914794921875 C 25.34676742553711 92.24647521972656 20.15985298156738 88.74925994873047 15.70523929595947 84.29464721679688 C 11.25062561035156 79.84004974365234 7.753411293029785 74.65313720703125 5.310725212097168 68.87800598144531 C 2.782111167907715 62.89969253540039 1.499996781349182 56.54829406738281 1.499996781349182 50.00022125244141 C 1.499996781349182 43.45157623291016 2.782111167907715 37.10017776489258 5.310725212097168 31.12186431884766 C 7.753411293029785 25.34673500061035 11.25062561035156 20.15983581542969 15.70523929595947 15.70522117614746 C 20.15985298156738 11.25062084197998 25.34676742553711 7.753406524658203 31.12189674377441 5.31073522567749 C 37.10022354125977 2.782120943069458 43.45164108276367 1.500006556510925 49.99972534179688 1.500006556510925 C 56.54780960083008 1.500006556510925 62.89922714233398 2.782120943069458 68.87755584716797 5.31073522567749 C 74.65267944335938 7.753406524658203 79.839599609375 11.25062084197998 84.29421234130859 15.70522117614746 C 88.74882507324219 20.15983581542969 92.24604034423828 25.34673500061035 94.68872833251953 31.12186431884766 C 97.21733856201172 37.10017776489258 98.49945068359375 43.45157623291016 98.49945068359375 49.99964904785156 C 98.49945068359375 56.54829406738281 97.21733856201172 62.89969253540039 94.68872833251953 68.87800598144531 C 92.24604034423828 74.65313720703125 88.74882507324219 79.84004974365234 84.29421234130859 84.29464721679688 C 79.839599609375 88.74925994873047 74.65267944335938 92.24647521972656 68.87755584716797 94.68914794921875 C 62.89922714233398 97.21776580810547 56.54780960083008 98.4998779296875 49.99972534179688 98.4998779296875 Z" stroke="none"/>
              <path d="M 49.99972534179688 3 C 43.65348052978516 3 37.49866485595703 4.242240905761719 31.70623016357422 6.692230224609375 C 26.10989379882812 9.059272766113281 21.08323669433594 12.44853210449219 16.76589202880859 16.76587677001953 C 12.44855499267578 21.08321380615234 9.059295654296875 26.10985565185547 6.692230224609375 31.70618438720703 C 4.24224853515625 37.49859619140625 3 43.65341186523438 3 50.00022888183594 C 3 56.34645843505859 4.24224853515625 62.50127410888672 6.692230224609375 68.29368591308594 C 9.059295654296875 73.8900146484375 12.44855499267578 78.91665649414062 16.76589202880859 83.23399353027344 C 21.08323669433594 87.55132293701172 26.10989379882812 90.94059753417969 31.70623016357422 93.30764007568359 C 37.49866485595703 95.75762939453125 43.65348052978516 96.99987030029297 49.99972534179688 96.99987030029297 C 56.34597015380859 96.99987030029297 62.50078582763672 95.75762939453125 68.293212890625 93.30764007568359 C 73.88955688476562 90.94059753417969 78.91621398925781 87.55132293701172 83.23355865478516 83.23399353027344 C 87.55089569091797 78.91665649414062 90.94015502929688 73.8900146484375 93.30722045898438 68.29368591308594 C 95.7572021484375 62.50127410888672 96.99945068359375 56.34645843505859 96.99945068359375 49.99964141845703 C 96.99945068359375 43.65341186523438 95.7572021484375 37.49859619140625 93.30722045898438 31.70618438720703 C 90.94015502929688 26.10985565185547 87.55089569091797 21.08321380615234 83.23355865478516 16.76587677001953 C 78.91621398925781 12.44853210449219 73.88955688476562 9.059272766113281 68.293212890625 6.692230224609375 C 62.50078582763672 4.242240905761719 56.34597015380859 3 49.99972534179688 3 M 49.99972534179688 0 C 77.61381530761719 0 99.99945068359375 22.38559722900391 99.99945068359375 49.99964141845703 L 99.99945068359375 50.00022888183594 C 99.99945068359375 77.6142578125 77.61381530761719 99.99987030029297 49.99972534179688 99.99987030029297 C 22.38563537597656 99.99987030029297 0 77.6142578125 0 50.00022888183594 L 0 49.99964141845703 C 0 22.38559722900391 22.38563537597656 0 49.99972534179688 0 Z" stroke="none" fill="#fff"/>
            </g>
          </g>
          <g id="Trazado_874923" data-name="Trazado 874923" transform="translate(0 0)" fill="none">
            <path d="M50,0a50,50,0,0,1,50,50h0A50,50,0,0,1,0,50H0A50,50,0,0,1,50,0Z" stroke="none"/>
            <path d="M 49.99972534179688 3 C 43.65348052978516 3 37.49866485595703 4.242240905761719 31.70623016357422 6.692230224609375 C 26.10989379882812 9.059272766113281 21.08323669433594 12.44853210449219 16.76589202880859 16.76587677001953 C 12.44855499267578 21.08321380615234 9.059295654296875 26.10985565185547 6.692230224609375 31.70618438720703 C 4.24224853515625 37.49859619140625 3 43.65341186523438 3 50.00022888183594 C 3 56.34645843505859 4.24224853515625 62.50127410888672 6.692230224609375 68.29368591308594 C 9.059295654296875 73.8900146484375 12.44855499267578 78.91665649414062 16.76589202880859 83.23399353027344 C 21.08323669433594 87.55132293701172 26.10989379882812 90.94059753417969 31.70623016357422 93.30764007568359 C 37.49866485595703 95.75762939453125 43.65348052978516 96.99987030029297 49.99972534179688 96.99987030029297 C 56.34597015380859 96.99987030029297 62.50078582763672 95.75762939453125 68.293212890625 93.30764007568359 C 73.88955688476562 90.94059753417969 78.91621398925781 87.55132293701172 83.23355865478516 83.23399353027344 C 87.55089569091797 78.91665649414062 90.94015502929688 73.8900146484375 93.30722045898438 68.29368591308594 C 95.7572021484375 62.50127410888672 96.99945068359375 56.34645843505859 96.99945068359375 49.99964141845703 C 96.99945068359375 43.65341186523438 95.7572021484375 37.49859619140625 93.30722045898438 31.70618438720703 C 90.94015502929688 26.10985565185547 87.55089569091797 21.08321380615234 83.23355865478516 16.76587677001953 C 78.91621398925781 12.44853210449219 73.88955688476562 9.059272766113281 68.293212890625 6.692230224609375 C 62.50078582763672 4.242240905761719 56.34597015380859 3 49.99972534179688 3 M 49.99972534179688 0 C 77.61381530761719 0 99.99945068359375 22.38559722900391 99.99945068359375 49.99964141845703 L 99.99945068359375 50.00022888183594 C 99.99945068359375 77.6142578125 77.61381530761719 99.99987030029297 49.99972534179688 99.99987030029297 C 22.38563537597656 99.99987030029297 0 77.6142578125 0 50.00022888183594 L 0 49.99964141845703 C 0 22.38559722900391 22.38563537597656 0 49.99972534179688 0 Z" stroke="none" fill="#fff"/>
          </g>
        </g>
      </g>
    </g>
    <g id="plant_14124546" transform="translate(826.505 2535.172)">
      <path id="Trazado_1049375" data-name="Trazado 1049375" d="M30,25.98h4V36.99H30Z" fill="#8a8a8a"/>
      <path id="Trazado_1049376" data-name="Trazado 1049376" d="M24.24,49l-1-4.67a12.19,12.19,0,0,1,.44-6.58,4.1,4.1,0,0,1,1.52-2A4.39,4.39,0,0,1,27.68,35h8.63a4.21,4.21,0,0,1,4,2.76v.1a12.37,12.37,0,0,1,.41,6.55l-1,4.55" fill="#dddcdb"/>
      <path id="Trazado_1049377" data-name="Trazado 1049377" d="M34,28H30L28.28,18a3.729,3.729,0,1,1,7.44,0Z" fill="#95cbe9"/>
      <g id="Grupo_1188233" data-name="Grupo 1188233">
        <path id="Trazado_1049378" data-name="Trazado 1049378" d="M51,3,49.09,6.19a8,8,0,0,0,.33,8.57L51,17l1.58-2.21a8,8,0,0,0,.33-8.57Z" fill="#ebcc90"/>
        <path id="Trazado_1049379" data-name="Trazado 1049379" d="M61,17l-3.64,1a8,8,0,0,0-5.86,6.3l-.45,2.68,2.69-.45a8,8,0,0,0,6.33-5.83Z" fill="#ebcc90"/>
        <path id="Trazado_1049380" data-name="Trazado 1049380" d="M41,17l3.64.93a8,8,0,0,1,5.86,6.3l.5,2.7-2.69-.45a8,8,0,0,1-6.33-5.83Z" fill="#ebcc90"/>
        <path id="Trazado_1049381" data-name="Trazado 1049381" d="M61,29l-3.64,1a8,8,0,0,0-5.86,6.3l-.45,2.68,2.69-.45a8,8,0,0,0,6.33-5.83Z" fill="#ebcc90"/>
        <path id="Trazado_1049382" data-name="Trazado 1049382" d="M41,29l3.64.93a8,8,0,0,1,5.86,6.3l.5,2.71-2.69-.45a8,8,0,0,1-6.33-5.83Z" fill="#ebcc90"/>
        <path id="Trazado_1049383" data-name="Trazado 1049383" d="M13,3,11.09,6.19a8,8,0,0,0,.33,8.57L13,17l1.58-2.21a8,8,0,0,0,.33-8.57Z" fill="#ebcc90"/>
        <path id="Trazado_1049384" data-name="Trazado 1049384" d="M23,17l-3.64,1a8,8,0,0,0-5.86,6.3l-.45,2.68,2.69-.45a8,8,0,0,0,6.33-5.83Z" fill="#ebcc90"/>
        <path id="Trazado_1049385" data-name="Trazado 1049385" d="M3,17l3.64,1a8,8,0,0,1,5.86,6.3l.5,2.63-2.69-.45a8,8,0,0,1-6.33-5.83Z" fill="#ebcc90"/>
        <path id="Trazado_1049386" data-name="Trazado 1049386" d="M23,29l-3.64,1a8,8,0,0,0-5.86,6.3l-.45,2.68,2.69-.45a8,8,0,0,0,6.33-5.83Z" fill="#ebcc90"/>
        <path id="Trazado_1049387" data-name="Trazado 1049387" d="M3,29l3.64,1a8,8,0,0,1,5.86,6.3l.5,2.64-2.69-.45a8,8,0,0,1-6.33-5.83Z" fill="#ebcc90"/>
      </g>
      <path id="Trazado_1049388" data-name="Trazado 1049388" d="M60,50.85l-6.1-5.58a3.9,3.9,0,0,0-5.39-.15l-4.23,3.56a3.87,3.87,0,0,1-5.19,0L34.56,45a3.86,3.86,0,0,0-5.18,0L25,48.68a3.87,3.87,0,0,1-5.19,0l-4.36-3.61a3.89,3.89,0,0,0-5.38.19L4,50.85V61H60Z" fill="#866042"/>
      <path id="Trazado_1049389" data-name="Trazado 1049389" d="M57,48.1V56a2,2,0,0,1-2,2H4v3H60V50.85Z" fill="#412f26"/>
      <path id="Trazado_1049390" data-name="Trazado 1049390" d="M6.89,29l-3.64-.93a1.02,1.02,0,0,0-1.26,1.26L3,32.91a9,9,0,0,0,7.13,6.56l1.91.32v3.39A5.41,5.41,0,0,0,9.4,44.54l-6,5.58a1,1,0,0,0-.32.73V61a1,1,0,0,0,1,1H60a1,1,0,0,0,1-1V50.85a1,1,0,0,0-.32-.74l-6.1-5.58A5.36,5.36,0,0,0,52,43.19v-3.4l1.91-.32A9,9,0,0,0,61,32.91l1-3.63a1.02,1.02,0,0,0-1.26-1.26L57.11,29A9,9,0,0,0,52,32.53V27.79l1.91-.32A9,9,0,0,0,61,20.9l1-3.63a1.017,1.017,0,0,0-1.26-1.22L57.11,17A9,9,0,0,0,52,20.53V17.29l1.39-1.95a9,9,0,0,0,.38-9.66L51.86,2.46a1,1,0,0,0-1.72,0L48.23,5.68a9,9,0,0,0,.38,9.66L50,17.29v3.24A9,9,0,0,0,44.89,17l-3.64-.93a1.017,1.017,0,0,0-1.26,1.22L41,20.9a9,9,0,0,0,7.13,6.57l1.91.32v4.74A9,9,0,0,0,44.89,29l-3.64-.93a1.02,1.02,0,0,0-1.26,1.26L41,32.91a9,9,0,0,0,7.13,6.56l1.91.32v3.47a5.31,5.31,0,0,0-2.13,1.1l-4.23,3.55a2.9,2.9,0,0,1-2.76.65l.83-4a13.28,13.28,0,0,0-.43-7.07v-.12A5.18,5.18,0,0,0,36.31,34H35V28.07l1.71-10a4.72,4.72,0,1,0-9.41.09L29,28.07V34H27.68a5.46,5.46,0,0,0-3,.93,5.11,5.11,0,0,0-1.89,2.47,13.17,13.17,0,0,0-.48,7.12l.85,4.06a2.86,2.86,0,0,1-2.71-.63l-4.36-3.61A5.34,5.34,0,0,0,14,43.26V39.79l1.91-.32A9,9,0,0,0,23,32.91l1-3.63a1.02,1.02,0,0,0-1.26-1.26L19.11,29A9,9,0,0,0,14,32.53V27.79l1.91-.32A9,9,0,0,0,23,20.9l1-3.63a1.017,1.017,0,0,0-1.26-1.22L19.11,17A9,9,0,0,0,14,20.53V17.29l1.39-1.95a9,9,0,0,0,.38-9.66L13.86,2.46a1,1,0,0,0-1.72,0L10.23,5.68a9,9,0,0,0,.38,9.66L12,17.29v3.24A9,9,0,0,0,6.89,17l-3.64-.93a1.017,1.017,0,0,0-1.26,1.22L3,20.9a9,9,0,0,0,7.13,6.57l1.91.32v4.74A9,9,0,0,0,6.89,29Zm3.53,8.51a7,7,0,0,1-5.52-5.1l-.51-2,2,.51a7,7,0,0,1,5.11,5.49l.22,1.3Zm42.07-1.08a7,7,0,0,1,5.11-5.49l2-.51-.51,2a7,7,0,0,1-5.52,5.09l-1.31.22Zm0-12a7,7,0,0,1,5.11-5.5l2-.51-.51,2a7,7,0,0,1-5.52,5.08l-1.31.22ZM48.42,25.5a7,7,0,0,1-5.52-5.08l-.51-2,2,.51a7,7,0,0,1,5.11,5.5l.22,1.29Zm0,12a7,7,0,0,1-5.52-5.09l-.51-2,2,.51a7,7,0,0,1,5.11,5.49l.22,1.3ZM14.49,36.42a7,7,0,0,1,5.11-5.49l2-.51-.51,2a7,7,0,0,1-5.52,5.09l-1.31.22Zm0-12a7,7,0,0,1,5.11-5.5l2-.51-.51,2a7,7,0,0,1-5.52,5.08l-1.31.22Zm-4.07,1.07A7,7,0,0,1,4.9,20.41l-.51-2,2,.51a7,7,0,0,1,5.11,5.5l.22,1.29ZM50,6.7l1-1.77L52,6.7a7,7,0,0,1-.29,7.48L51,15.25l-.76-1.07A7,7,0,0,1,50,6.7ZM25,47.41l-.69-3.32A11.54,11.54,0,0,1,24,41H40a11.38,11.38,0,0,1-.2,3.19l-.68,3.22L35.2,44.2a4.88,4.88,0,0,0-6.46,0Zm5-31.57a2.78,2.78,0,0,1,4,0,2.66,2.66,0,0,1,.74,2L33.16,27H30.84l-1.56-9.09A2.69,2.69,0,0,1,30,15.84ZM31,29h2v5H31Zm-5.22,7.59a3.42,3.42,0,0,1,1.9-.58h8.63a3.16,3.16,0,0,1,3,2v.12c.09.27.15.55.22.83H24.38c.09-.32.16-.63.27-.94a3,3,0,0,1,1.13-1.45Zm-6.64,12.9a4.88,4.88,0,0,0,6.47,0L30,45.76a2.89,2.89,0,0,1,3.91,0l4.52,3.74a4.88,4.88,0,0,0,6.47,0l4.23-3.55a2.9,2.9,0,0,1,4.08.12L59,51.29V60H5V51.29L10.72,46a2.9,2.9,0,0,1,4.06-.15ZM12,6.7l1-1.77L14.05,6.7a7,7,0,0,1-.29,7.48L13,15.25l-.76-1.07A7,7,0,0,1,12,6.7Z"/>
      <path id="Trazado_1049391" data-name="Trazado 1049391" d="M11,47.99h4v2H11Z"/>
      <path id="Trazado_1049392" data-name="Trazado 1049392" d="M30,47.99h4v2H30Z"/>
      <path id="Trazado_1049393" data-name="Trazado 1049393" d="M49,47.99h4v2H49Z"/>
      <path id="Trazado_1049394" data-name="Trazado 1049394" d="M11,56h4v2H11Z"/>
      <path id="Trazado_1049395" data-name="Trazado 1049395" d="M30,56h4v2H30Z"/>
      <path id="Trazado_1049396" data-name="Trazado 1049396" d="M49,56h4v2H49Z"/>
      <path id="Trazado_1049397" data-name="Trazado 1049397" d="M7,51.99h4v2H7Z"/>
      <path id="Trazado_1049398" data-name="Trazado 1049398" d="M15,51.99h4v2H15Z"/>
      <path id="Trazado_1049399" data-name="Trazado 1049399" d="M26,51.99h4v2H26Z"/>
      <path id="Trazado_1049400" data-name="Trazado 1049400" d="M34,51.99h4v2H34Z"/>
      <path id="Trazado_1049401" data-name="Trazado 1049401" d="M45,51.99h4v2H45Z"/>
      <path id="Trazado_1049402" data-name="Trazado 1049402" d="M53,51.99h4v2H53Z"/>
    </g>
  </g>
</svg>
