<svg xmlns="http://www.w3.org/2000/svg" xmlns:xlink="http://www.w3.org/1999/xlink" width="118" height="118" viewBox="0 0 118 118">
  <defs>
    <filter id="Trazado_874925" x="0" y="0" width="118" height="118" filterUnits="userSpaceOnUse">
      <feOffset dy="3" input="SourceAlpha"/>
      <feGaussianBlur stdDeviation="3" result="blur"/>
      <feFlood flood-opacity="0.161"/>
      <feComposite operator="in" in2="blur"/>
      <feComposite in="SourceGraphic"/>
    </filter>
  </defs>
  <g id="Grupo_1188161" data-name="Grupo 1188161" transform="translate(-1108.134 -1933.999)">
    <g id="Grupo_1111553" data-name="Grupo 1111553" transform="translate(308.634 -577.158)">
      <g id="Grupo_1111316" data-name="Grupo 1111316" transform="translate(808.5 2517.157)">
        <g id="Grupo_1109835" data-name="Grupo 1109835" transform="translate(0 0)">
          <g id="Grupo_1107913" data-name="Grupo 1107913" transform="translate(0 0)">
            <g transform="matrix(1, 0, 0, 1, -9, -6)" filter="url(#Trazado_874925)">
              <g id="Trazado_874925-2" data-name="Trazado 874925" transform="translate(9 6)" fill="#bb965f" opacity="0.859">
                <path d="M 49.99972534179688 98.4998779296875 C 43.45164108276367 98.4998779296875 37.10022354125977 97.21776580810547 31.12189674377441 94.68914794921875 C 25.34676742553711 92.24647521972656 20.15985298156738 88.74925994873047 15.70523929595947 84.29464721679688 C 11.25062561035156 79.84004974365234 7.753411293029785 74.65313720703125 5.310725212097168 68.87800598144531 C 2.782111167907715 62.89969253540039 1.499996781349182 56.54829406738281 1.499996781349182 50.00022125244141 C 1.499996781349182 43.45157623291016 2.782111167907715 37.10017776489258 5.310725212097168 31.12186431884766 C 7.753411293029785 25.34673500061035 11.25062561035156 20.15983581542969 15.70523929595947 15.70522117614746 C 20.15985298156738 11.25062084197998 25.34676742553711 7.753406524658203 31.12189674377441 5.31073522567749 C 37.10022354125977 2.782120943069458 43.45164108276367 1.500006556510925 49.99972534179688 1.500006556510925 C 56.54780960083008 1.500006556510925 62.89922714233398 2.782120943069458 68.87755584716797 5.31073522567749 C 74.65267944335938 7.753406524658203 79.839599609375 11.25062084197998 84.29421234130859 15.70522117614746 C 88.74882507324219 20.15983581542969 92.24604034423828 25.34673500061035 94.68872833251953 31.12186431884766 C 97.21733856201172 37.10017776489258 98.49945068359375 43.45157623291016 98.49945068359375 49.99964904785156 C 98.49945068359375 56.54829406738281 97.21733856201172 62.89969253540039 94.68872833251953 68.87800598144531 C 92.24604034423828 74.65313720703125 88.74882507324219 79.84004974365234 84.29421234130859 84.29464721679688 C 79.839599609375 88.74925994873047 74.65267944335938 92.24647521972656 68.87755584716797 94.68914794921875 C 62.89922714233398 97.21776580810547 56.54780960083008 98.4998779296875 49.99972534179688 98.4998779296875 Z" stroke="none"/>
                <path d="M 49.99972534179688 3 C 43.65348052978516 3 37.49866485595703 4.242240905761719 31.70623016357422 6.692230224609375 C 26.10989379882812 9.059272766113281 21.08323669433594 12.44853210449219 16.76589202880859 16.76587677001953 C 12.44855499267578 21.08321380615234 9.059295654296875 26.10985565185547 6.692230224609375 31.70618438720703 C 4.24224853515625 37.49859619140625 3 43.65341186523438 3 50.00022888183594 C 3 56.34645843505859 4.24224853515625 62.50127410888672 6.692230224609375 68.29368591308594 C 9.059295654296875 73.8900146484375 12.44855499267578 78.91665649414062 16.76589202880859 83.23399353027344 C 21.08323669433594 87.55132293701172 26.10989379882812 90.94059753417969 31.70623016357422 93.30764007568359 C 37.49866485595703 95.75762939453125 43.65348052978516 96.99987030029297 49.99972534179688 96.99987030029297 C 56.34597015380859 96.99987030029297 62.50078582763672 95.75762939453125 68.293212890625 93.30764007568359 C 73.88955688476562 90.94059753417969 78.91621398925781 87.55132293701172 83.23355865478516 83.23399353027344 C 87.55089569091797 78.91665649414062 90.94015502929688 73.8900146484375 93.30722045898438 68.29368591308594 C 95.7572021484375 62.50127410888672 96.99945068359375 56.34645843505859 96.99945068359375 49.99964141845703 C 96.99945068359375 43.65341186523438 95.7572021484375 37.49859619140625 93.30722045898438 31.70618438720703 C 90.94015502929688 26.10985565185547 87.55089569091797 21.08321380615234 83.23355865478516 16.76587677001953 C 78.91621398925781 12.44853210449219 73.88955688476562 9.059272766113281 68.293212890625 6.692230224609375 C 62.50078582763672 4.242240905761719 56.34597015380859 3 49.99972534179688 3 M 49.99972534179688 0 C 77.61381530761719 0 99.99945068359375 22.38559722900391 99.99945068359375 49.99964141845703 L 99.99945068359375 50.00022888183594 C 99.99945068359375 77.6142578125 77.61381530761719 99.99987030029297 49.99972534179688 99.99987030029297 C 22.38563537597656 99.99987030029297 0 77.6142578125 0 50.00022888183594 L 0 49.99964141845703 C 0 22.38559722900391 22.38563537597656 0 49.99972534179688 0 Z" stroke="none" fill="#fff"/>
              </g>
            </g>
            <g id="Trazado_874923" data-name="Trazado 874923" transform="translate(0 0)" fill="none">
              <path d="M50,0a50,50,0,0,1,50,50h0A50,50,0,0,1,0,50H0A50,50,0,0,1,50,0Z" stroke="none"/>
              <path d="M 49.99972534179688 3 C 43.65348052978516 3 37.49866485595703 4.242240905761719 31.70623016357422 6.692230224609375 C 26.10989379882812 9.059272766113281 21.08323669433594 12.44853210449219 16.76589202880859 16.76587677001953 C 12.44855499267578 21.08321380615234 9.059295654296875 26.10985565185547 6.692230224609375 31.70618438720703 C 4.24224853515625 37.49859619140625 3 43.65341186523438 3 50.00022888183594 C 3 56.34645843505859 4.24224853515625 62.50127410888672 6.692230224609375 68.29368591308594 C 9.059295654296875 73.8900146484375 12.44855499267578 78.91665649414062 16.76589202880859 83.23399353027344 C 21.08323669433594 87.55132293701172 26.10989379882812 90.94059753417969 31.70623016357422 93.30764007568359 C 37.49866485595703 95.75762939453125 43.65348052978516 96.99987030029297 49.99972534179688 96.99987030029297 C 56.34597015380859 96.99987030029297 62.50078582763672 95.75762939453125 68.293212890625 93.30764007568359 C 73.88955688476562 90.94059753417969 78.91621398925781 87.55132293701172 83.23355865478516 83.23399353027344 C 87.55089569091797 78.91665649414062 90.94015502929688 73.8900146484375 93.30722045898438 68.29368591308594 C 95.7572021484375 62.50127410888672 96.99945068359375 56.34645843505859 96.99945068359375 49.99964141845703 C 96.99945068359375 43.65341186523438 95.7572021484375 37.49859619140625 93.30722045898438 31.70618438720703 C 90.94015502929688 26.10985565185547 87.55089569091797 21.08321380615234 83.23355865478516 16.76587677001953 C 78.91621398925781 12.44853210449219 73.88955688476562 9.059272766113281 68.293212890625 6.692230224609375 C 62.50078582763672 4.242240905761719 56.34597015380859 3 49.99972534179688 3 M 49.99972534179688 0 C 77.61381530761719 0 99.99945068359375 22.38559722900391 99.99945068359375 49.99964141845703 L 99.99945068359375 50.00022888183594 C 99.99945068359375 77.6142578125 77.61381530761719 99.99987030029297 49.99972534179688 99.99987030029297 C 22.38563537597656 99.99987030029297 0 77.6142578125 0 50.00022888183594 L 0 49.99964141845703 C 0 22.38559722900391 22.38563537597656 0 49.99972534179688 0 Z" stroke="none" fill="#fff"/>
            </g>
          </g>
        </g>
      </g>
    </g>
    <g id="avocado_2079291" transform="translate(1135.144 1957.999)">
      <path id="Trazado_1049458" data-name="Trazado 1049458" d="M54.583,41.218c2.16,4.61.99,9.69-2.61,11.36s-8.25-.71-10.41-5.31-.99-9.69,2.61-11.36S52.433,36.618,54.583,41.218Z" fill="#af7a58"/>
      <path id="Trazado_1049459" data-name="Trazado 1049459" d="M61.513,39.128c3.56,7.62.55,16.66-7.15,21.24-9.07,5.39-20.38,2.16-24.47-6.57l-.5-1.05A25.632,25.632,0,0,1,27,41.318l.24-17.66a7.748,7.748,0,0,1,4.58-6.82l2.79-1.29v.01a6.291,6.291,0,0,0-3.52,5.8c0,.1.01.21.01.32l.71,16.49a28.14,28.14,0,0,0,2.62,10.8l.48,1.01c3.92,8.36,13.67,11.96,21.08,7.39,5.93-3.66,8.13-11.25,5.48-18.23Z" fill="#4a7017"/>
      <path id="Trazado_1049460" data-name="Trazado 1049460" d="M61.473,39.138c2.65,6.98.45,14.57-5.48,18.23-7.41,4.57-17.16.97-21.08-7.39l-.48-1.01a28.14,28.14,0,0,1-2.62-10.8l-.71-16.49c0-.11-.01-.22-.01-.32a6.291,6.291,0,0,1,3.52-5.8c.01,0,.01-.01.02-.01a6.383,6.383,0,0,1,6.99,1.25l12.23,11.14a28,28,0,0,1,6.62,8.94l.48,1.01C61.143,38.3,61.323,38.718,61.473,39.138Zm-9.5,13.44c3.6-1.67,4.77-6.75,2.61-11.36s-6.82-6.98-10.41-5.31-4.76,6.76-2.61,11.36S48.383,54.248,51.973,52.578Z" fill="#fffcbd"/>
      <path id="Trazado_1049461" data-name="Trazado 1049461" d="M23,5.38V6a2.006,2.006,0,0,1-2,2H19a2.006,2.006,0,0,1-2-2V3a2.006,2.006,0,0,1,2-2h2a2.006,2.006,0,0,1,2,2Z" fill="#af7a58"/>
      <path id="Trazado_1049462" data-name="Trazado 1049462" d="M29.393,52.748A25.632,25.632,0,0,1,27,41.318l.24-17.66a7.662,7.662,0,0,1,3.588-6.272l-.391-.866a24.864,24.864,0,0,1-1.57-4.96A7.794,7.794,0,0,0,23,5.38V6a2.006,2.006,0,0,1-2,2H19a2.006,2.006,0,0,1-2-2V5.38a7.781,7.781,0,0,0-5.87,6.18,24.864,24.864,0,0,1-1.57,4.96L4.84,26.98A31.453,31.453,0,0,0,1,42C1,53.6,9.51,63,20,63a17.914,17.914,0,0,0,12.558-5.273A15.429,15.429,0,0,1,29.893,53.8Z" fill="#4a7017"/>
      <path id="Trazado_1049463" data-name="Trazado 1049463" d="M61.513,39.128l-.04.01c2.647,6.97.456,14.547-5.455,18.213l-.025.017c-7.41,4.57-17.16.97-21.08-7.39l-.48-1.01a28.14,28.14,0,0,1-2.62-10.8l-.71-16.49c0-.11-.01-.22-.01-.32a6.291,6.291,0,0,1,3.52-5.8v-.01l-1.64.759a7.668,7.668,0,0,0-3.73,6.351L29,40.318a25.632,25.632,0,0,0,2.39,11.43l.5,1.05c3.769,8.045,13.666,11.4,22.3,7.663.058-.034.118-.059.175-.093a17.992,17.992,0,0,0,6.169-6.044,15.928,15.928,0,0,0,.979-15.2Z" fill="#5b8a1d"/>
      <path id="Trazado_1049464" data-name="Trazado 1049464" d="M21,1H19a2.006,2.006,0,0,1,2,2V6a2.006,2.006,0,0,1-2,2h2a2.006,2.006,0,0,0,2-2V3a2.006,2.006,0,0,0-2-2Z" fill="#db996e"/>
      <path id="Trazado_1049465" data-name="Trazado 1049465" d="M54.583,41.218c-2.15-4.6-6.82-6.98-10.41-5.31a5.716,5.716,0,0,0-1.1.68c3.437-.936,7.534,1.406,9.508,5.63,1.921,4.1,1.2,8.565-1.51,10.679a5.642,5.642,0,0,0,.9-.319c3.6-1.67,4.772-6.75,2.612-11.36Z" fill="#db996e"/>
      <path id="Trazado_1049466" data-name="Trazado 1049466" d="M52.614,51.1c-3.07.048-6.342-2.189-8.051-5.828a9.779,9.779,0,0,1-.02-8.878,5.907,5.907,0,0,0-1.468.2c-2.712,2.116-3.424,6.589-1.512,10.68,1.984,4.224,6.074,6.567,9.51,5.629a6.189,6.189,0,0,0,1.541-1.8Z" fill="#845335"/>
      <path id="Trazado_1049467" data-name="Trazado 1049467" d="M41.563,47.268c-1.649-3.528-1.344-7.338.508-9.678a5.617,5.617,0,0,0-.9.318c-3.6,1.67-4.76,6.76-2.61,11.36s6.82,6.98,10.41,5.31A5.8,5.8,0,0,0,51.079,52.9C47.642,53.838,43.548,51.5,41.563,47.268Z" fill="#ded982"/>
      <path id="Trazado_1049468" data-name="Trazado 1049468" d="M29.969,59.849l.023-.017c.45-.31.889-.636,1.312-.984s.851-.728,1.253-1.122A15.429,15.429,0,0,1,29.893,53.8l-.5-1.05A25.632,25.632,0,0,1,27,41.318l.24-17.66a7.662,7.662,0,0,1,3.588-6.272l-.391-.866q-.226-.551-.438-1.108c-.123.047-.249.081-.369.136-.01,0-.01.01-.02.01v-.01l-2.79,1.29a7.748,7.748,0,0,0-4.58,6.82L22,41.318a25.632,25.632,0,0,0,2.39,11.43l.5,1.05a15.227,15.227,0,0,0,.985,1.78C13.537,54.06,3.922,48.26,1.564,36.1A31.2,31.2,0,0,0,1,42C1,53.6,9.51,63,20,63a17.529,17.529,0,0,0,9.969-3.151" fill="#2d4f00"/>
      <path id="Trazado_1049469" data-name="Trazado 1049469" d="M23,7V6a2.006,2.006,0,0,1-2,2H19a2.006,2.006,0,0,1-2-2V5.38A7.785,7.785,0,0,0,11.272,11H19A4,4,0,0,0,23,7Z" fill="#2d4f00"/>
      <g id="Grupo_1188238" data-name="Grupo 1188238">
        <ellipse id="Elipse_12072" data-name="Elipse 12072" cx="1.642" cy="2.286" rx="1.642" ry="2.286" transform="translate(46.9 40.262) rotate(-45)" fill="#f6fafd"/>
        <ellipse id="Elipse_12073" data-name="Elipse 12073" cx="0.825" cy="1.148" rx="0.825" ry="1.148" transform="translate(51.279 43.504) rotate(-45)" fill="#f6fafd"/>
        <ellipse id="Elipse_12074" data-name="Elipse 12074" cx="0.825" cy="1.148" rx="0.825" ry="1.148" transform="translate(24.287 10.49) rotate(-45)" fill="#f6fafd"/>
        <ellipse id="Elipse_12075" data-name="Elipse 12075" cx="0.413" cy="0.574" rx="0.413" ry="0.574" transform="translate(26.728 14.106) rotate(-45)" fill="#f6fafd"/>
      </g>
      <path id="Trazado_1049470" data-name="Trazado 1049470" d="M20,62C10.075,62,2,53.028,2,42A30.476,30.476,0,0,1,5.752,27.394L10.492,16.9a26.4,26.4,0,0,0,1.621-5.159,6.622,6.622,0,0,1,4-4.979A3,3,0,0,0,19,9h2a3,3,0,0,0,2.889-2.235,6.668,6.668,0,0,1,3.893,4.484l1.937-.5A8.685,8.685,0,0,0,24,4.666V3a3,3,0,0,0-3-3H19a3,3,0,0,0-3,3V4.671a8.723,8.723,0,0,0-5.854,6.712,24.468,24.468,0,0,1-1.492,4.728L3.964,26.5A32.373,32.373,0,0,0,0,42C0,54.131,8.973,64,20,64a18.633,18.633,0,0,0,10.564-3.314l-1.13-1.65A16.646,16.646,0,0,1,20,62ZM18,3a1,1,0,0,1,1-1h2a1,1,0,0,1,1,1V6a1,1,0,0,1-1,1H19a1,1,0,0,1-1-1Z"/>
      <path id="Trazado_1049471" data-name="Trazado 1049471" d="M28.9,15.337l1.878-.687c-.252-.69-.453-1.315-.615-1.91l-1.93.524C28.414,13.915,28.631,14.593,28.9,15.337Z"/>
      <path id="Trazado_1049472" data-name="Trazado 1049472" d="M40.49,57.845l.542-.855.529-.834L41.023,57l-.707.707Z"/>
      <path id="Trazado_1049473" data-name="Trazado 1049473" d="M38.281,53.342l-1.5,1.321A17.49,17.49,0,0,0,39,56.781l1.247-1.564a15.467,15.467,0,0,1-1.966-1.875Z"/>
      <path id="Trazado_1049474" data-name="Trazado 1049474" d="M49.54,54.1a6.739,6.739,0,0,0,2.852-.621,7.234,7.234,0,0,0,3.7-4.18,11.231,11.231,0,0,0-.6-8.5c-2.385-5.091-7.652-7.691-11.738-5.793a7.24,7.24,0,0,0-3.7,4.182,11.225,11.225,0,0,0,.6,8.5C42.508,51.653,46.108,54.1,49.54,54.1ZM41.928,39.872a5.186,5.186,0,0,1,2.658-3.051,4.815,4.815,0,0,1,2.043-.444c2.661,0,5.526,2.032,7.043,5.271a9.227,9.227,0,0,1,.536,6.972,5.19,5.19,0,0,1-2.658,3.05c-3.09,1.437-7.167-.73-9.086-4.827a9.22,9.22,0,0,1-.536-6.971Z"/>
      <path id="Trazado_1049475" data-name="Trazado 1049475" d="M62.414,38.7l-.043.02c-.16-.42-.329-.84-.523-1.254l-.474-1.014A28.865,28.865,0,0,0,54.518,27.2l-8.842-8.055-1.347,1.479,8.842,8.054A26.918,26.918,0,0,1,59.562,37.3l.475,1.013c3.187,6.8,1.22,14.629-4.575,18.2a13.024,13.024,0,0,1-13.9-.361L40.49,57.845a15.747,15.747,0,0,0,8.442,2.513,14.488,14.488,0,0,0,4.941-.864l-.021.014a17.228,17.228,0,0,1-13.819,1.764A14.82,14.82,0,0,1,30.8,53.38l-.5-1.058A24.535,24.535,0,0,1,28,41.335l.242-17.662A6.557,6.557,0,0,1,30.5,18.905a7.89,7.89,0,0,0-.4,2.819l.712,16.489a28.785,28.785,0,0,0,2.714,11.178L34,50.405a18.282,18.282,0,0,0,1.177,2.131l1.682-1.082a16.4,16.4,0,0,1-1.048-1.9l-.475-1.014a26.8,26.8,0,0,1-2.528-10.415L32.1,21.638a5.353,5.353,0,0,1,2.951-5.183,5.409,5.409,0,0,1,5.894,1.083l1.392,1.267,1.346-1.479-1.391-1.267A7.4,7.4,0,0,0,34.2,14.64l-.01.006V14.64l-2.79,1.3a8.766,8.766,0,0,0-5.16,7.711L26,41.308a26.5,26.5,0,0,0,2.489,11.863l.5,1.058A16.807,16.807,0,0,0,39.45,63.184,18.515,18.515,0,0,0,44.889,64a19.594,19.594,0,0,0,9.984-2.769c8.069-4.8,11.311-14.48,7.541-22.531Z"/>
    </g>
  </g>
</svg>
