<svg xmlns="http://www.w3.org/2000/svg" xmlns:xlink="http://www.w3.org/1999/xlink" width="117.999" height="118" viewBox="0 0 117.999 118">
  <defs>
    <filter id="Trazado_874925" x="0" y="0" width="117.999" height="118" filterUnits="userSpaceOnUse">
      <feOffset dy="3" input="SourceAlpha"/>
      <feGaussianBlur stdDeviation="3" result="blur"/>
      <feFlood flood-opacity="0.161"/>
      <feComposite operator="in" in2="blur"/>
      <feComposite in="SourceGraphic"/>
    </filter>
  </defs>
  <g id="Grupo_1188163" data-name="Grupo 1188163" transform="translate(-793.782 -1933.999)">
    <g id="Grupo_1111552" data-name="Grupo 1111552" transform="translate(-5.719 -577.158)">
      <g id="Grupo_1111316" data-name="Grupo 1111316" transform="translate(808.5 2517.157)">
        <g id="Grupo_1109835" data-name="Grupo 1109835" transform="translate(0 0)">
          <g id="Grupo_1107913" data-name="Grupo 1107913" transform="translate(0 0)">
            <g transform="matrix(1, 0, 0, 1, -9, -6)" filter="url(#Trazado_874925)">
              <g id="Trazado_874925-2" data-name="Trazado 874925" transform="translate(9 6)" fill="#bb965f" opacity="0.859">
                <path d="M 49.99972534179688 98.4998779296875 C 43.45164108276367 98.4998779296875 37.10022354125977 97.21776580810547 31.12189674377441 94.68914794921875 C 25.34676742553711 92.24647521972656 20.15985298156738 88.74925994873047 15.70523929595947 84.29464721679688 C 11.25062561035156 79.84004974365234 7.753411293029785 74.65313720703125 5.310725212097168 68.87800598144531 C 2.782111167907715 62.89969253540039 1.499996781349182 56.54829406738281 1.499996781349182 50.00022125244141 C 1.499996781349182 43.45157623291016 2.782111167907715 37.10017776489258 5.310725212097168 31.12186431884766 C 7.753411293029785 25.34673500061035 11.25062561035156 20.15983581542969 15.70523929595947 15.70522117614746 C 20.15985298156738 11.25062084197998 25.34676742553711 7.753406524658203 31.12189674377441 5.31073522567749 C 37.10022354125977 2.782120943069458 43.45164108276367 1.500006556510925 49.99972534179688 1.500006556510925 C 56.54780960083008 1.500006556510925 62.89922714233398 2.782120943069458 68.87755584716797 5.31073522567749 C 74.65267944335938 7.753406524658203 79.839599609375 11.25062084197998 84.29421234130859 15.70522117614746 C 88.74882507324219 20.15983581542969 92.24604034423828 25.34673500061035 94.68872833251953 31.12186431884766 C 97.21733856201172 37.10017776489258 98.49945068359375 43.45157623291016 98.49945068359375 49.99964904785156 C 98.49945068359375 56.54829406738281 97.21733856201172 62.89969253540039 94.68872833251953 68.87800598144531 C 92.24604034423828 74.65313720703125 88.74882507324219 79.84004974365234 84.29421234130859 84.29464721679688 C 79.839599609375 88.74925994873047 74.65267944335938 92.24647521972656 68.87755584716797 94.68914794921875 C 62.89922714233398 97.21776580810547 56.54780960083008 98.4998779296875 49.99972534179688 98.4998779296875 Z" stroke="none"/>
                <path d="M 49.99972534179688 3 C 43.65348052978516 3 37.49866485595703 4.242240905761719 31.70623016357422 6.692230224609375 C 26.10989379882812 9.059272766113281 21.08323669433594 12.44853210449219 16.76589202880859 16.76587677001953 C 12.44855499267578 21.08321380615234 9.059295654296875 26.10985565185547 6.692230224609375 31.70618438720703 C 4.24224853515625 37.49859619140625 3 43.65341186523438 3 50.00022888183594 C 3 56.34645843505859 4.24224853515625 62.50127410888672 6.692230224609375 68.29368591308594 C 9.059295654296875 73.8900146484375 12.44855499267578 78.91665649414062 16.76589202880859 83.23399353027344 C 21.08323669433594 87.55132293701172 26.10989379882812 90.94059753417969 31.70623016357422 93.30764007568359 C 37.49866485595703 95.75762939453125 43.65348052978516 96.99987030029297 49.99972534179688 96.99987030029297 C 56.34597015380859 96.99987030029297 62.50078582763672 95.75762939453125 68.293212890625 93.30764007568359 C 73.88955688476562 90.94059753417969 78.91621398925781 87.55132293701172 83.23355865478516 83.23399353027344 C 87.55089569091797 78.91665649414062 90.94015502929688 73.8900146484375 93.30722045898438 68.29368591308594 C 95.7572021484375 62.50127410888672 96.99945068359375 56.34645843505859 96.99945068359375 49.99964141845703 C 96.99945068359375 43.65341186523438 95.7572021484375 37.49859619140625 93.30722045898438 31.70618438720703 C 90.94015502929688 26.10985565185547 87.55089569091797 21.08321380615234 83.23355865478516 16.76587677001953 C 78.91621398925781 12.44853210449219 73.88955688476562 9.059272766113281 68.293212890625 6.692230224609375 C 62.50078582763672 4.242240905761719 56.34597015380859 3 49.99972534179688 3 M 49.99972534179688 0 C 77.61381530761719 0 99.99945068359375 22.38559722900391 99.99945068359375 49.99964141845703 L 99.99945068359375 50.00022888183594 C 99.99945068359375 77.6142578125 77.61381530761719 99.99987030029297 49.99972534179688 99.99987030029297 C 22.38563537597656 99.99987030029297 0 77.6142578125 0 50.00022888183594 L 0 49.99964141845703 C 0 22.38559722900391 22.38563537597656 0 49.99972534179688 0 Z" stroke="none" fill="#fff"/>
              </g>
            </g>
            <g id="Trazado_874923" data-name="Trazado 874923" transform="translate(0 0)" fill="none">
              <path d="M50,0a50,50,0,0,1,50,50h0A50,50,0,0,1,0,50H0A50,50,0,0,1,50,0Z" stroke="none"/>
              <path d="M 49.99972534179688 3 C 43.65348052978516 3 37.49866485595703 4.242240905761719 31.70623016357422 6.692230224609375 C 26.10989379882812 9.059272766113281 21.08323669433594 12.44853210449219 16.76589202880859 16.76587677001953 C 12.44855499267578 21.08321380615234 9.059295654296875 26.10985565185547 6.692230224609375 31.70618438720703 C 4.24224853515625 37.49859619140625 3 43.65341186523438 3 50.00022888183594 C 3 56.34645843505859 4.24224853515625 62.50127410888672 6.692230224609375 68.29368591308594 C 9.059295654296875 73.8900146484375 12.44855499267578 78.91665649414062 16.76589202880859 83.23399353027344 C 21.08323669433594 87.55132293701172 26.10989379882812 90.94059753417969 31.70623016357422 93.30764007568359 C 37.49866485595703 95.75762939453125 43.65348052978516 96.99987030029297 49.99972534179688 96.99987030029297 C 56.34597015380859 96.99987030029297 62.50078582763672 95.75762939453125 68.293212890625 93.30764007568359 C 73.88955688476562 90.94059753417969 78.91621398925781 87.55132293701172 83.23355865478516 83.23399353027344 C 87.55089569091797 78.91665649414062 90.94015502929688 73.8900146484375 93.30722045898438 68.29368591308594 C 95.7572021484375 62.50127410888672 96.99945068359375 56.34645843505859 96.99945068359375 49.99964141845703 C 96.99945068359375 43.65341186523438 95.7572021484375 37.49859619140625 93.30722045898438 31.70618438720703 C 90.94015502929688 26.10985565185547 87.55089569091797 21.08321380615234 83.23355865478516 16.76587677001953 C 78.91621398925781 12.44853210449219 73.88955688476562 9.059272766113281 68.293212890625 6.692230224609375 C 62.50078582763672 4.242240905761719 56.34597015380859 3 49.99972534179688 3 M 49.99972534179688 0 C 77.61381530761719 0 99.99945068359375 22.38559722900391 99.99945068359375 49.99964141845703 L 99.99945068359375 50.00022888183594 C 99.99945068359375 77.6142578125 77.61381530761719 99.99987030029297 49.99972534179688 99.99987030029297 C 22.38563537597656 99.99987030029297 0 77.6142578125 0 50.00022888183594 L 0 49.99964141845703 C 0 22.38559722900391 22.38563537597656 0 49.99972534179688 0 Z" stroke="none" fill="#fff"/>
            </g>
          </g>
        </g>
      </g>
    </g>
    <g id="beans_4418243" transform="translate(820.743 1957.991)">
      <circle id="Elipse_12076" data-name="Elipse 12076" cx="7" cy="7" r="7" transform="translate(48 48)" fill="#559b2d"/>
      <path id="Trazado_1049476" data-name="Trazado 1049476" d="M60,54a6.986,6.986,0,0,0-2.931-5.689,7,7,0,0,0-6.138,12.378A7,7,0,0,0,60,54Z" fill="#62a537"/>
      <path id="Trazado_1049477" data-name="Trazado 1049477" d="M57.981,48.665A2.856,2.856,0,0,1,58,49a3,3,0,1,1-6,0,2.856,2.856,0,0,1,.019-.335h0A7.014,7.014,0,0,1,57.981,48.665Z" fill="#4d8c28"/>
      <path id="Trazado_1049478" data-name="Trazado 1049478" d="M29.757,15.243h0a4.243,4.243,0,0,1,3-1.243h0A4.242,4.242,0,0,1,37,18.244h0a4.243,4.243,0,0,1-1.243,3l-.514.514A14.485,14.485,0,0,1,25,26h0a14.485,14.485,0,0,1-10.243-4.243l-.514-.514a4.243,4.243,0,0,1-1.243-3h0A4.242,4.242,0,0,1,17.244,14h0a4.243,4.243,0,0,1,3,1.243h0A6,6,0,0,0,24.485,17h1.03a6,6,0,0,0,4.242-1.757Z" fill="#f9d266"/>
      <path id="Trazado_1049479" data-name="Trazado 1049479" d="M32.757,14a4.243,4.243,0,0,0-3,1.243A6,6,0,0,1,25.515,17h-1.03a6,6,0,0,1-4.242-1.757,4.231,4.231,0,0,0-6.957,1.5,4.229,4.229,0,0,0,.957,1.5l.514.514a14.485,14.485,0,0,0,20.486,0l.514-.514a4.229,4.229,0,0,0,.957-1.5A4.233,4.233,0,0,0,32.757,14Z" fill="#fce797"/>
      <path id="Trazado_1049480" data-name="Trazado 1049480" d="M28,16.461V18a3,3,0,0,1-3,3h0a3,3,0,0,1-3-3V16.461h0A6,6,0,0,0,24.485,17h1.03A6,6,0,0,0,28,16.461Z" fill="#f0ae42"/>
      <path id="Trazado_1049481" data-name="Trazado 1049481" d="M18.757,25.243h0a4.243,4.243,0,0,1,3-1.243h0A4.242,4.242,0,0,1,26,28.244h0a4.243,4.243,0,0,1-1.243,3l-.514.514A14.485,14.485,0,0,1,14,36h0A14.485,14.485,0,0,1,3.757,31.757l-.514-.514a4.243,4.243,0,0,1-1.243-3H2A4.242,4.242,0,0,1,6.244,24h0a4.243,4.243,0,0,1,3,1.243h0A6,6,0,0,0,13.485,27h1.03a6,6,0,0,0,4.242-1.757Z" fill="#f9d266"/>
      <path id="Trazado_1049482" data-name="Trazado 1049482" d="M21.757,24a4.243,4.243,0,0,0-3,1.243A6,6,0,0,1,14.515,27h-1.03a6,6,0,0,1-4.242-1.757,4.231,4.231,0,0,0-6.957,1.5,4.229,4.229,0,0,0,.957,1.5l.514.514a14.485,14.485,0,0,0,20.486,0l.514-.514a4.229,4.229,0,0,0,.957-1.5A4.233,4.233,0,0,0,21.757,24Z" fill="#fce797"/>
      <path id="Trazado_1049483" data-name="Trazado 1049483" d="M17,26.461V28a3,3,0,0,1-3,3h0a3,3,0,0,1-3-3V26.461h0A6,6,0,0,0,13.485,27h1.03A6,6,0,0,0,17,26.461Z" fill="#f0ae42"/>
      <path id="Trazado_1049484" data-name="Trazado 1049484" d="M50.757,3.243h0a4.243,4.243,0,0,1,3-1.243h0A4.242,4.242,0,0,1,58,6.244h0a4.243,4.243,0,0,1-1.243,3l-.514.514A14.485,14.485,0,0,1,46,14h0A14.485,14.485,0,0,1,35.757,9.757l-.514-.514a4.243,4.243,0,0,1-1.243-3h0A4.242,4.242,0,0,1,38.244,2h0a4.243,4.243,0,0,1,3,1.243h0A6,6,0,0,0,45.485,5h1.03a6,6,0,0,0,4.242-1.757Z" fill="#f9d266"/>
      <path id="Trazado_1049485" data-name="Trazado 1049485" d="M53.757,2a4.243,4.243,0,0,0-3,1.243A6,6,0,0,1,46.515,5h-1.03a6,6,0,0,1-4.242-1.757,4.231,4.231,0,0,0-6.957,1.5,4.229,4.229,0,0,0,.957,1.5l.514.514A14.485,14.485,0,0,0,46,11,14.485,14.485,0,0,0,56.243,6.757l.514-.514a4.229,4.229,0,0,0,.957-1.5A4.233,4.233,0,0,0,53.757,2Z" fill="#fce797"/>
      <path id="Trazado_1049486" data-name="Trazado 1049486" d="M49,4.461V6a3,3,0,0,1-3,3h0a3,3,0,0,1-3-3V4.461h0A6,6,0,0,0,45.485,5h1.03A6,6,0,0,0,49,4.461Z" fill="#f0ae42"/>
      <path id="Trazado_1049487" data-name="Trazado 1049487" d="M62,13l-2.573,1.93A5.579,5.579,0,0,1,56.14,16a5.346,5.346,0,0,0-3.707,1.566l-.771.771A10.965,10.965,0,0,0,38.192,31.01c-.065,0-.127-.01-.192-.01a11,11,0,0,0-10.56,7.941,10.99,10.99,0,0,0-15.3,11.818,5.03,5.03,0,0,1-.575,3.059A5.337,5.337,0,0,0,11,56.137a5.583,5.583,0,0,1-1.07,3.289L8,62h.515a20.384,20.384,0,0,0,8.828-2.024,4.6,4.6,0,0,1,3.092-.28A10.989,10.989,0,0,0,33.56,52.059,10.974,10.974,0,0,0,48.808,39.99c.065,0,.127.01.192.01A11,11,0,0,0,60,29a10.84,10.84,0,0,0-.283-2.461,6.648,6.648,0,0,1,.334-4.351A20.356,20.356,0,0,0,62,13.515Z" fill="#6bc13b"/>
      <path id="Trazado_1049488" data-name="Trazado 1049488" d="M57,26a10.84,10.84,0,0,0-.283-2.461,6.648,6.648,0,0,1,.334-4.351,20.62,20.62,0,0,0,1.31-3.663A5.848,5.848,0,0,1,56.14,16a5.351,5.351,0,0,0-3.707,1.566l-.771.771A10.965,10.965,0,0,0,38.192,31.01c-.065,0-.127-.01-.192-.01a11,11,0,0,0-10.56,7.941,10.99,10.99,0,0,0-15.3,11.818,5.03,5.03,0,0,1-.575,3.059A5.337,5.337,0,0,0,11,56.137a5.89,5.89,0,0,1-.475,2.222,20.575,20.575,0,0,0,3.817-1.383,4.6,4.6,0,0,1,3.092-.28A10.989,10.989,0,0,0,30.56,49.059,10.974,10.974,0,0,0,45.808,36.99c.065,0,.127.01.192.01A11,11,0,0,0,57,26Z" fill="#7ece4a"/>
      <path id="Trazado_1049489" data-name="Trazado 1049489" d="M43,29H41a8.009,8.009,0,0,1,8-8v2A6.006,6.006,0,0,0,43,29Z" fill="#67aa3c"/>
      <path id="Trazado_1049490" data-name="Trazado 1049490" d="M38,50V48a6.006,6.006,0,0,0,6-6h2A8.009,8.009,0,0,1,38,50Z" fill="#67aa3c"/>
      <path id="Trazado_1049491" data-name="Trazado 1049491" d="M17,49H15a8.009,8.009,0,0,1,8-8v2A6.006,6.006,0,0,0,17,49Z" fill="#67aa3c"/>
      <circle id="Elipse_12077" data-name="Elipse 12077" cx="4" cy="4" r="4" transform="translate(21 5)" fill="#976947"/>
      <path id="Trazado_1049492" data-name="Trazado 1049492" d="M25,5a3.994,3.994,0,0,0-3.281,6.28,3.994,3.994,0,0,0,5.562-5.561A3.977,3.977,0,0,0,25,5Z" fill="#c18e59"/>
      <circle id="Elipse_12078" data-name="Elipse 12078" cx="4" cy="4" r="4" transform="translate(9 2)" fill="#976947"/>
      <path id="Trazado_1049493" data-name="Trazado 1049493" d="M13,2A3.994,3.994,0,0,0,9.719,8.28a3.994,3.994,0,0,0,5.562-5.561A3.977,3.977,0,0,0,13,2Z" fill="#c18e59"/>
      <circle id="Elipse_12079" data-name="Elipse 12079" cx="4" cy="4" r="4" transform="translate(2 12)" fill="#976947"/>
      <path id="Trazado_1049494" data-name="Trazado 1049494" d="M6,12a3.994,3.994,0,0,0-3.281,6.28,3.994,3.994,0,0,0,5.562-5.561A3.977,3.977,0,0,0,6,12Z" fill="#c18e59"/>
      <path id="Trazado_1049495" data-name="Trazado 1049495" d="M62.447,12.1a1,1,0,0,0-1.047.1l-2.573,1.93a4.562,4.562,0,0,1-2.7.87,6.318,6.318,0,0,0-4.4,1.86l-.382.381A11.853,11.853,0,0,0,49,17,12.013,12.013,0,0,0,37,29c0,.344.016.689.048,1.038A12.074,12.074,0,0,0,26.83,37.631a11.991,11.991,0,0,0-15.673,13.29,4.014,4.014,0,0,1-.482,2.448A6.386,6.386,0,0,0,10,56.122a4.568,4.568,0,0,1-.87,2.7L7.2,61.4A1,1,0,0,0,8,63h.515a21.519,21.519,0,0,0,9.261-2.123,3.6,3.6,0,0,1,2.425-.209,11.987,11.987,0,0,0,13.969-7.3A11.866,11.866,0,0,0,38,54,12.013,12.013,0,0,0,50,42c0-.344-.016-.688-.048-1.038A12.016,12.016,0,0,0,61,29a11.862,11.862,0,0,0-.308-2.686,5.718,5.718,0,0,1,.264-3.7A21.233,21.233,0,0,0,63,13.515V13A1,1,0,0,0,62.447,12.1Zm-3.3,9.657a7.615,7.615,0,0,0-.4,5A9.838,9.838,0,0,1,59,29,10.014,10.014,0,0,1,48.976,39h-.005l-.148-.008a1.043,1.043,0,0,0-.779.355,1,1,0,0,0-.219.827A9.988,9.988,0,0,1,33.964,51.145a1,1,0,0,0-1.364.636,9.991,9.991,0,0,1-11.931,6.943,5.556,5.556,0,0,0-3.759.351,19.6,19.6,0,0,1-6.863,1.862l.683-.911A6.549,6.549,0,0,0,12,56.152a4.376,4.376,0,0,1,.462-1.885,5.952,5.952,0,0,0,.668-3.67,10,10,0,0,1,7.906-11.406A10.206,10.206,0,0,1,22.992,39a9.991,9.991,0,0,1,4.044.853,1,1,0,0,0,1.364-.636A10.048,10.048,0,0,1,38.024,32h0l.148.008a.969.969,0,0,0,.779-.355,1,1,0,0,0,.219-.827A9.968,9.968,0,0,1,49,19a10.088,10.088,0,0,1,2.421.308,1,1,0,0,0,.948-.263l.771-.771A4.332,4.332,0,0,1,56.154,17a6.551,6.551,0,0,0,3.873-1.271l.913-.684a19.25,19.25,0,0,1-1.794,6.717Z"/>
      <path id="Trazado_1049496" data-name="Trazado 1049496" d="M41,29h2a6.006,6.006,0,0,1,6-6V21A8.009,8.009,0,0,0,41,29Z"/>
      <path id="Trazado_1049497" data-name="Trazado 1049497" d="M38,48v2a8.009,8.009,0,0,0,8-8H44a6.006,6.006,0,0,1-6,6Z"/>
      <path id="Trazado_1049498" data-name="Trazado 1049498" d="M15,49h2a6.006,6.006,0,0,1,6-6V41a8.009,8.009,0,0,0-8,8Z"/>
      <path id="Trazado_1049499" data-name="Trazado 1049499" d="M24.95,32.464l.514-.514A5.1,5.1,0,0,0,26.8,26.893a15.41,15.41,0,0,0,9.148-4.429l.514-.514a5.242,5.242,0,1,0-7.414-7.414A4.967,4.967,0,0,1,25.515,16h-1.03a4.967,4.967,0,0,1-3.535-1.464,5.242,5.242,0,1,0-7.414,7.414l.514.514a15.4,15.4,0,0,0,3.4,2.566,4.949,4.949,0,0,1-2.934.97h-1.03A4.967,4.967,0,0,1,9.95,24.536,5.242,5.242,0,1,0,2.536,31.95l.514.514a15.485,15.485,0,0,0,21.9,0ZM25.515,18A7.045,7.045,0,0,0,27,17.838V18a2,2,0,0,1-4,0v-.162A7.045,7.045,0,0,0,24.485,18ZM14.95,20.536a3.243,3.243,0,1,1,4.586-4.586A7.042,7.042,0,0,0,21,17.066V18a4,4,0,0,0,8,0v-.934a7.042,7.042,0,0,0,1.464-1.116,3.243,3.243,0,1,1,4.586,4.586l-.514.514a13.413,13.413,0,0,1-8.723,3.911,5.138,5.138,0,0,0-6.6-1.279A13.424,13.424,0,0,1,15.46,21.05ZM14.515,28A7.045,7.045,0,0,0,16,27.838V28a2,2,0,0,1-4,0v-.162A7.045,7.045,0,0,0,13.485,28ZM3.95,30.536A3.243,3.243,0,1,1,8.536,25.95,7.042,7.042,0,0,0,10,27.066V28a4,4,0,0,0,8,0v-.934a7.042,7.042,0,0,0,1.464-1.116,3.243,3.243,0,1,1,4.586,4.586l-.514.514a13.486,13.486,0,0,1-19.072,0Z"/>
      <path id="Trazado_1049500" data-name="Trazado 1049500" d="M35.05,10.464A15.385,15.385,0,0,0,46,15a15.385,15.385,0,0,0,10.95-4.536l.514-.514A5.242,5.242,0,0,0,50.05,2.536,4.967,4.967,0,0,1,46.515,4h-1.03A4.967,4.967,0,0,1,41.95,2.536,5.242,5.242,0,0,0,34.536,9.95ZM46.515,6A7.045,7.045,0,0,0,48,5.838V6a2,2,0,0,1-4,0V5.838A7.045,7.045,0,0,0,45.485,6ZM38.243,3a3.221,3.221,0,0,1,2.293.95A7.042,7.042,0,0,0,42,5.066V6a4,4,0,0,0,8,0V5.066A7.042,7.042,0,0,0,51.464,3.95,3.243,3.243,0,1,1,56.05,8.536l-.514.514A13.4,13.4,0,0,1,46,13a13.4,13.4,0,0,1-9.536-3.95l-.514-.514A3.243,3.243,0,0,1,38.243,3Z"/>
      <path id="Trazado_1049501" data-name="Trazado 1049501" d="M55,47a8,8,0,1,0,8,8,8,8,0,0,0-8-8Zm1.966,2.338a1.994,1.994,0,0,1-3.932,0,5.887,5.887,0,0,1,3.932,0ZM55,61a6,6,0,0,1-3.756-10.672,3.976,3.976,0,0,0,7.512,0A6,6,0,0,1,55,61Z"/>
      <path id="Trazado_1049502" data-name="Trazado 1049502" d="M25,14a5,5,0,1,0-5-5,5,5,0,0,0,5,5Zm0-8a3,3,0,1,1-3,3,3,3,0,0,1,3-3Z"/>
      <path id="Trazado_1049503" data-name="Trazado 1049503" d="M6,21a5,5,0,1,0-5-5,5,5,0,0,0,5,5Zm0-8a3,3,0,1,1-3,3,3,3,0,0,1,3-3Z"/>
      <path id="Trazado_1049504" data-name="Trazado 1049504" d="M13,11A5,5,0,1,0,8,6a5,5,0,0,0,5,5Zm0-8a3,3,0,1,1-3,3,3,3,0,0,1,3-3Z"/>
    </g>
  </g>
</svg>
