<svg xmlns="http://www.w3.org/2000/svg" xmlns:xlink="http://www.w3.org/1999/xlink" width="103.096" height="103.096" viewBox="0 0 103.096 103.096">
  <defs>
    <filter id="Trazado_896985" x="0" y="0" width="103.096" height="103.096" filterUnits="userSpaceOnUse">
      <feOffset dy="3" input="SourceAlpha"/>
      <feGaussianBlur stdDeviation="3" result="blur"/>
      <feFlood flood-opacity="0.161"/>
      <feComposite operator="in" in2="blur"/>
      <feComposite in="SourceGraphic"/>
    </filter>
  </defs>
  <g id="Grupo_1112426" data-name="Grupo 1112426" transform="translate(-325.891 -3846)">
    <g id="Grupo_1111318" data-name="Grupo 1111318" transform="translate(334.891 3852)">
      <g id="Grupo_1109826" data-name="Grupo 1109826" transform="translate(0 0)">
        <g id="Grupo_1098742" data-name="Grupo 1098742" transform="translate(0)">
          <g transform="matrix(1, 0, 0, 1, -9, -6)" filter="url(#Trazado_896985)">
            <g id="Trazado_896985-2" data-name="Trazado 896985" transform="translate(9 6)" fill="#9ad354" opacity="0.859">
              <path d="M 42.54785537719727 83.59581756591797 C 37.00577163696289 83.59581756591797 31.6302547454834 82.51071929931641 26.57064437866211 80.37068176269531 C 21.6828670501709 78.30332946777344 17.29289054870605 75.34342956542969 13.52263164520264 71.57318115234375 C 9.752385139465332 67.80293273925781 6.792479038238525 63.41295623779297 4.725125789642334 58.52518081665039 C 2.585090637207031 53.46556854248047 1.499996542930603 48.09004974365234 1.499996542930603 42.54796600341797 C 1.499996542930603 37.00576782226562 2.585090637207031 31.6302490234375 4.725125789642334 26.57063865661621 C 6.792479038238525 21.682861328125 9.752385139465332 17.29288482666016 13.52263164520264 13.52263832092285 C 17.29289054870605 9.75239086151123 21.6828670501709 6.792485237121582 26.57064437866211 4.725132465362549 C 31.6302547454834 2.585097074508667 37.00577163696289 1.500002861022949 42.54785537719727 1.500002861022949 C 48.08993911743164 1.500002861022949 53.4654541015625 2.585097074508667 58.52506637573242 4.725132465362549 C 63.412841796875 6.792485237121582 67.80281829833984 9.75239086151123 71.57308197021484 13.52263832092285 C 75.34332275390625 17.29288482666016 78.30323028564453 21.682861328125 80.37058258056641 26.57063865661621 C 82.5106201171875 31.6302490234375 83.59571075439453 37.00576782226562 83.59571075439453 42.5478515625 C 83.59571075439453 48.09004974365234 82.5106201171875 53.46556854248047 80.37058258056641 58.52518081665039 C 78.30323028564453 63.41295623779297 75.34332275390625 67.80293273925781 71.57308197021484 71.57318115234375 C 67.80281829833984 75.34342956542969 63.412841796875 78.30332946777344 58.52506637573242 80.37068176269531 C 53.4654541015625 82.51071929931641 48.08993911743164 83.59581756591797 42.54785537719727 83.59581756591797 Z" stroke="none"/>
              <path d="M 42.54785537719727 3 C 37.20760345458984 3 32.02869415283203 4.04522705078125 27.15496063232422 6.106643676757812 C 22.44598770141602 8.098365783691406 18.21627044677734 10.95032501220703 14.58329772949219 14.58329772949219 C 10.95032501220703 18.21627044677734 8.098365783691406 22.44598770141602 6.106643676757812 27.15496063232422 C 4.04522705078125 32.02869415283203 3 37.20760345458984 3 42.5479621887207 C 3 47.88821411132812 4.04522705078125 53.06712341308594 6.106643676757812 57.94085693359375 C 8.098365783691406 62.64982604980469 10.95032501220703 66.87954711914062 14.58329772949219 70.51251983642578 C 18.21627044677734 74.14549255371094 22.44598770141602 76.99745178222656 27.15496063232422 78.98917388916016 C 32.02869415283203 81.05059051513672 37.20760345458984 82.09581756591797 42.54785537719727 82.09581756591797 C 47.88810729980469 82.09581756591797 53.0670166015625 81.05059051513672 57.94075012207031 78.98917388916016 C 62.64971923828125 76.99745178222656 66.87944030761719 74.14549255371094 70.51241302490234 70.51251983642578 C 74.1453857421875 66.87954711914062 76.99734497070312 62.64982604980469 78.98906707763672 57.94085693359375 C 81.05048370361328 53.06712341308594 82.09571075439453 47.88821411132812 82.09571075439453 42.54785537719727 C 82.09571075439453 37.20760345458984 81.05048370361328 32.02869415283203 78.98906707763672 27.15496063232422 C 76.99734497070312 22.44598770141602 74.1453857421875 18.21627044677734 70.51241302490234 14.58329772949219 C 66.87944030761719 10.95032501220703 62.64971923828125 8.098365783691406 57.94075012207031 6.106643676757812 C 53.0670166015625 4.04522705078125 47.88810729980469 3 42.54785537719727 3 M 42.54785537719727 0 C 66.04638671875 0 85.09571075439453 19.04932403564453 85.09571075439453 42.54785537719727 L 85.09571075439453 42.5479621887207 C 85.09571075439453 66.04649353027344 66.04638671875 85.09581756591797 42.54785537719727 85.09581756591797 C 19.04932403564453 85.09581756591797 0 66.04649353027344 0 42.5479621887207 L 0 42.54785537719727 C 0 19.04932403564453 19.04932403564453 0 42.54785537719727 0 Z" stroke="none" fill="#fff"/>
            </g>
          </g>
          <g id="Rectángulo_400907" data-name="Rectángulo 400907" transform="translate(0)" fill="none" stroke="#fff" stroke-width="3">
            <rect width="85" height="85" rx="42.5" stroke="none"/>
            <rect x="1.5" y="1.5" width="82" height="82" rx="41" fill="none"/>
          </g>
        </g>
      </g>
    </g>
    <g id="farmer_9420515" transform="translate(357.176 3866.51)">
      <g id="Grupo_1102492" data-name="Grupo 1102492" transform="translate(0 0)">
        <path id="Trazado_876384" data-name="Trazado 876384" d="M208.713,239.676h0a1.921,1.921,0,0,1-1.895-1.921V230.06h-9.992v7.694a1.921,1.921,0,0,1-1.894,1.921l.425.257A12.506,12.506,0,0,0,208.713,239.676Z" transform="translate(-181.56 -204.949)" fill="#ffb09e"/>
        <path id="Trazado_876385" data-name="Trazado 876385" d="M107.286,399.073H86.064l-9.652-3.383v10.923a1.354,1.354,0,0,0,1.354,1.354h37.817a1.354,1.354,0,0,0,1.354-1.354V395.69Z" transform="translate(-76.412 -351.892)" fill="#ffb09e"/>
        <path id="Trazado_876386" data-name="Trazado 876386" d="M107.284,327.737l9.652-3.383V322.7a7.334,7.334,0,0,0-7.232-7.333l-6.14-.085h0a12.506,12.506,0,0,1-13.356.257l-.425-.257-6.14.085A7.334,7.334,0,0,0,76.41,322.7v1.654l9.652,3.383Z" transform="translate(-76.41 -280.556)" fill="#eb5569"/>
        <circle id="Elipse_11624" data-name="Elipse 11624" cx="4.691" cy="4.691" r="4.691" transform="translate(25.909 20.085)" fill="#8d9ca8"/>
        <path id="Trazado_876387" data-name="Trazado 876387" d="M336.528,185.521a4.685,4.685,0,0,0-1.41.216,4.692,4.692,0,0,1,0,8.95,4.691,4.691,0,1,0,1.41-9.166Z" transform="translate(-305.929 -165.436)" fill="#7a8c98"/>
        <path id="Trazado_876388" data-name="Trazado 876388" d="M221.713,230.062v7.456a13.275,13.275,0,0,1-9.992,0v-7.456Z" transform="translate(-196.454 -204.951)" fill="#ffa78f"/>
        <path id="Trazado_876389" data-name="Trazado 876389" d="M216.753,137.757H202.166a3.037,3.037,0,0,1-3.037-3.037h0a3.037,3.037,0,0,1,3.037-3.037h14.587a3.037,3.037,0,0,1,3.037,3.037h0A3.037,3.037,0,0,1,216.753,137.757Z" transform="translate(-185.283 -117.672)" fill="#ffa78f"/>
        <path id="Trazado_876390" data-name="Trazado 876390" d="M173.7,98.662h0A10.467,10.467,0,0,0,184.168,88.2V82.029a6.4,6.4,0,0,0-6.4-6.4h-8.127a6.4,6.4,0,0,0-6.4,6.4V88.2A10.467,10.467,0,0,0,173.7,98.662Z" transform="translate(-153.439 -67.94)" fill="#ffcebf"/>
        <path id="Trazado_876391" data-name="Trazado 876391" d="M248.975,75.625h-2.821a6.4,6.4,0,0,1,6.4,6.4v6.166A10.468,10.468,0,0,1,243.5,98.566a10.556,10.556,0,0,0,1.41.095h0a10.467,10.467,0,0,0,10.467-10.467V82.028A6.4,6.4,0,0,0,248.975,75.625Z" transform="translate(-224.648 -67.939)" fill="#ffb09e"/>
        <path id="Trazado_876392" data-name="Trazado 876392" d="M167.769,314.072h-3.385v-10.9a.677.677,0,0,1,.677-.677h2.031a.677.677,0,0,1,.677.677Z" transform="translate(-154.458 -269.209)" fill="#68ca44"/>
        <path id="Trazado_876393" data-name="Trazado 876393" d="M330.443,322.7a7.333,7.333,0,0,0-7.232-7.333l-6.14-.086,3.319.086a7.333,7.333,0,0,1,7.232,7.333v2.642l2.821-.989Z" transform="translate(-289.918 -280.556)" fill="#e53950"/>
        <path id="Trazado_876394" data-name="Trazado 876394" d="M321,314.072h-3.385v-10.9a.677.677,0,0,1,.677-.677h2.031a.677.677,0,0,1,.677.677Z" transform="translate(-290.403 -269.209)" fill="#68ca44"/>
        <path id="Trazado_876395" data-name="Trazado 876395" d="M154.257,387.513h20.957a1.128,1.128,0,0,1,1.128,1.128v12.071H153.129V388.641A1.128,1.128,0,0,1,154.257,387.513Z" transform="translate(-144.473 -344.637)" fill="#ade194"/>
        <path id="Trazado_876396" data-name="Trazado 876396" d="M326.694,387.513h-2.821A1.128,1.128,0,0,1,325,388.641v12.071h2.821V388.641A1.128,1.128,0,0,0,326.694,387.513Z" transform="translate(-295.952 -344.637)" fill="#80d261"/>
        <path id="Trazado_876397" data-name="Trazado 876397" d="M218.042,449.639H206.98v-6.075a.9.9,0,0,1,.9-.9h9.257a.9.9,0,0,1,.9.9v6.075Z" transform="translate(-192.248 -393.564)" fill="#eaf6ff"/>
        <path id="Trazado_876398" data-name="Trazado 876398" d="M275.744,443.565v6.075h-2.821v-6.075a.9.9,0,0,0-.9-.9h2.821A.9.9,0,0,1,275.744,443.565Z" transform="translate(-249.951 -393.564)" fill="#d8ecfe"/>
        <path id="Trazado_876399" data-name="Trazado 876399" d="M136.055,131.7c-1.548,3.4-.764,8.041.838,13.122a.677.677,0,0,0,1.3-.038,11.723,11.723,0,0,1,2.264-4.838.684.684,0,0,0,.08-.76,7.34,7.34,0,0,1-.171-7.486Z" transform="translate(-128.583 -117.686)" fill="#8d9ca8"/>
        <path id="Trazado_876400" data-name="Trazado 876400" d="M234.3,222.669h0a2.731,2.731,0,0,1-2.731-2.731v-.13a.677.677,0,0,1,.677-.677h4.108a.677.677,0,0,1,.677.677v.13A2.731,2.731,0,0,1,234.3,222.669Z" transform="translate(-214.064 -195.253)" fill="#eaf6ff"/>
        <path id="Trazado_876401" data-name="Trazado 876401" d="M399.945,396.679v9.935a1.354,1.354,0,0,1-1.354,1.354h2.821a1.354,1.354,0,0,0,1.354-1.354V395.69Z" transform="translate(-362.24 -351.892)" fill="#ffa78f"/>
        <path id="Trazado_876402" data-name="Trazado 876402" d="M180.648,10.634a2.246,2.246,0,0,0-1.406-1.591A24.553,24.553,0,0,0,162.1,9.05a2.251,2.251,0,0,0-1.433,1.6l-.86,3.6h21.707Z" transform="translate(-150.396 -7.502)" fill="#e8ad8c"/>
        <path id="Trazado_876403" data-name="Trazado 876403" d="M150.378,67.361l-1.2,5.025h24.1l-1.2-5.025Z" transform="translate(-140.969 -60.607)" fill="#ffe177"/>
        <path id="Trazado_876404" data-name="Trazado 876404" d="M330.019,67.361H327.2l1.2,5.025h2.821Z" transform="translate(-298.902 -60.607)" fill="#ffd15b"/>
        <path id="Trazado_876405" data-name="Trazado 876405" d="M255.631,10.642a2.246,2.246,0,0,0-1.406-1.591,24.326,24.326,0,0,0-9.9-1.5,24.759,24.759,0,0,1,7.081,1.5,2.246,2.246,0,0,1,1.406,1.591l.864,3.622H256.5Z" transform="translate(-225.379 -7.51)" fill="#e19974"/>
        <path id="Trazado_876406" data-name="Trazado 876406" d="M146.01,102.406h-30.5a.677.677,0,0,1-.677-.677h0a3.046,3.046,0,0,1,3.046-3.046H143.64a3.046,3.046,0,0,1,3.046,3.046h0A.677.677,0,0,1,146.01,102.406Z" transform="translate(-110.496 -88.395)" fill="#e8ad8c"/>
        <path id="Trazado_876407" data-name="Trazado 876407" d="M347.992,98.683h-2.821a3.046,3.046,0,0,1,3.046,3.046h0a.677.677,0,0,1-.677.677h2.821a.677.677,0,0,0,.677-.677h0A3.046,3.046,0,0,0,347.992,98.683Z" transform="translate(-314.847 -88.395)" fill="#e19974"/>
      </g>
      <g id="Grupo_1102493" data-name="Grupo 1102493" transform="translate(0 0)">
        <path id="Trazado_876408" data-name="Trazado 876408" d="M321.357,185.532a4.691,4.691,0,1,1-3.486,7.967" transform="translate(-290.628 -165.445)" fill="none" stroke="#000" stroke-linecap="round" stroke-linejoin="round" stroke-miterlimit="10" stroke-width="1"/>
        <path id="Trazado_876409" data-name="Trazado 876409" d="M196.337,268.562v3.35a1.921,1.921,0,0,1-1.894,1.921h-.062" transform="translate(-181.071 -239.107)" fill="none" stroke="#000" stroke-linecap="round" stroke-linejoin="round" stroke-miterlimit="10" stroke-width="1"/>
        <path id="Trazado_876410" data-name="Trazado 876410" d="M107.011,315.712l2.693.037a7.333,7.333,0,0,1,7.232,7.333v12.577a1.354,1.354,0,0,1-1.354,1.354H77.765a1.354,1.354,0,0,1-1.354-1.354V323.082a7.333,7.333,0,0,1,7.232-7.333l2.693-.037" transform="translate(-76.411 -280.937)" fill="none" stroke="#000" stroke-linecap="round" stroke-linejoin="round" stroke-miterlimit="10" stroke-width="1"/>
        <path id="Trazado_876411" data-name="Trazado 876411" d="M300.281,268.572v3.349a1.921,1.921,0,0,0,1.894,1.921h.062" transform="translate(-275.022 -239.116)" fill="none" stroke="#000" stroke-linecap="round" stroke-linejoin="round" stroke-miterlimit="10" stroke-width="1"/>
        <path id="Trazado_876412" data-name="Trazado 876412" d="M348.762,137.757h.74a3.037,3.037,0,1,0,0-6.075h-.741" transform="translate(-318.032 -117.671)" fill="none" stroke="#000" stroke-linecap="round" stroke-linejoin="round" stroke-miterlimit="10" stroke-width="1"/>
        <path id="Trazado_876413" data-name="Trazado 876413" d="M190.835,131.682c0,.026,0,.053,0,.079v6.166a10.469,10.469,0,0,1-20.086,4.133" transform="translate(-160.107 -117.671)" fill="none" stroke="#000" stroke-linecap="round" stroke-linejoin="round" stroke-miterlimit="10" stroke-width="1"/>
        <line id="Línea_570" data-name="Línea 570" y2="0.903" transform="translate(25.129 17.5)" fill="none" stroke="#000" stroke-linecap="round" stroke-linejoin="round" stroke-miterlimit="10" stroke-width="1"/>
        <path id="Trazado_876414" data-name="Trazado 876414" d="M152.331,17.788l1.7-7.139a2.252,2.252,0,0,1,1.434-1.6,24.55,24.55,0,0,1,17.144-.007,2.246,2.246,0,0,1,1.406,1.591l1.707,7.156" transform="translate(-143.765 -7.5)" fill="none" stroke="#000" stroke-linecap="round" stroke-linejoin="round" stroke-miterlimit="10" stroke-width="1"/>
        <line id="Línea_571" data-name="Línea 571" y2="0.903" transform="translate(15.397 17.5)" fill="none" stroke="#000" stroke-linecap="round" stroke-linejoin="round" stroke-miterlimit="10" stroke-width="1"/>
        <line id="Línea_572" data-name="Línea 572" x2="0.588" transform="translate(19.969 20.493)" fill="none" stroke="#000" stroke-linecap="round" stroke-linejoin="round" stroke-miterlimit="10" stroke-width="1"/>
        <path id="Trazado_876415" data-name="Trazado 876415" d="M146.01,102.406h-30.5a.677.677,0,0,1-.677-.677h0a3.046,3.046,0,0,1,3.046-3.046H143.64a3.046,3.046,0,0,1,3.046,3.046h0A.677.677,0,0,1,146.01,102.406Z" transform="translate(-110.496 -88.395)" fill="none" stroke="#000" stroke-linecap="round" stroke-linejoin="round" stroke-miterlimit="10" stroke-width="1"/>
        <line id="Línea_573" data-name="Línea 573" x1="5.126" transform="translate(25.939 6.754)" fill="none" stroke="#000" stroke-linecap="round" stroke-linejoin="round" stroke-miterlimit="10" stroke-width="1"/>
        <line id="Línea_574" data-name="Línea 574" x1="12.581" transform="translate(9.409 6.754)" fill="none" stroke="#000" stroke-linecap="round" stroke-linejoin="round" stroke-miterlimit="10" stroke-width="1"/>
        <path id="Trazado_876416" data-name="Trazado 876416" d="M164.381,312.085v-8.916a.678.678,0,0,1,.677-.677h2.031a.677.677,0,0,1,.677.677v8.916" transform="translate(-154.456 -269.209)" fill="none" stroke="#000" stroke-linecap="round" stroke-linejoin="round" stroke-miterlimit="10" stroke-width="1"/>
        <path id="Trazado_876417" data-name="Trazado 876417" d="M317.621,312.085v-8.916a.677.677,0,0,1,.677-.677h2.031a.678.678,0,0,1,.677.677v8.916" transform="translate(-290.406 -269.209)" fill="none" stroke="#000" stroke-linecap="round" stroke-linejoin="round" stroke-miterlimit="10" stroke-width="1"/>
        <path id="Trazado_876418" data-name="Trazado 876418" d="M153.131,398.016v2.7h23.213V388.64a1.128,1.128,0,0,0-1.128-1.128H154.259a1.128,1.128,0,0,0-1.128,1.128v5.427" transform="translate(-144.475 -344.636)" fill="none" stroke="#000" stroke-linecap="round" stroke-linejoin="round" stroke-miterlimit="10" stroke-width="1"/>
        <path id="Trazado_876419" data-name="Trazado 876419" d="M206.98,449.639v-6.075a.9.9,0,0,1,.9-.9h9.257a.9.9,0,0,1,.9.9v6.075" transform="translate(-192.248 -393.564)" fill="none" stroke="#000" stroke-linecap="round" stroke-linejoin="round" stroke-miterlimit="10" stroke-width="1"/>
        <path id="Trazado_876420" data-name="Trazado 876420" d="M194.931,315.283l.425.257a12.506,12.506,0,0,0,13.356-.257h0" transform="translate(-181.559 -280.557)" fill="none" stroke="#000" stroke-linecap="round" stroke-linejoin="round" stroke-miterlimit="10" stroke-width="1"/>
        <path id="Trazado_876421" data-name="Trazado 876421" d="M234.3,222.669h0a2.731,2.731,0,0,1-2.731-2.731v-.13a.677.677,0,0,1,.677-.677h4.108a.677.677,0,0,1,.677.677v.13A2.731,2.731,0,0,1,234.3,222.669Z" transform="translate(-214.064 -195.253)" fill="none" stroke="#000" stroke-linecap="round" stroke-linejoin="round" stroke-miterlimit="10" stroke-width="1"/>
        <path id="Trazado_876422" data-name="Trazado 876422" d="M136.055,131.7c-1.548,3.4-.764,8.041.838,13.122a.677.677,0,0,0,1.3-.038,11.723,11.723,0,0,1,2.264-4.838.684.684,0,0,0,.08-.76,7.34,7.34,0,0,1-.171-7.486" transform="translate(-128.583 -117.686)" fill="none" stroke="#000" stroke-linecap="round" stroke-linejoin="round" stroke-miterlimit="10" stroke-width="1"/>
        <line id="Línea_575" data-name="Línea 575" x1="8.656" y1="3.034" transform="translate(0 43.799)" fill="none" stroke="#000" stroke-linecap="round" stroke-linejoin="round" stroke-miterlimit="10" stroke-width="1"/>
        <line id="Línea_576" data-name="Línea 576" y1="3.034" x2="8.656" transform="translate(31.87 43.799)" fill="none" stroke="#000" stroke-linecap="round" stroke-linejoin="round" stroke-miterlimit="10" stroke-width="1"/>
      </g>
    </g>
  </g>
</svg>
