<svg xmlns="http://www.w3.org/2000/svg" xmlns:xlink="http://www.w3.org/1999/xlink" width="100.101" height="100.101" viewBox="0 0 100.101 100.101">
  <defs>
    <filter id="Trazado_874925" x="0" y="0" width="100.101" height="100.101" filterUnits="userSpaceOnUse">
      <feOffset dy="3" input="SourceAlpha"/>
      <feGaussianBlur stdDeviation="3" result="blur"/>
      <feFlood flood-opacity="0.161"/>
      <feComposite operator="in" in2="blur"/>
      <feComposite in="SourceGraphic"/>
    </filter>
  </defs>
  <g id="Grupo_1112427" data-name="Grupo 1112427" transform="translate(-799.5 -2511.157)">
    <g id="Grupo_1111316" data-name="Grupo 1111316" transform="translate(808.5 2517.157)">
      <g id="Grupo_1109835" data-name="Grupo 1109835" transform="translate(0 0)">
        <g id="Grupo_1107913" data-name="Grupo 1107913" transform="translate(0 0)">
          <g transform="matrix(1, 0, 0, 1, -9, -6)" filter="url(#Trazado_874925)">
            <g id="Trazado_874925-2" data-name="Trazado 874925" transform="translate(9 6)" fill="#9ad354" opacity="0.859">
              <path d="M 41.05037307739258 80.60108947753906 C 35.71044540405273 80.60108947753906 30.53104400634766 79.55559539794922 25.65604400634766 77.49363708496094 C 20.94658470153809 75.50172424316406 16.71676063537598 72.6497802734375 13.08403205871582 69.01707458496094 C 9.451313972473145 65.38435363769531 6.599372863769531 61.15452194213867 4.607443809509277 56.44508743286133 C 2.545490741729736 51.57008743286133 1.499996662139893 46.39069747924805 1.499996662139893 41.05078125 C 1.499996662139893 35.71039199829102 2.545490741729736 30.53100395202637 4.607443809509277 25.65600395202637 C 6.599372863769531 20.94656753540039 9.451313972473145 16.71673202514648 13.08403205871582 13.08401489257812 C 16.71676063537598 9.451309204101562 20.94658470153809 6.599368095397949 25.65604400634766 4.607450485229492 C 30.53104400634766 2.54549765586853 35.71044540405273 1.500003576278687 41.05037307739258 1.500003576278687 C 46.39030075073242 1.500003576278687 51.5697021484375 2.54549765586853 56.4447021484375 4.607450485229492 C 61.15415954589844 6.599368095397949 65.38398742675781 9.451309204101562 69.01671600341797 13.08401489257812 C 72.64942932128906 16.71673202514648 75.50137329101562 20.94656753540039 77.49330139160156 25.65600395202637 C 79.55525207519531 30.53100395202637 80.60074615478516 35.71039199829102 80.60074615478516 41.05030822753906 C 80.60074615478516 46.39069747924805 79.55525207519531 51.57008743286133 77.49330139160156 56.44508743286133 C 75.50137329101562 61.15452194213867 72.64942932128906 65.38435363769531 69.01671600341797 69.01707458496094 C 65.38398742675781 72.6497802734375 61.15415954589844 75.50172424316406 56.4447021484375 77.49363708496094 C 51.5697021484375 79.55559539794922 46.39030075073242 80.60108947753906 41.05037307739258 80.60108947753906 Z" stroke="none"/>
              <path d="M 41.05037307739258 3 C 35.91228103637695 3 30.92948150634766 4.005622863769531 26.24037170410156 5.988945007324219 C 21.70972061157227 7.905250549316406 17.64014434814453 10.64923858642578 14.14469146728516 14.14467620849609 C 10.64925384521484 17.64012145996094 7.905250549316406 21.70967864990234 5.988960266113281 26.24032974243164 C 4.005622863769531 30.92942428588867 3 35.91222381591797 3 41.05078506469727 C 3 46.18886566162109 4.005622863769531 51.17165374755859 5.988960266113281 55.86075592041016 C 7.905250549316406 60.39139556884766 10.64925384521484 64.46096801757812 14.14469146728516 67.95641326904297 C 17.64014434814453 71.45185089111328 21.70972061157227 74.19583892822266 26.24037170410156 76.11214447021484 C 30.92948150634766 78.09546661376953 35.91228103637695 79.10108947753906 41.05037307739258 79.10108947753906 C 46.1884651184082 79.10108947753906 51.1712646484375 78.09546661376953 55.86037445068359 76.11214447021484 C 60.39102554321289 74.19583892822266 64.46060180664062 71.45185089111328 67.9560546875 67.95641326904297 C 71.45149230957031 64.46096801757812 74.19549560546875 60.39139556884766 76.11178588867188 55.86075592041016 C 78.09512329101562 51.17165374755859 79.10074615478516 46.18886566162109 79.10074615478516 41.0503044128418 C 79.10074615478516 35.91222381591797 78.09512329101562 30.92942428588867 76.11178588867188 26.24032974243164 C 74.19549560546875 21.70967864990234 71.45149230957031 17.64012145996094 67.9560546875 14.14467620849609 C 64.46060180664062 10.64923858642578 60.39102554321289 7.905250549316406 55.86037445068359 5.988945007324219 C 51.1712646484375 4.005622863769531 46.1884651184082 3 41.05037307739258 3 M 41.05037307739258 0 C 63.72186660766602 0 82.10074615478516 18.37883758544922 82.10074615478516 41.0503044128418 L 82.10074615478516 41.05078506469727 C 82.10074615478516 63.72223663330078 63.72186660766602 82.10108947753906 41.05037307739258 82.10108947753906 C 18.37887954711914 82.10108947753906 0 63.72223663330078 0 41.05078506469727 L 0 41.0503044128418 C 0 18.37883758544922 18.37887954711914 0 41.05037307739258 0 Z" stroke="none" fill="#fff"/>
            </g>
          </g>
          <g id="Trazado_874923" data-name="Trazado 874923" transform="translate(0 0)" fill="none">
            <path d="M41.05,0A41.05,41.05,0,0,1,82.1,41.05h0a41.05,41.05,0,0,1-82.1,0H0A41.05,41.05,0,0,1,41.05,0Z" stroke="none"/>
            <path d="M 41.05037307739258 3 C 35.91228103637695 3 30.92948150634766 4.005622863769531 26.24037170410156 5.988945007324219 C 21.70972061157227 7.905250549316406 17.64014434814453 10.64923858642578 14.14469146728516 14.14467620849609 C 10.64925384521484 17.64012145996094 7.905250549316406 21.70967864990234 5.988960266113281 26.24032974243164 C 4.005622863769531 30.92942428588867 3 35.91222381591797 3 41.05078506469727 C 3 46.18886566162109 4.005622863769531 51.17165374755859 5.988960266113281 55.86075592041016 C 7.905250549316406 60.39139556884766 10.64925384521484 64.46096801757812 14.14469146728516 67.95641326904297 C 17.64014434814453 71.45185089111328 21.70972061157227 74.19583892822266 26.24037170410156 76.11214447021484 C 30.92948150634766 78.09546661376953 35.91228103637695 79.10108947753906 41.05037307739258 79.10108947753906 C 46.1884651184082 79.10108947753906 51.1712646484375 78.09546661376953 55.86037445068359 76.11214447021484 C 60.39102554321289 74.19583892822266 64.46060180664062 71.45185089111328 67.9560546875 67.95641326904297 C 71.45149230957031 64.46096801757812 74.19549560546875 60.39139556884766 76.11178588867188 55.86075592041016 C 78.09512329101562 51.17165374755859 79.10074615478516 46.18886566162109 79.10074615478516 41.0503044128418 C 79.10074615478516 35.91222381591797 78.09512329101562 30.92942428588867 76.11178588867188 26.24032974243164 C 74.19549560546875 21.70967864990234 71.45149230957031 17.64012145996094 67.9560546875 14.14467620849609 C 64.46060180664062 10.64923858642578 60.39102554321289 7.905250549316406 55.86037445068359 5.988945007324219 C 51.1712646484375 4.005622863769531 46.1884651184082 3 41.05037307739258 3 M 41.05037307739258 0 C 63.72186660766602 0 82.10074615478516 18.37883758544922 82.10074615478516 41.0503044128418 L 82.10074615478516 41.05078506469727 C 82.10074615478516 63.72223663330078 63.72186660766602 82.10108947753906 41.05037307739258 82.10108947753906 C 18.37887954711914 82.10108947753906 0 63.72223663330078 0 41.05078506469727 L 0 41.0503044128418 C 0 18.37883758544922 18.37887954711914 0 41.05037307739258 0 Z" stroke="none" fill="#fff"/>
          </g>
        </g>
      </g>
    </g>
    <g id="caring_3257855" transform="translate(821.806 2530.464)">
      <g id="Grupo_1188285" data-name="Grupo 1188285" transform="translate(0.926 35.141)">
        <path id="Trazado_1049560" data-name="Trazado 1049560" d="M56.433,41.126l-6.039,6.2a3.73,3.73,0,0,1-1.988,1.054l-8.249,1.5a.932.932,0,0,0-.758.916V56.5a.925.925,0,0,1-.925.925H32.925A.925.925,0,0,1,32,56.5V45.056a4.964,4.964,0,0,1,3.126-4.615,5.237,5.237,0,0,1,3.061-.213l1.387.351a3.769,3.769,0,0,0,1.507.055l2.6-.425a2.766,2.766,0,0,1,3.024,1.7l.361.9a3.67,3.67,0,0,0,.9-.351l6.076-4.115a1.887,1.887,0,0,1,2.294.092,1.841,1.841,0,0,1,.1,2.691Z" transform="translate(-3.332 -37.998)" fill="#ffe0b2"/>
        <path id="Trazado_1049561" data-name="Trazado 1049561" d="M41,45.781A5.092,5.092,0,0,1,43.183,44.5L47.741,43.2" transform="translate(-4.009 -38.389)" fill="#ffe0b2"/>
        <path id="Trazado_1049562" data-name="Trazado 1049562" d="M25.97,45.056V56.5a.925.925,0,0,1-.925.925H19.5a.925.925,0,0,1-.925-.925V50.79a.932.932,0,0,0-.758-.916l-8.249-1.5a3.73,3.73,0,0,1-1.988-1.054l-6.039-6.2a1.841,1.841,0,0,1,.1-2.691,1.887,1.887,0,0,1,2.294-.092l6.076,4.115a3.67,3.67,0,0,0,.9.351l.361-.9a2.766,2.766,0,0,1,3.024-1.7l2.6.425A3.769,3.769,0,0,0,18.4,40.58l1.387-.351a5.237,5.237,0,0,1,3.061.213,4.964,4.964,0,0,1,3.126,4.615Z" transform="translate(-1.001 -37.998)" fill="#ffe0b2"/>
        <path id="Trazado_1049563" data-name="Trazado 1049563" d="M11.711,43.2l4.558,1.295a5.092,5.092,0,0,1,2.183,1.286" transform="translate(-1.806 -38.389)" fill="#ffe0b2"/>
      </g>
      <circle id="Elipse_12081" data-name="Elipse 12081" cx="9.248" cy="9.248" r="9.248" transform="translate(18.496 0.925)" fill="#ffdc00"/>
      <path id="Trazado_1049564" data-name="Trazado 1049564" d="M29.887,1a9.275,9.275,0,0,0-1.387.116,9.235,9.235,0,0,1,0,18.265A9.243,9.243,0,1,0,29.887,1Z" transform="translate(-2.143 -0.075)" fill="#fec108"/>
      <circle id="Elipse_12082" data-name="Elipse 12082" cx="9.248" cy="9.248" r="9.248" transform="translate(36.067 14.797)" fill="#f44335"/>
      <path id="Trazado_1049565" data-name="Trazado 1049565" d="M48.887,16a9.275,9.275,0,0,0-1.387.116,9.235,9.235,0,0,1,0,18.265A9.243,9.243,0,1,0,48.887,16Z" transform="translate(-3.572 -1.203)" fill="#c81e1e"/>
      <path id="Trazado_1049566" data-name="Trazado 1049566" d="M15.248,25.052v8.656a9.248,9.248,0,0,1-9.248,0V25.052l4.115-2.885a.86.86,0,0,1,1.017,0Z" transform="translate(-0.451 -1.654)" fill="#ff9801"/>
      <path id="Trazado_1049567" data-name="Trazado 1049567" d="M19.5,25.248a9.242,9.242,0,0,1-4.624,8.009V24.6l-4.115-2.885a.86.86,0,0,0-1.017,0L5.624,24.6v8.656A9.248,9.248,0,1,1,19.5,25.248Z" transform="translate(-0.075 -1.203)" fill="#a4c400"/>
      <path id="Trazado_1049568" data-name="Trazado 1049568" d="M10.887,16a9.275,9.275,0,0,0-1.387.116A9.225,9.225,0,0,1,15.511,30.78v2.477A9.248,9.248,0,0,0,10.887,16Z" transform="translate(-0.714 -1.203)" fill="#90ac00"/>
      <path id="Trazado_1049569" data-name="Trazado 1049569" d="M54.1,24.624v1.85a.925.925,0,0,1-.925.925H50.4v2.774a.925.925,0,0,1-.925.925h-1.85a.925.925,0,0,1-.925-.925V27.4H43.925A.925.925,0,0,1,43,26.474v-1.85a.925.925,0,0,1,.925-.925H46.7V20.925A.925.925,0,0,1,47.624,20h1.85a.925.925,0,0,1,.925.925V23.7h2.774A.925.925,0,0,1,54.1,24.624Z" transform="translate(-3.233 -1.504)" fill="#f5f5f5"/>
      <path id="Trazado_1049570" data-name="Trazado 1049570" d="M57.819,39.689A2.763,2.763,0,0,0,53.448,37.5L47.5,41.531l-.013-.031a3.711,3.711,0,0,0-4.033-2.275l-2.6.427a2.844,2.844,0,0,1-1.128-.041l-1.4-.354a6.1,6.1,0,0,0-3.607.252A5.858,5.858,0,0,0,31,44.981V56.42a1.85,1.85,0,0,0,1.85,1.85H38.4a1.85,1.85,0,0,0,1.85-1.85V50.709l8.247-1.5a4.624,4.624,0,0,0,2.485-1.318l6.033-6.19a2.744,2.744,0,0,0,.806-2.01Zm-2.109.7-.014.014-6.035,6.2a2.792,2.792,0,0,1-1.494.793l-8.248,1.5A1.85,1.85,0,0,0,38.4,50.71v5.71H32.85V44.981a4.016,4.016,0,0,1,2.541-3.756,4.324,4.324,0,0,1,2.5-.175l1.4.354a4.669,4.669,0,0,0,1.873.068l2.6-.426a1.85,1.85,0,0,1,1.986,1.079l-3.572,1.017A6.047,6.047,0,0,0,39.6,44.662a.925.925,0,1,0,1.3,1.308,4.187,4.187,0,0,1,1.781-1.05l4.558-1.295A4.239,4.239,0,0,0,48.4,43.15l6.081-4.116a.96.96,0,0,1,1.16.016.942.942,0,0,1,.326.685.881.881,0,0,1-.261.657Z" transform="translate(-2.331 -2.781)"/>
      <path id="Trazado_1049571" data-name="Trazado 1049571" d="M19.421,58.269H24.97a1.85,1.85,0,0,0,1.85-1.85V44.981a5.858,5.858,0,0,0-3.71-5.475,6.147,6.147,0,0,0-3.628-.25L18.1,39.6a2.846,2.846,0,0,1-1.141.043l-2.6-.43a3.7,3.7,0,0,0-4.033,2.269l-.015.035L4.372,37.5A2.764,2.764,0,0,0,.805,41.7L6.84,47.9a4.624,4.624,0,0,0,2.484,1.308l8.247,1.5v5.71a1.85,1.85,0,0,0,1.85,1.85ZM9.654,47.391a2.788,2.788,0,0,1-1.492-.79L2.127,40.4l-.014-.014a.881.881,0,0,1-.264-.656.946.946,0,0,1,.326-.686.839.839,0,0,1,.562-.2,1.07,1.07,0,0,1,.6.185l6.086,4.118a4.242,4.242,0,0,0,1.156.471l4.553,1.295a4.182,4.182,0,0,1,1.788,1.052.925.925,0,1,0,1.308-1.308,6.054,6.054,0,0,0-2.583-1.52l-3.566-1.017a1.85,1.85,0,0,1,1.988-1.079l2.6.426a4.691,4.691,0,0,0,1.886-.071l1.37-.348a4.31,4.31,0,0,1,2.51.171,4.016,4.016,0,0,1,2.542,3.757V56.42H19.421V50.71a1.85,1.85,0,0,0-1.52-1.82Z" transform="translate(0 -2.781)"/>
      <path id="Trazado_1049572" data-name="Trazado 1049572" d="M29.774,9.624a.925.925,0,1,1,.8-1.387.925.925,0,0,0,1.6-.925A2.768,2.768,0,0,0,30.7,6.11V5.925a.925.925,0,1,0-1.85,0v.17a2.768,2.768,0,0,0,.925,5.379.925.925,0,1,1-.8,1.387.925.925,0,0,0-1.6.925,2.768,2.768,0,0,0,1.48,1.2v.185a.925.925,0,1,0,1.85,0V15a2.768,2.768,0,0,0-.927-5.379Z" transform="translate(-2.03 -0.376)"/>
      <path id="Trazado_1049573" data-name="Trazado 1049573" d="M29.173,0A10.173,10.173,0,1,0,39.346,10.173,10.173,10.173,0,0,0,29.173,0Zm0,18.5A8.323,8.323,0,1,1,37.5,10.173,8.323,8.323,0,0,1,29.173,18.5Z" transform="translate(-1.429)"/>
      <path id="Trazado_1049574" data-name="Trazado 1049574" d="M48.173,15A10.173,10.173,0,1,0,58.346,25.173,10.173,10.173,0,0,0,48.173,15Zm0,18.5A8.323,8.323,0,1,1,56.5,25.173,8.323,8.323,0,0,1,48.173,33.5Z" transform="translate(-2.857 -1.128)"/>
      <path id="Trazado_1049575" data-name="Trazado 1049575" d="M10.173,35.346A10.173,10.173,0,1,0,0,25.173,10.173,10.173,0,0,0,10.173,35.346ZM6.474,25l3.681-2.6L13.872,25v7.614a8.242,8.242,0,0,1-2.774.824v-2.72a.925.925,0,0,0-1.85,0v2.72a8.242,8.242,0,0,1-2.774-.824Zm3.7-8.148a8.311,8.311,0,0,1,5.549,14.509V26.1a.925.925,0,0,0,.531-1.681l-5.036-3.537a1.805,1.805,0,0,0-2.088,0L4.093,24.416A.925.925,0,0,0,3.868,25.7a.905.905,0,0,0,.756.377v5.278A8.311,8.311,0,0,1,10.173,16.85Z" transform="translate(0 -1.128)"/>
      <path id="Trazado_1049576" data-name="Trazado 1049576" d="M51.248,22.7V20.85A1.85,1.85,0,0,0,49.4,19h-1.85a1.85,1.85,0,0,0-1.85,1.85V22.7H43.85A1.85,1.85,0,0,0,42,24.549V26.4a1.85,1.85,0,0,0,1.85,1.85H45.7V30.1a1.85,1.85,0,0,0,1.85,1.85H49.4a1.85,1.85,0,0,0,1.85-1.85v-1.85H53.1a1.85,1.85,0,0,0,1.85-1.85v-1.85A1.85,1.85,0,0,0,53.1,22.7Zm1.85,3.7H50.323a.925.925,0,0,0-.925.925V30.1h-1.85V27.323a.925.925,0,0,0-.925-.925H43.85v-1.85h2.774a.925.925,0,0,0,.925-.925V20.85H49.4v2.774a.925.925,0,0,0,.925.925H53.1Z" transform="translate(-3.158 -1.429)"/>
      <circle id="Elipse_12083" data-name="Elipse 12083" cx="0.925" cy="0.925" r="0.925" transform="translate(9.248 24.045)"/>
    </g>
  </g>
</svg>
