<svg xmlns="http://www.w3.org/2000/svg" xmlns:xlink="http://www.w3.org/1999/xlink" width="100.101" height="100.101" viewBox="0 0 100.101 100.101">
  <defs>
    <filter id="Trazado_874925" x="0" y="0" width="100.101" height="100.101" filterUnits="userSpaceOnUse">
      <feOffset dy="3" input="SourceAlpha"/>
      <feGaussianBlur stdDeviation="3" result="blur"/>
      <feFlood flood-opacity="0.161"/>
      <feComposite operator="in" in2="blur"/>
      <feComposite in="SourceGraphic"/>
    </filter>
  </defs>
  <g id="Grupo_1188288" data-name="Grupo 1188288" transform="translate(-799.5 -2511.157)">
    <g id="Grupo_1111316" data-name="Grupo 1111316" transform="translate(808.5 2517.157)">
      <g id="Grupo_1109835" data-name="Grupo 1109835" transform="translate(0 0)">
        <g id="Grupo_1107913" data-name="Grupo 1107913" transform="translate(0 0)">
          <g transform="matrix(1, 0, 0, 1, -9, -6)" filter="url(#Trazado_874925)">
            <g id="Trazado_874925-2" data-name="Trazado 874925" transform="translate(9 6)" fill="#d7e9ff" opacity="0.859">
              <path d="M 41.05037307739258 80.60108947753906 C 35.71044540405273 80.60108947753906 30.53104400634766 79.55559539794922 25.65604400634766 77.49363708496094 C 20.94658470153809 75.50172424316406 16.71676063537598 72.6497802734375 13.08403205871582 69.01707458496094 C 9.451313972473145 65.38435363769531 6.599372863769531 61.15452194213867 4.607443809509277 56.44508743286133 C 2.545490741729736 51.57008743286133 1.499996662139893 46.39069747924805 1.499996662139893 41.05078125 C 1.499996662139893 35.71039199829102 2.545490741729736 30.53100395202637 4.607443809509277 25.65600395202637 C 6.599372863769531 20.94656753540039 9.451313972473145 16.71673202514648 13.08403205871582 13.08401489257812 C 16.71676063537598 9.451309204101562 20.94658470153809 6.599368095397949 25.65604400634766 4.607450485229492 C 30.53104400634766 2.54549765586853 35.71044540405273 1.500003576278687 41.05037307739258 1.500003576278687 C 46.39030075073242 1.500003576278687 51.5697021484375 2.54549765586853 56.4447021484375 4.607450485229492 C 61.15415954589844 6.599368095397949 65.38398742675781 9.451309204101562 69.01671600341797 13.08401489257812 C 72.64942932128906 16.71673202514648 75.50137329101562 20.94656753540039 77.49330139160156 25.65600395202637 C 79.55525207519531 30.53100395202637 80.60074615478516 35.71039199829102 80.60074615478516 41.05030822753906 C 80.60074615478516 46.39069747924805 79.55525207519531 51.57008743286133 77.49330139160156 56.44508743286133 C 75.50137329101562 61.15452194213867 72.64942932128906 65.38435363769531 69.01671600341797 69.01707458496094 C 65.38398742675781 72.6497802734375 61.15415954589844 75.50172424316406 56.4447021484375 77.49363708496094 C 51.5697021484375 79.55559539794922 46.39030075073242 80.60108947753906 41.05037307739258 80.60108947753906 Z" stroke="none"/>
              <path d="M 41.05037307739258 3 C 35.91228103637695 3 30.92948150634766 4.005622863769531 26.24037170410156 5.988945007324219 C 21.70972061157227 7.905250549316406 17.64014434814453 10.64923858642578 14.14469146728516 14.14467620849609 C 10.64925384521484 17.64012145996094 7.905250549316406 21.70967864990234 5.988960266113281 26.24032974243164 C 4.005622863769531 30.92942428588867 3 35.91222381591797 3 41.05078506469727 C 3 46.18886566162109 4.005622863769531 51.17165374755859 5.988960266113281 55.86075592041016 C 7.905250549316406 60.39139556884766 10.64925384521484 64.46096801757812 14.14469146728516 67.95641326904297 C 17.64014434814453 71.45185089111328 21.70972061157227 74.19583892822266 26.24037170410156 76.11214447021484 C 30.92948150634766 78.09546661376953 35.91228103637695 79.10108947753906 41.05037307739258 79.10108947753906 C 46.1884651184082 79.10108947753906 51.1712646484375 78.09546661376953 55.86037445068359 76.11214447021484 C 60.39102554321289 74.19583892822266 64.46060180664062 71.45185089111328 67.9560546875 67.95641326904297 C 71.45149230957031 64.46096801757812 74.19549560546875 60.39139556884766 76.11178588867188 55.86075592041016 C 78.09512329101562 51.17165374755859 79.10074615478516 46.18886566162109 79.10074615478516 41.0503044128418 C 79.10074615478516 35.91222381591797 78.09512329101562 30.92942428588867 76.11178588867188 26.24032974243164 C 74.19549560546875 21.70967864990234 71.45149230957031 17.64012145996094 67.9560546875 14.14467620849609 C 64.46060180664062 10.64923858642578 60.39102554321289 7.905250549316406 55.86037445068359 5.988945007324219 C 51.1712646484375 4.005622863769531 46.1884651184082 3 41.05037307739258 3 M 41.05037307739258 0 C 63.72186660766602 0 82.10074615478516 18.37883758544922 82.10074615478516 41.0503044128418 L 82.10074615478516 41.05078506469727 C 82.10074615478516 63.72223663330078 63.72186660766602 82.10108947753906 41.05037307739258 82.10108947753906 C 18.37887954711914 82.10108947753906 0 63.72223663330078 0 41.05078506469727 L 0 41.0503044128418 C 0 18.37883758544922 18.37887954711914 0 41.05037307739258 0 Z" stroke="none" fill="#fff"/>
            </g>
          </g>
          <g id="Trazado_874923" data-name="Trazado 874923" transform="translate(0 0)" fill="none">
            <path d="M41.05,0A41.05,41.05,0,0,1,82.1,41.05h0a41.05,41.05,0,0,1-82.1,0H0A41.05,41.05,0,0,1,41.05,0Z" stroke="none"/>
            <path d="M 41.05037307739258 3 C 35.91228103637695 3 30.92948150634766 4.005622863769531 26.24037170410156 5.988945007324219 C 21.70972061157227 7.905250549316406 17.64014434814453 10.64923858642578 14.14469146728516 14.14467620849609 C 10.64925384521484 17.64012145996094 7.905250549316406 21.70967864990234 5.988960266113281 26.24032974243164 C 4.005622863769531 30.92942428588867 3 35.91222381591797 3 41.05078506469727 C 3 46.18886566162109 4.005622863769531 51.17165374755859 5.988960266113281 55.86075592041016 C 7.905250549316406 60.39139556884766 10.64925384521484 64.46096801757812 14.14469146728516 67.95641326904297 C 17.64014434814453 71.45185089111328 21.70972061157227 74.19583892822266 26.24037170410156 76.11214447021484 C 30.92948150634766 78.09546661376953 35.91228103637695 79.10108947753906 41.05037307739258 79.10108947753906 C 46.1884651184082 79.10108947753906 51.1712646484375 78.09546661376953 55.86037445068359 76.11214447021484 C 60.39102554321289 74.19583892822266 64.46060180664062 71.45185089111328 67.9560546875 67.95641326904297 C 71.45149230957031 64.46096801757812 74.19549560546875 60.39139556884766 76.11178588867188 55.86075592041016 C 78.09512329101562 51.17165374755859 79.10074615478516 46.18886566162109 79.10074615478516 41.0503044128418 C 79.10074615478516 35.91222381591797 78.09512329101562 30.92942428588867 76.11178588867188 26.24032974243164 C 74.19549560546875 21.70967864990234 71.45149230957031 17.64012145996094 67.9560546875 14.14467620849609 C 64.46060180664062 10.64923858642578 60.39102554321289 7.905250549316406 55.86037445068359 5.988945007324219 C 51.1712646484375 4.005622863769531 46.1884651184082 3 41.05037307739258 3 M 41.05037307739258 0 C 63.72186660766602 0 82.10074615478516 18.37883758544922 82.10074615478516 41.0503044128418 L 82.10074615478516 41.05078506469727 C 82.10074615478516 63.72223663330078 63.72186660766602 82.10108947753906 41.05037307739258 82.10108947753906 C 18.37887954711914 82.10108947753906 0 63.72223663330078 0 41.05078506469727 L 0 41.0503044128418 C 0 18.37883758544922 18.37887954711914 0 41.05037307739258 0 Z" stroke="none" fill="#fff"/>
          </g>
        </g>
      </g>
    </g>
    <g id="Hydro_Power" data-name="Hydro Power" transform="translate(824.937 2533.501)">
      <path id="Trazado_1049609" data-name="Trazado 1049609" d="M42.724,59.9a4.8,4.8,0,0,1-2.982-.954,5.136,5.136,0,0,0-5.961,0,5.134,5.134,0,0,1-5.961,0,5.134,5.134,0,0,0-5.962,0,4.8,4.8,0,0,1-2.982.955,4.8,4.8,0,0,1-2.979-.954,4.858,4.858,0,0,0-2.98-.954,4.856,4.856,0,0,0-2.977.952,4.8,4.8,0,0,1-2.982.956,4.8,4.8,0,0,1-2.979-.954A4.857,4.857,0,0,0,1,57.99V48.76a4.8,4.8,0,0,1,2.979.954,4.858,4.858,0,0,0,2.98.954,4.855,4.855,0,0,0,2.977-.952,4.8,4.8,0,0,1,2.982-.955,4.8,4.8,0,0,1,2.979.954,5.132,5.132,0,0,0,5.958,0,5.134,5.134,0,0,1,5.962,0,5.134,5.134,0,0,0,5.961,0,5.135,5.135,0,0,1,5.965,0,5.137,5.137,0,0,0,5.965,0,4.807,4.807,0,0,1,2.982-.953v9.23a4.858,4.858,0,0,0-2.982.955,4.807,4.807,0,0,1-2.982.953Z" transform="translate(-0.231 -11.255)" fill="#b3dafe"/>
      <path id="Trazado_1049610" data-name="Trazado 1049610" d="M23.922,37.151V32.327l-.59-.141a12.138,12.138,0,0,1-3.512-1.45L19.3,30.42l-5.039,5.039-1.632-4.9,3.408-3.407-.316-.517a12.164,12.164,0,0,1-1.451-3.512l-.141-.59H7l2.308-4.615h4.824l.141-.59a12.164,12.164,0,0,1,1.451-3.512l.316-.517L11,8.264,15.9,6.632,19.3,10.04l.517-.315a12.138,12.138,0,0,1,3.512-1.45l.59-.142V1l4.615,2.308V8.132l.59.141a12.138,12.138,0,0,1,3.512,1.45l.517.315L38.195,5l1.632,4.895L36.419,13.3l.316.517a12.164,12.164,0,0,1,1.451,3.512l.141.59h7.132l-2.308,4.615H38.327l-.141.59a12.164,12.164,0,0,1-1.451,3.512l-.316.517L41.458,32.2l-4.895,1.632-3.407-3.407-.517.315a12.138,12.138,0,0,1-3.512,1.45l-.59.142v7.132Z" transform="translate(-1.616 -0.231)" fill="#baafb9"/>
      <circle id="Elipse_12084" data-name="Elipse 12084" cx="9.23" cy="9.23" r="9.23" transform="translate(15.384 10.768)" fill="#9b8e99"/>
      <path id="Trazado_1049611" data-name="Trazado 1049611" d="M28.846,25.692H25L31.923,18v4.615h3.846l-6.922,7.691Z" transform="translate(-5.771 -4.155)" fill="#fedf30"/>
      <path id="Trazado_1049612" data-name="Trazado 1049612" d="M29,33A10,10,0,1,0,19,23,10,10,0,0,0,29,33Zm0-18.46A8.461,8.461,0,1,1,20.538,23,8.461,8.461,0,0,1,29,14.538Z" transform="translate(-4.386 -3.001)" fill="#322b33"/>
      <path id="Trazado_1049613" data-name="Trazado 1049613" d="M24.769,26.23h3.077v3.846a.769.769,0,0,0,1.341.515L36.109,22.9a.769.769,0,0,0-.572-1.284H32.461V17.769a.769.769,0,0,0-1.341-.515L24.2,24.946a.769.769,0,0,0,.572,1.284Zm6.153-6.457v2.611a.769.769,0,0,0,.769.769h2.119l-4.427,4.919V25.461a.769.769,0,0,0-.769-.769H26.5Z" transform="translate(-5.54 -3.924)" fill="#322b33"/>
      <path id="Trazado_1049614" data-name="Trazado 1049614" d="M6.769,23.075h6.525a12.9,12.9,0,0,0,1.543,3.734l-2.979,2.979a.769.769,0,0,0-.186.787l1.632,4.9a.769.769,0,0,0,1.274.3l4.611-4.611A12.894,12.894,0,0,0,22.922,32.7V36.92a.769.769,0,0,0,.425.688l4.615,2.307a.769.769,0,0,0,1.113-.688V32.7a12.894,12.894,0,0,0,3.734-1.542l2.979,2.979a.767.767,0,0,0,.787.186l4.895-1.632a.769.769,0,0,0,.3-1.273L37.16,26.809A12.9,12.9,0,0,0,38.7,23.075H42.92a.769.769,0,0,0,.688-.425l2.307-4.615a.769.769,0,0,0-.688-1.113H38.7a12.9,12.9,0,0,0-1.543-3.734l2.979-2.98a.769.769,0,0,0,.186-.787L38.694,4.526a.769.769,0,0,0-1.274-.3L32.81,8.837a12.894,12.894,0,0,0-3.734-1.542V3.077a.769.769,0,0,0-.425-.688L24.035.081a.769.769,0,0,0-1.113.688V7.294a12.894,12.894,0,0,0-3.734,1.542L16.208,5.857a.763.763,0,0,0-.787-.186L10.526,7.3a.769.769,0,0,0-.3,1.273l4.611,4.611a12.9,12.9,0,0,0-1.543,3.734H9.077a.769.769,0,0,0-.688.425L6.081,21.962a.769.769,0,0,0,.688,1.113ZM9.552,18.46h4.363a.769.769,0,0,0,.756-.626,11.418,11.418,0,0,1,1.785-4.319.768.768,0,0,0-.092-.977l-4.17-4.17,3.263-1.088,3.082,3.082a.767.767,0,0,0,.977.092,11.407,11.407,0,0,1,4.319-1.784.769.769,0,0,0,.626-.755v-5.9l3.077,1.538V7.916a.769.769,0,0,0,.626.756,11.407,11.407,0,0,1,4.319,1.784.767.767,0,0,0,.977-.092l4.17-4.17,1.088,3.262-3.082,3.083a.768.768,0,0,0-.092.977,11.418,11.418,0,0,1,1.784,4.319.769.769,0,0,0,.756.625h5.9l-1.538,3.077H38.082a.769.769,0,0,0-.756.626,11.417,11.417,0,0,1-1.785,4.319.768.768,0,0,0,.092.977l4.17,4.17L36.54,32.716l-3.082-3.082a.768.768,0,0,0-.977-.092,11.407,11.407,0,0,1-4.319,1.784.769.769,0,0,0-.626.755v5.9L24.46,36.445V32.082a.769.769,0,0,0-.626-.756,11.407,11.407,0,0,1-4.319-1.784.768.768,0,0,0-.977.092l-4.17,4.17L13.281,30.54l3.082-3.082a.768.768,0,0,0,.092-.977,11.417,11.417,0,0,1-1.784-4.319.769.769,0,0,0-.756-.625h-5.9Z" transform="translate(-1.385 0)" fill="#322b33"/>
      <path id="Trazado_1049615" data-name="Trazado 1049615" d="M48.462,48.834a5.9,5.9,0,0,0-6.79,0,4.11,4.11,0,0,1-2.57.834,4.39,4.39,0,0,1-1.138-.134.769.769,0,1,0-.4,1.485,5.819,5.819,0,0,0,1.539.188,5.578,5.578,0,0,0,3.4-1.076,4.372,4.372,0,0,1,5.132,0,5.9,5.9,0,0,0,6.79,0,4.11,4.11,0,0,1,2.57-.834.769.769,0,0,0,0-1.538,5.578,5.578,0,0,0-3.4,1.076,4.372,4.372,0,0,1-5.132,0Z" transform="translate(-8.535 -11.024)" fill="#322b33"/>
      <path id="Trazado_1049616" data-name="Trazado 1049616" d="M.769,49.3a4.1,4.1,0,0,1,2.562.831,5.578,5.578,0,0,0,3.4,1.076,5.569,5.569,0,0,0,3.394-1.076A5.543,5.543,0,0,1,11.3,49.5a4.777,4.777,0,0,1,2.131-.149l.051.007a4.329,4.329,0,0,1,1.779.773,5.576,5.576,0,0,0,3.387,1.07,5.4,5.4,0,0,0,2.719-.661.769.769,0,1,0-.731-1.354,3.836,3.836,0,0,1-1.988.477,4.1,4.1,0,0,1-2.559-.829,5.793,5.793,0,0,0-2.4-1l-.031,0a6.318,6.318,0,0,0-2.855.215,6.943,6.943,0,0,0-1.506.785,4.1,4.1,0,0,1-2.563.834,4.11,4.11,0,0,1-2.57-.834A5.572,5.572,0,0,0,.769,47.76a.769.769,0,0,0,0,1.538Z" transform="translate(0 -11.024)" fill="#322b33"/>
      <path id="Trazado_1049617" data-name="Trazado 1049617" d="M48.458,59.76a5.581,5.581,0,0,0-3.4,1.075,4.374,4.374,0,0,1-5.135,0,5.9,5.9,0,0,0-6.792,0,4.371,4.371,0,0,1-5.132,0,5.9,5.9,0,0,0-6.791,0,4.369,4.369,0,0,1-5.13,0,5.571,5.571,0,0,0-3.394-1.076,5.573,5.573,0,0,0-3.394,1.076,4.106,4.106,0,0,1-2.564.832,4.108,4.108,0,0,1-2.565-.832A5.571,5.571,0,0,0,.769,59.76a.769.769,0,1,0,0,1.538,4.109,4.109,0,0,1,2.565.832,5.571,5.571,0,0,0,3.394,1.075,5.571,5.571,0,0,0,3.394-1.076,4.108,4.108,0,0,1,2.565-.832,4.108,4.108,0,0,1,2.565.832,5.571,5.571,0,0,0,3.394,1.076A5.573,5.573,0,0,0,22.04,62.13a4.371,4.371,0,0,1,5.132,0,5.9,5.9,0,0,0,6.791,0,4.372,4.372,0,0,1,5.133,0,5.905,5.905,0,0,0,6.794,0,4.11,4.11,0,0,1,2.568-.833.769.769,0,1,0,0-1.538Z" transform="translate(0 -13.794)" fill="#322b33"/>
      <path id="Trazado_1049618" data-name="Trazado 1049618" d="M37.319,55.46a4.2,4.2,0,0,1-1.386.208,4.108,4.108,0,0,1-2.567-.833,5.9,5.9,0,0,0-6.791,0,4.11,4.11,0,0,1-2.566.832.769.769,0,1,0,0,1.538A5.573,5.573,0,0,0,27.4,56.13a4.371,4.371,0,0,1,5.132,0,5.582,5.582,0,0,0,3.4,1.075,5.7,5.7,0,0,0,1.888-.292.769.769,0,1,0-.5-1.454Z" transform="translate(-5.364 -12.409)" fill="#322b33"/>
      <path id="Trazado_1049619" data-name="Trazado 1049619" d="M13.371,53.76a5.565,5.565,0,0,0-3.392,1.076,4.1,4.1,0,0,1-2.561.832,4.134,4.134,0,0,1-2.569-.829c-.234-.149-.468-.3-.721-.433A.769.769,0,1,0,3.4,55.76c.219.118.421.247.623.376a5.6,5.6,0,0,0,3.394,1.07A5.565,5.565,0,0,0,10.81,56.13a4.1,4.1,0,0,1,2.561-.832,5.433,5.433,0,0,1,.784.054.769.769,0,1,0,.216-1.523,7.036,7.036,0,0,0-1-.069Z" transform="translate(-0.687 -12.409)" fill="#322b33"/>
      <path id="Trazado_1049620" data-name="Trazado 1049620" d="M56.775,54.048a6.6,6.6,0,0,0-1.618.822,4.371,4.371,0,0,1-5.133,0,6.015,6.015,0,0,0-2.049-.936.769.769,0,1,0-.334,1.5,4.527,4.527,0,0,1,1.553.729,5.9,5.9,0,0,0,6.793-.005,5.136,5.136,0,0,1,1.254-.65.769.769,0,0,0-.467-1.466Z" transform="translate(-10.858 -12.446)" fill="#322b33"/>
    </g>
  </g>
</svg>
