<svg xmlns="http://www.w3.org/2000/svg" xmlns:xlink="http://www.w3.org/1999/xlink" width="100.101" height="100.101" viewBox="0 0 100.101 100.101">
  <defs>
    <filter id="Trazado_874925" x="0" y="0" width="100.101" height="100.101" filterUnits="userSpaceOnUse">
      <feOffset dy="3" input="SourceAlpha"/>
      <feGaussianBlur stdDeviation="3" result="blur"/>
      <feFlood flood-opacity="0.161"/>
      <feComposite operator="in" in2="blur"/>
      <feComposite in="SourceGraphic"/>
    </filter>
  </defs>
  <g id="Grupo_1188290" data-name="Grupo 1188290" transform="translate(-799.5 -2511.157)">
    <g id="Grupo_1111316" data-name="Grupo 1111316" transform="translate(808.5 2517.157)">
      <g id="Grupo_1109835" data-name="Grupo 1109835" transform="translate(0 0)">
        <g id="Grupo_1107913" data-name="Grupo 1107913" transform="translate(0 0)">
          <g transform="matrix(1, 0, 0, 1, -9, -6)" filter="url(#Trazado_874925)">
            <g id="Trazado_874925-2" data-name="Trazado 874925" transform="translate(9 6)" fill="#d7e9ff" opacity="0.859">
              <path d="M 41.05037307739258 80.60108947753906 C 35.71044540405273 80.60108947753906 30.53104400634766 79.55559539794922 25.65604400634766 77.49363708496094 C 20.94658470153809 75.50172424316406 16.71676063537598 72.6497802734375 13.08403205871582 69.01707458496094 C 9.451313972473145 65.38435363769531 6.599372863769531 61.15452194213867 4.607443809509277 56.44508743286133 C 2.545490741729736 51.57008743286133 1.499996662139893 46.39069747924805 1.499996662139893 41.05078125 C 1.499996662139893 35.71039199829102 2.545490741729736 30.53100395202637 4.607443809509277 25.65600395202637 C 6.599372863769531 20.94656753540039 9.451313972473145 16.71673202514648 13.08403205871582 13.08401489257812 C 16.71676063537598 9.451309204101562 20.94658470153809 6.599368095397949 25.65604400634766 4.607450485229492 C 30.53104400634766 2.54549765586853 35.71044540405273 1.500003576278687 41.05037307739258 1.500003576278687 C 46.39030075073242 1.500003576278687 51.5697021484375 2.54549765586853 56.4447021484375 4.607450485229492 C 61.15415954589844 6.599368095397949 65.38398742675781 9.451309204101562 69.01671600341797 13.08401489257812 C 72.64942932128906 16.71673202514648 75.50137329101562 20.94656753540039 77.49330139160156 25.65600395202637 C 79.55525207519531 30.53100395202637 80.60074615478516 35.71039199829102 80.60074615478516 41.05030822753906 C 80.60074615478516 46.39069747924805 79.55525207519531 51.57008743286133 77.49330139160156 56.44508743286133 C 75.50137329101562 61.15452194213867 72.64942932128906 65.38435363769531 69.01671600341797 69.01707458496094 C 65.38398742675781 72.6497802734375 61.15415954589844 75.50172424316406 56.4447021484375 77.49363708496094 C 51.5697021484375 79.55559539794922 46.39030075073242 80.60108947753906 41.05037307739258 80.60108947753906 Z" stroke="none"/>
              <path d="M 41.05037307739258 3 C 35.91228103637695 3 30.92948150634766 4.005622863769531 26.24037170410156 5.988945007324219 C 21.70972061157227 7.905250549316406 17.64014434814453 10.64923858642578 14.14469146728516 14.14467620849609 C 10.64925384521484 17.64012145996094 7.905250549316406 21.70967864990234 5.988960266113281 26.24032974243164 C 4.005622863769531 30.92942428588867 3 35.91222381591797 3 41.05078506469727 C 3 46.18886566162109 4.005622863769531 51.17165374755859 5.988960266113281 55.86075592041016 C 7.905250549316406 60.39139556884766 10.64925384521484 64.46096801757812 14.14469146728516 67.95641326904297 C 17.64014434814453 71.45185089111328 21.70972061157227 74.19583892822266 26.24037170410156 76.11214447021484 C 30.92948150634766 78.09546661376953 35.91228103637695 79.10108947753906 41.05037307739258 79.10108947753906 C 46.1884651184082 79.10108947753906 51.1712646484375 78.09546661376953 55.86037445068359 76.11214447021484 C 60.39102554321289 74.19583892822266 64.46060180664062 71.45185089111328 67.9560546875 67.95641326904297 C 71.45149230957031 64.46096801757812 74.19549560546875 60.39139556884766 76.11178588867188 55.86075592041016 C 78.09512329101562 51.17165374755859 79.10074615478516 46.18886566162109 79.10074615478516 41.0503044128418 C 79.10074615478516 35.91222381591797 78.09512329101562 30.92942428588867 76.11178588867188 26.24032974243164 C 74.19549560546875 21.70967864990234 71.45149230957031 17.64012145996094 67.9560546875 14.14467620849609 C 64.46060180664062 10.64923858642578 60.39102554321289 7.905250549316406 55.86037445068359 5.988945007324219 C 51.1712646484375 4.005622863769531 46.1884651184082 3 41.05037307739258 3 M 41.05037307739258 0 C 63.72186660766602 0 82.10074615478516 18.37883758544922 82.10074615478516 41.0503044128418 L 82.10074615478516 41.05078506469727 C 82.10074615478516 63.72223663330078 63.72186660766602 82.10108947753906 41.05037307739258 82.10108947753906 C 18.37887954711914 82.10108947753906 0 63.72223663330078 0 41.05078506469727 L 0 41.0503044128418 C 0 18.37883758544922 18.37887954711914 0 41.05037307739258 0 Z" stroke="none" fill="#fff"/>
            </g>
          </g>
          <g id="Trazado_874923" data-name="Trazado 874923" transform="translate(0 0)" fill="none">
            <path d="M41.05,0A41.05,41.05,0,0,1,82.1,41.05h0a41.05,41.05,0,0,1-82.1,0H0A41.05,41.05,0,0,1,41.05,0Z" stroke="none"/>
            <path d="M 41.05037307739258 3 C 35.91228103637695 3 30.92948150634766 4.005622863769531 26.24037170410156 5.988945007324219 C 21.70972061157227 7.905250549316406 17.64014434814453 10.64923858642578 14.14469146728516 14.14467620849609 C 10.64925384521484 17.64012145996094 7.905250549316406 21.70967864990234 5.988960266113281 26.24032974243164 C 4.005622863769531 30.92942428588867 3 35.91222381591797 3 41.05078506469727 C 3 46.18886566162109 4.005622863769531 51.17165374755859 5.988960266113281 55.86075592041016 C 7.905250549316406 60.39139556884766 10.64925384521484 64.46096801757812 14.14469146728516 67.95641326904297 C 17.64014434814453 71.45185089111328 21.70972061157227 74.19583892822266 26.24037170410156 76.11214447021484 C 30.92948150634766 78.09546661376953 35.91228103637695 79.10108947753906 41.05037307739258 79.10108947753906 C 46.1884651184082 79.10108947753906 51.1712646484375 78.09546661376953 55.86037445068359 76.11214447021484 C 60.39102554321289 74.19583892822266 64.46060180664062 71.45185089111328 67.9560546875 67.95641326904297 C 71.45149230957031 64.46096801757812 74.19549560546875 60.39139556884766 76.11178588867188 55.86075592041016 C 78.09512329101562 51.17165374755859 79.10074615478516 46.18886566162109 79.10074615478516 41.0503044128418 C 79.10074615478516 35.91222381591797 78.09512329101562 30.92942428588867 76.11178588867188 26.24032974243164 C 74.19549560546875 21.70967864990234 71.45149230957031 17.64012145996094 67.9560546875 14.14467620849609 C 64.46060180664062 10.64923858642578 60.39102554321289 7.905250549316406 55.86037445068359 5.988945007324219 C 51.1712646484375 4.005622863769531 46.1884651184082 3 41.05037307739258 3 M 41.05037307739258 0 C 63.72186660766602 0 82.10074615478516 18.37883758544922 82.10074615478516 41.0503044128418 L 82.10074615478516 41.05078506469727 C 82.10074615478516 63.72223663330078 63.72186660766602 82.10108947753906 41.05037307739258 82.10108947753906 C 18.37887954711914 82.10108947753906 0 63.72223663330078 0 41.05078506469727 L 0 41.0503044128418 C 0 18.37883758544922 18.37887954711914 0 41.05037307739258 0 Z" stroke="none" fill="#fff"/>
          </g>
        </g>
      </g>
    </g>
    <g id="solar-panel_5229860" transform="translate(811.828 2532.135)">
      <g id="Grupo_1188292" data-name="Grupo 1188292" transform="translate(15.236 0.764)">
        <path id="Trazado_1049641" data-name="Trazado 1049641" d="M208.779,436.595v6.022h4.636l1.019-7.017Z" transform="translate(-189.754 -391.999)" fill="#87a0af"/>
        <path id="Trazado_1049642" data-name="Trazado 1049642" d="M212.115,415.368l-3.336,1.018v2.037h4.636v6.022h2.037v-8.059Z" transform="translate(-189.754 -373.828)" fill="#738c96"/>
        <path id="Trazado_1049643" data-name="Trazado 1049643" d="M172.4,7.5h-14.82a8.481,8.481,0,0,0,1.572,4.942c1.913,1.948,3.633,2.646,5.475,2.646C168.651,15.088,173.256,12.458,172.4,7.5Z" transform="translate(-143.772 -7.5)" fill="#f8e837"/>
        <path id="Trazado_1049644" data-name="Trazado 1049644" d="M188.549,7.5h-2.283a8.55,8.55,0,0,1-13.248,4.942A8.551,8.551,0,0,0,188.549,7.5Z" transform="translate(-157.635 -7.5)" fill="#ecc52e"/>
        <path id="Trazado_1049645" data-name="Trazado 1049645" d="M65.681,382.68l-1.018-2.856H21.976v3.009l42.941.611A.764.764,0,0,0,65.681,382.68Z" transform="translate(-21.976 -341.904)" fill="#738c96"/>
        <path id="Trazado_1049646" data-name="Trazado 1049646" d="M64.663,379.824v2.245a.764.764,0,0,1-.764.764H21.976v.1a1.528,1.528,0,0,0,1.528,1.528H65.172a1.528,1.528,0,0,0,1.528-1.528v-3.111Z" transform="translate(-21.976 -341.904)" fill="#607882"/>
        <path id="Trazado_1049647" data-name="Trazado 1049647" d="M66.712,196.9c-5.224-19.746-7.347-21.136-7.347-21.136H30.6a1.528,1.528,0,0,0-1.452,1.051l-6.31,19.227S25.206,197.716,66.712,196.9Z" transform="translate(-22.753 -158.628)" fill="#9bb9c3"/>
        <path id="Trazado_1049648" data-name="Trazado 1049648" d="M66.622,196.075,60.3,176.815a1.528,1.528,0,0,0-1.452-1.051h-.771L64.4,195.04a.764.764,0,0,1-.726,1H22.064l-.011.033a1.528,1.528,0,0,0,1.452,2H65.17a1.528,1.528,0,0,0,1.452-2Z" transform="translate(-21.976 -158.627)" fill="#87a0af"/>
        <path id="Trazado_1049649" data-name="Trazado 1049649" d="M273.239,282.376l11.811.725,4.978-8.813-6.452-9.79H275.3a1.528,1.528,0,0,0-1.323.764l-4.867,8.429a1.528,1.528,0,0,0,0,1.528Z" transform="translate(-243.754 -238.323)" fill="#c9eb74"/>
        <path id="Trazado_1049650" data-name="Trazado 1049650" d="M329.456,273.53l-4.867-8.429a1.527,1.527,0,0,0-1.282-.762c-.013-.006-1.507-.021-1.507-.021l.011.018,5.456,9.6a.764.764,0,0,1,0,.759l-4.118,7.133a.764.764,0,0,1-.661.382H311.474l.735,1.274a1.528,1.528,0,0,0,1.323.764h9.733a1.528,1.528,0,0,0,1.323-.764l4.867-8.429A1.527,1.527,0,0,0,329.456,273.53Z" transform="translate(-281.989 -238.161)" fill="#acd980"/>
        <path id="Trazado_1049651" data-name="Trazado 1049651" d="M352.8,314.441h-3.587l1.055-4.416a.356.356,0,0,0-.626-.3l-5.7,7.2a.357.357,0,0,0,.28.578h3.587l-1.055,4.416a.356.356,0,0,0,.626.3l5.7-7.2A.356.356,0,0,0,352.8,314.441Z" transform="translate(-311.088 -278.817)" fill="#9cd169"/>
        <path id="Trazado_1049652" data-name="Trazado 1049652" d="M346.532,318.689H344.4l-.741-3.241-4.016,5.075L343,321.745l-.483,2.022,2.845-2.022Z" transform="translate(-307.288 -284.084)" fill="#f8e837"/>
        <g id="Grupo_1188291" data-name="Grupo 1188291" transform="translate(31.766 29.748)">
          <path id="Trazado_1049653" data-name="Trazado 1049653" d="M374.215,304.44h.55l1.055-4.416a.356.356,0,0,0-.626-.3l-1.17,1.479-.551,2.3A.764.764,0,0,0,374.215,304.44Z" transform="translate(-369.421 -299.584)" fill="#ecc52e"/>
          <path id="Trazado_1049654" data-name="Trazado 1049654" d="M337.139,365.274h-2.68l-.51.645a.356.356,0,0,0,.28.578h3.587l.067-.281A.764.764,0,0,0,337.139,365.274Z" transform="translate(-333.871 -358.584)" fill="#ecc52e"/>
          <path id="Trazado_1049655" data-name="Trazado 1049655" d="M368.179,347.274h-1.453l-4.018,5.077-.572,2.394a.356.356,0,0,0,.626.3l5.7-7.2a.356.356,0,0,0-.28-.578Z" transform="translate(-359.248 -342.417)" fill="#ecc52e"/>
        </g>
      </g>
      <g id="Grupo_1188293" data-name="Grupo 1188293" transform="translate(14.472)">
        <path id="Trazado_1049656" data-name="Trazado 1049656" d="M63.364,139.911,58.5,131.481a2.3,2.3,0,0,0-1.757-1.133l-2.453-7.474A2.287,2.287,0,0,0,52.11,121.3H38.362v-4.562a.764.764,0,0,0-1.528,0V121.3H23.086a2.287,2.287,0,0,0-2.177,1.577l-6.321,19.259a2.29,2.29,0,0,0-.1,1.016c-.012.054-.019,2.805-.019,2.805a2.294,2.294,0,0,0,2.292,2.292H33.5v6.532H30.386a.764.764,0,0,0,0,1.528H50.119a2.294,2.294,0,0,0,2.292-2.292v-2.237h4.1a2.3,2.3,0,0,0,1.984-1.146l1.621-2.808a.764.764,0,1,0-1.323-.764l-1.621,2.808a.766.766,0,0,1-.661.382H46.78a.766.766,0,0,1-.662-.382l-4.867-8.429a.766.766,0,0,1,0-.764l4.867-8.429a.766.766,0,0,1,.662-.382h9.733a.766.766,0,0,1,.661.382l4.867,8.429a.766.766,0,0,1,0,.764l-1.586,2.747a.764.764,0,1,0,1.323.764l1.586-2.747A2.3,2.3,0,0,0,63.364,139.911ZM52.836,123.35l2.292,6.985H47.539l-.555-3.383h4.532a.764.764,0,1,0,0-1.528H46.734l-.427-2.6h5.8A.763.763,0,0,1,52.836,123.35Zm-10.81,12.927H38.362v-4.414h6.212Zm-2.1,5.925.814,1.41h-2.38V137.8h2.782l-1.216,2.106A2.3,2.3,0,0,0,39.928,142.2Zm-12.9,1.41,1.928-11.749h7.88v4.414H30.386a.764.764,0,1,0,0,1.528h6.448v5.807Zm-7.46-11.749h7.84l-.724,4.414H18.118Zm1.612-4.911h7.034l-.555,3.383H20.068Zm15.656-4.127v2.6H30.011l.427-2.6Zm7.924,0,.427,2.6H38.362v-2.6Zm1.232,7.511H38.362v-3.383h7.074Zm-9.157-3.383v3.383H29.205l.555-3.383Zm-13.748-4.127h5.8l-.427,2.6H21.68l.681-2.074A.762.762,0,0,1,23.086,122.825ZM16,145.955v-.945a2.308,2.308,0,0,0,.765.13h3.257a.764.764,0,1,0,0-1.528H16.765a.764.764,0,0,1-.726-1l1.577-4.805h8.815l-.953,5.807h-2.4a.764.764,0,0,0,0,1.528H41.624l.912,1.579H16.764A.765.765,0,0,1,16,145.955Zm19.026,2.292h5.145v6.532H35.026Zm11.754,3.531h4.1v2.237a.765.765,0,0,1-.764.764H41.7v-6.532h1.719l1.377,2.385A2.3,2.3,0,0,0,46.78,151.777Z" transform="translate(-14.472 -104.16)"/>
        <path id="Trazado_1049657" data-name="Trazado 1049657" d="M329.875,306.267a1.114,1.114,0,0,0,1.368-.313l5.7-7.2a1.12,1.12,0,0,0-.879-1.816h-2.619l.83-3.475a1.12,1.12,0,0,0-1.968-.956l-5.7,7.2a1.12,1.12,0,0,0,.879,1.816H330.1l-.83,3.475A1.113,1.113,0,0,0,329.875,306.267ZM328.328,300l4.029-5.092-.627,2.622a.764.764,0,0,0,.743.941h2.745l-4.029,5.092.627-2.623a.764.764,0,0,0-.743-.941h-2.745Z" transform="translate(-294.599 -262.336)"/>
        <path id="Trazado_1049658" data-name="Trazado 1049658" d="M159.383,10.08A9.327,9.327,0,0,0,168.7.764a.764.764,0,1,0-1.528,0,7.788,7.788,0,0,1-15.577,0,.764.764,0,1,0-1.528,0A9.327,9.327,0,0,0,159.383,10.08Z" transform="translate(-136.257)"/>
        <path id="Trazado_1049659" data-name="Trazado 1049659" d="M101.014,82.227,95.2,88.038a.764.764,0,1,0,1.08,1.08l5.811-5.811a.764.764,0,0,0-1.08-1.08Z" transform="translate(-86.78 -73.651)"/>
        <path id="Trazado_1049660" data-name="Trazado 1049660" d="M15.239,51.071a.762.762,0,0,0,.289-.057l11.127-4.557a.764.764,0,1,0-.579-1.414L14.949,49.6a.764.764,0,0,0,.29,1.471Z" transform="translate(-14.474 -40.404)"/>
        <path id="Trazado_1049661" data-name="Trazado 1049661" d="M178.992,105.989l-1.32,3.212a.764.764,0,1,0,1.413.581l1.32-3.212a.764.764,0,1,0-1.413-.581Z" transform="translate(-160.998 -94.769)"/>
        <path id="Trazado_1049662" data-name="Trazado 1049662" d="M316.265,82.227a.764.764,0,0,0,0,1.08l5.811,5.811a.764.764,0,1,0,1.08-1.08l-5.811-5.811A.764.764,0,0,0,316.265,82.227Z" transform="translate(-285.327 -73.651)"/>
        <path id="Trazado_1049663" data-name="Trazado 1049663" d="M344.816,46.456l11.127,4.557a.764.764,0,0,0,.579-1.414L345.4,45.043a.764.764,0,1,0-.579,1.414Z" transform="translate(-310.745 -40.404)"/>
        <path id="Trazado_1049664" data-name="Trazado 1049664" d="M277.968,105.573a.764.764,0,0,0-.416,1l1.32,3.212a.764.764,0,1,0,1.413-.581l-1.32-3.212A.764.764,0,0,0,277.968,105.573Z" transform="translate(-250.706 -94.768)"/>
      </g>
    </g>
  </g>
</svg>
