<svg xmlns="http://www.w3.org/2000/svg" xmlns:xlink="http://www.w3.org/1999/xlink" width="100.101" height="100.101" viewBox="0 0 100.101 100.101">
  <defs>
    <filter id="Trazado_874925" x="0" y="0" width="100.101" height="100.101" filterUnits="userSpaceOnUse">
      <feOffset dy="3" input="SourceAlpha"/>
      <feGaussianBlur stdDeviation="3" result="blur"/>
      <feFlood flood-opacity="0.161"/>
      <feComposite operator="in" in2="blur"/>
      <feComposite in="SourceGraphic"/>
    </filter>
  </defs>
  <g id="Grupo_1188289" data-name="Grupo 1188289" transform="translate(-799.5 -2511.157)">
    <g id="Grupo_1111316" data-name="Grupo 1111316" transform="translate(808.5 2517.157)">
      <g id="Grupo_1109835" data-name="Grupo 1109835" transform="translate(0 0)">
        <g id="Grupo_1107913" data-name="Grupo 1107913" transform="translate(0 0)">
          <g transform="matrix(1, 0, 0, 1, -9, -6)" filter="url(#Trazado_874925)">
            <g id="Trazado_874925-2" data-name="Trazado 874925" transform="translate(9 6)" fill="#d7e9ff" opacity="0.859">
              <path d="M 41.05037307739258 80.60108947753906 C 35.71044540405273 80.60108947753906 30.53104400634766 79.55559539794922 25.65604400634766 77.49363708496094 C 20.94658470153809 75.50172424316406 16.71676063537598 72.6497802734375 13.08403205871582 69.01707458496094 C 9.451313972473145 65.38435363769531 6.599372863769531 61.15452194213867 4.607443809509277 56.44508743286133 C 2.545490741729736 51.57008743286133 1.499996662139893 46.39069747924805 1.499996662139893 41.05078125 C 1.499996662139893 35.71039199829102 2.545490741729736 30.53100395202637 4.607443809509277 25.65600395202637 C 6.599372863769531 20.94656753540039 9.451313972473145 16.71673202514648 13.08403205871582 13.08401489257812 C 16.71676063537598 9.451309204101562 20.94658470153809 6.599368095397949 25.65604400634766 4.607450485229492 C 30.53104400634766 2.54549765586853 35.71044540405273 1.500003576278687 41.05037307739258 1.500003576278687 C 46.39030075073242 1.500003576278687 51.5697021484375 2.54549765586853 56.4447021484375 4.607450485229492 C 61.15415954589844 6.599368095397949 65.38398742675781 9.451309204101562 69.01671600341797 13.08401489257812 C 72.64942932128906 16.71673202514648 75.50137329101562 20.94656753540039 77.49330139160156 25.65600395202637 C 79.55525207519531 30.53100395202637 80.60074615478516 35.71039199829102 80.60074615478516 41.05030822753906 C 80.60074615478516 46.39069747924805 79.55525207519531 51.57008743286133 77.49330139160156 56.44508743286133 C 75.50137329101562 61.15452194213867 72.64942932128906 65.38435363769531 69.01671600341797 69.01707458496094 C 65.38398742675781 72.6497802734375 61.15415954589844 75.50172424316406 56.4447021484375 77.49363708496094 C 51.5697021484375 79.55559539794922 46.39030075073242 80.60108947753906 41.05037307739258 80.60108947753906 Z" stroke="none"/>
              <path d="M 41.05037307739258 3 C 35.91228103637695 3 30.92948150634766 4.005622863769531 26.24037170410156 5.988945007324219 C 21.70972061157227 7.905250549316406 17.64014434814453 10.64923858642578 14.14469146728516 14.14467620849609 C 10.64925384521484 17.64012145996094 7.905250549316406 21.70967864990234 5.988960266113281 26.24032974243164 C 4.005622863769531 30.92942428588867 3 35.91222381591797 3 41.05078506469727 C 3 46.18886566162109 4.005622863769531 51.17165374755859 5.988960266113281 55.86075592041016 C 7.905250549316406 60.39139556884766 10.64925384521484 64.46096801757812 14.14469146728516 67.95641326904297 C 17.64014434814453 71.45185089111328 21.70972061157227 74.19583892822266 26.24037170410156 76.11214447021484 C 30.92948150634766 78.09546661376953 35.91228103637695 79.10108947753906 41.05037307739258 79.10108947753906 C 46.1884651184082 79.10108947753906 51.1712646484375 78.09546661376953 55.86037445068359 76.11214447021484 C 60.39102554321289 74.19583892822266 64.46060180664062 71.45185089111328 67.9560546875 67.95641326904297 C 71.45149230957031 64.46096801757812 74.19549560546875 60.39139556884766 76.11178588867188 55.86075592041016 C 78.09512329101562 51.17165374755859 79.10074615478516 46.18886566162109 79.10074615478516 41.0503044128418 C 79.10074615478516 35.91222381591797 78.09512329101562 30.92942428588867 76.11178588867188 26.24032974243164 C 74.19549560546875 21.70967864990234 71.45149230957031 17.64012145996094 67.9560546875 14.14467620849609 C 64.46060180664062 10.64923858642578 60.39102554321289 7.905250549316406 55.86037445068359 5.988945007324219 C 51.1712646484375 4.005622863769531 46.1884651184082 3 41.05037307739258 3 M 41.05037307739258 0 C 63.72186660766602 0 82.10074615478516 18.37883758544922 82.10074615478516 41.0503044128418 L 82.10074615478516 41.05078506469727 C 82.10074615478516 63.72223663330078 63.72186660766602 82.10108947753906 41.05037307739258 82.10108947753906 C 18.37887954711914 82.10108947753906 0 63.72223663330078 0 41.05078506469727 L 0 41.0503044128418 C 0 18.37883758544922 18.37887954711914 0 41.05037307739258 0 Z" stroke="none" fill="#fff"/>
            </g>
          </g>
          <g id="Trazado_874923" data-name="Trazado 874923" transform="translate(0 0)" fill="none">
            <path d="M41.05,0A41.05,41.05,0,0,1,82.1,41.05h0a41.05,41.05,0,0,1-82.1,0H0A41.05,41.05,0,0,1,41.05,0Z" stroke="none"/>
            <path d="M 41.05037307739258 3 C 35.91228103637695 3 30.92948150634766 4.005622863769531 26.24037170410156 5.988945007324219 C 21.70972061157227 7.905250549316406 17.64014434814453 10.64923858642578 14.14469146728516 14.14467620849609 C 10.64925384521484 17.64012145996094 7.905250549316406 21.70967864990234 5.988960266113281 26.24032974243164 C 4.005622863769531 30.92942428588867 3 35.91222381591797 3 41.05078506469727 C 3 46.18886566162109 4.005622863769531 51.17165374755859 5.988960266113281 55.86075592041016 C 7.905250549316406 60.39139556884766 10.64925384521484 64.46096801757812 14.14469146728516 67.95641326904297 C 17.64014434814453 71.45185089111328 21.70972061157227 74.19583892822266 26.24037170410156 76.11214447021484 C 30.92948150634766 78.09546661376953 35.91228103637695 79.10108947753906 41.05037307739258 79.10108947753906 C 46.1884651184082 79.10108947753906 51.1712646484375 78.09546661376953 55.86037445068359 76.11214447021484 C 60.39102554321289 74.19583892822266 64.46060180664062 71.45185089111328 67.9560546875 67.95641326904297 C 71.45149230957031 64.46096801757812 74.19549560546875 60.39139556884766 76.11178588867188 55.86075592041016 C 78.09512329101562 51.17165374755859 79.10074615478516 46.18886566162109 79.10074615478516 41.0503044128418 C 79.10074615478516 35.91222381591797 78.09512329101562 30.92942428588867 76.11178588867188 26.24032974243164 C 74.19549560546875 21.70967864990234 71.45149230957031 17.64012145996094 67.9560546875 14.14467620849609 C 64.46060180664062 10.64923858642578 60.39102554321289 7.905250549316406 55.86037445068359 5.988945007324219 C 51.1712646484375 4.005622863769531 46.1884651184082 3 41.05037307739258 3 M 41.05037307739258 0 C 63.72186660766602 0 82.10074615478516 18.37883758544922 82.10074615478516 41.0503044128418 L 82.10074615478516 41.05078506469727 C 82.10074615478516 63.72223663330078 63.72186660766602 82.10108947753906 41.05037307739258 82.10108947753906 C 18.37887954711914 82.10108947753906 0 63.72223663330078 0 41.05078506469727 L 0 41.0503044128418 C 0 18.37883758544922 18.37887954711914 0 41.05037307739258 0 Z" stroke="none" fill="#fff"/>
          </g>
        </g>
      </g>
    </g>
    <g id="solar-energy_648007" transform="translate(756.177 2527.475)">
      <path id="Trazado_1049621" data-name="Trazado 1049621" d="M255.993,58.288a4.019,4.019,0,1,1,4.019-4.018A4.024,4.024,0,0,1,255.993,58.288Z" transform="translate(-161.347 -44.414)" fill="#fbc640"/>
      <rect id="Rectángulo_411543" data-name="Rectángulo 411543" width="32.279" height="18.509" transform="translate(79.553 40.026)" fill="#ccc"/>
      <path id="Trazado_1049622" data-name="Trazado 1049622" d="M278.882,2.661v-1.5a1.164,1.164,0,0,0-2.328,0v1.5a1.164,1.164,0,0,0,2.328,0Z" transform="translate(-183.073)"/>
      <path id="Trazado_1049623" data-name="Trazado 1049623" d="M225.034,24.964a1.164,1.164,0,1,0,1.646-1.646l-1.058-1.058a1.164,1.164,0,0,0-1.646,1.646Z" transform="translate(-136.3 -19.373)"/>
      <path id="Trazado_1049624" data-name="Trazado 1049624" d="M201.717,76a1.164,1.164,0,0,0,1.164,1.164h1.5a1.164,1.164,0,1,0,0-2.328h-1.5A1.164,1.164,0,0,0,201.717,76Z" transform="translate(-116.928 -66.145)"/>
      <path id="Trazado_1049625" data-name="Trazado 1049625" d="M224.8,122.027a1.16,1.16,0,0,0,.823-.341l1.058-1.058a1.164,1.164,0,0,0-1.646-1.646l-1.058,1.058a1.164,1.164,0,0,0,.823,1.987Z" transform="translate(-136.301 -104.861)"/>
      <path id="Trazado_1049626" data-name="Trazado 1049626" d="M322.346,24.964l1.058-1.058a1.164,1.164,0,0,0-1.646-1.646L320.7,23.318a1.164,1.164,0,1,0,1.646,1.646Z" transform="translate(-221.79 -19.373)"/>
      <path id="Trazado_1049627" data-name="Trazado 1049627" d="M70.548,341.808a1.165,1.165,0,0,0,0,2.328A1.165,1.165,0,0,0,70.548,341.808Z" transform="translate(0 -302.109)"/>
      <path id="Trazado_1049628" data-name="Trazado 1049628" d="M70.548,370.874a1.165,1.165,0,0,0,0,2.328A1.165,1.165,0,0,0,70.548,370.874Z" transform="translate(0 -327.799)"/>
      <path id="Trazado_1049629" data-name="Trazado 1049629" d="M70.548,402.268a1.165,1.165,0,0,0,0-2.328A1.165,1.165,0,0,0,70.548,402.268Z" transform="translate(0 -353.489)"/>
      <path id="Trazado_1049630" data-name="Trazado 1049630" d="M253.856,47.184a4.95,4.95,0,1,0-4.95,4.95A4.956,4.956,0,0,0,253.856,47.184Zm-4.95,2.621a2.622,2.622,0,1,1,2.621-2.621A2.625,2.625,0,0,1,248.906,49.805Z" transform="translate(-154.261 -37.328)"/>
      <path id="Trazado_1049631" data-name="Trazado 1049631" d="M277.723,140.612a1.164,1.164,0,0,0,1.164-1.164v-1.5a1.164,1.164,0,0,0-2.328,0v1.5A1.164,1.164,0,0,0,277.723,140.612Z" transform="translate(-183.078 -120.9)"/>
      <path id="Trazado_1049632" data-name="Trazado 1049632" d="M323.4,120.046l-1.058-1.058a1.164,1.164,0,1,0-1.646,1.646l1.058,1.058a1.164,1.164,0,0,0,1.646-1.646Z" transform="translate(-221.789 -104.866)"/>
      <path id="Trazado_1049633" data-name="Trazado 1049633" d="M342.325,76a1.164,1.164,0,0,0-1.164-1.164h-1.5a1.164,1.164,0,0,0,0,2.328h1.5A1.164,1.164,0,0,0,342.325,76Z" transform="translate(-237.825 -66.145)"/>
      <path id="Trazado_1049634" data-name="Trazado 1049634" d="M104.294,325.081h31.813a1.164,1.164,0,0,0,1.164-1.164V305.874a1.164,1.164,0,0,0-1.164-1.164h-7.1v-1.863h4.77a1.164,1.164,0,1,0,0-2.328H101.517a4.37,4.37,0,0,0-4.365,4.365v8.149a4.37,4.37,0,0,0,4.365,4.365h1.612v6.519A1.164,1.164,0,0,0,104.294,325.081Zm30.649-2.328H105.458V307.038h29.485Zm-21.15-18.043v-1.862h5.28v1.862Zm12.887,0H121.4v-1.862h5.279Zm-25.163,10.36a2.04,2.04,0,0,1-2.037-2.037v-8.149a2.04,2.04,0,0,1,2.037-2.037h9.948v1.863h-7.171a1.164,1.164,0,0,0-1.164,1.164v9.2Z" transform="translate(-24.508 -265.615)"/>
      <path id="Trazado_1049635" data-name="Trazado 1049635" d="M229.691,198.84a1.164,1.164,0,1,0-2.328,0,1.657,1.657,0,0,1-.549,1.239,3.962,3.962,0,0,0,0,5.438,2.537,2.537,0,0,1,.465.7,1.164,1.164,0,0,0,1.092.762h.156a1.164,1.164,0,0,0,.684-2.106,5.856,5.856,0,0,0-.6-.831,1.672,1.672,0,0,1,0-2.478A3.909,3.909,0,0,0,229.691,198.84Z" transform="translate(-138.155 -174.717)"/>
      <path id="Trazado_1049636" data-name="Trazado 1049636" d="M273.5,198.84a1.164,1.164,0,1,0-2.328,0,1.657,1.657,0,0,1-.549,1.239,3.962,3.962,0,0,0,0,5.438,2.536,2.536,0,0,1,.465.7,1.164,1.164,0,0,0,1.092.762h.156a1.164,1.164,0,0,0,.684-2.106,5.854,5.854,0,0,0-.6-.831,1.672,1.672,0,0,1,0-2.478A3.909,3.909,0,0,0,273.5,198.84Z" transform="translate(-176.876 -174.717)"/>
      <path id="Trazado_1049637" data-name="Trazado 1049637" d="M317.3,198.84a1.164,1.164,0,1,0-2.328,0,1.657,1.657,0,0,1-.549,1.239,3.962,3.962,0,0,0,0,5.438,2.538,2.538,0,0,1,.465.7,1.164,1.164,0,0,0,1.092.762h.156a1.164,1.164,0,0,0,.684-2.106,5.838,5.838,0,0,0-.6-.832,1.672,1.672,0,0,1,0-2.478A3.908,3.908,0,0,0,317.3,198.84Z" transform="translate(-215.588 -174.717)"/>
      <path id="Trazado_1049638" data-name="Trazado 1049638" d="M271.529,380.283a1.164,1.164,0,0,0-1.959,1.258l1.474,2.3h-1.972a1.164,1.164,0,0,0-.959,1.824l2.708,3.932a1.164,1.164,0,1,0,1.918-1.32l-1.452-2.108h1.888a1.164,1.164,0,0,0,.979-1.793Z" transform="translate(-175.432 -335.642)"/>
      <path id="Trazado_1049639" data-name="Trazado 1049639" d="M388.961,417.379a1.164,1.164,0,0,0,1.164-1.164v-5.149a1.164,1.164,0,1,0-2.328,0v5.149A1.164,1.164,0,0,0,388.961,417.379Z" transform="translate(-281.396 -362.294)"/>
      <path id="Trazado_1049640" data-name="Trazado 1049640" d="M389.263,379.07a1.165,1.165,0,0,0,0-2.328A1.165,1.165,0,0,0,389.263,379.07Z" transform="translate(-281.698 -332.986)"/>
    </g>
  </g>
</svg>
