<svg xmlns="http://www.w3.org/2000/svg" xmlns:xlink="http://www.w3.org/1999/xlink" width="117.999" height="118" viewBox="0 0 117.999 118">
  <defs>
    <filter id="Trazado_874925" x="0" y="0" width="117.999" height="118" filterUnits="userSpaceOnUse">
      <feOffset dy="3" input="SourceAlpha"/>
      <feGaussianBlur stdDeviation="3" result="blur"/>
      <feFlood flood-opacity="0.161"/>
      <feComposite operator="in" in2="blur"/>
      <feComposite in="SourceGraphic"/>
    </filter>
  </defs>
  <g id="Grupo_1188162" data-name="Grupo 1188162" transform="translate(-793.782 -1933.999)">
    <g id="Grupo_1111552" data-name="Grupo 1111552" transform="translate(-5.719 -577.158)">
      <g id="Grupo_1111316" data-name="Grupo 1111316" transform="translate(808.5 2517.157)">
        <g id="Grupo_1109835" data-name="Grupo 1109835" transform="translate(0 0)">
          <g id="Grupo_1107913" data-name="Grupo 1107913" transform="translate(0 0)">
            <g transform="matrix(1, 0, 0, 1, -9, -6)" filter="url(#Trazado_874925)">
              <g id="Trazado_874925-2" data-name="Trazado 874925" transform="translate(9 6)" fill="#bb965f" opacity="0.859">
                <path d="M 49.99972534179688 98.4998779296875 C 43.45164108276367 98.4998779296875 37.10022354125977 97.21776580810547 31.12189674377441 94.68914794921875 C 25.34676742553711 92.24647521972656 20.15985298156738 88.74925994873047 15.70523929595947 84.29464721679688 C 11.25062561035156 79.84004974365234 7.753411293029785 74.65313720703125 5.310725212097168 68.87800598144531 C 2.782111167907715 62.89969253540039 1.499996781349182 56.54829406738281 1.499996781349182 50.00022125244141 C 1.499996781349182 43.45157623291016 2.782111167907715 37.10017776489258 5.310725212097168 31.12186431884766 C 7.753411293029785 25.34673500061035 11.25062561035156 20.15983581542969 15.70523929595947 15.70522117614746 C 20.15985298156738 11.25062084197998 25.34676742553711 7.753406524658203 31.12189674377441 5.31073522567749 C 37.10022354125977 2.782120943069458 43.45164108276367 1.500006556510925 49.99972534179688 1.500006556510925 C 56.54780960083008 1.500006556510925 62.89922714233398 2.782120943069458 68.87755584716797 5.31073522567749 C 74.65267944335938 7.753406524658203 79.839599609375 11.25062084197998 84.29421234130859 15.70522117614746 C 88.74882507324219 20.15983581542969 92.24604034423828 25.34673500061035 94.68872833251953 31.12186431884766 C 97.21733856201172 37.10017776489258 98.49945068359375 43.45157623291016 98.49945068359375 49.99964904785156 C 98.49945068359375 56.54829406738281 97.21733856201172 62.89969253540039 94.68872833251953 68.87800598144531 C 92.24604034423828 74.65313720703125 88.74882507324219 79.84004974365234 84.29421234130859 84.29464721679688 C 79.839599609375 88.74925994873047 74.65267944335938 92.24647521972656 68.87755584716797 94.68914794921875 C 62.89922714233398 97.21776580810547 56.54780960083008 98.4998779296875 49.99972534179688 98.4998779296875 Z" stroke="none"/>
                <path d="M 49.99972534179688 3 C 43.65348052978516 3 37.49866485595703 4.242240905761719 31.70623016357422 6.692230224609375 C 26.10989379882812 9.059272766113281 21.08323669433594 12.44853210449219 16.76589202880859 16.76587677001953 C 12.44855499267578 21.08321380615234 9.059295654296875 26.10985565185547 6.692230224609375 31.70618438720703 C 4.24224853515625 37.49859619140625 3 43.65341186523438 3 50.00022888183594 C 3 56.34645843505859 4.24224853515625 62.50127410888672 6.692230224609375 68.29368591308594 C 9.059295654296875 73.8900146484375 12.44855499267578 78.91665649414062 16.76589202880859 83.23399353027344 C 21.08323669433594 87.55132293701172 26.10989379882812 90.94059753417969 31.70623016357422 93.30764007568359 C 37.49866485595703 95.75762939453125 43.65348052978516 96.99987030029297 49.99972534179688 96.99987030029297 C 56.34597015380859 96.99987030029297 62.50078582763672 95.75762939453125 68.293212890625 93.30764007568359 C 73.88955688476562 90.94059753417969 78.91621398925781 87.55132293701172 83.23355865478516 83.23399353027344 C 87.55089569091797 78.91665649414062 90.94015502929688 73.8900146484375 93.30722045898438 68.29368591308594 C 95.7572021484375 62.50127410888672 96.99945068359375 56.34645843505859 96.99945068359375 49.99964141845703 C 96.99945068359375 43.65341186523438 95.7572021484375 37.49859619140625 93.30722045898438 31.70618438720703 C 90.94015502929688 26.10985565185547 87.55089569091797 21.08321380615234 83.23355865478516 16.76587677001953 C 78.91621398925781 12.44853210449219 73.88955688476562 9.059272766113281 68.293212890625 6.692230224609375 C 62.50078582763672 4.242240905761719 56.34597015380859 3 49.99972534179688 3 M 49.99972534179688 0 C 77.61381530761719 0 99.99945068359375 22.38559722900391 99.99945068359375 49.99964141845703 L 99.99945068359375 50.00022888183594 C 99.99945068359375 77.6142578125 77.61381530761719 99.99987030029297 49.99972534179688 99.99987030029297 C 22.38563537597656 99.99987030029297 0 77.6142578125 0 50.00022888183594 L 0 49.99964141845703 C 0 22.38559722900391 22.38563537597656 0 49.99972534179688 0 Z" stroke="none" fill="#fff"/>
              </g>
            </g>
            <g id="Trazado_874923" data-name="Trazado 874923" transform="translate(0 0)" fill="none">
              <path d="M50,0a50,50,0,0,1,50,50h0A50,50,0,0,1,0,50H0A50,50,0,0,1,50,0Z" stroke="none"/>
              <path d="M 49.99972534179688 3 C 43.65348052978516 3 37.49866485595703 4.242240905761719 31.70623016357422 6.692230224609375 C 26.10989379882812 9.059272766113281 21.08323669433594 12.44853210449219 16.76589202880859 16.76587677001953 C 12.44855499267578 21.08321380615234 9.059295654296875 26.10985565185547 6.692230224609375 31.70618438720703 C 4.24224853515625 37.49859619140625 3 43.65341186523438 3 50.00022888183594 C 3 56.34645843505859 4.24224853515625 62.50127410888672 6.692230224609375 68.29368591308594 C 9.059295654296875 73.8900146484375 12.44855499267578 78.91665649414062 16.76589202880859 83.23399353027344 C 21.08323669433594 87.55132293701172 26.10989379882812 90.94059753417969 31.70623016357422 93.30764007568359 C 37.49866485595703 95.75762939453125 43.65348052978516 96.99987030029297 49.99972534179688 96.99987030029297 C 56.34597015380859 96.99987030029297 62.50078582763672 95.75762939453125 68.293212890625 93.30764007568359 C 73.88955688476562 90.94059753417969 78.91621398925781 87.55132293701172 83.23355865478516 83.23399353027344 C 87.55089569091797 78.91665649414062 90.94015502929688 73.8900146484375 93.30722045898438 68.29368591308594 C 95.7572021484375 62.50127410888672 96.99945068359375 56.34645843505859 96.99945068359375 49.99964141845703 C 96.99945068359375 43.65341186523438 95.7572021484375 37.49859619140625 93.30722045898438 31.70618438720703 C 90.94015502929688 26.10985565185547 87.55089569091797 21.08321380615234 83.23355865478516 16.76587677001953 C 78.91621398925781 12.44853210449219 73.88955688476562 9.059272766113281 68.293212890625 6.692230224609375 C 62.50078582763672 4.242240905761719 56.34597015380859 3 49.99972534179688 3 M 49.99972534179688 0 C 77.61381530761719 0 99.99945068359375 22.38559722900391 99.99945068359375 49.99964141845703 L 99.99945068359375 50.00022888183594 C 99.99945068359375 77.6142578125 77.61381530761719 99.99987030029297 49.99972534179688 99.99987030029297 C 22.38563537597656 99.99987030029297 0 77.6142578125 0 50.00022888183594 L 0 49.99964141845703 C 0 22.38559722900391 22.38563537597656 0 49.99972534179688 0 Z" stroke="none" fill="#fff"/>
            </g>
          </g>
        </g>
      </g>
    </g>
    <g id="meat_815108" transform="translate(820.56 1957.578)">
      <path id="Trazado_1049403" data-name="Trazado 1049403" d="M22.375,213.561a3.2,3.2,0,0,1,3.2,3.2h0a5.342,5.342,0,0,1-5.341,5.341h-6.41a5.342,5.342,0,0,1-5.341-5.341h0a3.2,3.2,0,0,1,3.2-3.2Z" transform="translate(-7.419 -185.481)" fill="#ffe38f"/>
      <rect id="Rectángulo_411524" data-name="Rectángulo 411524" width="6.41" height="2.137" transform="translate(6.41 28.078)" fill="#ec9821"/>
      <path id="Trazado_1049404" data-name="Trazado 1049404" d="M22.434,111.711a3.2,3.2,0,0,1,3.2,3.2h0a5.342,5.342,0,0,1-5.341,5.341h-6.41a5.342,5.342,0,0,1-5.341-5.341h0a3.2,3.2,0,0,1,3.2-3.2Z" transform="translate(-7.47 -96.45)" fill="#ffe38f"/>
      <rect id="Rectángulo_411525" data-name="Rectángulo 411525" width="6.41" height="2.137" transform="translate(6.42 15.261)" fill="#ec9821"/>
      <path id="Trazado_1049405" data-name="Trazado 1049405" d="M330.1,52.322a9.967,9.967,0,0,1-.037,2.529,38.243,38.243,0,0,0,.006,10.1,12.766,12.766,0,0,1,.084,2.04,12.285,12.285,0,1,1-20.867-9.375,5.79,5.79,0,0,0,1.7-4.148v-.027A9.582,9.582,0,0,1,330.1,52.32v0Z" transform="translate(-267.131 -37.015)" fill="#f5d0c7"/>
      <g id="Grupo_1188234" data-name="Grupo 1188234" transform="translate(43.799 12.056)">
        <circle id="Elipse_12069" data-name="Elipse 12069" cx="6.41" cy="6.41" r="6.41" transform="translate(0 10.68)" fill="#edb4a5"/>
        <circle id="Elipse_12070" data-name="Elipse 12070" cx="3.739" cy="3.739" r="3.739" transform="translate(6.41)" fill="#edb4a5"/>
      </g>
      <circle id="Elipse_12071" data-name="Elipse 12071" cx="2.671" cy="2.671" r="2.671" transform="translate(16.75 49.445)" fill="#d49586"/>
      <path id="Trazado_1049406" data-name="Trazado 1049406" d="M403.189,344.863a5.29,5.29,0,0,0-3.985-3.91,5.352,5.352,0,0,0-6.409,4.027s0,0,0,.005l-.025.107h-5.06v7.478h5.064a5.354,5.354,0,0,0,6.319,4.166l.107-.025a5.332,5.332,0,0,0,3.419-7.884A5.313,5.313,0,0,0,403.189,344.863Z" transform="translate(-338.911 -296.722)" fill="#f3f3f3"/>
      <path id="Trazado_1049407" data-name="Trazado 1049407" d="M196.107,309.533l-1.431-1.111-2.553-1.987a25.245,25.245,0,0,0-12.595-5.16l-9.689-1.143a13.365,13.365,0,0,1-.513,26.365l8.407-.47a25.472,25.472,0,0,0,15.426-6.356l1.517-1.346,1.474-1.314h.662v-7.478Z" transform="translate(-148.013 -261.156)" fill="#ec9821"/>
      <path id="Trazado_1049408" data-name="Trazado 1049408" d="M162.346,298.872l-1.592-.182A11.243,11.243,0,0,1,162.346,298.872Z" transform="translate(-140.521 -259.896)"/>
      <path id="Trazado_1049409" data-name="Trazado 1049409" d="M160.5,315.656l-1.357-.16C159.6,315.528,160.049,315.581,160.5,315.656Z" transform="translate(-139.111 -274.586)"/>
      <path id="Trazado_1049410" data-name="Trazado 1049410" d="M159.48,298.521l.16.021a.806.806,0,0,0-.16-.011Z" transform="translate(-139.407 -259.748)"/>
      <path id="Trazado_1049411" data-name="Trazado 1049411" d="M150.654,510.538l-.171.011v-.011A.909.909,0,0,0,150.654,510.538Z" transform="translate(-131.543 -445.08)"/>
      <path id="Trazado_1049412" data-name="Trazado 1049412" d="M123.587,371.143a2.671,2.671,0,1,0-2.671,2.671A2.67,2.67,0,0,0,123.587,371.143Zm-2.671-4.807a4.807,4.807,0,1,1-4.807,4.807A4.808,4.808,0,0,1,120.916,366.336Z" transform="translate(-101.495 -319.027)" fill="#edb4a5"/>
      <path id="Trazado_1049413" data-name="Trazado 1049413" d="M75.134,309.9a13.391,13.391,0,0,0-10.811-11.252l-1.592-.182a.806.806,0,0,0-.16-.011h0c-.214-.021-.427-.021-.652-.021a13.353,13.353,0,0,0-.481,26.7.924.924,0,0,0,.171,0,2.992,2.992,0,0,0,.31.011,13.852,13.852,0,0,0,1.891-.128A13.354,13.354,0,0,0,75.134,309.9ZM61.919,316.6a4.807,4.807,0,1,1,4.807-4.807A4.808,4.808,0,0,1,61.919,316.6Z" transform="translate(-42.498 -259.673)" fill="#f5d0c7"/>
      <path id="Trazado_1049414" data-name="Trazado 1049414" d="M177.97,1.373c-3.718,0-6.816,3.707-7.371,8.546h14.742C184.786,5.08,181.688,1.373,177.97,1.373Z" transform="translate(-149.127)" fill="#f3f3f3"/>
      <path id="Trazado_1049415" data-name="Trazado 1049415" d="M184.679,71.41a4.246,4.246,0,0,0,.021-.534,11.313,11.313,0,0,0-.107-1.6H169.851a11.316,11.316,0,0,0-.107,1.6,4.449,4.449,0,0,0,.021.534h0c.182,4.871,2.895,8.835,6.388,9.508v3.9h0a6.118,6.118,0,0,1-4.091,1.549h-1.25V88.5h1.25a8.339,8.339,0,0,0,5.16-1.773,8.339,8.339,0,0,0,5.16,1.773h1.25V86.365h-1.25a6.112,6.112,0,0,1-4.091-1.549v-3.9C181.784,80.244,184.5,76.281,184.679,71.41Zm-12.776,0h0a10.8,10.8,0,0,0,.107,1.15A10.8,10.8,0,0,1,171.9,71.41Z" transform="translate(-148.379 -59.354)" fill="#5b5b5b"/>
      <path id="Trazado_1049416" data-name="Trazado 1049416" d="M12.819,215.756H6.41A6.416,6.416,0,0,1,0,209.346a4.277,4.277,0,0,1,4.273-4.273v2.137a2.139,2.139,0,0,0-2.137,2.137,4.277,4.277,0,0,0,4.273,4.273h6.41a4.277,4.277,0,0,0,4.273-4.273,2.139,2.139,0,0,0-2.137-2.137v-2.137a4.277,4.277,0,0,1,4.273,4.273A6.417,6.417,0,0,1,12.819,215.756Z" transform="translate(0 -178.062)"/>
      <rect id="Rectángulo_411526" data-name="Rectángulo 411526" width="6.41" height="2.137" transform="translate(6.41 28.078)"/>
      <path id="Trazado_1049417" data-name="Trazado 1049417" d="M12.878,113.906H6.469a6.416,6.416,0,0,1-6.41-6.41,4.277,4.277,0,0,1,4.273-4.273v2.137A2.139,2.139,0,0,0,2.2,107.5a4.277,4.277,0,0,0,4.273,4.273h6.41a4.277,4.277,0,0,0,4.273-4.273,2.139,2.139,0,0,0-2.137-2.137v-2.137a4.277,4.277,0,0,1,4.273,4.273A6.417,6.417,0,0,1,12.878,113.906Z" transform="translate(-0.052 -89.031)"/>
      <rect id="Rectángulo_411527" data-name="Rectángulo 411527" width="6.41" height="2.137" transform="translate(6.42 15.261)"/>
      <path id="Trazado_1049418" data-name="Trazado 1049418" d="M310.464,72.456q-.328,0-.66-.016a13.354,13.354,0,0,1-8.693-22.875,4.734,4.734,0,0,0,1.381-3.376,10.652,10.652,0,0,1,21.241-1.3c0,.01,0,.019,0,.028a11.111,11.111,0,0,1-.043,2.8,37.176,37.176,0,0,0,.007,9.808,13.988,13.988,0,0,1,.093,2.223A13.375,13.375,0,0,1,310.464,72.456Zm2.683-34.941h-.121a8.515,8.515,0,0,0-8.4,8.63,6.906,6.906,0,0,1-2.016,4.938A11.216,11.216,0,1,0,321.66,59.65a11.784,11.784,0,0,0-.077-1.859,39.239,39.239,0,0,1-.005-10.371,8.982,8.982,0,0,0,.04-2.233c0-.014,0-.027-.005-.041A8.47,8.47,0,0,0,313.148,37.515Z" transform="translate(-259.71 -29.726)"/>
      <path id="Trazado_1049419" data-name="Trazado 1049419" d="M346.978,177.592a7.478,7.478,0,1,1,7.478-7.478A7.487,7.487,0,0,1,346.978,177.592Zm0-12.819a5.341,5.341,0,1,0,5.341,5.341A5.347,5.347,0,0,0,346.978,164.773Z" transform="translate(-296.769 -140.966)"/>
      <path id="Trazado_1049420" data-name="Trazado 1049420" d="M395.232,87.374a4.807,4.807,0,1,1,4.807-4.807A4.813,4.813,0,0,1,395.232,87.374Zm0-7.478a2.671,2.671,0,1,0,2.671,2.671A2.674,2.674,0,0,0,395.232,79.9Z" transform="translate(-341.285 -66.773)"/>
      <path id="Trazado_1049421" data-name="Trazado 1049421" d="M61.528,325.142a13.353,13.353,0,1,1,13.353-13.353A13.368,13.368,0,0,1,61.528,325.142Zm0-24.57a11.217,11.217,0,1,0,11.217,11.217A11.229,11.229,0,0,0,61.528,300.572Z" transform="translate(-42.112 -259.673)"/>
      <path id="Trazado_1049422" data-name="Trazado 1049422" d="M149.676,325.185l-.118-2.132,10.782-.6a23.288,23.288,0,0,0,14.118-5.821l3.292-2.927a1.066,1.066,0,0,1,.709-.27h7.1a1.069,1.069,0,0,1,1.068,1.069,3.206,3.206,0,0,0,3.2,3.208h0a3.2,3.2,0,0,0,3.109-2.423,3.168,3.168,0,0,0-.622-2.779,1.067,1.067,0,0,1,0-1.359,3.147,3.147,0,0,0,.622-2.773,3.2,3.2,0,0,0-6.312.781,1.069,1.069,0,0,1-1.068,1.069h-7.1a1.065,1.065,0,0,1-.656-.225l-4.273-3.324a23.179,23.179,0,0,0-11.526-4.725l-11.444-1.347.249-2.122,11.444,1.347a25.335,25.335,0,0,1,12.589,5.161l3.984,3.1H184.6a5.338,5.338,0,1,1,9.844,3.739,5.326,5.326,0,0,1-4.612,8.016h0a5.345,5.345,0,0,1-5.23-4.277h-5.734l-2.989,2.657a25.414,25.414,0,0,1-15.418,6.357Z" transform="translate(-130.734 -259.718)"/>
      <rect id="Rectángulo_411528" data-name="Rectángulo 411528" width="2.137" height="5.341" transform="translate(46.658 49.979)"/>
      <path id="Trazado_1049423" data-name="Trazado 1049423" d="M120.882,375.949a4.807,4.807,0,1,1,4.807-4.807A4.813,4.813,0,0,1,120.882,375.949Zm0-7.478a2.671,2.671,0,1,0,2.671,2.671A2.674,2.674,0,0,0,120.882,368.472Z" transform="translate(-101.465 -319.027)"/>
      <path id="Trazado_1049424" data-name="Trazado 1049424" d="M177.228,21.671c-4.122,0-7.478-4.552-7.478-10.149s3.355-10.149,7.478-10.149,7.478,4.553,7.478,10.149S181.351,21.671,177.228,21.671Zm0-18.161c-2.945,0-5.341,3.595-5.341,8.012s2.4,8.012,5.341,8.012,5.341-3.594,5.341-8.012S180.173,3.51,177.228,3.51Z" transform="translate(-148.385 -0.001)"/>
      <rect id="Rectángulo_411529" data-name="Rectángulo 411529" width="12.819" height="2.137" transform="translate(22.434 9.919)"/>
      <rect id="Rectángulo_411530" data-name="Rectángulo 411530" width="2.137" height="5.341" transform="translate(27.775 20.6)"/>
      <path id="Trazado_1049425" data-name="Trazado 1049425" d="M191.056,192.458H189.8a8.3,8.3,0,0,1-5.158-1.778,8.3,8.3,0,0,1-5.158,1.778h-1.252v-2.137h1.252a6.178,6.178,0,0,0,4.4-1.824,1.1,1.1,0,0,1,1.51,0,6.184,6.184,0,0,0,4.4,1.824h1.252v2.137Z" transform="translate(-155.803 -163.31)"/>
    </g>
  </g>
</svg>
