<svg xmlns="http://www.w3.org/2000/svg" xmlns:xlink="http://www.w3.org/1999/xlink" width="117.999" height="118" viewBox="0 0 117.999 118">
  <defs>
    <filter id="Trazado_874925" x="0" y="0" width="117.999" height="118" filterUnits="userSpaceOnUse">
      <feOffset dy="3" input="SourceAlpha"/>
      <feGaussianBlur stdDeviation="3" result="blur"/>
      <feFlood flood-opacity="0.161"/>
      <feComposite operator="in" in2="blur"/>
      <feComposite in="SourceGraphic"/>
    </filter>
  </defs>
  <g id="Grupo_1188160" data-name="Grupo 1188160" transform="translate(-793.782 -1933.999)">
    <g id="Grupo_1111552" data-name="Grupo 1111552" transform="translate(-5.719 -577.158)">
      <g id="Grupo_1111316" data-name="Grupo 1111316" transform="translate(808.5 2517.157)">
        <g id="Grupo_1109835" data-name="Grupo 1109835" transform="translate(0 0)">
          <g id="Grupo_1107913" data-name="Grupo 1107913" transform="translate(0 0)">
            <g transform="matrix(1, 0, 0, 1, -9, -6)" filter="url(#Trazado_874925)">
              <g id="Trazado_874925-2" data-name="Trazado 874925" transform="translate(9 6)" fill="#bb965f" opacity="0.859">
                <path d="M 49.99972534179688 98.4998779296875 C 43.45164108276367 98.4998779296875 37.10022354125977 97.21776580810547 31.12189674377441 94.68914794921875 C 25.34676742553711 92.24647521972656 20.15985298156738 88.74925994873047 15.70523929595947 84.29464721679688 C 11.25062561035156 79.84004974365234 7.753411293029785 74.65313720703125 5.310725212097168 68.87800598144531 C 2.782111167907715 62.89969253540039 1.499996781349182 56.54829406738281 1.499996781349182 50.00022125244141 C 1.499996781349182 43.45157623291016 2.782111167907715 37.10017776489258 5.310725212097168 31.12186431884766 C 7.753411293029785 25.34673500061035 11.25062561035156 20.15983581542969 15.70523929595947 15.70522117614746 C 20.15985298156738 11.25062084197998 25.34676742553711 7.753406524658203 31.12189674377441 5.31073522567749 C 37.10022354125977 2.782120943069458 43.45164108276367 1.500006556510925 49.99972534179688 1.500006556510925 C 56.54780960083008 1.500006556510925 62.89922714233398 2.782120943069458 68.87755584716797 5.31073522567749 C 74.65267944335938 7.753406524658203 79.839599609375 11.25062084197998 84.29421234130859 15.70522117614746 C 88.74882507324219 20.15983581542969 92.24604034423828 25.34673500061035 94.68872833251953 31.12186431884766 C 97.21733856201172 37.10017776489258 98.49945068359375 43.45157623291016 98.49945068359375 49.99964904785156 C 98.49945068359375 56.54829406738281 97.21733856201172 62.89969253540039 94.68872833251953 68.87800598144531 C 92.24604034423828 74.65313720703125 88.74882507324219 79.84004974365234 84.29421234130859 84.29464721679688 C 79.839599609375 88.74925994873047 74.65267944335938 92.24647521972656 68.87755584716797 94.68914794921875 C 62.89922714233398 97.21776580810547 56.54780960083008 98.4998779296875 49.99972534179688 98.4998779296875 Z" stroke="none"/>
                <path d="M 49.99972534179688 3 C 43.65348052978516 3 37.49866485595703 4.242240905761719 31.70623016357422 6.692230224609375 C 26.10989379882812 9.059272766113281 21.08323669433594 12.44853210449219 16.76589202880859 16.76587677001953 C 12.44855499267578 21.08321380615234 9.059295654296875 26.10985565185547 6.692230224609375 31.70618438720703 C 4.24224853515625 37.49859619140625 3 43.65341186523438 3 50.00022888183594 C 3 56.34645843505859 4.24224853515625 62.50127410888672 6.692230224609375 68.29368591308594 C 9.059295654296875 73.8900146484375 12.44855499267578 78.91665649414062 16.76589202880859 83.23399353027344 C 21.08323669433594 87.55132293701172 26.10989379882812 90.94059753417969 31.70623016357422 93.30764007568359 C 37.49866485595703 95.75762939453125 43.65348052978516 96.99987030029297 49.99972534179688 96.99987030029297 C 56.34597015380859 96.99987030029297 62.50078582763672 95.75762939453125 68.293212890625 93.30764007568359 C 73.88955688476562 90.94059753417969 78.91621398925781 87.55132293701172 83.23355865478516 83.23399353027344 C 87.55089569091797 78.91665649414062 90.94015502929688 73.8900146484375 93.30722045898438 68.29368591308594 C 95.7572021484375 62.50127410888672 96.99945068359375 56.34645843505859 96.99945068359375 49.99964141845703 C 96.99945068359375 43.65341186523438 95.7572021484375 37.49859619140625 93.30722045898438 31.70618438720703 C 90.94015502929688 26.10985565185547 87.55089569091797 21.08321380615234 83.23355865478516 16.76587677001953 C 78.91621398925781 12.44853210449219 73.88955688476562 9.059272766113281 68.293212890625 6.692230224609375 C 62.50078582763672 4.242240905761719 56.34597015380859 3 49.99972534179688 3 M 49.99972534179688 0 C 77.61381530761719 0 99.99945068359375 22.38559722900391 99.99945068359375 49.99964141845703 L 99.99945068359375 50.00022888183594 C 99.99945068359375 77.6142578125 77.61381530761719 99.99987030029297 49.99972534179688 99.99987030029297 C 22.38563537597656 99.99987030029297 0 77.6142578125 0 50.00022888183594 L 0 49.99964141845703 C 0 22.38559722900391 22.38563537597656 0 49.99972534179688 0 Z" stroke="none" fill="#fff"/>
              </g>
            </g>
            <g id="Trazado_874923" data-name="Trazado 874923" transform="translate(0 0)" fill="none">
              <path d="M50,0a50,50,0,0,1,50,50h0A50,50,0,0,1,0,50H0A50,50,0,0,1,50,0Z" stroke="none"/>
              <path d="M 49.99972534179688 3 C 43.65348052978516 3 37.49866485595703 4.242240905761719 31.70623016357422 6.692230224609375 C 26.10989379882812 9.059272766113281 21.08323669433594 12.44853210449219 16.76589202880859 16.76587677001953 C 12.44855499267578 21.08321380615234 9.059295654296875 26.10985565185547 6.692230224609375 31.70618438720703 C 4.24224853515625 37.49859619140625 3 43.65341186523438 3 50.00022888183594 C 3 56.34645843505859 4.24224853515625 62.50127410888672 6.692230224609375 68.29368591308594 C 9.059295654296875 73.8900146484375 12.44855499267578 78.91665649414062 16.76589202880859 83.23399353027344 C 21.08323669433594 87.55132293701172 26.10989379882812 90.94059753417969 31.70623016357422 93.30764007568359 C 37.49866485595703 95.75762939453125 43.65348052978516 96.99987030029297 49.99972534179688 96.99987030029297 C 56.34597015380859 96.99987030029297 62.50078582763672 95.75762939453125 68.293212890625 93.30764007568359 C 73.88955688476562 90.94059753417969 78.91621398925781 87.55132293701172 83.23355865478516 83.23399353027344 C 87.55089569091797 78.91665649414062 90.94015502929688 73.8900146484375 93.30722045898438 68.29368591308594 C 95.7572021484375 62.50127410888672 96.99945068359375 56.34645843505859 96.99945068359375 49.99964141845703 C 96.99945068359375 43.65341186523438 95.7572021484375 37.49859619140625 93.30722045898438 31.70618438720703 C 90.94015502929688 26.10985565185547 87.55089569091797 21.08321380615234 83.23355865478516 16.76587677001953 C 78.91621398925781 12.44853210449219 73.88955688476562 9.059272766113281 68.293212890625 6.692230224609375 C 62.50078582763672 4.242240905761719 56.34597015380859 3 49.99972534179688 3 M 49.99972534179688 0 C 77.61381530761719 0 99.99945068359375 22.38559722900391 99.99945068359375 49.99964141845703 L 99.99945068359375 50.00022888183594 C 99.99945068359375 77.6142578125 77.61381530761719 99.99987030029297 49.99972534179688 99.99987030029297 C 22.38563537597656 99.99987030029297 0 77.6142578125 0 50.00022888183594 L 0 49.99964141845703 C 0 22.38559722900391 22.38563537597656 0 49.99972534179688 0 Z" stroke="none" fill="#fff"/>
            </g>
          </g>
        </g>
      </g>
    </g>
    <g id="fruits_11615356" transform="translate(815.384 1952.754)">
      <g id="Grupo_1188235" data-name="Grupo 1188235" transform="translate(7.672 7.5)">
        <path id="Trazado_1049426" data-name="Trazado 1049426" d="M156.529,76.371a4.5,4.5,0,0,1-4.634-7.724c1.947-1.168,5.12-.986,7.2-.692a1.793,1.793,0,0,1,1.433,2.388C159.809,72.317,158.475,75.2,156.529,76.371Z" transform="translate(-132.715 -60.528)" fill="#80e0b7"/>
        <path id="Trazado_1049427" data-name="Trazado 1049427" d="M36.5,182.758c0,7.207-4.914,12.81-10.089,12.81a6.809,6.809,0,0,1-3.142-.729,2.569,2.569,0,0,0-2.364,0,6.568,6.568,0,0,1-2.23.674,7.318,7.318,0,0,1-.912.055c-5.174,0-10.089-5.6-10.089-12.81,0-6.191,3.474-9.608,8.647-9.608a7.919,7.919,0,0,1,2.4.372,8.319,8.319,0,0,1,1.5.642,3.849,3.849,0,0,0,3.732,0,8.058,8.058,0,0,1,3.9-1.014C33.022,173.15,36.5,176.567,36.5,182.758Z" transform="translate(-7.672 -153.333)" fill="#80e0b7"/>
        <path id="Trazado_1049428" data-name="Trazado 1049428" d="M17.518,192.113a24.271,24.271,0,0,1,1.154,3.4,7.318,7.318,0,0,1-.912.055c-5.174,0-10.089-5.6-10.089-12.81,0-6.191,3.474-9.608,8.647-9.608a7.919,7.919,0,0,1,2.4.372C16.83,175.015,12.469,180.03,17.518,192.113Z" transform="translate(-7.672 -153.333)" fill="#36d49b"/>
        <path id="Trazado_1049429" data-name="Trazado 1049429" d="M87.941,118.229c-.048.465-.111.944-.191,1.44a6.476,6.476,0,0,1-.752.119,8.883,8.883,0,0,1-1.738,0,6.654,6.654,0,0,1-.706-.108,7.141,7.141,0,0,0,.15-1.451c.022-1.858-.519-5.145-3.839-8.568a1.593,1.593,0,0,1,.241-2.415,5.9,5.9,0,0,1,2.567-1.011,1.6,1.6,0,0,1,1.442.551C86.256,108.126,88.605,111.74,87.941,118.229Z" transform="translate(-71.716 -94.41)" fill="#df8a57"/>
        <path id="Trazado_1049430" data-name="Trazado 1049430" d="M444.3,14.36a16.106,16.106,0,0,0,.306-4.883,1.8,1.8,0,0,1,2.123-1.944c1.055.2,2.3.474,3.487.809a1.791,1.791,0,0,1,.939,2.8,17.429,17.429,0,0,0-2.994,6.155Z" transform="translate(-392.066 -7.5)" fill="#80e0b7"/>
        <path id="Trazado_1049431" data-name="Trazado 1049431" d="M145,108.653c-.181.112-.362.224-.548.335-14.591,8.747-25.35,2.188-29.271-1a5.381,5.381,0,0,1-1.809-2.8c5.491-.268,11.835.918,24.92-6.926q1.059-.635,2.022-1.263c10.877-7.1,13.023-13.6,14.931-17.622l1.577,1.2S162.872,97.529,145,108.653Z" transform="translate(-100.727 -70.772)" fill="#fbf198"/>
        <path id="Trazado_1049432" data-name="Trazado 1049432" d="M145,238.332c-.181.112-.362.224-.548.335-14.591,8.747-25.35,2.188-29.271-1a5.381,5.381,0,0,1-1.809-2.8c5.491-.268,11.835.918,24.92-6.926q1.059-.635,2.022-1.263A23.841,23.841,0,0,0,145,238.332Z" transform="translate(-100.727 -200.45)" fill="#fad989"/>
        <path id="Trazado_1049433" data-name="Trazado 1049433" d="M153.083,66.578c-.651,3.072-3.437,11.915-14.691,19.3h0q-.8.526-1.659,1.041c-13.085,7.844-22.842,6.162-25.523,5.464-.045-.17-.081-.342-.11-.517l-.16-1a1.792,1.792,0,0,1,1.59-2.071,44.148,44.148,0,0,0,6.65-1.226l5.517-.249,2.46-2.533a56.846,56.846,0,0,0,11.322-6.636C147.2,71.578,150.8,64.84,150.8,64.84Z" transform="translate(-98.565 -57.98)" fill="#fad989"/>
        <path id="Trazado_1049434" data-name="Trazado 1049434" d="M138.393,183.887h0q-.8.526-1.659,1.041c-13.085,7.844-22.842,6.162-25.523,5.464-.045-.17-.081-.342-.11-.517l-.16-1a1.792,1.792,0,0,1,1.59-2.071,51.812,51.812,0,0,0,20.962-7.283,56.719,56.719,0,0,0,4.987-3.36C137.573,177.887,137.028,180.412,138.393,183.887Z" transform="translate(-98.565 -155.984)" fill="#f6ca56"/>
        <path id="Trazado_1049435" data-name="Trazado 1049435" d="M35.576,272.779c-5.251,10.051-15.533,13.353-24.53,11.44A4.287,4.287,0,0,1,8.923,277a12.639,12.639,0,0,0,1.02-1.157,10.631,10.631,0,0,0,2.123-7.691A12.437,12.437,0,0,1,12.1,265.2l7.411-8.373,8.771-1.95a12.546,12.546,0,0,1,7.289,17.9Z" transform="translate(-7.672 -225.286)" fill="#ffb25a"/>
        <path id="Trazado_1049436" data-name="Trazado 1049436" d="M20.317,264.414c.749,8.2-7.26,12.692-12,13.643a4.226,4.226,0,0,1-.435-.935,4.284,4.284,0,0,1,1.04-4.356,12.634,12.634,0,0,0,1.02-1.157,10.631,10.631,0,0,0,2.123-7.691,12.538,12.538,0,0,1,16.22-13.274S19.347,253.785,20.317,264.414Z" transform="translate(-7.672 -221.049)" fill="#ff9c20"/>
        <path id="Trazado_1049437" data-name="Trazado 1049437" d="M236.246,403.987c-2.927,2.427-8.362,5.467-17.217,5.467q-1.4,0-2.691-.1c-7.284-.538-11.908-3.2-14.527-5.37a4.159,4.159,0,0,1-.319-.294l.982-7.192h33.109l1.315,1.729A4.189,4.189,0,0,1,236.246,403.987Z" transform="translate(-178.305 -349.963)" fill="#80e0b7"/>
        <path id="Trazado_1049438" data-name="Trazado 1049438" d="M207.587,409.358c-7.284-.538-11.908-3.2-14.527-5.37a4.189,4.189,0,0,1-.652-5.758l1.315-1.729h13.248l-1.26,9.291A3.564,3.564,0,0,0,207.587,409.358Z" transform="translate(-169.554 -349.964)" fill="#36d49b"/>
        <path id="Trazado_1049439" data-name="Trazado 1049439" d="M242.811,248.836c-2.2,2.47-7.277,6.637-16.555,6.637a28.2,28.2,0,0,1-4.166-.3,20.229,20.229,0,0,1-12.389-6.337l15.745-19.553,1.969-.513a2.057,2.057,0,0,1,.511.48Z" transform="translate(-185.533 -202.299)" fill="#ff6e80"/>
        <path id="Trazado_1049440" data-name="Trazado 1049440" d="M227.416,226.2s-1.877.706-2.305,4.127l-3.019,22.275A20.229,20.229,0,0,1,209.7,246.27l14.885-19.586A2.1,2.1,0,0,1,227.416,226.2Z" transform="translate(-185.533 -199.733)" fill="#f9475e"/>
      </g>
      <g id="Grupo_1188237" data-name="Grupo 1188237" transform="translate(7.672 7.5)">
        <path id="Trazado_1049441" data-name="Trazado 1049441" d="M156.529,76.371a4.5,4.5,0,0,1-4.634-7.724c1.947-1.168,5.12-.986,7.2-.692a1.793,1.793,0,0,1,1.433,2.388C159.809,72.317,158.475,75.2,156.529,76.371Z" transform="translate(-132.715 -60.528)" fill="none" stroke="#000" stroke-linecap="round" stroke-linejoin="round" stroke-miterlimit="10" stroke-width="2"/>
        <path id="Trazado_1049442" data-name="Trazado 1049442" d="M142.022,106.685a21,21,0,0,1,6.969-6.784" transform="translate(-125.95 -88.847)" fill="none" stroke="#000" stroke-linecap="round" stroke-linejoin="round" stroke-miterlimit="10" stroke-width="2"/>
        <path id="Trazado_1049443" data-name="Trazado 1049443" d="M146.642,173.986a8.428,8.428,0,0,1,11.936,6" transform="translate(-130.017 -153.334)" fill="none" stroke="#000" stroke-linecap="round" stroke-linejoin="round" stroke-miterlimit="10" stroke-width="2"/>
        <path id="Trazado_1049444" data-name="Trazado 1049444" d="M11.982,193.141a14.045,14.045,0,0,1-4.31-10.383c0-6.191,3.474-9.608,8.647-9.608a8.041,8.041,0,0,1,3.7.909" transform="translate(-7.672 -153.334)" fill="none" stroke="#000" stroke-linecap="round" stroke-linejoin="round" stroke-miterlimit="10" stroke-width="2"/>
        <path id="Trazado_1049445" data-name="Trazado 1049445" d="M94.68,206.612s.8,1.6,4,1.6,4-1.6,4-1.6" transform="translate(-84.271 -182.792)" fill="none" stroke="#000" stroke-linecap="round" stroke-linejoin="round" stroke-miterlimit="10" stroke-width="2"/>
        <path id="Trazado_1049446" data-name="Trazado 1049446" d="M87.769,119.548c.072-.452.128-.891.172-1.317.664-6.49-1.684-10.1-2.826-11.444a1.6,1.6,0,0,0-1.442-.55,5.91,5.91,0,0,0-2.567,1.011,1.594,1.594,0,0,0-.242,2.415c3.32,3.423,3.862,6.71,3.839,8.568a7.468,7.468,0,0,1-.126,1.335" transform="translate(-71.717 -94.411)" fill="none" stroke="#000" stroke-linecap="round" stroke-linejoin="round" stroke-miterlimit="10" stroke-width="2"/>
        <path id="Trazado_1049447" data-name="Trazado 1049447" d="M444.3,14.36a16.106,16.106,0,0,0,.306-4.883,1.8,1.8,0,0,1,2.123-1.944c1.055.2,2.3.474,3.487.809a1.791,1.791,0,0,1,.939,2.8,17.429,17.429,0,0,0-2.994,6.155Z" transform="translate(-392.066 -7.5)" fill="none" stroke="#000" stroke-linecap="round" stroke-linejoin="round" stroke-miterlimit="10" stroke-width="2"/>
        <path id="Trazado_1049448" data-name="Trazado 1049448" d="M387.7,73.358a40.244,40.244,0,0,0,6.771-8.517l3.861,2.937A23.635,23.635,0,0,1,390.7,92.8" transform="translate(-342.239 -57.981)" fill="none" stroke="#000" stroke-linecap="round" stroke-linejoin="round" stroke-miterlimit="10" stroke-width="2"/>
        <path id="Trazado_1049449" data-name="Trazado 1049449" d="M182.232,171.008a55.986,55.986,0,0,0,21.494-11.317" transform="translate(-161.349 -141.484)" fill="none" stroke="#000" stroke-linecap="round" stroke-linejoin="round" stroke-miterlimit="10" stroke-width="2"/>
        <path id="Trazado_1049450" data-name="Trazado 1049450" d="M358.462,97.182c9.477-7.049,11.945-14.943,12.553-17.811" transform="translate(-316.497 -70.773)" fill="none" stroke="#000" stroke-linecap="round" stroke-linejoin="round" stroke-miterlimit="10" stroke-width="2"/>
        <path id="Trazado_1049451" data-name="Trazado 1049451" d="M242.7,255.7a43.93,43.93,0,0,1-9.952,4.154" transform="translate(-205.825 -226.008)" fill="none" stroke="#000" stroke-linecap="round" stroke-linejoin="round" stroke-miterlimit="10" stroke-width="2"/>
        <path id="Trazado_1049452" data-name="Trazado 1049452" d="M43.948,264.675c-.01-.251-.028-.5-.054-.755a12.5,12.5,0,0,1,24.8-3.218" transform="translate(-39.499 -221.051)" fill="none" stroke="#000" stroke-linecap="round" stroke-linejoin="round" stroke-miterlimit="10" stroke-width="2"/>
        <path id="Trazado_1049453" data-name="Trazado 1049453" d="M11.488,406.751A10.624,10.624,0,0,1,8.924,410.7a4.288,4.288,0,0,0,2.122,7.216,22.224,22.224,0,0,0,19.815-5.205" transform="translate(-7.672 -358.988)" fill="none" stroke="#000" stroke-linecap="round" stroke-linejoin="round" stroke-miterlimit="10" stroke-width="2"/>
        <path id="Trazado_1049454" data-name="Trazado 1049454" d="M210.279,259.222c8.856,0,14.29-3.041,17.218-5.468a4.189,4.189,0,0,0,.651-5.758l-16.2-21.315a2.1,2.1,0,0,0-3.339,0L192.41,248a4.189,4.189,0,0,0,.651,5.758C195.988,256.182,201.423,259.222,210.279,259.222Z" transform="translate(-169.555 -199.732)" fill="none" stroke="#000" stroke-linecap="round" stroke-linejoin="round" stroke-miterlimit="10" stroke-width="2"/>
        <path id="Trazado_1049455" data-name="Trazado 1049455" d="M428.472,401.346a18.982,18.982,0,0,0,6.937-4.845" transform="translate(-378.131 -349.964)" fill="none" stroke="#000" stroke-linecap="round" stroke-linejoin="round" stroke-miterlimit="10" stroke-width="2"/>
        <path id="Trazado_1049456" data-name="Trazado 1049456" d="M209.7,396.5c2.2,2.47,7.277,6.637,16.555,6.637a27.091,27.091,0,0,0,5.612-.561" transform="translate(-185.533 -349.964)" fill="none" stroke="#000" stroke-linecap="round" stroke-linejoin="round" stroke-miterlimit="10" stroke-width="2"/>
        <line id="Línea_604" data-name="Línea 604" y2="1.053" transform="translate(41.776 33.174)" fill="none" stroke="#000" stroke-linecap="round" stroke-linejoin="round" stroke-miterlimit="10" stroke-width="2"/>
        <line id="Línea_605" data-name="Línea 605" y2="1.053" transform="translate(44.934 39.49)" fill="none" stroke="#000" stroke-linecap="round" stroke-linejoin="round" stroke-miterlimit="10" stroke-width="2"/>
        <line id="Línea_606" data-name="Línea 606" y2="1.053" transform="translate(36.513 38.438)" fill="none" stroke="#000" stroke-linecap="round" stroke-linejoin="round" stroke-miterlimit="10" stroke-width="2"/>
        <line id="Línea_607" data-name="Línea 607" y2="1.053" transform="translate(31.25 44.754)" fill="none" stroke="#000" stroke-linecap="round" stroke-linejoin="round" stroke-miterlimit="10" stroke-width="2"/>
        <line id="Línea_608" data-name="Línea 608" y2="1.053" transform="translate(37.566 46.859)" fill="none" stroke="#000" stroke-linecap="round" stroke-linejoin="round" stroke-miterlimit="10" stroke-width="2"/>
        <line id="Línea_609" data-name="Línea 609" y2="1.053" transform="translate(43.882 46.859)" fill="none" stroke="#000" stroke-linecap="round" stroke-linejoin="round" stroke-miterlimit="10" stroke-width="2"/>
        <line id="Línea_610" data-name="Línea 610" y2="1.053" transform="translate(50.198 44.754)" fill="none" stroke="#000" stroke-linecap="round" stroke-linejoin="round" stroke-miterlimit="10" stroke-width="2"/>
        <g id="Grupo_1188236" data-name="Grupo 1188236" transform="translate(9.225 39.145)">
          <line id="Línea_611" data-name="Línea 611" y2="1.436" fill="none" stroke="#000" stroke-linecap="round" stroke-linejoin="round" stroke-miterlimit="10" stroke-width="2"/>
          <line id="Línea_612" data-name="Línea 612" y2="1.436" transform="translate(14.942)" fill="none" stroke="#000" stroke-linecap="round" stroke-linejoin="round" stroke-miterlimit="10" stroke-width="2"/>
          <path id="Trazado_1049457" data-name="Trazado 1049457" d="M130.767,346.352a2.61,2.61,0,0,0,3.939,0" transform="translate(-125.266 -344.959)" fill="none" stroke="#000" stroke-linecap="round" stroke-linejoin="round" stroke-miterlimit="10" stroke-width="2"/>
        </g>
      </g>
    </g>
  </g>
</svg>
