<svg xmlns="http://www.w3.org/2000/svg" xmlns:xlink="http://www.w3.org/1999/xlink" width="117.999" height="118" viewBox="0 0 117.999 118">
  <defs>
    <filter id="Trazado_874925" x="0" y="0" width="117.999" height="118" filterUnits="userSpaceOnUse">
      <feOffset dy="3" input="SourceAlpha"/>
      <feGaussianBlur stdDeviation="3" result="blur"/>
      <feFlood flood-opacity="0.161"/>
      <feComposite operator="in" in2="blur"/>
      <feComposite in="SourceGraphic"/>
    </filter>
  </defs>
  <g id="Grupo_1188164" data-name="Grupo 1188164" transform="translate(-1108.134 -1933.999)">
    <g id="Grupo_1111553" data-name="Grupo 1111553" transform="translate(308.634 -577.158)">
      <g id="Grupo_1111316" data-name="Grupo 1111316" transform="translate(808.5 2517.157)">
        <g id="Grupo_1109835" data-name="Grupo 1109835" transform="translate(0 0)">
          <g id="Grupo_1107913" data-name="Grupo 1107913" transform="translate(0 0)">
            <g transform="matrix(1, 0, 0, 1, -9, -6)" filter="url(#Trazado_874925)">
              <g id="Trazado_874925-2" data-name="Trazado 874925" transform="translate(9 6)" fill="#bb965f" opacity="0.859">
                <path d="M 49.99972534179688 98.4998779296875 C 43.45164108276367 98.4998779296875 37.10022354125977 97.21776580810547 31.12189674377441 94.68914794921875 C 25.34676742553711 92.24647521972656 20.15985298156738 88.74925994873047 15.70523929595947 84.29464721679688 C 11.25062561035156 79.84004974365234 7.753411293029785 74.65313720703125 5.310725212097168 68.87800598144531 C 2.782111167907715 62.89969253540039 1.499996781349182 56.54829406738281 1.499996781349182 50.00022125244141 C 1.499996781349182 43.45157623291016 2.782111167907715 37.10017776489258 5.310725212097168 31.12186431884766 C 7.753411293029785 25.34673500061035 11.25062561035156 20.15983581542969 15.70523929595947 15.70522117614746 C 20.15985298156738 11.25062084197998 25.34676742553711 7.753406524658203 31.12189674377441 5.31073522567749 C 37.10022354125977 2.782120943069458 43.45164108276367 1.500006556510925 49.99972534179688 1.500006556510925 C 56.54780960083008 1.500006556510925 62.89922714233398 2.782120943069458 68.87755584716797 5.31073522567749 C 74.65267944335938 7.753406524658203 79.839599609375 11.25062084197998 84.29421234130859 15.70522117614746 C 88.74882507324219 20.15983581542969 92.24604034423828 25.34673500061035 94.68872833251953 31.12186431884766 C 97.21733856201172 37.10017776489258 98.49945068359375 43.45157623291016 98.49945068359375 49.99964904785156 C 98.49945068359375 56.54829406738281 97.21733856201172 62.89969253540039 94.68872833251953 68.87800598144531 C 92.24604034423828 74.65313720703125 88.74882507324219 79.84004974365234 84.29421234130859 84.29464721679688 C 79.839599609375 88.74925994873047 74.65267944335938 92.24647521972656 68.87755584716797 94.68914794921875 C 62.89922714233398 97.21776580810547 56.54780960083008 98.4998779296875 49.99972534179688 98.4998779296875 Z" stroke="none"/>
                <path d="M 49.99972534179688 3 C 43.65348052978516 3 37.49866485595703 4.242240905761719 31.70623016357422 6.692230224609375 C 26.10989379882812 9.059272766113281 21.08323669433594 12.44853210449219 16.76589202880859 16.76587677001953 C 12.44855499267578 21.08321380615234 9.059295654296875 26.10985565185547 6.692230224609375 31.70618438720703 C 4.24224853515625 37.49859619140625 3 43.65341186523438 3 50.00022888183594 C 3 56.34645843505859 4.24224853515625 62.50127410888672 6.692230224609375 68.29368591308594 C 9.059295654296875 73.8900146484375 12.44855499267578 78.91665649414062 16.76589202880859 83.23399353027344 C 21.08323669433594 87.55132293701172 26.10989379882812 90.94059753417969 31.70623016357422 93.30764007568359 C 37.49866485595703 95.75762939453125 43.65348052978516 96.99987030029297 49.99972534179688 96.99987030029297 C 56.34597015380859 96.99987030029297 62.50078582763672 95.75762939453125 68.293212890625 93.30764007568359 C 73.88955688476562 90.94059753417969 78.91621398925781 87.55132293701172 83.23355865478516 83.23399353027344 C 87.55089569091797 78.91665649414062 90.94015502929688 73.8900146484375 93.30722045898438 68.29368591308594 C 95.7572021484375 62.50127410888672 96.99945068359375 56.34645843505859 96.99945068359375 49.99964141845703 C 96.99945068359375 43.65341186523438 95.7572021484375 37.49859619140625 93.30722045898438 31.70618438720703 C 90.94015502929688 26.10985565185547 87.55089569091797 21.08321380615234 83.23355865478516 16.76587677001953 C 78.91621398925781 12.44853210449219 73.88955688476562 9.059272766113281 68.293212890625 6.692230224609375 C 62.50078582763672 4.242240905761719 56.34597015380859 3 49.99972534179688 3 M 49.99972534179688 0 C 77.61381530761719 0 99.99945068359375 22.38559722900391 99.99945068359375 49.99964141845703 L 99.99945068359375 50.00022888183594 C 99.99945068359375 77.6142578125 77.61381530761719 99.99987030029297 49.99972534179688 99.99987030029297 C 22.38563537597656 99.99987030029297 0 77.6142578125 0 50.00022888183594 L 0 49.99964141845703 C 0 22.38559722900391 22.38563537597656 0 49.99972534179688 0 Z" stroke="none" fill="#fff"/>
              </g>
            </g>
            <g id="Trazado_874923" data-name="Trazado 874923" transform="translate(0 0)" fill="none">
              <path d="M50,0a50,50,0,0,1,50,50h0A50,50,0,0,1,0,50H0A50,50,0,0,1,50,0Z" stroke="none"/>
              <path d="M 49.99972534179688 3 C 43.65348052978516 3 37.49866485595703 4.242240905761719 31.70623016357422 6.692230224609375 C 26.10989379882812 9.059272766113281 21.08323669433594 12.44853210449219 16.76589202880859 16.76587677001953 C 12.44855499267578 21.08321380615234 9.059295654296875 26.10985565185547 6.692230224609375 31.70618438720703 C 4.24224853515625 37.49859619140625 3 43.65341186523438 3 50.00022888183594 C 3 56.34645843505859 4.24224853515625 62.50127410888672 6.692230224609375 68.29368591308594 C 9.059295654296875 73.8900146484375 12.44855499267578 78.91665649414062 16.76589202880859 83.23399353027344 C 21.08323669433594 87.55132293701172 26.10989379882812 90.94059753417969 31.70623016357422 93.30764007568359 C 37.49866485595703 95.75762939453125 43.65348052978516 96.99987030029297 49.99972534179688 96.99987030029297 C 56.34597015380859 96.99987030029297 62.50078582763672 95.75762939453125 68.293212890625 93.30764007568359 C 73.88955688476562 90.94059753417969 78.91621398925781 87.55132293701172 83.23355865478516 83.23399353027344 C 87.55089569091797 78.91665649414062 90.94015502929688 73.8900146484375 93.30722045898438 68.29368591308594 C 95.7572021484375 62.50127410888672 96.99945068359375 56.34645843505859 96.99945068359375 49.99964141845703 C 96.99945068359375 43.65341186523438 95.7572021484375 37.49859619140625 93.30722045898438 31.70618438720703 C 90.94015502929688 26.10985565185547 87.55089569091797 21.08321380615234 83.23355865478516 16.76587677001953 C 78.91621398925781 12.44853210449219 73.88955688476562 9.059272766113281 68.293212890625 6.692230224609375 C 62.50078582763672 4.242240905761719 56.34597015380859 3 49.99972534179688 3 M 49.99972534179688 0 C 77.61381530761719 0 99.99945068359375 22.38559722900391 99.99945068359375 49.99964141845703 L 99.99945068359375 50.00022888183594 C 99.99945068359375 77.6142578125 77.61381530761719 99.99987030029297 49.99972534179688 99.99987030029297 C 22.38563537597656 99.99987030029297 0 77.6142578125 0 50.00022888183594 L 0 49.99964141845703 C 0 22.38559722900391 22.38563537597656 0 49.99972534179688 0 Z" stroke="none" fill="#fff"/>
            </g>
          </g>
        </g>
      </g>
    </g>
    <g id="breakfast_1652097" transform="translate(1137.271 1963.137)">
      <path id="Trazado_1049505" data-name="Trazado 1049505" d="M136.836,7.574h32.106V63.589H136.836Zm0,0" transform="translate(-121.407 -6.72)" fill="#f0a65f"/>
      <path id="Trazado_1049506" data-name="Trazado 1049506" d="M166.551,7.574V58.921a2.277,2.277,0,0,1-2.277,2.277H136.836v2.391h32.106V7.574Zm0,0" transform="translate(-121.407 -6.72)" fill="#e28540"/>
      <path id="Trazado_1049507" data-name="Trazado 1049507" d="M254.137,54.68a3.106,3.106,0,0,0,3.188-2.96c0-3.587-3.188-7.287-3.188-7.287s-3.188,3.7-3.188,7.287A3.106,3.106,0,0,0,254.137,54.68Zm0,0" transform="translate(-222.656 -39.424)" fill="#ffd15f"/>
      <path id="Trazado_1049508" data-name="Trazado 1049508" d="M255.812,58.426a9.28,9.28,0,0,1,1.012,3.887,3.278,3.278,0,0,1-5.284,2.263,3,3,0,0,0,3.121,2.519,3.106,3.106,0,0,0,3.188-2.96A11.305,11.305,0,0,0,255.812,58.426Zm0,0" transform="translate(-223.179 -51.839)" fill="#fcbf35"/>
      <path id="Trazado_1049509" data-name="Trazado 1049509" d="M280.224,147.21a3.106,3.106,0,0,0,4.348.161c2.536-2.536,2.9-7.406,2.9-7.406s-4.871.362-7.406,2.9A3.106,3.106,0,0,0,280.224,147.21Zm0,0" transform="translate(-247.745 -124.185)" fill="#ffd15f"/>
      <path id="Trazado_1049510" data-name="Trazado 1049510" d="M287.166,157.082a9.281,9.281,0,0,1-2.034,3.464,3.278,3.278,0,0,1-5.337-2.137,3,3,0,0,0,.426,3.988,3.106,3.106,0,0,0,4.348.161A11.307,11.307,0,0,0,287.166,157.082Zm0,0" transform="translate(-247.743 -139.373)" fill="#fcbf35"/>
      <path id="Trazado_1049511" data-name="Trazado 1049511" d="M213.351,147.21a3.106,3.106,0,0,1-4.348.161c-2.536-2.536-2.9-7.406-2.9-7.406s4.871.362,7.406,2.9A3.106,3.106,0,0,1,213.351,147.21Zm0,0" transform="translate(-182.868 -124.185)" fill="#ffd15f"/>
      <path id="Trazado_1049512" data-name="Trazado 1049512" d="M208.777,157.082a9.28,9.28,0,0,0,2.033,3.464,3.277,3.277,0,0,0,5.337-2.137,3,3,0,0,1-.425,3.988,3.106,3.106,0,0,1-4.348.161A11.307,11.307,0,0,1,208.777,157.082Zm0,0" transform="translate(-185.238 -139.373)" fill="#fcbf35"/>
      <path id="Trazado_1049513" data-name="Trazado 1049513" d="M421.613,7.574h9.336V63.589h-9.336Zm0,0" transform="translate(-374.079 -6.72)" fill="#db7835"/>
      <path id="Trazado_1049514" data-name="Trazado 1049514" d="M487.258,7.574h1.935V63.589h-1.935Zm0,0" transform="translate(-432.323 -6.72)" fill="#ce6925"/>
      <path id="Trazado_1049515" data-name="Trazado 1049515" d="M24.895,190.255,10.322,175.683a1.61,1.61,0,1,0-2.277,2.277l14.573,14.573Zm0,0" transform="translate(-6.718 -155.458)" fill="#9bacb2"/>
      <path id="Trazado_1049516" data-name="Trazado 1049516" d="M124.222,226.972a2.277,2.277,0,1,1-2.277-2.277A2.277,2.277,0,0,1,124.222,226.972Zm0,0" transform="translate(-106.175 -199.363)" fill="#541f99"/>
      <path id="Trazado_1049517" data-name="Trazado 1049517" d="M124.659,226.656a2.273,2.273,0,0,1-3.03,3.03,2.276,2.276,0,1,0,3.03-3.03Zm0,0" transform="translate(-107.915 -201.103)" fill="#38067a"/>
      <path id="Trazado_1049518" data-name="Trazado 1049518" d="M264.593,230a2.277,2.277,0,1,1-2.277-2.277A2.277,2.277,0,0,1,264.593,230Zm0,0" transform="translate(-230.721 -202.049)" fill="#541f99"/>
      <path id="Trazado_1049519" data-name="Trazado 1049519" d="M265.03,229.688a2.273,2.273,0,0,1-3.03,3.03,2.276,2.276,0,1,0,3.03-3.03Zm0,0" transform="translate(-232.461 -203.793)" fill="#38067a"/>
      <path id="Trazado_1049520" data-name="Trazado 1049520" d="M195.921,218.894a2.277,2.277,0,1,1-2.277-2.277A2.277,2.277,0,0,1,195.921,218.894Zm0,0" transform="translate(-169.791 -192.196)" fill="#541f99"/>
      <path id="Trazado_1049521" data-name="Trazado 1049521" d="M196.358,218.578a2.273,2.273,0,0,1-3.03,3.03,2.276,2.276,0,1,0,3.03-3.03Zm0,0" transform="translate(-171.531 -193.936)" fill="#38067a"/>
      <path id="Trazado_1049522" data-name="Trazado 1049522" d="M35.937,309.265h-16A11.386,11.386,0,0,1,8.615,299.11l-1.036-9.532a1.138,1.138,0,0,1,1.132-1.261H47.16a1.138,1.138,0,0,1,1.132,1.261l-1.036,9.532A11.385,11.385,0,0,1,35.937,309.265Zm0,0" transform="translate(-6.717 -255.812)" fill="#d7f1ff"/>
      <path id="Trazado_1049523" data-name="Trazado 1049523" d="M239.339,288.316l-1.173,10.794a11.385,11.385,0,0,1-11.318,10.155h3.643a11.385,11.385,0,0,0,11.318-10.155l1.036-9.532a1.139,1.139,0,0,0-1.132-1.262Zm0,0" transform="translate(-201.271 -255.812)" fill="#b8e9ff"/>
      <path id="Trazado_1049524" data-name="Trazado 1049524" d="M50.6,334.146l.371-3.416H11.027l.371,3.416Zm0,0" transform="translate(-9.782 -293.444)" fill="#5acef2"/>
      <path id="Trazado_1049525" data-name="Trazado 1049525" d="M329.746,334.146h3.643l.371-3.416h-3.643Zm0,0" transform="translate(-292.569 -293.444)" fill="#22b9dd"/>
      <path id="Trazado_1049526" data-name="Trazado 1049526" d="M130.606,477.545H118.766a2.277,2.277,0,0,1-2.277-2.277v-1.139h16.395v1.139A2.277,2.277,0,0,1,130.606,477.545Zm0,0" transform="translate(-103.354 -420.676)" fill="#b8e9ff"/>
      <path id="Trazado_1049527" data-name="Trazado 1049527" d="M63.775,259.643a2.734,2.734,0,0,0-3.478-2.63,2.521,2.521,0,0,1-1.372,0,2.738,2.738,0,0,0-.746-.1,2.711,2.711,0,0,0-1.242.3,2.015,2.015,0,0,1-1.843,0A2.739,2.739,0,0,0,53.165,257a1.978,1.978,0,0,1-1.774-.365,2.732,2.732,0,0,0-3.5,0,1.978,1.978,0,0,1-1.774.365,2.741,2.741,0,0,0-1.85.171,1.972,1.972,0,0,1-1.68,0A2.74,2.74,0,0,0,40.739,257a1.978,1.978,0,0,1-1.774-.365,2.732,2.732,0,0,0-3.5,0,1.978,1.978,0,0,1-1.774.365,2.737,2.737,0,0,0-2.046.274,2.732,2.732,0,0,0-4.09,2.371Zm0,0" transform="translate(-24.447 -227.139)" fill="#fff3d7"/>
      <path id="Trazado_1049528" data-name="Trazado 1049528" d="M289.141,264.078a2.736,2.736,0,0,0-.745.1,2.521,2.521,0,0,1-1.372,0,2.739,2.739,0,0,0-.746-.1,2.712,2.712,0,0,0-1.242.3,2.021,2.021,0,0,1-.4.153,2.729,2.729,0,0,1,1.228,2.281h6.01A2.733,2.733,0,0,0,289.141,264.078Zm0,0" transform="translate(-252.545 -234.306)" fill="#f9dbaa"/>
      <path id="Trazado_1049529" data-name="Trazado 1049529" d="M56.87,14.3a.854.854,0,0,0,.854-.854V.854A.854.854,0,0,0,56.87,0H15.428a.854.854,0,0,0-.854.854v10.3a.854.854,0,1,0,1.708,0V1.708h30.4V56.015H30.04a3.112,3.112,0,0,0,.344-1.423v-.339a12.221,12.221,0,0,0,11-10.862l1.036-9.532a1.992,1.992,0,0,0-1.98-2.208h-.363a3.585,3.585,0,0,0-4.461-2.6,1.668,1.668,0,0,1-.906,0c-.057-.016-.115-.029-.172-.042a3.13,3.13,0,0,0-2.205-4.1v-.872a3.7,3.7,0,0,0,2.326.839h0A4.375,4.375,0,0,0,37.4,23.82l.032-.03c2.729-2.729,3.13-7.735,3.146-7.947a.854.854,0,0,0-.915-.915c-.2.015-4.524.362-7.326,2.594V16.038a3.9,3.9,0,0,0,3.187-3.7q0-.022,0-.044c0-3.859-3.256-7.683-3.395-7.844a.854.854,0,0,0-1.294,0C30.7,4.613,27.44,8.437,27.44,12.3c0,.015,0,.029,0,.044a3.906,3.906,0,0,0,3.187,3.7v1.484c-2.8-2.232-7.129-2.579-7.326-2.594a.854.854,0,0,0-.915.915c.016.212.417,5.219,3.146,7.947l.032.03A4.374,4.374,0,0,0,28.3,24.877a3.7,3.7,0,0,0,2.327-.839v.936A3.129,3.129,0,0,0,28.646,29l-.142.033a1.134,1.134,0,0,1-1.012-.192,3.572,3.572,0,0,0-.937-.565A3.131,3.131,0,1,0,21.733,29a3.582,3.582,0,0,0-.75-.081,3.534,3.534,0,0,0-1.523.34,1.567,1.567,0,0,1-1.012-.026,3.129,3.129,0,0,0-2.164-4.711V15.133a.854.854,0,1,0-1.708,0v9.583a3.123,3.123,0,0,0-1.909,3.294l-.067,0L4.208,19.621a2.488,2.488,0,0,0-3.485,0,2.488,2.488,0,0,0,0,3.485l5.9,5.9a3.581,3.581,0,0,0-4.266,2.645H1.994a1.992,1.992,0,0,0-1.98,2.208l1.036,9.533A12.219,12.219,0,0,0,12.281,54.272v.32a3.135,3.135,0,0,0,3.131,3.131H56.87a.854.854,0,0,0,.854-.854V17.415a.854.854,0,0,0-1.708,0V54.876L53.17,52.166V5.762l2.846-2.846V13.444A.853.853,0,0,0,56.87,14.3ZM51.462,5.774V51.733l-3.074,3.074V2.846Zm.64,47.734,2.633,2.507H49.6Zm.2-49.293L49.669,1.708h5.14ZM2.2,38.14H40.24l-.186,1.708H2.382ZM38.732,16.772c-.25,1.485-.9,4.185-2.487,5.788a2.719,2.719,0,0,1-1.583.609,2.206,2.206,0,0,1-1.579-.748,2.255,2.255,0,0,1-.744-1.483,2.692,2.692,0,0,1,.6-1.677C34.546,17.676,37.247,17.022,38.732,16.772ZM29.518,13.4a2.939,2.939,0,0,1-.37-1.134c.013-2.254,1.462-4.628,2.334-5.855.873,1.224,2.32,3.592,2.333,5.853a2.935,2.935,0,0,1-.37,1.135,2.084,2.084,0,0,1-1.963,1A2.084,2.084,0,0,1,29.518,13.4ZM28.3,23.169a2.724,2.724,0,0,1-1.582-.608c-1.585-1.6-2.238-4.307-2.489-5.791,1.483.248,4.18.9,5.788,2.489a2.691,2.691,0,0,1,.606,1.679,2.252,2.252,0,0,1-.744,1.483A2.2,2.2,0,0,1,28.3,23.169ZM31.6,26.527a1.423,1.423,0,1,1-1.423,1.423A1.425,1.425,0,0,1,31.6,26.527Zm-7.742-1.252A1.423,1.423,0,1,1,22.43,26.7,1.425,1.425,0,0,1,23.853,25.275Zm-8.083.911a1.423,1.423,0,1,1-1.423,1.423A1.424,1.424,0,0,1,15.77,26.186ZM1.709,21.363A.762.762,0,0,1,3,20.828l7.782,7.782a3.465,3.465,0,0,0-.309.229,1.136,1.136,0,0,1-1.014.193,3.664,3.664,0,0,0-.482-.089L1.931,21.9A.751.751,0,0,1,1.709,21.363Zm.073,12.09a.282.282,0,0,1,.212-.094h8.263a.854.854,0,1,0,0-1.708H4.169a1.879,1.879,0,0,1,1.671-1.025c.607,0,1.2.586,1.784.249a1.892,1.892,0,0,1,1.407-.188,2.936,2.936,0,0,0,1.775-.091c.7-.27,1.152-.88,1.963-.88a1.87,1.87,0,0,1,.963.267,3.218,3.218,0,0,0,1.482.75,2.926,2.926,0,0,0,.857.035,8.41,8.41,0,0,1,.911-.14,1.848,1.848,0,0,1,.8.177,2.822,2.822,0,0,0,2.408,0,1.848,1.848,0,0,1,.8-.177,1.894,1.894,0,0,1,.475.06,2.846,2.846,0,0,0,2.537-.536,1.877,1.877,0,0,1,2.4,0,2.844,2.844,0,0,0,2.534.536c1.22-.315,2.228.739,3.526.319a2.779,2.779,0,0,1,1.789-.308,7.7,7.7,0,0,0,2.35-.071,1.879,1.879,0,0,1,1.671,1.025H14.227a.854.854,0,1,0,0,1.708H40.443a.284.284,0,0,1,.283.315l-.3,2.759H2.011l-.3-2.759A.283.283,0,0,1,1.782,33.453Zm.965,9.753-.179-1.65h37.3l-.18,1.65A10.515,10.515,0,0,1,29.22,52.6h-16A10.516,10.516,0,0,1,2.747,43.206ZM15.428,56.015h-.017a1.425,1.425,0,0,1-1.423-1.423v-.285H28.675v.285a1.424,1.424,0,0,1-1.423,1.423Zm0,0" transform="translate(0)"/>
    </g>
  </g>
</svg>
