<svg xmlns="http://www.w3.org/2000/svg" width="84.033" height="84.033" viewBox="0 0 84.033 84.033">
  <g id="Grupo_1112432" data-name="Grupo 1112432" transform="translate(-1020.967 -3084)">
    <g id="Grupo_1098742" data-name="Grupo 1098742" transform="translate(1021.412 3084.445)">
      <g id="Rectángulo_400898" data-name="Rectángulo 400898" transform="translate(-0.445 -0.445)" fill="#bb965f" stroke="#e0b406" stroke-width="3" opacity="0.859">
        <rect width="84.033" height="84.033" rx="42.016" stroke="none"/>
        <rect x="1.5" y="1.5" width="81.033" height="81.033" rx="40.516" fill="none"/>
      </g>
      <g id="Rectángulo_400907" data-name="Rectángulo 400907" transform="translate(-0.446 -0.445)" fill="none" stroke="#e0b406" stroke-width="3">
        <rect width="84.033" height="84.033" rx="42.016" stroke="none"/>
        <rect x="1.5" y="1.5" width="81.033" height="81.033" rx="40.516" fill="none"/>
      </g>
    </g>
    <g id="farmer_9420515" transform="translate(965.553 3088.654)">
      <g id="Grupo_1102492" data-name="Grupo 1102492" transform="translate(76.41 7.5)">
        <path id="Trazado_876384" data-name="Trazado 876384" d="M209.079,239.931h0a1.972,1.972,0,0,1-1.945-1.972v-7.9H196.877v7.9a1.972,1.972,0,0,1-1.945,1.972l.437.264A12.838,12.838,0,0,0,209.079,239.931Z" transform="translate(-181.204 -204.282)" fill="#ffb09e"/>
        <path id="Trazado_876385" data-name="Trazado 876385" d="M108.106,399.163H86.32l-9.908-3.473V406.9a1.39,1.39,0,0,0,1.39,1.39h38.822a1.39,1.39,0,0,0,1.39-1.39V395.69Z" transform="translate(-76.412 -350.728)" fill="#ffb09e"/>
        <path id="Trazado_876386" data-name="Trazado 876386" d="M108.1,328.068l9.908-3.473v-1.7a7.529,7.529,0,0,0-7.424-7.528l-6.3-.087h0a12.838,12.838,0,0,1-13.71.264l-.437-.264-6.3.087A7.529,7.529,0,0,0,76.41,322.9v1.7l9.908,3.473Z" transform="translate(-76.41 -279.633)" fill="#eb5569"/>
        <circle id="Elipse_11624" data-name="Elipse 11624" cx="4.816" cy="4.816" r="4.816" transform="translate(26.597 20.619)" fill="#8d9ca8"/>
        <path id="Trazado_876387" data-name="Trazado 876387" d="M336.566,185.521a4.811,4.811,0,0,0-1.448.222,4.817,4.817,0,0,1,0,9.187,4.816,4.816,0,1,0,1.448-9.409Z" transform="translate(-305.153 -164.902)" fill="#7a8c98"/>
        <path id="Trazado_876388" data-name="Trazado 876388" d="M221.978,230.062v7.654a13.628,13.628,0,0,1-10.257,0v-7.654Z" transform="translate(-196.049 -204.284)" fill="#ffa78f"/>
        <path id="Trazado_876389" data-name="Trazado 876389" d="M217.221,137.919H202.247a3.118,3.118,0,0,1-3.118-3.118h0a3.118,3.118,0,0,1,3.118-3.118h14.974a3.118,3.118,0,0,1,3.118,3.118h0A3.118,3.118,0,0,1,217.221,137.919Z" transform="translate(-184.915 -117.3)" fill="#ffa78f"/>
        <path id="Trazado_876390" data-name="Trazado 876390" d="M173.98,99.274h0a10.745,10.745,0,0,0,10.745-10.745V82.2a6.573,6.573,0,0,0-6.573-6.573h-8.342a6.573,6.573,0,0,0-6.573,6.573v6.33A10.745,10.745,0,0,0,173.98,99.274Z" transform="translate(-153.179 -67.736)" fill="#ffcebf"/>
        <path id="Trazado_876391" data-name="Trazado 876391" d="M249.12,75.625h-2.9A6.573,6.573,0,0,1,252.8,82.2v6.33a10.746,10.746,0,0,1-9.3,10.647,10.835,10.835,0,0,0,1.448.1h0a10.745,10.745,0,0,0,10.745-10.745V82.2A6.573,6.573,0,0,0,249.12,75.625Z" transform="translate(-224.148 -67.735)" fill="#ffb09e"/>
        <path id="Trazado_876392" data-name="Trazado 876392" d="M167.859,314.38h-3.475V303.187a.7.7,0,0,1,.695-.695h2.085a.7.7,0,0,1,.695.695Z" transform="translate(-154.194 -268.325)" fill="#68ca44"/>
        <path id="Trazado_876393" data-name="Trazado 876393" d="M330.8,322.9a7.528,7.528,0,0,0-7.424-7.527l-6.3-.088,3.408.088A7.528,7.528,0,0,1,327.9,322.9v2.712l2.9-1.015Z" transform="translate(-289.196 -279.633)" fill="#e53950"/>
        <path id="Trazado_876394" data-name="Trazado 876394" d="M321.093,314.38h-3.475V303.187a.7.7,0,0,1,.695-.695H320.4a.7.7,0,0,1,.7.695Z" transform="translate(-289.68 -268.325)" fill="#68ca44"/>
        <path id="Trazado_876395" data-name="Trazado 876395" d="M154.287,387.513H175.8a1.158,1.158,0,0,1,1.158,1.158v12.392h-23.83V388.671A1.158,1.158,0,0,1,154.287,387.513Z" transform="translate(-144.243 -343.498)" fill="#ade194"/>
        <path id="Trazado_876396" data-name="Trazado 876396" d="M326.769,387.513h-2.9a1.158,1.158,0,0,1,1.158,1.158v12.392h2.9V388.671A1.158,1.158,0,0,0,326.769,387.513Z" transform="translate(-295.211 -343.498)" fill="#80d261"/>
        <path id="Trazado_876397" data-name="Trazado 876397" d="M218.336,449.825H206.98v-6.236a.927.927,0,0,1,.927-.927h9.5a.927.927,0,0,1,.927.927v6.236Z" transform="translate(-191.857 -392.26)" fill="#eaf6ff"/>
        <path id="Trazado_876398" data-name="Trazado 876398" d="M275.843,443.589v6.236h-2.9v-6.236a.926.926,0,0,0-.927-.927h2.9A.926.926,0,0,1,275.843,443.589Z" transform="translate(-249.364 -392.26)" fill="#d8ecfe"/>
        <path id="Trazado_876399" data-name="Trazado 876399" d="M136.077,131.7c-1.589,3.488-.784,8.255.86,13.471a.7.7,0,0,0,1.336-.039,12.034,12.034,0,0,1,2.324-4.966.7.7,0,0,0,.082-.781,7.535,7.535,0,0,1-.176-7.685Z" transform="translate(-128.406 -117.314)" fill="#8d9ca8"/>
        <path id="Trazado_876400" data-name="Trazado 876400" d="M234.374,222.763h0a2.8,2.8,0,0,1-2.8-2.8v-.134a.7.7,0,0,1,.695-.695h4.217a.7.7,0,0,1,.695.695v.134A2.8,2.8,0,0,1,234.374,222.763Z" transform="translate(-213.599 -194.619)" fill="#eaf6ff"/>
        <path id="Trazado_876401" data-name="Trazado 876401" d="M399.981,396.7v10.2a1.39,1.39,0,0,1-1.39,1.39h2.9a1.39,1.39,0,0,0,1.39-1.39V395.69Z" transform="translate(-361.274 -350.728)" fill="#ffa78f"/>
        <path id="Trazado_876402" data-name="Trazado 876402" d="M181.2,10.717a2.305,2.305,0,0,0-1.443-1.633,25.2,25.2,0,0,0-17.6.007,2.311,2.311,0,0,0-1.472,1.644l-.883,3.7h22.284Z" transform="translate(-150.146 -7.502)" fill="#e8ad8c"/>
        <path id="Trazado_876403" data-name="Trazado 876403" d="M150.41,67.361l-1.231,5.158h24.745l-1.231-5.158Z" transform="translate(-140.751 -60.428)" fill="#ffe177"/>
        <path id="Trazado_876404" data-name="Trazado 876404" d="M330.094,67.361h-2.9l1.231,5.158h2.9Z" transform="translate(-298.151 -60.428)" fill="#ffd15b"/>
        <path id="Trazado_876405" data-name="Trazado 876405" d="M255.931,10.725a2.305,2.305,0,0,0-1.443-1.633,24.972,24.972,0,0,0-10.164-1.538,25.417,25.417,0,0,1,7.269,1.538,2.305,2.305,0,0,1,1.443,1.633l.887,3.718h2.9Z" transform="translate(-224.875 -7.51)" fill="#e19974"/>
        <path id="Trazado_876406" data-name="Trazado 876406" d="M146.838,102.505H115.526a.7.7,0,0,1-.695-.695h0a3.127,3.127,0,0,1,3.127-3.127h26.447a3.127,3.127,0,0,1,3.127,3.127h0A.7.7,0,0,1,146.838,102.505Z" transform="translate(-110.381 -88.122)" fill="#e8ad8c"/>
        <path id="Trazado_876407" data-name="Trazado 876407" d="M348.067,98.683h-2.9a3.127,3.127,0,0,1,3.127,3.127h0a.7.7,0,0,1-.695.695h2.9a.7.7,0,0,0,.7-.695h0A3.127,3.127,0,0,0,348.067,98.683Z" transform="translate(-314.042 -88.122)" fill="#e19974"/>
      </g>
      <g id="Grupo_1102493" data-name="Grupo 1102493" transform="translate(76.41 7.5)">
        <path id="Trazado_876408" data-name="Trazado 876408" d="M321.45,185.532a4.816,4.816,0,1,1-3.579,8.178" transform="translate(-289.904 -164.911)" fill="none" stroke="#000" stroke-linecap="round" stroke-linejoin="round" stroke-miterlimit="10" stroke-width="1"/>
        <path id="Trazado_876409" data-name="Trazado 876409" d="M196.389,268.562V272a1.972,1.972,0,0,1-1.945,1.973h-.064" transform="translate(-180.717 -238.325)" fill="none" stroke="#000" stroke-linecap="round" stroke-linejoin="round" stroke-miterlimit="10" stroke-width="1"/>
        <path id="Trazado_876410" data-name="Trazado 876410" d="M107.824,315.712l2.765.038a7.528,7.528,0,0,1,7.424,7.527v12.911a1.39,1.39,0,0,1-1.39,1.39H77.8a1.39,1.39,0,0,1-1.39-1.39V323.278a7.528,7.528,0,0,1,7.424-7.527l2.765-.038" transform="translate(-76.411 -280.013)" fill="none" stroke="#000" stroke-linecap="round" stroke-linejoin="round" stroke-miterlimit="10" stroke-width="1"/>
        <path id="Trazado_876411" data-name="Trazado 876411" d="M300.281,268.572v3.438a1.972,1.972,0,0,0,1.945,1.973h.064" transform="translate(-274.351 -238.333)" fill="none" stroke="#000" stroke-linecap="round" stroke-linejoin="round" stroke-miterlimit="10" stroke-width="1"/>
        <path id="Trazado_876412" data-name="Trazado 876412" d="M348.762,137.918h.76a3.118,3.118,0,1,0,0-6.236h-.761" transform="translate(-317.216 -117.299)" fill="none" stroke="#000" stroke-linecap="round" stroke-linejoin="round" stroke-miterlimit="10" stroke-width="1"/>
        <path id="Trazado_876413" data-name="Trazado 876413" d="M191.369,131.682c0,.027,0,.054,0,.081v6.33a10.747,10.747,0,0,1-20.619,4.243" transform="translate(-159.824 -117.299)" fill="none" stroke="#000" stroke-linecap="round" stroke-linejoin="round" stroke-miterlimit="10" stroke-width="1"/>
        <line id="Línea_570" data-name="Línea 570" y2="0.927" transform="translate(25.796 17.965)" fill="none" stroke="#000" stroke-linecap="round" stroke-linejoin="round" stroke-miterlimit="10" stroke-width="1"/>
        <path id="Trazado_876414" data-name="Trazado 876414" d="M152.331,18.061l1.748-7.328a2.312,2.312,0,0,1,1.472-1.644,25.2,25.2,0,0,1,17.6-.007,2.305,2.305,0,0,1,1.443,1.633l1.752,7.346" transform="translate(-143.538 -7.5)" fill="none" stroke="#000" stroke-linecap="round" stroke-linejoin="round" stroke-miterlimit="10" stroke-width="1"/>
        <line id="Línea_571" data-name="Línea 571" y2="0.927" transform="translate(15.806 17.965)" fill="none" stroke="#000" stroke-linecap="round" stroke-linejoin="round" stroke-miterlimit="10" stroke-width="1"/>
        <line id="Línea_572" data-name="Línea 572" x2="0.603" transform="translate(20.499 21.037)" fill="none" stroke="#000" stroke-linecap="round" stroke-linejoin="round" stroke-miterlimit="10" stroke-width="1"/>
        <path id="Trazado_876415" data-name="Trazado 876415" d="M146.838,102.505H115.526a.7.7,0,0,1-.695-.695h0a3.127,3.127,0,0,1,3.127-3.127h26.447a3.127,3.127,0,0,1,3.127,3.127h0A.7.7,0,0,1,146.838,102.505Z" transform="translate(-110.381 -88.122)" fill="none" stroke="#000" stroke-linecap="round" stroke-linejoin="round" stroke-miterlimit="10" stroke-width="1"/>
        <line id="Línea_573" data-name="Línea 573" x1="5.262" transform="translate(26.628 6.934)" fill="none" stroke="#000" stroke-linecap="round" stroke-linejoin="round" stroke-miterlimit="10" stroke-width="1"/>
        <line id="Línea_574" data-name="Línea 574" x1="12.916" transform="translate(9.659 6.934)" fill="none" stroke="#000" stroke-linecap="round" stroke-linejoin="round" stroke-miterlimit="10" stroke-width="1"/>
        <path id="Trazado_876416" data-name="Trazado 876416" d="M164.381,312.339v-9.152a.7.7,0,0,1,.695-.695h2.085a.7.7,0,0,1,.695.695v9.152" transform="translate(-154.192 -268.325)" fill="none" stroke="#000" stroke-linecap="round" stroke-linejoin="round" stroke-miterlimit="10" stroke-width="1"/>
        <path id="Trazado_876417" data-name="Trazado 876417" d="M317.621,312.339v-9.152a.7.7,0,0,1,.695-.695H320.4a.7.7,0,0,1,.695.695v9.152" transform="translate(-289.683 -268.325)" fill="none" stroke="#000" stroke-linecap="round" stroke-linejoin="round" stroke-miterlimit="10" stroke-width="1"/>
        <path id="Trazado_876418" data-name="Trazado 876418" d="M153.131,398.3v2.767h23.83V388.67a1.158,1.158,0,0,0-1.158-1.158H154.289a1.158,1.158,0,0,0-1.158,1.158v5.571" transform="translate(-144.245 -343.497)" fill="none" stroke="#000" stroke-linecap="round" stroke-linejoin="round" stroke-miterlimit="10" stroke-width="1"/>
        <path id="Trazado_876419" data-name="Trazado 876419" d="M206.98,449.825v-6.236a.927.927,0,0,1,.927-.927h9.5a.927.927,0,0,1,.927.927v6.236" transform="translate(-191.857 -392.259)" fill="none" stroke="#000" stroke-linecap="round" stroke-linejoin="round" stroke-miterlimit="10" stroke-width="1"/>
        <path id="Trazado_876420" data-name="Trazado 876420" d="M194.931,315.283l.437.264a12.838,12.838,0,0,0,13.71-.264h0" transform="translate(-181.203 -279.634)" fill="none" stroke="#000" stroke-linecap="round" stroke-linejoin="round" stroke-miterlimit="10" stroke-width="1"/>
        <path id="Trazado_876421" data-name="Trazado 876421" d="M234.374,222.763h0a2.8,2.8,0,0,1-2.8-2.8v-.134a.7.7,0,0,1,.695-.695h4.217a.7.7,0,0,1,.695.695v.134A2.8,2.8,0,0,1,234.374,222.763Z" transform="translate(-213.599 -194.619)" fill="none" stroke="#000" stroke-linecap="round" stroke-linejoin="round" stroke-miterlimit="10" stroke-width="1"/>
        <path id="Trazado_876422" data-name="Trazado 876422" d="M136.077,131.7c-1.589,3.488-.784,8.255.86,13.471a.7.7,0,0,0,1.336-.039,12.034,12.034,0,0,1,2.324-4.966.7.7,0,0,0,.082-.781,7.535,7.535,0,0,1-.176-7.685" transform="translate(-128.406 -117.314)" fill="none" stroke="#000" stroke-linecap="round" stroke-linejoin="round" stroke-miterlimit="10" stroke-width="1"/>
        <line id="Línea_575" data-name="Línea 575" x1="8.886" y1="3.114" transform="translate(0 44.962)" fill="none" stroke="#000" stroke-linecap="round" stroke-linejoin="round" stroke-miterlimit="10" stroke-width="1"/>
        <line id="Línea_576" data-name="Línea 576" y1="3.114" x2="8.886" transform="translate(32.716 44.962)" fill="none" stroke="#000" stroke-linecap="round" stroke-linejoin="round" stroke-miterlimit="10" stroke-width="1"/>
      </g>
    </g>
  </g>
</svg>
