<svg xmlns="http://www.w3.org/2000/svg" xmlns:xlink="http://www.w3.org/1999/xlink" width="98" height="98" viewBox="0 0 98 98">
  <defs>
    <filter id="Trazado_874925" x="0" y="0" width="98" height="98" filterUnits="userSpaceOnUse">
      <feOffset dy="3" input="SourceAlpha"/>
      <feGaussianBlur stdDeviation="3" result="blur"/>
      <feFlood flood-opacity="0.161"/>
      <feComposite operator="in" in2="blur"/>
      <feComposite in="SourceGraphic"/>
    </filter>
  </defs>
  <g id="Grupo_1181885" data-name="Grupo 1181885" transform="translate(9 6)">
    <g id="Grupo_1111314" data-name="Grupo 1111314">
      <g transform="matrix(1, 0, 0, 1, -9, -6)" filter="url(#Trazado_874925)">
        <g id="Trazado_874925-2" data-name="Trazado 874925" transform="translate(9 6)" fill="#9ad354">
          <path d="M 39.99997329711914 78.50040435791016 C 34.80184936523438 78.50040435791016 29.76000595092773 77.48268127441406 25.01450729370117 75.47550201416016 C 20.43013954162598 73.53648376464844 16.3126392364502 70.76027679443359 12.7763843536377 67.22402191162109 C 9.240128517150879 63.68776702880859 6.463928699493408 59.57027053833008 4.524906635284424 54.98590087890625 C 2.517728805541992 50.24040222167969 1.500006675720215 45.19855880737305 1.500006675720215 40.00043487548828 C 1.500006675720215 34.80185699462891 2.517728805541992 29.76001358032227 4.524906635284424 25.01451301574707 C 6.463928699493408 20.43013572692871 9.240128517150879 16.31263542175293 12.7763843536377 12.77637958526611 C 16.3126392364502 9.240124702453613 20.43013954162598 6.463935375213623 25.01450729370117 4.52490234375 C 29.76000595092773 2.517724514007568 34.80184936523438 1.500002145767212 39.99997329711914 1.500002145767212 C 45.19809722900391 1.500002145767212 50.23994064331055 2.517724514007568 54.98543930053711 4.52490234375 C 59.56981658935547 6.463935375213623 63.68731689453125 9.240124702453613 67.22357177734375 12.77637958526611 C 70.75982666015625 16.31263542175293 73.53601837158203 20.43013572692871 75.47505187988281 25.01451301574707 C 77.48223114013672 29.76001358032227 78.49995422363281 34.80185699462891 78.49995422363281 39.99998092651367 C 78.49995422363281 45.19855880737305 77.48223114013672 50.24040222167969 75.47505187988281 54.98590087890625 C 73.53601837158203 59.57027053833008 70.75982666015625 63.68776702880859 67.22357177734375 67.22402191162109 C 63.68731689453125 70.76027679443359 59.56981658935547 73.53648376464844 54.98543930053711 75.47550201416016 C 50.23994064331055 77.48268127441406 45.19809722900391 78.50040435791016 39.99997329711914 78.50040435791016 Z" stroke="none"/>
          <path d="M 39.99997329711914 3 C 35.00369262695312 3 30.15843963623047 3.977851867675781 25.59883880615234 5.906417846679688 C 21.19326782226562 7.769813537597656 17.23602676391602 10.43805694580078 13.83704376220703 13.83704376220703 C 10.43805694580078 17.23601531982422 7.769813537597656 21.19325637817383 5.906410217285156 25.59882736206055 C 3.977851867675781 30.15844345092773 3 35.00368118286133 3 40.00042724609375 C 3 44.99672317504883 3.977851867675781 49.84196472167969 5.906410217285156 54.40157318115234 C 7.769813537597656 58.80714797973633 10.43805694580078 62.76438903808594 13.83704376220703 66.16336059570312 C 17.23602676391602 69.56234741210938 21.19326782226562 72.2305908203125 25.59883880615234 74.09398651123047 C 30.15843963623047 76.02255249023438 35.00369262695312 77.00040435791016 39.99997329711914 77.00040435791016 C 44.99625396728516 77.00040435791016 49.84150695800781 76.02255249023438 54.40110778808594 74.09398651123047 C 58.80667877197266 72.2305908203125 62.76391983032227 69.56234741210938 66.16290283203125 66.16336059570312 C 69.5618896484375 62.76438903808594 72.23013305664062 58.80714797973633 74.09353637695312 54.40157318115234 C 76.0220947265625 49.84196472167969 76.99994659423828 44.99672317504883 76.99994659423828 39.99997711181641 C 76.99994659423828 35.00368118286133 76.0220947265625 30.15844345092773 74.09353637695312 25.59882736206055 C 72.23013305664062 21.19325637817383 69.5618896484375 17.23601531982422 66.16290283203125 13.83704376220703 C 62.76391983032227 10.43805694580078 58.80667877197266 7.769813537597656 54.40110778808594 5.906417846679688 C 49.84150695800781 3.977851867675781 44.99625396728516 3 39.99997329711914 3 M 39.99997329711914 0 C 62.09134674072266 0 79.99994659423828 17.90858840942383 79.99994659423828 39.99997711181641 L 79.99994659423828 40.00042724609375 C 79.99994659423828 62.09181594848633 62.09134674072266 80.00040435791016 39.99997329711914 80.00040435791016 C 17.90859985351562 80.00040435791016 0 62.09181594848633 0 40.00042724609375 L 0 39.99997711181641 C 0 17.90858840942383 17.90859985351562 0 39.99997329711914 0 Z" stroke="none" fill="#fff"/>
        </g>
      </g>
    </g>
    <g id="geography_4090326" transform="translate(15.51 15.51)">
      <g id="Grupo_1188275" data-name="Grupo 1188275" transform="translate(0.79 0.79)">
        <g id="Grupo_1188251" data-name="Grupo 1188251" transform="translate(33.18)">
          <path id="Trazado_1049530" data-name="Trazado 1049530" d="M52.48,5.74V7.32H43V5.74A4.744,4.744,0,0,1,47.74,1a4.747,4.747,0,0,1,4.74,4.74Z" transform="translate(-43 -1)" fill="#ccd1d9"/>
        </g>
        <g id="Grupo_1188252" data-name="Grupo 1188252" transform="translate(33.204 25.28)">
          <path id="Trazado_1049531" data-name="Trazado 1049531" d="M52.463,33a1.424,1.424,0,0,1-.063.166L48.892,40.2a1.285,1.285,0,0,1-2.291,0l-3.508-7.031A1.424,1.424,0,0,1,43.03,33h9.433Z" transform="translate(-43.03 -33)" fill="#ccd1d9"/>
        </g>
        <g id="Grupo_1188253" data-name="Grupo 1188253" transform="translate(33.18 6.32)">
          <path id="Trazado_1049532" data-name="Trazado 1049532" d="M52.48,9v6.32H43V9Z" transform="translate(-43 -9)" fill="#ffeaa7"/>
        </g>
        <g id="Grupo_1188254" data-name="Grupo 1188254" transform="translate(33.18 12.64)">
          <path id="Trazado_1049533" data-name="Trazado 1049533" d="M47.74,17V29.64H43.024a.779.779,0,0,1-.024-.19V17Z" transform="translate(-43 -17)" fill="#ef7385"/>
        </g>
        <g id="Grupo_1188255" data-name="Grupo 1188255" transform="translate(37.92 12.64)">
          <path id="Trazado_1049534" data-name="Trazado 1049534" d="M53.74,17V29.451a.779.779,0,0,1-.024.19H49V17Z" transform="translate(-49 -17)" fill="#b4dd7f"/>
        </g>
        <g id="Grupo_1188256" data-name="Grupo 1188256" transform="translate(0 42.661)">
          <path id="Trazado_1049535" data-name="Trazado 1049535" d="M4.16,55v3.16H1.79A.792.792,0,0,1,1,57.37V55.79A.792.792,0,0,1,1.79,55Z" transform="translate(-1 -55)" fill="#b4dd7f"/>
        </g>
        <g id="Grupo_1188257" data-name="Grupo 1188257" transform="translate(6.32 42.661)">
          <path id="Trazado_1049536" data-name="Trazado 1049536" d="M9,55H19.27v3.16H9Z" transform="translate(-9 -55)" fill="#b4dd7f"/>
        </g>
        <g id="Grupo_1188258" data-name="Grupo 1188258" transform="translate(3.16 42.661)">
          <path id="Trazado_1049537" data-name="Trazado 1049537" d="M5,55H8.16v3.16H5Z" transform="translate(-5 -55)" fill="#a0d468"/>
        </g>
        <g id="Grupo_1188259" data-name="Grupo 1188259" transform="translate(6.32 34.76)">
          <path id="Trazado_1049538" data-name="Trazado 1049538" d="M26.38,45.79v3.95H9V45H25.59A.79.79,0,0,1,26.38,45.79Z" transform="translate(-9 -45)" fill="#ffeaa7"/>
        </g>
        <g id="Grupo_1188260" data-name="Grupo 1188260" transform="translate(0 34.76)">
          <path id="Trazado_1049539" data-name="Trazado 1049539" d="M4.16,45v4.74H1.79A.792.792,0,0,1,1,48.95V45.79A.792.792,0,0,1,1.79,45Z" transform="translate(-1 -45)" fill="#ffeaa7"/>
        </g>
        <g id="Grupo_1188261" data-name="Grupo 1188261" transform="translate(3.16 34.76)">
          <path id="Trazado_1049540" data-name="Trazado 1049540" d="M5,45H8.16v4.74H5Z" transform="translate(-5 -45)" fill="#fcd770"/>
        </g>
        <g id="Grupo_1188262" data-name="Grupo 1188262" transform="translate(15.8 42.661)">
          <path id="Trazado_1049541" data-name="Trazado 1049541" d="M52.6,55.79v1.58a.792.792,0,0,1-.79.79H39.96l-.466.466a3.815,3.815,0,0,1-5.388,0l-.466-.466H21V55.79a.792.792,0,0,1,.79-.79H32.984A5.4,5.4,0,0,1,36.8,56.58,5.4,5.4,0,0,1,40.616,55H51.81A.792.792,0,0,1,52.6,55.79Z" transform="translate(-21 -55)" fill="#cf9e76"/>
        </g>
        <g id="Grupo_1188263" data-name="Grupo 1188263" transform="translate(31.6 39.5)">
          <path id="Trazado_1049542" data-name="Trazado 1049542" d="M56.01,51v3.16H44.816A5.4,5.4,0,0,0,41,55.74V54.16A5.721,5.721,0,0,1,46.111,51h9.9Z" transform="translate(-41 -51)" fill="#e6e9ed"/>
        </g>
        <g id="Grupo_1188264" data-name="Grupo 1188264" transform="translate(31.6 36.34)">
          <path id="Trazado_1049543" data-name="Trazado 1049543" d="M54.43,47v3.16H46.111A5.721,5.721,0,0,0,41,53.32V51.74A4.747,4.747,0,0,1,45.74,47Z" transform="translate(-41 -47)" fill="#ffeaa7"/>
        </g>
        <g id="Grupo_1188265" data-name="Grupo 1188265" transform="translate(16.59 39.5)">
          <path id="Trazado_1049544" data-name="Trazado 1049544" d="M37.01,54.16v1.58a5.4,5.4,0,0,0-3.816-1.58H22V51h9.9a5.722,5.722,0,0,1,3,.853A5.833,5.833,0,0,1,37.01,54.16Z" transform="translate(-22 -51)" fill="#e6e9ed"/>
        </g>
        <g id="Grupo_1188266" data-name="Grupo 1188266" transform="translate(3.16)">
          <circle id="Elipse_12080" data-name="Elipse 12080" cx="12.5" cy="12.5" r="12.5" transform="translate(0.05 0.191)" fill="#69d6f4"/>
        </g>
        <g id="Grupo_1188267" data-name="Grupo 1188267" transform="translate(11.732 0)">
          <path id="Trazado_1049545" data-name="Trazado 1049545" d="M32.464,12.06H30.189a1.59,1.59,0,0,1-1.264-.632L27.55,9.6a1.728,1.728,0,0,0-2.607-.19l-.608.608a1.585,1.585,0,0,1-1.122.466H19.279a.942.942,0,0,1-.348-1.817L21.7,7.557a.942.942,0,0,0-.348-1.817h-3.01a1.585,1.585,0,0,1-1.58-1.58V3.236a1.585,1.585,0,0,0-.466-1.122l-.442-.442A12.648,12.648,0,0,1,32.464,12.06Z" transform="translate(-15.85 -1)" fill="#b4dd7f"/>
        </g>
        <g id="Grupo_1188268" data-name="Grupo 1188268" transform="translate(17.38 14.22)">
          <path id="Trazado_1049546" data-name="Trazado 1049546" d="M32.2,19h1.762a12.654,12.654,0,0,1-4.432,8.113,12.131,12.131,0,0,1-2.781,1.77l-.356-.719a1.627,1.627,0,0,0-.711-.711l-.261-.126a1.534,1.534,0,0,1-.4-2.457l.679-.679a1.534,1.534,0,0,0-.4-2.457l-1.778-.885A.977.977,0,0,1,23.98,19h2.457a3.107,3.107,0,0,1,1,.166l.885.292a3.177,3.177,0,0,0,1.991,0l.885-.292A3.107,3.107,0,0,1,32.2,19Z" transform="translate(-23 -19)" fill="#b4dd7f"/>
        </g>
        <g id="Grupo_1188269" data-name="Grupo 1188269" transform="translate(11.06 31.6)">
          <path id="Trazado_1049547" data-name="Trazado 1049547" d="M24.48,41.79v2.37H15V41.79a.792.792,0,0,1,.79-.79h7.9A.792.792,0,0,1,24.48,41.79Z" transform="translate(-15 -41)" fill="#aab2bd"/>
        </g>
        <g id="Grupo_1188270" data-name="Grupo 1188270" transform="translate(14.22 28.353)">
          <path id="Trazado_1049548" data-name="Trazado 1049548" d="M22.16,36.977v3.16H19v-3.16l.008-.071a15.467,15.467,0,0,0,3.144-.016Z" transform="translate(-19 -36.89)" fill="#ccd1d9"/>
        </g>
        <g id="Grupo_1188271" data-name="Grupo 1188271" transform="translate(3.16 7.442)">
          <path id="Trazado_1049549" data-name="Trazado 1049549" d="M16.06,20.39a.964.964,0,0,1-.735.94l-1.509.379a1.588,1.588,0,0,0-1.146,1.146l-.332,1.327a1.588,1.588,0,0,1-1.146,1.146l-1.256.316A12.616,12.616,0,0,1,5,15.618a12.43,12.43,0,0,1,1.122-5.2l1.114,1.114a3.163,3.163,0,0,0,2.236.924h1.106a3.1,3.1,0,0,1,1.406.332l1.793.893a1.285,1.285,0,0,1,0,2.291l-1.864.924a1.081,1.081,0,0,0,.308,2.03l3.026.506a.967.967,0,0,1,.814.956Z" transform="translate(-5 -10.42)" fill="#b4dd7f"/>
        </g>
        <g id="Grupo_1188272" data-name="Grupo 1188272" transform="translate(6.32 39.5)">
          <path id="Trazado_1049550" data-name="Trazado 1049550" d="M9,51H19.27v3.16H9Z" transform="translate(-9 -51)" fill="#ef7385"/>
        </g>
        <g id="Grupo_1188273" data-name="Grupo 1188273" transform="translate(3.16 39.5)">
          <path id="Trazado_1049551" data-name="Trazado 1049551" d="M5,51H8.16v3.16H5Z" transform="translate(-5 -51)" fill="#ed5565"/>
        </g>
        <g id="Grupo_1188274" data-name="Grupo 1188274" transform="translate(0 39.5)">
          <path id="Trazado_1049552" data-name="Trazado 1049552" d="M4.16,51v3.16H1.79A.792.792,0,0,1,1,53.37V51.79A.792.792,0,0,1,1.79,51Z" transform="translate(-1 -51)" fill="#ef7385"/>
        </g>
      </g>
      <g id="Grupo_1188276" data-name="Grupo 1188276" transform="translate(0)">
        <path id="Trazado_1049553" data-name="Trazado 1049553" d="M30,38h1.58v1.58H30Z" transform="translate(-6.3 -7.98)"/>
        <path id="Trazado_1049554" data-name="Trazado 1049554" d="M34,38h1.58v1.58H34Z" transform="translate(-7.14 -7.98)"/>
        <path id="Trazado_1049555" data-name="Trazado 1049555" d="M38,38h1.58v1.58H38Z" transform="translate(-7.98 -7.98)"/>
        <path id="Trazado_1049556" data-name="Trazado 1049556" d="M45.68,33.617a2.069,2.069,0,0,0,3.7,0l3.513-7.027a1.587,1.587,0,0,0,.167-.706V5.53A5.53,5.53,0,1,0,42,5.53V25.884a1.587,1.587,0,0,0,.167.706Zm5.8-22.557v1.58h-7.9V11.06Zm-7.9-1.58V7.9h7.9V9.48Zm.488,17.38h6.924l-1.58,3.16H45.648Zm4.252-1.58V14.22h3.16V25.28ZM46.74,14.22V25.28H43.58V14.22Zm.353,18.69-.655-1.31h2.184l-.655,1.31a.506.506,0,0,1-.874,0ZM47.53,1.58a3.955,3.955,0,0,1,3.95,3.95v.79h-7.9V5.53A3.955,3.955,0,0,1,47.53,1.58Z" transform="translate(-8.82)"/>
        <path id="Trazado_1049557" data-name="Trazado 1049557" d="M47.4,42.661H36.2a6.147,6.147,0,0,0-2.846.7A4.888,4.888,0,0,1,37.5,41.081h9.9V39.5H37.5a6.467,6.467,0,0,0-4.242,1.578A3.956,3.956,0,0,1,37.13,37.92h8.69V36.34H37.13a5.535,5.535,0,0,0-5.484,4.852A6.461,6.461,0,0,0,27.277,39.5h-2V36.34a1.582,1.582,0,0,0-1.58-1.58H22.12V33.18a1.582,1.582,0,0,0-1.58-1.58H18.96V29.845a16.538,16.538,0,0,0,6.761-2.561,2.509,2.509,0,0,0,1.141-2.092,2.468,2.468,0,0,0-.728-1.756l-.294-.294A13.413,13.413,0,1,0,6.878,4.181l-.293-.293A2.469,2.469,0,0,0,4.828,3.16,2.511,2.511,0,0,0,2.735,4.3,16.585,16.585,0,0,0,14.22,29.847V31.6H12.64a1.582,1.582,0,0,0-1.58,1.58v1.58H1.58A1.582,1.582,0,0,0,0,36.34V39.5a1.563,1.563,0,0,0,.22.79,1.563,1.563,0,0,0-.22.79v1.58a1.563,1.563,0,0,0,.22.79,1.563,1.563,0,0,0-.22.79v1.58A1.582,1.582,0,0,0,1.58,47.4H28.9l.231.231a4.6,4.6,0,0,0,6.511,0l.231-.231H47.4a1.582,1.582,0,0,0,1.58-1.58v-1.58a1.582,1.582,0,0,0-1.58-1.58ZM22.275,23.824l0-.006a2.385,2.385,0,0,0-1.06-1.06l-.262-.131a.74.74,0,0,1-.194-1.186l.683-.683a2.32,2.32,0,0,0-.6-3.717l-1.774-.887a.185.185,0,0,1-.1-.167.187.187,0,0,1,.186-.186h2.46a2.369,2.369,0,0,1,.75.122l.884.295a3.973,3.973,0,0,0,2.5,0l.883-.295a2.39,2.39,0,0,1,.751-.122H28.2a11.886,11.886,0,0,1-5.926,8.023ZM28.2,11.06H26.86a.793.793,0,0,1-.632-.316L24.851,8.907A2.531,2.531,0,0,0,22.836,7.9a2.5,2.5,0,0,0-1.781.738l-.611.611a.8.8,0,0,1-.559.231H15.953a.152.152,0,0,1-.057-.293l2.765-1.106a1.732,1.732,0,0,0-.642-3.341H15.01a.791.791,0,0,1-.79-.79V3.025a2.354,2.354,0,0,0-.3-1.131A11.8,11.8,0,0,1,28.2,11.06ZM12.329,2.386l.08.08a.786.786,0,0,1,.231.559V3.95a2.373,2.373,0,0,0,2.37,2.37h3.008a.152.152,0,0,1,.056.293L15.31,7.719a1.732,1.732,0,0,0,.642,3.341h3.933a2.353,2.353,0,0,0,1.676-.694l.611-.611a.975.975,0,0,1,1.414.1l1.379,1.837a2.381,2.381,0,0,0,1.9.948H28.4c.017.262.04.523.04.79s-.023.528-.04.79H27.373a3.958,3.958,0,0,0-1.25.2l-.884.295a2.381,2.381,0,0,1-1.5,0l-.885-.295a3.95,3.95,0,0,0-1.249-.2h-2.46a1.766,1.766,0,0,0-.791,3.346l1.774.887a.74.74,0,0,1,.194,1.186l-.683.683a2.32,2.32,0,0,0,.6,3.717l.262.131a.783.783,0,0,1,.323.312,11.726,11.726,0,0,1-10.068-.748,2.349,2.349,0,0,0,1.3-1.552l.331-1.321a.787.787,0,0,1,.574-.574l1.5-.377a1.76,1.76,0,0,0-.137-3.444l-3.028-.5a.289.289,0,0,1-.081-.543l1.857-.928a2.069,2.069,0,0,0,0-3.7L11.291,9.9A3.972,3.972,0,0,0,9.524,9.48H8.42a2.356,2.356,0,0,1-1.676-.694l-.71-.71a11.894,11.894,0,0,1,6.3-5.69ZM5.37,9.648l.256.256A3.925,3.925,0,0,0,8.419,11.06h1.1a2.375,2.375,0,0,1,1.06.25l1.786.893a.488.488,0,0,1,0,.874l-1.857.928a1.869,1.869,0,0,0,.529,3.515l3.028.5a.181.181,0,0,1,.013.353l-1.5.377a2.366,2.366,0,0,0-1.725,1.725L10.523,21.8a.787.787,0,0,1-.574.574l-.867.216A11.794,11.794,0,0,1,5.37,9.648ZM1.7,15.385A14.906,14.906,0,0,1,4.054,5.172a.938.938,0,0,1,1.414-.167l.389.389a13.4,13.4,0,0,0,18.771,18.77l.389.389a.9.9,0,0,1,.265.639.933.933,0,0,1-.431.773,14.906,14.906,0,0,1-10.216,2.352A15.1,15.1,0,0,1,1.7,15.385ZM15.8,29.994c.253.011.5.024.757.024.276,0,.549-.017.823-.03V31.6H15.8ZM12.64,33.18h7.9v1.58h-7.9Zm-11.06,7.9H3.16v1.58H1.58Zm3.16,0H6.32v1.58H4.74Zm0-1.58V36.34H6.32V39.5Zm1.58,4.74v1.58H4.74v-1.58Zm1.58,0H9.48v1.58H7.9Zm0-1.58v-1.58H9.48v1.58Zm0-3.16V36.34H9.48V39.5ZM1.58,36.34H3.16V39.5H1.58Zm0,7.9H3.16v1.58H1.58Zm14.22,0v1.58H11.06v-1.58h3.16v-1.58H11.06v-1.58H15.8V39.5H11.06V36.34H23.7V39.5H17.38v1.58h9.9a4.889,4.889,0,0,1,4.145,2.281,6.147,6.147,0,0,0-2.846-.7H17.38A1.582,1.582,0,0,0,15.8,44.241Zm31.6,1.58H35.223l-.694.694a3.025,3.025,0,0,1-4.277,0l-.694-.694H17.38v-1.58h11.2a4.572,4.572,0,0,1,3.256,1.349l.559.559.559-.559A4.573,4.573,0,0,1,36.2,44.241H47.4Z" transform="translate(0)"/>
      </g>
    </g>
  </g>
</svg>
