<svg xmlns="http://www.w3.org/2000/svg" xmlns:xlink="http://www.w3.org/1999/xlink" width="100.101" height="100.101" viewBox="0 0 100.101 100.101">
  <defs>
    <filter id="Trazado_874925" x="0" y="0" width="100.101" height="100.101" filterUnits="userSpaceOnUse">
      <feOffset dy="3" input="SourceAlpha"/>
      <feGaussianBlur stdDeviation="3" result="blur"/>
      <feFlood flood-opacity="0.161"/>
      <feComposite operator="in" in2="blur"/>
      <feComposite in="SourceGraphic"/>
    </filter>
  </defs>
  <g id="Grupo_1112428" data-name="Grupo 1112428" transform="translate(-799.5 -2511.157)">
    <g id="Grupo_1111316" data-name="Grupo 1111316" transform="translate(808.5 2517.157)">
      <g id="Grupo_1109835" data-name="Grupo 1109835" transform="translate(0 0)">
        <g id="Grupo_1107913" data-name="Grupo 1107913" transform="translate(0 0)">
          <g transform="matrix(1, 0, 0, 1, -9, -6)" filter="url(#Trazado_874925)">
            <g id="Trazado_874925-2" data-name="Trazado 874925" transform="translate(9 6)" fill="#9ad354" opacity="0.859">
              <path d="M 41.05037307739258 80.60108947753906 C 35.71044540405273 80.60108947753906 30.53104400634766 79.55559539794922 25.65604400634766 77.49363708496094 C 20.94658470153809 75.50172424316406 16.71676063537598 72.6497802734375 13.08403205871582 69.01707458496094 C 9.451313972473145 65.38435363769531 6.599372863769531 61.15452194213867 4.607443809509277 56.44508743286133 C 2.545490741729736 51.57008743286133 1.499996662139893 46.39069747924805 1.499996662139893 41.05078125 C 1.499996662139893 35.71039199829102 2.545490741729736 30.53100395202637 4.607443809509277 25.65600395202637 C 6.599372863769531 20.94656753540039 9.451313972473145 16.71673202514648 13.08403205871582 13.08401489257812 C 16.71676063537598 9.451309204101562 20.94658470153809 6.599368095397949 25.65604400634766 4.607450485229492 C 30.53104400634766 2.54549765586853 35.71044540405273 1.500003576278687 41.05037307739258 1.500003576278687 C 46.39030075073242 1.500003576278687 51.5697021484375 2.54549765586853 56.4447021484375 4.607450485229492 C 61.15415954589844 6.599368095397949 65.38398742675781 9.451309204101562 69.01671600341797 13.08401489257812 C 72.64942932128906 16.71673202514648 75.50137329101562 20.94656753540039 77.49330139160156 25.65600395202637 C 79.55525207519531 30.53100395202637 80.60074615478516 35.71039199829102 80.60074615478516 41.05030822753906 C 80.60074615478516 46.39069747924805 79.55525207519531 51.57008743286133 77.49330139160156 56.44508743286133 C 75.50137329101562 61.15452194213867 72.64942932128906 65.38435363769531 69.01671600341797 69.01707458496094 C 65.38398742675781 72.6497802734375 61.15415954589844 75.50172424316406 56.4447021484375 77.49363708496094 C 51.5697021484375 79.55559539794922 46.39030075073242 80.60108947753906 41.05037307739258 80.60108947753906 Z" stroke="none"/>
              <path d="M 41.05037307739258 3 C 35.91228103637695 3 30.92948150634766 4.005622863769531 26.24037170410156 5.988945007324219 C 21.70972061157227 7.905250549316406 17.64014434814453 10.64923858642578 14.14469146728516 14.14467620849609 C 10.64925384521484 17.64012145996094 7.905250549316406 21.70967864990234 5.988960266113281 26.24032974243164 C 4.005622863769531 30.92942428588867 3 35.91222381591797 3 41.05078506469727 C 3 46.18886566162109 4.005622863769531 51.17165374755859 5.988960266113281 55.86075592041016 C 7.905250549316406 60.39139556884766 10.64925384521484 64.46096801757812 14.14469146728516 67.95641326904297 C 17.64014434814453 71.45185089111328 21.70972061157227 74.19583892822266 26.24037170410156 76.11214447021484 C 30.92948150634766 78.09546661376953 35.91228103637695 79.10108947753906 41.05037307739258 79.10108947753906 C 46.1884651184082 79.10108947753906 51.1712646484375 78.09546661376953 55.86037445068359 76.11214447021484 C 60.39102554321289 74.19583892822266 64.46060180664062 71.45185089111328 67.9560546875 67.95641326904297 C 71.45149230957031 64.46096801757812 74.19549560546875 60.39139556884766 76.11178588867188 55.86075592041016 C 78.09512329101562 51.17165374755859 79.10074615478516 46.18886566162109 79.10074615478516 41.0503044128418 C 79.10074615478516 35.91222381591797 78.09512329101562 30.92942428588867 76.11178588867188 26.24032974243164 C 74.19549560546875 21.70967864990234 71.45149230957031 17.64012145996094 67.9560546875 14.14467620849609 C 64.46060180664062 10.64923858642578 60.39102554321289 7.905250549316406 55.86037445068359 5.988945007324219 C 51.1712646484375 4.005622863769531 46.1884651184082 3 41.05037307739258 3 M 41.05037307739258 0 C 63.72186660766602 0 82.10074615478516 18.37883758544922 82.10074615478516 41.0503044128418 L 82.10074615478516 41.05078506469727 C 82.10074615478516 63.72223663330078 63.72186660766602 82.10108947753906 41.05037307739258 82.10108947753906 C 18.37887954711914 82.10108947753906 0 63.72223663330078 0 41.05078506469727 L 0 41.0503044128418 C 0 18.37883758544922 18.37887954711914 0 41.05037307739258 0 Z" stroke="none" fill="#fff"/>
            </g>
          </g>
          <g id="Trazado_874923" data-name="Trazado 874923" transform="translate(0 0)" fill="none">
            <path d="M41.05,0A41.05,41.05,0,0,1,82.1,41.05h0a41.05,41.05,0,0,1-82.1,0H0A41.05,41.05,0,0,1,41.05,0Z" stroke="none"/>
            <path d="M 41.05037307739258 3 C 35.91228103637695 3 30.92948150634766 4.005622863769531 26.24037170410156 5.988945007324219 C 21.70972061157227 7.905250549316406 17.64014434814453 10.64923858642578 14.14469146728516 14.14467620849609 C 10.64925384521484 17.64012145996094 7.905250549316406 21.70967864990234 5.988960266113281 26.24032974243164 C 4.005622863769531 30.92942428588867 3 35.91222381591797 3 41.05078506469727 C 3 46.18886566162109 4.005622863769531 51.17165374755859 5.988960266113281 55.86075592041016 C 7.905250549316406 60.39139556884766 10.64925384521484 64.46096801757812 14.14469146728516 67.95641326904297 C 17.64014434814453 71.45185089111328 21.70972061157227 74.19583892822266 26.24037170410156 76.11214447021484 C 30.92948150634766 78.09546661376953 35.91228103637695 79.10108947753906 41.05037307739258 79.10108947753906 C 46.1884651184082 79.10108947753906 51.1712646484375 78.09546661376953 55.86037445068359 76.11214447021484 C 60.39102554321289 74.19583892822266 64.46060180664062 71.45185089111328 67.9560546875 67.95641326904297 C 71.45149230957031 64.46096801757812 74.19549560546875 60.39139556884766 76.11178588867188 55.86075592041016 C 78.09512329101562 51.17165374755859 79.10074615478516 46.18886566162109 79.10074615478516 41.0503044128418 C 79.10074615478516 35.91222381591797 78.09512329101562 30.92942428588867 76.11178588867188 26.24032974243164 C 74.19549560546875 21.70967864990234 71.45149230957031 17.64012145996094 67.9560546875 14.14467620849609 C 64.46060180664062 10.64923858642578 60.39102554321289 7.905250549316406 55.86037445068359 5.988945007324219 C 51.1712646484375 4.005622863769531 46.1884651184082 3 41.05037307739258 3 M 41.05037307739258 0 C 63.72186660766602 0 82.10074615478516 18.37883758544922 82.10074615478516 41.0503044128418 L 82.10074615478516 41.05078506469727 C 82.10074615478516 63.72223663330078 63.72186660766602 82.10108947753906 41.05037307739258 82.10108947753906 C 18.37887954711914 82.10108947753906 0 63.72223663330078 0 41.05078506469727 L 0 41.0503044128418 C 0 18.37883758544922 18.37887954711914 0 41.05037307739258 0 Z" stroke="none" fill="#fff"/>
          </g>
        </g>
      </g>
    </g>
    <g id="participant_18465578" transform="translate(790.821 2521.298)">
      <path id="Trazado_1049577" data-name="Trazado 1049577" d="M412.393,342.972a2.841,2.841,0,1,1,2.839-2.843A2.845,2.845,0,0,1,412.393,342.972Z" transform="translate(-331.308 -288.798)" fill="#45dea6"/>
      <path id="Trazado_1049578" data-name="Trazado 1049578" d="M273.143,289.172H259.584l-.014-.014v-3.21c0-1.946,1.876-3.528,4.183-3.528h5.219c2.3,0,4.18,1.582,4.18,3.528v3.213Z" transform="translate(-199.851 -240.705)" fill="#ffe177"/>
      <path id="Trazado_1049579" data-name="Trazado 1049579" d="M412.393,134a2.841,2.841,0,1,1,2.839-2.843A2.845,2.845,0,0,1,412.393,134Z" transform="translate(-331.308 -105.636)" fill="#ffe177"/>
      <path id="Trazado_1049580" data-name="Trazado 1049580" d="M147.134,289.172H133.571l-.011-.014v-3.21c0-1.946,1.876-3.528,4.183-3.528h5.219c2.3,0,4.18,1.582,4.18,3.528v3.213Z" transform="translate(-89.403 -240.705)" fill="#45dea6"/>
      <path id="Trazado_1049581" data-name="Trazado 1049581" d="M50.4,134a2.841,2.841,0,1,1,2.839-2.843A2.845,2.845,0,0,1,50.4,134Z" transform="translate(-14.024 -105.636)" fill="#a69aa6"/>
      <path id="Trazado_1049582" data-name="Trazado 1049582" d="M50.4,342.972a2.841,2.841,0,1,1,2.839-2.843A2.845,2.845,0,0,1,50.4,342.972Z" transform="translate(-14.024 -288.798)" fill="#c76d33"/>
      <path id="Trazado_1049583" data-name="Trazado 1049583" d="M231.4,29.482a2.841,2.841,0,1,1,2.839-2.843A2.845,2.845,0,0,1,231.4,29.482Z" transform="translate(-172.671 -14.024)" fill="#6ac8eb"/>
      <path id="Trazado_1049584" data-name="Trazado 1049584" d="M225.863,127.2a3.62,3.62,0,1,1,3.62-3.62A3.623,3.623,0,0,1,225.863,127.2Z" transform="translate(-167.131 -98.308)" fill="#ffddcf"/>
      <path id="Trazado_1049585" data-name="Trazado 1049585" d="M288.87,215.02a3.62,3.62,0,1,1,3.62-3.62A3.624,3.624,0,0,1,288.87,215.02Z" transform="translate(-222.359 -175.283)" fill="#ffddcf"/>
      <path id="Trazado_1049586" data-name="Trazado 1049586" d="M231.4,447.482a2.841,2.841,0,1,1,2.839-2.839A2.844,2.844,0,0,1,231.4,447.482Z" transform="translate(-172.671 -380.401)" fill="#f85647"/>
      <path id="Trazado_1049587" data-name="Trazado 1049587" d="M162.87,215.02a3.62,3.62,0,1,1,3.62-3.62A3.624,3.624,0,0,1,162.87,215.02Z" transform="translate(-111.92 -175.283)" fill="#ffddcf"/>
      <path id="Trazado_1049588" data-name="Trazado 1049588" d="M219.977,201.353H215.2a5.592,5.592,0,0,0-2.4-6.232,4.694,4.694,0,0,1,2.181-.521H220.2a4.69,4.69,0,0,1,2.177.521,5.592,5.592,0,0,0-2.4,6.232Z" transform="translate(-158.857 -163.73)" fill="#6ac8eb"/>
      <g id="Grupo_1188286" data-name="Grupo 1188286" transform="translate(31.56 7.8)">
        <path id="Trazado_1049589" data-name="Trazado 1049589" d="M58.732,69.059a4.827,4.827,0,0,1-4.82-4.816,4.442,4.442,0,0,1,.032-.55L39.248,55.2a4.818,4.818,0,1,1-4.324-8.465V30.12a4.819,4.819,0,1,1,5.045-7.806l14.184-8.192a4.818,4.818,0,1,1,9.395-1.505,4.73,4.73,0,0,1-.242,1.505l14.189,8.192a4.817,4.817,0,1,1,5.041,7.806V46.738a4.818,4.818,0,1,1-4.32,8.465l-14.7,8.489a4.692,4.692,0,0,1,.032.55A4.822,4.822,0,0,1,58.732,69.059Zm-2.843-4.818A2.841,2.841,0,1,0,58.732,61.4,2.844,2.844,0,0,0,55.889,64.242Zm2.843-4.82a4.824,4.824,0,0,1,4.141,2.36l14.01-8.09a4.766,4.766,0,0,1-.62-2.36,4.827,4.827,0,0,1,4.3-4.789V30.316a4.827,4.827,0,0,1-4.3-4.793,4.712,4.712,0,0,1,.242-1.5L62.316,15.834a4.815,4.815,0,0,1-7.174,0L40.957,24.025A4.823,4.823,0,0,1,36.9,30.316V46.542a4.82,4.82,0,0,1,3.679,7.149l14.01,8.09a4.822,4.822,0,0,1,4.143-2.36Zm19.509-8.09a2.841,2.841,0,1,0,2.843-2.839A2.845,2.845,0,0,0,78.242,51.331Zm-44.7,0a2.841,2.841,0,1,0,2.843-2.839A2.845,2.845,0,0,0,33.537,51.331Zm44.7-25.808a2.841,2.841,0,1,0,2.843-2.839A2.845,2.845,0,0,0,78.242,25.523Zm-44.7,0a2.841,2.841,0,1,0,2.843-2.839A2.845,2.845,0,0,0,33.537,25.523ZM55.889,12.616a2.841,2.841,0,1,0,2.843-2.839A2.845,2.845,0,0,0,55.889,12.616Z" transform="translate(-31.56 -7.8)" fill="#0b0b0a"/>
        <path id="Trazado_1049590" data-name="Trazado 1049590" d="M148.662,134.712H135.1a1.975,1.975,0,0,1-1-.273,2,2,0,0,1-1,.273H119.538a1.993,1.993,0,0,1-1.988-1.992v-3.21a5.67,5.67,0,0,1,4.652-5.339,5.594,5.594,0,0,1,4.117-9.386,5.2,5.2,0,0,1,.752.053,6.347,6.347,0,0,1,2.91-1.513,5.6,5.6,0,1,1,8.237,0,6.324,6.324,0,0,1,2.91,1.513,5.432,5.432,0,0,1,.752-.053A5.594,5.594,0,0,1,146,124.172a5.669,5.669,0,0,1,4.652,5.339v3.21A1.993,1.993,0,0,1,148.662,134.712Zm-13.573-1.992.014.014h13.559l.01-.01v-3.213c0-1.946-1.876-3.528-4.18-3.528h-5.219c-2.307,0-4.183,1.582-4.183,3.528Zm-15.561,0,.011.014H133.1l.01-.01v-3.213c0-1.946-1.876-3.528-4.18-3.528h-5.219c-2.307,0-4.183,1.582-4.183,3.528Zm10.909-8.549a6.2,6.2,0,0,1,3.665,2.349,6.191,6.191,0,0,1,3.662-2.349c-.091-.1-.175-.2-.259-.305H130.7c-.082.1-.169.206-.259.305Zm7.824-3.788a3.62,3.62,0,1,0,3.62-3.62A3.624,3.624,0,0,0,138.261,120.384Zm-15.561,0a3.62,3.62,0,1,0,3.62-3.62A3.624,3.624,0,0,0,122.7,120.384Zm9.012,1.505h4.778a5.592,5.592,0,0,1,2.4-6.232,4.69,4.69,0,0,0-2.177-.521h-5.217a4.694,4.694,0,0,0-2.181.521,5.6,5.6,0,0,1,2.6,4.726A5.665,5.665,0,0,1,131.712,121.889Zm-1.233-12.351a3.622,3.622,0,1,0,3.623-3.62A3.623,3.623,0,0,0,130.479,109.538Z" transform="translate(-106.93 -92.067)" fill="#0b0b0a"/>
      </g>
    </g>
  </g>
</svg>
