<svg xmlns="http://www.w3.org/2000/svg" xmlns:xlink="http://www.w3.org/1999/xlink" width="100.101" height="100.101" viewBox="0 0 100.101 100.101">
  <defs>
    <filter id="Trazado_874925" x="0" y="0" width="100.101" height="100.101" filterUnits="userSpaceOnUse">
      <feOffset dy="3" input="SourceAlpha"/>
      <feGaussianBlur stdDeviation="3" result="blur"/>
      <feFlood flood-opacity="0.161"/>
      <feComposite operator="in" in2="blur"/>
      <feComposite in="SourceGraphic"/>
    </filter>
  </defs>
  <g id="Grupo_1112429" data-name="Grupo 1112429" transform="translate(-799.5 -2511.157)">
    <g id="Grupo_1111316" data-name="Grupo 1111316" transform="translate(808.5 2517.157)">
      <g id="Grupo_1109835" data-name="Grupo 1109835" transform="translate(0 0)">
        <g id="Grupo_1107913" data-name="Grupo 1107913" transform="translate(0 0)">
          <g transform="matrix(1, 0, 0, 1, -9, -6)" filter="url(#Trazado_874925)">
            <g id="Trazado_874925-2" data-name="Trazado 874925" transform="translate(9 6)" fill="#9ad354" opacity="0.859">
              <path d="M 41.05037307739258 80.60108947753906 C 35.71044540405273 80.60108947753906 30.53104400634766 79.55559539794922 25.65604400634766 77.49363708496094 C 20.94658470153809 75.50172424316406 16.71676063537598 72.6497802734375 13.08403205871582 69.01707458496094 C 9.451313972473145 65.38435363769531 6.599372863769531 61.15452194213867 4.607443809509277 56.44508743286133 C 2.545490741729736 51.57008743286133 1.499996662139893 46.39069747924805 1.499996662139893 41.05078125 C 1.499996662139893 35.71039199829102 2.545490741729736 30.53100395202637 4.607443809509277 25.65600395202637 C 6.599372863769531 20.94656753540039 9.451313972473145 16.71673202514648 13.08403205871582 13.08401489257812 C 16.71676063537598 9.451309204101562 20.94658470153809 6.599368095397949 25.65604400634766 4.607450485229492 C 30.53104400634766 2.54549765586853 35.71044540405273 1.500003576278687 41.05037307739258 1.500003576278687 C 46.39030075073242 1.500003576278687 51.5697021484375 2.54549765586853 56.4447021484375 4.607450485229492 C 61.15415954589844 6.599368095397949 65.38398742675781 9.451309204101562 69.01671600341797 13.08401489257812 C 72.64942932128906 16.71673202514648 75.50137329101562 20.94656753540039 77.49330139160156 25.65600395202637 C 79.55525207519531 30.53100395202637 80.60074615478516 35.71039199829102 80.60074615478516 41.05030822753906 C 80.60074615478516 46.39069747924805 79.55525207519531 51.57008743286133 77.49330139160156 56.44508743286133 C 75.50137329101562 61.15452194213867 72.64942932128906 65.38435363769531 69.01671600341797 69.01707458496094 C 65.38398742675781 72.6497802734375 61.15415954589844 75.50172424316406 56.4447021484375 77.49363708496094 C 51.5697021484375 79.55559539794922 46.39030075073242 80.60108947753906 41.05037307739258 80.60108947753906 Z" stroke="none"/>
              <path d="M 41.05037307739258 3 C 35.91228103637695 3 30.92948150634766 4.005622863769531 26.24037170410156 5.988945007324219 C 21.70972061157227 7.905250549316406 17.64014434814453 10.64923858642578 14.14469146728516 14.14467620849609 C 10.64925384521484 17.64012145996094 7.905250549316406 21.70967864990234 5.988960266113281 26.24032974243164 C 4.005622863769531 30.92942428588867 3 35.91222381591797 3 41.05078506469727 C 3 46.18886566162109 4.005622863769531 51.17165374755859 5.988960266113281 55.86075592041016 C 7.905250549316406 60.39139556884766 10.64925384521484 64.46096801757812 14.14469146728516 67.95641326904297 C 17.64014434814453 71.45185089111328 21.70972061157227 74.19583892822266 26.24037170410156 76.11214447021484 C 30.92948150634766 78.09546661376953 35.91228103637695 79.10108947753906 41.05037307739258 79.10108947753906 C 46.1884651184082 79.10108947753906 51.1712646484375 78.09546661376953 55.86037445068359 76.11214447021484 C 60.39102554321289 74.19583892822266 64.46060180664062 71.45185089111328 67.9560546875 67.95641326904297 C 71.45149230957031 64.46096801757812 74.19549560546875 60.39139556884766 76.11178588867188 55.86075592041016 C 78.09512329101562 51.17165374755859 79.10074615478516 46.18886566162109 79.10074615478516 41.0503044128418 C 79.10074615478516 35.91222381591797 78.09512329101562 30.92942428588867 76.11178588867188 26.24032974243164 C 74.19549560546875 21.70967864990234 71.45149230957031 17.64012145996094 67.9560546875 14.14467620849609 C 64.46060180664062 10.64923858642578 60.39102554321289 7.905250549316406 55.86037445068359 5.988945007324219 C 51.1712646484375 4.005622863769531 46.1884651184082 3 41.05037307739258 3 M 41.05037307739258 0 C 63.72186660766602 0 82.10074615478516 18.37883758544922 82.10074615478516 41.0503044128418 L 82.10074615478516 41.05078506469727 C 82.10074615478516 63.72223663330078 63.72186660766602 82.10108947753906 41.05037307739258 82.10108947753906 C 18.37887954711914 82.10108947753906 0 63.72223663330078 0 41.05078506469727 L 0 41.0503044128418 C 0 18.37883758544922 18.37887954711914 0 41.05037307739258 0 Z" stroke="none" fill="#fff"/>
            </g>
          </g>
          <g id="Trazado_874923" data-name="Trazado 874923" transform="translate(0 0)" fill="none">
            <path d="M41.05,0A41.05,41.05,0,0,1,82.1,41.05h0a41.05,41.05,0,0,1-82.1,0H0A41.05,41.05,0,0,1,41.05,0Z" stroke="none"/>
            <path d="M 41.05037307739258 3 C 35.91228103637695 3 30.92948150634766 4.005622863769531 26.24037170410156 5.988945007324219 C 21.70972061157227 7.905250549316406 17.64014434814453 10.64923858642578 14.14469146728516 14.14467620849609 C 10.64925384521484 17.64012145996094 7.905250549316406 21.70967864990234 5.988960266113281 26.24032974243164 C 4.005622863769531 30.92942428588867 3 35.91222381591797 3 41.05078506469727 C 3 46.18886566162109 4.005622863769531 51.17165374755859 5.988960266113281 55.86075592041016 C 7.905250549316406 60.39139556884766 10.64925384521484 64.46096801757812 14.14469146728516 67.95641326904297 C 17.64014434814453 71.45185089111328 21.70972061157227 74.19583892822266 26.24037170410156 76.11214447021484 C 30.92948150634766 78.09546661376953 35.91228103637695 79.10108947753906 41.05037307739258 79.10108947753906 C 46.1884651184082 79.10108947753906 51.1712646484375 78.09546661376953 55.86037445068359 76.11214447021484 C 60.39102554321289 74.19583892822266 64.46060180664062 71.45185089111328 67.9560546875 67.95641326904297 C 71.45149230957031 64.46096801757812 74.19549560546875 60.39139556884766 76.11178588867188 55.86075592041016 C 78.09512329101562 51.17165374755859 79.10074615478516 46.18886566162109 79.10074615478516 41.0503044128418 C 79.10074615478516 35.91222381591797 78.09512329101562 30.92942428588867 76.11178588867188 26.24032974243164 C 74.19549560546875 21.70967864990234 71.45149230957031 17.64012145996094 67.9560546875 14.14467620849609 C 64.46060180664062 10.64923858642578 60.39102554321289 7.905250549316406 55.86037445068359 5.988945007324219 C 51.1712646484375 4.005622863769531 46.1884651184082 3 41.05037307739258 3 M 41.05037307739258 0 C 63.72186660766602 0 82.10074615478516 18.37883758544922 82.10074615478516 41.0503044128418 L 82.10074615478516 41.05078506469727 C 82.10074615478516 63.72223663330078 63.72186660766602 82.10108947753906 41.05037307739258 82.10108947753906 C 18.37887954711914 82.10108947753906 0 63.72223663330078 0 41.05078506469727 L 0 41.0503044128418 C 0 18.37883758544922 18.37887954711914 0 41.05037307739258 0 Z" stroke="none" fill="#fff"/>
          </g>
        </g>
      </g>
    </g>
    <g id="sustainability_9746693" transform="translate(767.649 2528.929)">
      <path id="Trazado_1049591" data-name="Trazado 1049591" d="M164.321,304.367c-.132.113-.261.225-.385.337l-14.917,11.744a4.508,4.508,0,0,1-4.178.788l-4.053-1.018a4.565,4.565,0,0,0-3.508.494l-1.628.939-5.771-9.993,4.786-3.395a4.423,4.423,0,0,1,3.877-.925l10.169,2.645a2.534,2.534,0,0,1,1.888,1.776,2.3,2.3,0,0,1-.5,2.205,2.764,2.764,0,0,1-2.749.464l-6.1-1.586a.8.8,0,0,0-.4,1.554l6.1,1.585a4.2,4.2,0,0,0,4.3-.891,3.791,3.791,0,0,0,1.055-2.806l11.088-7.219a1.131,1.131,0,0,1,.851-.086,1.738,1.738,0,0,1,1.032.821c.615,1.067.229,1.551-.946,2.564Z" transform="translate(-65.288 -266.517)" fill="#fbbd80"/>
      <g id="Grupo_1188287" data-name="Grupo 1188287" transform="translate(57.071 6.969)">
        <path id="Trazado_1049592" data-name="Trazado 1049592" d="M255.093,99.033a6.231,6.231,0,0,1,5.282,5.282A6.231,6.231,0,0,1,255.093,99.033Z" transform="translate(-233.251 -94.676)" fill="#83c651" fill-rule="evenodd"/>
        <path id="Trazado_1049593" data-name="Trazado 1049593" d="M304.936,62.606a4.784,4.784,0,0,0-4.056,4.056A4.784,4.784,0,0,0,304.936,62.606Z" transform="translate(-273.801 -62.415)" fill="#83c651" fill-rule="evenodd"/>
        <path id="Trazado_1049594" data-name="Trazado 1049594" d="M265.884,60.934a4.784,4.784,0,0,1,4.056,4.056A4.787,4.787,0,0,1,265.884,60.934Z" transform="translate(-242.808 -60.934)" fill="#83c651" fill-rule="evenodd"/>
        <path id="Trazado_1049595" data-name="Trazado 1049595" d="M64.6,343.141l3.784-2.183a.962.962,0,0,1,1.309.352l8.39,14.534a.96.96,0,0,1-.349,1.309l-3.784,2.183a.96.96,0,0,1-1.309-.349l-8.39-14.537A.962.962,0,0,1,64.6,343.141Z" transform="translate(-64.12 -308.818)" fill="#685e68" fill-rule="evenodd"/>
        <path id="Trazado_1049596" data-name="Trazado 1049596" d="M306.162,100.674a6.238,6.238,0,0,0-5.282,5.282A6.227,6.227,0,0,0,306.162,100.674Z" transform="translate(-273.801 -96.129)" fill="#83c651" fill-rule="evenodd"/>
        <path id="Trazado_1049597" data-name="Trazado 1049597" d="M67.251,357.422l-1.511-2.612a.961.961,0,0,1,.352-1.309l-1.495.861a.961.961,0,0,0-.349,1.309l8.39,14.537a.96.96,0,0,0,1.309.349l1.495-.861a.961.961,0,0,1-1.309-.352l-1.447-2.5Z" transform="translate(-64.12 -320.039)" fill="#5e555e" fill-rule="evenodd"/>
        <path id="Trazado_1049598" data-name="Trazado 1049598" d="M259.188,105.367a6.006,6.006,0,0,1-3.829-4.539c-.215-.061-.435-.109-.663-.154a6.117,6.117,0,0,0,4.491,5.08Z" transform="translate(-232.9 -96.129)" fill="#76b249" fill-rule="evenodd"/>
        <path id="Trazado_1049599" data-name="Trazado 1049599" d="M268.689,66.617a4.583,4.583,0,0,1-2.727-3.269c-.173-.048-.355-.09-.544-.125a4.682,4.682,0,0,0,3.265,3.841v-.336C268.682,66.691,268.685,66.656,268.689,66.617Z" transform="translate(-242.394 -62.962)" fill="#76b249" fill-rule="evenodd"/>
        <path id="Trazado_1049600" data-name="Trazado 1049600" d="M307.737,66.617a4.575,4.575,0,0,0,2.728-3.269c.176-.048.355-.09.544-.125a4.679,4.679,0,0,1-3.262,3.841v-.336A.662.662,0,0,0,307.737,66.617Z" transform="translate(-279.874 -62.962)" fill="#76b249" fill-rule="evenodd"/>
        <path id="Trazado_1049601" data-name="Trazado 1049601" d="M307.821,105.367a6,6,0,0,0,3.826-4.539c.214-.061.435-.109.663-.154a6.119,6.119,0,0,1-4.488,5.08Z" transform="translate(-279.949 -96.129)" fill="#76b249" fill-rule="evenodd"/>
        <path id="Trazado_1049602" data-name="Trazado 1049602" d="M165.617,184.369a15.839,15.839,0,0,1-2.587-6.947h31.529a15.878,15.878,0,0,1-28.942,6.947Z" transform="translate(-151.717 -164.099)" fill="#3d9ae2" fill-rule="evenodd"/>
        <path id="Trazado_1049603" data-name="Trazado 1049603" d="M193.175,223.233l-.032-.023h0Zm-.336-.215a15.8,15.8,0,0,1-4.139-3.944,5.53,5.53,0,0,0,1.8-3.025,15.041,15.041,0,0,0,.944,1.6,16.056,16.056,0,0,0,2.42,2.83c-.377.839-.707,1.754-1.024,2.542Z" transform="translate(-174.452 -198.309)" fill="#378bcb" fill-rule="evenodd"/>
        <path id="Trazado_1049604" data-name="Trazado 1049604" d="M229.348,183.945c.6.311,3.541,2.455,3.688,2.413.666.634.871-1.463.6-2.062-1.153-2.573,2.452-2.987,1.54-5.221-.377-.922-1.335-1.29-1.886-1.658h12.43c-1.191.992-2.977,2.167-3.489,3.726-1.635,4.981-3.4,2.977-5.493,7.177a7.982,7.982,0,0,0-.448,2.836c-.051.01-.1.019-.15.026-.074.013-.151.026-.227.035-.048.01-.1.016-.147.022l-.227.029-.154.019c-.074.01-.15.016-.227.023-.048.006-.1.01-.147.016l-.23.019-.147.01c-.077.006-.154.01-.23.013-.051,0-.1.006-.15.006l-.231.01c-.048,0-.1,0-.147,0h-.234a1.18,1.18,0,0,1-.151,0c-.077,0-.154,0-.23,0-.054,0-.109,0-.163,0l-.217-.01c-.057,0-.112,0-.17-.006s-.141-.01-.215-.013c-.054-.006-.112-.01-.166-.013l-.215-.019c-.054-.006-.109-.01-.163-.016-.074-.006-.147-.016-.217-.026l-.163-.019-.221-.029c-.051-.006-.1-.016-.151-.022l-.237-.038c-.045-.006-.093-.016-.137-.023l-.25-.048c-.042-.006-.08-.016-.122-.023-.086-.019-.176-.035-.266-.054l-.1-.026c-.09-.019-.179-.038-.266-.061l-.1-.025c-.086-.023-.176-.045-.266-.07-.032-.006-.064-.016-.1-.026l-.266-.077-.1-.029c-.09-.026-.179-.054-.269-.083l-.09-.029c-.09-.029-.179-.061-.272-.09-.029-.01-.057-.023-.083-.032-.093-.032-.183-.064-.272-.1-.029-.01-.057-.019-.086-.032-.09-.032-.179-.067-.272-.106a.775.775,0,0,1-.077-.032l-.275-.115a.729.729,0,0,1-.074-.032q-.139-.057-.278-.125l-.067-.029-.278-.134a.6.6,0,0,1-.064-.032c-.1-.045-.189-.093-.285-.144a.381.381,0,0,1-.051-.026c-.1-.051-.2-.1-.291-.157-.013-.006-.029-.016-.045-.022-.1-.057-.2-.112-.295-.17l-.035-.019-.3-.182L225.2,189c-.1-.061-.2-.125-.3-.192h0c.976-2.423,2.046-6.092,4.459-4.859Z" transform="translate(-206.502 -164.095)" fill="#91dc5a" fill-rule="evenodd"/>
        <path id="Trazado_1049605" data-name="Trazado 1049605" d="M236.289,259.637c-.051.01-.1.019-.15.026-.074.013-.151.026-.227.035-.048.01-.1.016-.147.022l-.227.029-.154.019c-.074.01-.15.016-.227.023-.048.006-.1.01-.147.016l-.23.019-.147.01c-.077.006-.154.01-.23.013-.051,0-.1.006-.15.006l-.231.01c-.048,0-.1,0-.147,0h-.234a1.191,1.191,0,0,1-.15,0c-.077,0-.154,0-.23,0-.054,0-.109,0-.163,0l-.217-.01c-.057,0-.112,0-.17-.006s-.141-.01-.215-.013c-.054-.006-.112-.01-.166-.013l-.215-.019c-.054-.006-.109-.01-.163-.016-.074-.006-.147-.016-.217-.026l-.163-.019-.221-.029c-.051-.006-.1-.016-.15-.022l-.237-.038c-.045-.006-.093-.016-.137-.023l-.25-.048c-.042-.006-.08-.016-.122-.023-.086-.019-.176-.035-.266-.054l-.1-.026c-.09-.019-.179-.038-.266-.061l-.1-.025c-.086-.023-.176-.045-.266-.07-.032-.006-.064-.016-.1-.026l-.266-.077-.1-.029c-.09-.026-.179-.054-.269-.083l-.09-.029c-.09-.029-.179-.061-.272-.09-.029-.01-.057-.023-.083-.032-.093-.032-.183-.064-.272-.1-.029-.01-.057-.019-.086-.032-.09-.032-.179-.067-.272-.106a.771.771,0,0,1-.077-.032l-.275-.115a.734.734,0,0,1-.074-.032q-.139-.057-.278-.125l-.067-.029-.279-.134a.591.591,0,0,1-.064-.032c-.1-.045-.189-.093-.285-.144a.386.386,0,0,1-.051-.026c-.1-.051-.2-.1-.291-.157-.013-.006-.029-.016-.045-.022-.1-.057-.2-.112-.295-.17l-.035-.019-.051-.032-.006,0,0,0h0l0,0,0,0h-.006l0,0,0,0h0v0h-.006l0,0,0,0,0,0h0l0,0h0v0h-.006v0h0l-.006,0,0,0h0l0,0,0,0-.006,0h0v0h0l0,0h0l0,0h0l0,0,0,0h0l0,0h0l0,0,0,0,0,0h-.006v0h-.006v0h0v0h-.006l0,0,0,0h0l0,0,0,0h0l0,0h0v0h0l0,0h0l0,0h0l0,0,0,0h0l0,0h0l0,0,0,0,0,0h-.006v0h0l0,0,0,0h-.006l-.029-.023c-.1-.061-.2-.125-.3-.192h0l.045-.112,0,0v0l.042-.106,0-.006.013-.032.029-.077.006-.009.01-.029.029-.077.006-.013.01-.026.016-.038.016-.042.006-.016.006-.023.016-.038.016-.042.006-.019.01-.019.013-.038.016-.042.01-.023.006-.016.016-.042.016-.038.01-.026.006-.016.013-.038.016-.042.013-.029,0-.01.032-.083.013-.032,0-.006.016-.042c.026-.067.051-.134.08-.2l.048-.125v0l.048-.118,0,0c.016-.042.032-.08.048-.118l0-.01.045-.112.006-.013v0c.07-.163.137-.327.208-.487l0-.006c.013-.029.029-.061.042-.09a15.9,15.9,0,0,0,10.427,4.193v0Z" transform="translate(-206.499 -232.574)" fill="#83c651" fill-rule="evenodd"/>
        <path id="Trazado_1049606" data-name="Trazado 1049606" d="M168.917,178.011a6.436,6.436,0,0,0,.317-.589h-6.2a15.8,15.8,0,0,0,2.587,6.947c.112.17.23.333.349.5,2.27-1.815,1.8-4.955,2.951-6.854Z" transform="translate(-151.717 -164.099)" fill="#91dc5a" fill-rule="evenodd"/>
        <path id="Trazado_1049607" data-name="Trazado 1049607" d="M167.765,181.84a15.646,15.646,0,0,1-1.5-4.418H163.03a15.8,15.8,0,0,0,2.587,6.947s0,.007.006.01c.112.166.224.327.343.487a5.53,5.53,0,0,0,1.8-3.025Z" transform="translate(-151.717 -164.099)" fill="#83c651" fill-rule="evenodd"/>
      </g>
      <path id="Trazado_1049608" data-name="Trazado 1049608" d="M82.983,2.058a.806.806,0,0,0-.549-.579L77.628.034a.8.8,0,0,0-.463,1.537l1.876.564A17.008,17.008,0,0,0,67.722,14.528a.8.8,0,0,0,.607.96.777.777,0,0,0,.176.019.8.8,0,0,0,.782-.627A15.391,15.391,0,0,1,79.619,3.636l-1.579,1.53a.8.8,0,1,0,1.117,1.153l3.6-3.494A.8.8,0,0,0,82.983,2.058Zm18.258,6.958a.8.8,0,0,0-.955.613l-.437,2A16.948,16.948,0,0,0,86.4,1.452a.8.8,0,1,0-.2,1.593,15.337,15.337,0,0,1,12.13,9.113l-1.56-1.379a.8.8,0,1,0-1.063,1.2l3.759,3.325a.8.8,0,0,0,.532.2.784.784,0,0,0,.249-.04.8.8,0,0,0,.534-.591l1.073-4.9a.8.8,0,0,0-.613-.956ZM61.568,42.287l-.016-.023a.8.8,0,1,0-1.308.93l.016.023a.8.8,0,1,0,1.308-.93Zm0,0-.016-.023a.8.8,0,1,0-1.308.93l.016.023a.8.8,0,1,0,1.308-.93Zm39.8-7.8a3.347,3.347,0,0,0-2.008-1.569,2.73,2.73,0,0,0-2.085.256l-.035.022L86.6,40.119a4.146,4.146,0,0,0-2.771-2.205l-10.17-2.647a5.967,5.967,0,0,0-5.207,1.17l-4.665,3.308-.472-.817a1.78,1.78,0,0,0-2.427-.654l-3.837,2.217a1.779,1.779,0,0,0-.652,2.426l8.518,14.755a1.778,1.778,0,0,0,2.425.65L71.183,56.1a1.779,1.779,0,0,0,.65-2.425l-.667-1.154,1.629-.941a2.976,2.976,0,0,1,2.314-.325l4.052,1.017a6.153,6.153,0,0,0,5.563-1.083L99.662,39.431c.015-.011.029-.024.043-.037.12-.11.247-.22.375-.329.981-.846,2.625-2.263,1.287-4.583ZM70.379,54.715,66.537,56.93a.174.174,0,0,1-.232-.063L57.788,42.114a.172.172,0,0,1-.016-.129.17.17,0,0,1,.078-.1h0l3.836-2.215a.175.175,0,0,1,.086-.023.17.17,0,0,1,.149.086l.9,1.565.015.026,6.523,11.293a.174.174,0,0,0,.01.021l.009.014,1.059,1.835A.175.175,0,0,1,70.379,54.715ZM99.032,37.85c-.132.113-.261.225-.385.337L83.729,49.931a4.508,4.508,0,0,1-4.178.788L75.5,49.7a4.565,4.565,0,0,0-3.508.494l-1.628.939-5.771-9.993,4.786-3.395a4.423,4.423,0,0,1,3.877-.925l10.169,2.645a2.534,2.534,0,0,1,1.888,1.776,2.3,2.3,0,0,1-.5,2.205,2.764,2.764,0,0,1-2.749.464l-6.1-1.586a.8.8,0,0,0-.4,1.554l6.1,1.585a4.2,4.2,0,0,0,4.3-.891,3.791,3.791,0,0,0,1.054-2.806L98.1,34.55a1.132,1.132,0,0,1,.851-.086,1.737,1.737,0,0,1,1.032.821C100.593,36.353,100.207,36.836,99.032,37.85ZM61.552,42.264a.8.8,0,1,0-1.308.93l.016.023a.8.8,0,1,0,1.308-.93Zm39.3-22.58a.8.8,0,0,0-.6-.271h-15.2V17.3a7.012,7.012,0,0,0,5.35-5.842.8.8,0,0,0-.938-.938,7.179,7.179,0,0,0-4.41,2.468V11.7a5.54,5.54,0,0,0,4.1-4.587.8.8,0,0,0-.937-.939,5.593,5.593,0,0,0-3.965,2.65,5.527,5.527,0,0,0-3.972-2.65.8.8,0,0,0-.938.938,5.529,5.529,0,0,0,4.1,4.589v1.291a7.18,7.18,0,0,0-4.409-2.469.8.8,0,0,0-.938.938A7,7,0,0,0,83.448,17.3v2.117h-15.2a.8.8,0,0,0-.8.9,16.767,16.767,0,0,0,2.755,7.4h0a16.836,16.836,0,0,0,4.708,4.673.807.807,0,0,0,.151.1A16.975,16.975,0,0,0,87.05,34.964a.77.77,0,0,0,.17-.029,16.913,16.913,0,0,0,13.831-14.622.8.8,0,0,0-.2-.629Zm-12.4-7.219a5.182,5.182,0,0,1-3,3A5.182,5.182,0,0,1,88.453,12.465Zm-1.342-4.25a3.648,3.648,0,0,1-1.565,1.563,3.63,3.63,0,0,1,1.565-1.563Zm-5.719,0a3.634,3.634,0,0,1,1.563,1.563,3.64,3.64,0,0,1-1.563-1.563Zm-1.342,4.25a5.188,5.188,0,0,1,3,3A5.175,5.175,0,0,1,80.051,12.465ZM69.177,21.019h4.042a12.5,12.5,0,0,0-.65,2.254,7.86,7.86,0,0,1-1.228,3.246A15.14,15.14,0,0,1,69.177,21.019Zm5.876,9.516A15.227,15.227,0,0,1,72.3,27.863a8.545,8.545,0,0,0,1.832-4.242,8.234,8.234,0,0,1,.772-2.39c.042-.072.083-.142.124-.212h8.7l.221.129a2.487,2.487,0,0,1,1.18,1.055c.231.567.033.852-.638,1.584a3.133,3.133,0,0,0-.916,3.737,2.318,2.318,0,0,1,.032.8c-.366-.239-.909-.613-1.344-.913-1-.692-1.637-1.123-1.943-1.279a2.565,2.565,0,0,0-2.149-.182c-1.545.591-2.386,2.693-3.117,4.589Zm11.685.392a6.02,6.02,0,0,0-.49,2.469c0,.026,0,.05,0,.075a15.455,15.455,0,0,1-9.826-2.021c.027-.071.055-.141.082-.213.56-1.454,1.328-3.444,2.241-3.793a.977.977,0,0,1,.845.112c.236.12,1.083.7,1.764,1.171.449.31.914.63,1.271.865A5.207,5.207,0,0,0,83.3,30a1.038,1.038,0,0,0,1.227.022c.844-.6.794-2.522.51-3.153-.377-.845-.079-1.224.634-2,.664-.725,1.576-1.718.94-3.276a2.841,2.841,0,0,0-.319-.576h8.023a6.55,6.55,0,0,0-2.047,2.73c-.815,2.485-1.578,3.019-2.545,3.7a8,8,0,0,0-2.987,3.483Zm6.055.065a15.343,15.343,0,0,1-4.925,2.178,4,4,0,0,1,.308-1.528,6.481,6.481,0,0,1,2.469-2.882c1.066-.746,2.168-1.515,3.151-4.511.355-1.081,1.553-2.03,2.61-2.867.158-.125.308-.244.455-.363H99.32a15.316,15.316,0,0,1-6.527,9.973Z" transform="translate(0 0)"/>
    </g>
  </g>
</svg>
